<?xml version="1.0" encoding="utf-8" standalone="no"?>
<!DOCTYPE svg PUBLIC "-//W3C//DTD SVG 1.1//EN"
  "http://www.w3.org/Graphics/SVG/1.1/DTD/svg11.dtd">
<svg xmlns:xlink="http://www.w3.org/1999/xlink" width="497.041406pt" height="221.304375pt" viewBox="0 0 497.041406 221.304375" xmlns="http://www.w3.org/2000/svg" version="1.1">
 <metadata>
  <rdf:RDF xmlns:dc="http://purl.org/dc/elements/1.1/" xmlns:cc="http://creativecommons.org/ns#" xmlns:rdf="http://www.w3.org/1999/02/22-rdf-syntax-ns#">
   <cc:Work>
    <dc:type rdf:resource="http://purl.org/dc/dcmitype/StillImage"/>
    <dc:date>2026-07-22T16:24:48.407006</dc:date>
    <dc:format>image/svg+xml</dc:format>
    <dc:creator>
     <cc:Agent>
      <dc:title>Matplotlib v3.9.2, https://matplotlib.org/</dc:title>
     </cc:Agent>
    </dc:creator>
   </cc:Work>
  </rdf:RDF>
 </metadata>
 <defs>
  <style type="text/css">*{stroke-linejoin: round; stroke-linecap: butt}</style>
 </defs>
 <g id="figure_1">
  <g id="patch_1">
   <path d="M 0 221.304375 
L 497.041406 221.304375 
L 497.041406 0 
L 0 0 
z
" style="fill: #ffffff"/>
  </g>
  <g id="axes_1">
   <g id="patch_2">
    <path d="M 50.233906 198.873594 
L 249.707656 198.873594 
L 249.707656 21.073594 
L 50.233906 21.073594 
z
" style="fill: #ffffff"/>
   </g>
   <g id="PolyCollection_1">
    <defs>
     <path id="m85f6b977de" d="M 89.708388 -57.200056 
L 89.339992 -57.200056 
L 89.284727 -57.888198 
L 89.215313 -58.57634 
L 89.129314 -59.264481 
L 89.025059 -59.952623 
L 88.902175 -60.640765 
L 88.761944 -61.328906 
L 88.607394 -62.017048 
L 88.443121 -62.70519 
L 88.274877 -63.393331 
L 88.108977 -64.081473 
L 87.951516 -64.769615 
L 87.8074 -65.457756 
L 87.679277 -66.145898 
L 87.566598 -66.83404 
L 87.465123 -67.522181 
L 87.367156 -68.210323 
L 87.262534 -68.898465 
L 87.140063 -69.586606 
L 86.988853 -70.274748 
L 86.798994 -70.96289 
L 86.561357 -71.651031 
L 86.26672 -72.339173 
L 85.90484 -73.027315 
L 85.464145 -73.715456 
L 84.932476 -74.403598 
L 84.298861 -75.09174 
L 83.555863 -75.779881 
L 82.701911 -76.468023 
L 81.743042 -77.156165 
L 80.693752 -77.844306 
L 79.576897 -78.532448 
L 78.422803 -79.22059 
L 77.26785 -79.908731 
L 76.152795 -80.596873 
L 75.120978 -81.285015 
L 74.216224 -81.973157 
L 73.480091 -82.661298 
L 72.948051 -83.34944 
L 72.644606 -84.037582 
L 72.577891 -84.725723 
L 72.734978 -85.413865 
L 73.079399 -86.102007 
L 73.552134 -86.790148 
L 74.076585 -87.47829 
L 74.566923 -88.166432 
L 74.938214 -88.854573 
L 75.11626 -89.542715 
L 75.045281 -90.230857 
L 74.692342 -90.918998 
L 74.048337 -91.60714 
L 73.126113 -92.295282 
L 71.956676 -92.983423 
L 70.584584 -93.671565 
L 69.063559 -94.359707 
L 67.453169 -95.047848 
L 65.816998 -95.73599 
L 64.222054 -96.424132 
L 62.738458 -97.112273 
L 61.43813 -97.800415 
L 60.3915 -98.488557 
L 59.662218 -99.176698 
L 59.300895 -99.86484 
L 59.339499 -100.552982 
L 59.787827 -101.241123 
L 60.632511 -101.929265 
L 61.838032 -102.617407 
L 63.348675 -103.305548 
L 65.090643 -103.99369 
L 66.974423 -104.681832 
L 68.898252 -105.369973 
L 70.753797 -106.058115 
L 72.434512 -106.746257 
L 73.846046 -107.434398 
L 74.916917 -108.12254 
L 75.607204 -108.810682 
L 75.913342 -109.498824 
L 75.868126 -110.186965 
L 75.536203 -110.875107 
L 75.006144 -111.563249 
L 74.380345 -112.25139 
L 73.763806 -112.939532 
L 73.252672 -113.627674 
L 72.923642 -114.315815 
L 72.825915 -115.003957 
L 72.977664 -115.692099 
L 73.368458 -116.38024 
L 73.967485 -117.068382 
L 74.735281 -117.756524 
L 75.635152 -118.444665 
L 76.640375 -119.132807 
L 77.734979 -119.820949 
L 78.908574 -120.50909 
L 80.148189 -121.197232 
L 81.431147 -121.885374 
L 82.722242 -122.573515 
L 83.976425 -123.261657 
L 85.145844 -123.949799 
L 86.18847 -124.63794 
L 87.075316 -125.326082 
L 91.973064 -125.326082 
L 91.973064 -125.326082 
L 92.859911 -124.63794 
L 93.902536 -123.949799 
L 95.071955 -123.261657 
L 96.326139 -122.573515 
L 97.617234 -121.885374 
L 98.900192 -121.197232 
L 100.139807 -120.50909 
L 101.313401 -119.820949 
L 102.408006 -119.132807 
L 103.413229 -118.444665 
L 104.313099 -117.756524 
L 105.080896 -117.068382 
L 105.679923 -116.38024 
L 106.070717 -115.692099 
L 106.222466 -115.003957 
L 106.124739 -114.315815 
L 105.795708 -113.627674 
L 105.284575 -112.939532 
L 104.668036 -112.25139 
L 104.042237 -111.563249 
L 103.512178 -110.875107 
L 103.180255 -110.186965 
L 103.135038 -109.498824 
L 103.441177 -108.810682 
L 104.131464 -108.12254 
L 105.202335 -107.434398 
L 106.613869 -106.746257 
L 108.294584 -106.058115 
L 110.150128 -105.369973 
L 112.073958 -104.681832 
L 113.957738 -103.99369 
L 115.699706 -103.305548 
L 117.210348 -102.617407 
L 118.41587 -101.929265 
L 119.260553 -101.241123 
L 119.708881 -100.552982 
L 119.747486 -99.86484 
L 119.386162 -99.176698 
L 118.656881 -98.488557 
L 117.61025 -97.800415 
L 116.309922 -97.112273 
L 114.826327 -96.424132 
L 113.231383 -95.73599 
L 111.595212 -95.047848 
L 109.984821 -94.359707 
L 108.463796 -93.671565 
L 107.091705 -92.983423 
L 105.922267 -92.295282 
L 105.000043 -91.60714 
L 104.356039 -90.918998 
L 104.0031 -90.230857 
L 103.932121 -89.542715 
L 104.110167 -88.854573 
L 104.481458 -88.166432 
L 104.971796 -87.47829 
L 105.496247 -86.790148 
L 105.968982 -86.102007 
L 106.313402 -85.413865 
L 106.47049 -84.725723 
L 106.403774 -84.037582 
L 106.10033 -83.34944 
L 105.56829 -82.661298 
L 104.832156 -81.973157 
L 103.927403 -81.285015 
L 102.895586 -80.596873 
L 101.780531 -79.908731 
L 100.625577 -79.22059 
L 99.471484 -78.532448 
L 98.354629 -77.844306 
L 97.305338 -77.156165 
L 96.346469 -76.468023 
L 95.492518 -75.779881 
L 94.74952 -75.09174 
L 94.115904 -74.403598 
L 93.584236 -73.715456 
L 93.143541 -73.027315 
L 92.781661 -72.339173 
L 92.487024 -71.651031 
L 92.249387 -70.96289 
L 92.059528 -70.274748 
L 91.908317 -69.586606 
L 91.785847 -68.898465 
L 91.681224 -68.210323 
L 91.583258 -67.522181 
L 91.481783 -66.83404 
L 91.369104 -66.145898 
L 91.240981 -65.457756 
L 91.096864 -64.769615 
L 90.939403 -64.081473 
L 90.773504 -63.393331 
L 90.60526 -62.70519 
L 90.440986 -62.017048 
L 90.286437 -61.328906 
L 90.146206 -60.640765 
L 90.023322 -59.952623 
L 89.919066 -59.264481 
L 89.833067 -58.57634 
L 89.763654 -57.888198 
L 89.708388 -57.200056 
z
" style="stroke: #d95f02; stroke-opacity: 0.45"/>
    </defs>
    <g clip-path="url(#p1bc2e5c73a)">
     <use xlink:href="#m85f6b977de" x="0" y="221.304375" style="fill: #d95f02; fill-opacity: 0.45; stroke: #d95f02; stroke-opacity: 0.45"/>
    </g>
   </g>
   <g id="PolyCollection_2">
    <defs>
     <path id="m12fec8bce0" d="M 210.638801 -30.512599 
L 210.195943 -30.512599 
L 210.172601 -31.964465 
L 210.155717 -33.416331 
L 210.139941 -34.868197 
L 210.118035 -36.320063 
L 210.08371 -37.771929 
L 210.033922 -39.223795 
L 209.969298 -40.675661 
L 209.89242 -42.127527 
L 209.804919 -43.579392 
L 209.705079 -45.031258 
L 209.587444 -46.483124 
L 209.444905 -47.93499 
L 209.272363 -49.386856 
L 209.070054 -50.838722 
L 208.844548 -52.290588 
L 208.606494 -53.742454 
L 208.365997 -55.19432 
L 208.127881 -56.646185 
L 207.889219 -58.098051 
L 207.640081 -59.549917 
L 207.36662 -61.001783 
L 207.054582 -62.453649 
L 206.691786 -63.905515 
L 206.269437 -65.357381 
L 205.783061 -66.809247 
L 205.233711 -68.261113 
L 204.629054 -69.712979 
L 203.982979 -71.164844 
L 203.312417 -72.61671 
L 202.631429 -74.068576 
L 201.944724 -75.520442 
L 201.244162 -76.972308 
L 200.511066 -78.424174 
L 199.72424 -79.87604 
L 198.870077 -81.327906 
L 197.949464 -82.779772 
L 196.977744 -84.231637 
L 195.977652 -85.683503 
L 194.968772 -87.135369 
L 193.95845 -88.587235 
L 192.938154 -90.039101 
L 191.886886 -91.490967 
L 190.780646 -92.942833 
L 189.604816 -94.394699 
L 188.364967 -95.846565 
L 187.091527 -97.29843 
L 185.835506 -98.750296 
L 184.656209 -100.202162 
L 183.60578 -101.654028 
L 182.71713 -103.105894 
L 181.999655 -104.55776 
L 181.442667 -106.009626 
L 181.022952 -107.461492 
L 180.712725 -108.913358 
L 180.486414 -110.365223 
L 180.326294 -111.817089 
L 180.226525 -113.268955 
L 180.194077 -114.720821 
L 180.245566 -116.172687 
L 180.401195 -117.624553 
L 180.678463 -119.076419 
L 181.087535 -120.528285 
L 181.628124 -121.980151 
L 182.287029 -123.432016 
L 183.037073 -124.883882 
L 183.840132 -126.335748 
L 184.656325 -127.787614 
L 185.457698 -129.23948 
L 186.240556 -130.691346 
L 187.029686 -132.143212 
L 187.871222 -133.595078 
L 188.81651 -135.046944 
L 189.903349 -136.49881 
L 191.141419 -137.950675 
L 192.506436 -139.402541 
L 193.944517 -140.854407 
L 195.385619 -142.306273 
L 196.762601 -143.758139 
L 198.030151 -145.210005 
L 199.176691 -146.661871 
L 200.223887 -148.113737 
L 201.213266 -149.565603 
L 202.185516 -151.017468 
L 203.161806 -152.469334 
L 204.135279 -153.9212 
L 205.075394 -155.373066 
L 205.941343 -156.824932 
L 206.69733 -158.276798 
L 207.323287 -159.728664 
L 207.818357 -161.18053 
L 208.19814 -162.632396 
L 208.488526 -164.084261 
L 208.718799 -165.536127 
L 208.915708 -166.987993 
L 209.099346 -168.439859 
L 209.281205 -169.891725 
L 209.464366 -171.343591 
L 209.645394 -172.795457 
L 209.817162 -174.247323 
L 211.017582 -174.247323 
L 211.017582 -174.247323 
L 211.18935 -172.795457 
L 211.370378 -171.343591 
L 211.553539 -169.891725 
L 211.735398 -168.439859 
L 211.919036 -166.987993 
L 212.115945 -165.536127 
L 212.346219 -164.084261 
L 212.636604 -162.632396 
L 213.016387 -161.18053 
L 213.511458 -159.728664 
L 214.137415 -158.276798 
L 214.893401 -156.824932 
L 215.759351 -155.373066 
L 216.699465 -153.9212 
L 217.672938 -152.469334 
L 218.649228 -151.017468 
L 219.621479 -149.565603 
L 220.610857 -148.113737 
L 221.658053 -146.661871 
L 222.804593 -145.210005 
L 224.072143 -143.758139 
L 225.449125 -142.306273 
L 226.890228 -140.854407 
L 228.328308 -139.402541 
L 229.693325 -137.950675 
L 230.931395 -136.49881 
L 232.018234 -135.046944 
L 232.963522 -133.595078 
L 233.805058 -132.143212 
L 234.594188 -130.691346 
L 235.377047 -129.23948 
L 236.178419 -127.787614 
L 236.994612 -126.335748 
L 237.797671 -124.883882 
L 238.547716 -123.432016 
L 239.20662 -121.980151 
L 239.747209 -120.528285 
L 240.156281 -119.076419 
L 240.433549 -117.624553 
L 240.589178 -116.172687 
L 240.640668 -114.720821 
L 240.608219 -113.268955 
L 240.50845 -111.817089 
L 240.34833 -110.365223 
L 240.122019 -108.913358 
L 239.811793 -107.461492 
L 239.392078 -106.009626 
L 238.835089 -104.55776 
L 238.117614 -103.105894 
L 237.228965 -101.654028 
L 236.178536 -100.202162 
L 234.999238 -98.750296 
L 233.743217 -97.29843 
L 232.469777 -95.846565 
L 231.229929 -94.394699 
L 230.054098 -92.942833 
L 228.947858 -91.490967 
L 227.89659 -90.039101 
L 226.876294 -88.587235 
L 225.865972 -87.135369 
L 224.857093 -85.683503 
L 223.857001 -84.231637 
L 222.88528 -82.779772 
L 221.964667 -81.327906 
L 221.110504 -79.87604 
L 220.323679 -78.424174 
L 219.590583 -76.972308 
L 218.890021 -75.520442 
L 218.203316 -74.068576 
L 217.522327 -72.61671 
L 216.851765 -71.164844 
L 216.20569 -69.712979 
L 215.601033 -68.261113 
L 215.051683 -66.809247 
L 214.565307 -65.357381 
L 214.142958 -63.905515 
L 213.780162 -62.453649 
L 213.468124 -61.001783 
L 213.194664 -59.549917 
L 212.945525 -58.098051 
L 212.706863 -56.646185 
L 212.468748 -55.19432 
L 212.22825 -53.742454 
L 211.990197 -52.290588 
L 211.76469 -50.838722 
L 211.562382 -49.386856 
L 211.389839 -47.93499 
L 211.2473 -46.483124 
L 211.129665 -45.031258 
L 211.029825 -43.579392 
L 210.942325 -42.127527 
L 210.865446 -40.675661 
L 210.800822 -39.223795 
L 210.751034 -37.771929 
L 210.716709 -36.320063 
L 210.694804 -34.868197 
L 210.679028 -33.416331 
L 210.662143 -31.964465 
L 210.638801 -30.512599 
z
" style="stroke: #d95f02; stroke-opacity: 0.45"/>
    </defs>
    <g clip-path="url(#p1bc2e5c73a)">
     <use xlink:href="#m12fec8bce0" x="0" y="221.304375" style="fill: #d95f02; fill-opacity: 0.45; stroke: #d95f02; stroke-opacity: 0.45"/>
    </g>
   </g>
   <g id="matplotlib.axis_1">
    <g id="xtick_1">
     <g id="line2d_1">
      <defs>
       <path id="ma0a17d4c79" d="M 0 0 
L 0 3.5 
" style="stroke: #000000; stroke-width: 0.8"/>
      </defs>
      <g>
       <use xlink:href="#ma0a17d4c79" x="89.52419" y="198.873594" style="stroke: #000000; stroke-width: 0.8"/>
      </g>
     </g>
     <g id="text_1">
      <text style="font: 9px 'Arial', 'Helvetica', 'Liberation Sans', 'DejaVu Sans', sans-serif; text-anchor: middle" x="89.52419" y="212.315625" transform="rotate(-0 89.52419 212.315625)">Event</text>
     </g>
    </g>
    <g id="xtick_2">
     <g id="line2d_2">
      <g>
       <use xlink:href="#ma0a17d4c79" x="210.417372" y="198.873594" style="stroke: #000000; stroke-width: 0.8"/>
      </g>
     </g>
     <g id="text_2">
      <text style="font: 9px 'Arial', 'Helvetica', 'Liberation Sans', 'DejaVu Sans', sans-serif; text-anchor: middle" x="210.417372" y="212.315625" transform="rotate(-0 210.417372 212.315625)">Block</text>
     </g>
    </g>
   </g>
   <g id="matplotlib.axis_2">
    <g id="ytick_1">
     <g id="line2d_3">
      <path d="M 50.233906 193.850503 
L 249.707656 193.850503 
" clip-path="url(#p1bc2e5c73a)" style="fill: none; stroke: #b0b0b0; stroke-opacity: 0.22; stroke-width: 0.8; stroke-linecap: square"/>
     </g>
     <g id="line2d_4">
      <defs>
       <path id="md292d3de99" d="M 0 0 
L -3.5 0 
" style="stroke: #000000; stroke-width: 0.8"/>
      </defs>
      <g>
       <use xlink:href="#md292d3de99" x="50.233906" y="193.850503" style="stroke: #000000; stroke-width: 0.8"/>
      </g>
     </g>
     <g id="text_3">
      <text style="font: 9px 'Arial', 'Helvetica', 'Liberation Sans', 'DejaVu Sans', sans-serif; text-anchor: end" x="43.233906" y="197.071519" transform="rotate(-0 43.233906 197.071519)">−0.08</text>
     </g>
    </g>
    <g id="ytick_2">
     <g id="line2d_5">
      <path d="M 50.233906 173.263617 
L 249.707656 173.263617 
" clip-path="url(#p1bc2e5c73a)" style="fill: none; stroke: #b0b0b0; stroke-opacity: 0.22; stroke-width: 0.8; stroke-linecap: square"/>
     </g>
     <g id="line2d_6">
      <g>
       <use xlink:href="#md292d3de99" x="50.233906" y="173.263617" style="stroke: #000000; stroke-width: 0.8"/>
      </g>
     </g>
     <g id="text_4">
      <text style="font: 9px 'Arial', 'Helvetica', 'Liberation Sans', 'DejaVu Sans', sans-serif; text-anchor: end" x="43.233906" y="176.484633" transform="rotate(-0 43.233906 176.484633)">−0.07</text>
     </g>
    </g>
    <g id="ytick_3">
     <g id="line2d_7">
      <path d="M 50.233906 152.67673 
L 249.707656 152.67673 
" clip-path="url(#p1bc2e5c73a)" style="fill: none; stroke: #b0b0b0; stroke-opacity: 0.22; stroke-width: 0.8; stroke-linecap: square"/>
     </g>
     <g id="line2d_8">
      <g>
       <use xlink:href="#md292d3de99" x="50.233906" y="152.67673" style="stroke: #000000; stroke-width: 0.8"/>
      </g>
     </g>
     <g id="text_5">
      <text style="font: 9px 'Arial', 'Helvetica', 'Liberation Sans', 'DejaVu Sans', sans-serif; text-anchor: end" x="43.233906" y="155.897746" transform="rotate(-0 43.233906 155.897746)">−0.06</text>
     </g>
    </g>
    <g id="ytick_4">
     <g id="line2d_9">
      <path d="M 50.233906 132.089844 
L 249.707656 132.089844 
" clip-path="url(#p1bc2e5c73a)" style="fill: none; stroke: #b0b0b0; stroke-opacity: 0.22; stroke-width: 0.8; stroke-linecap: square"/>
     </g>
     <g id="line2d_10">
      <g>
       <use xlink:href="#md292d3de99" x="50.233906" y="132.089844" style="stroke: #000000; stroke-width: 0.8"/>
      </g>
     </g>
     <g id="text_6">
      <text style="font: 9px 'Arial', 'Helvetica', 'Liberation Sans', 'DejaVu Sans', sans-serif; text-anchor: end" x="43.233906" y="135.31086" transform="rotate(-0 43.233906 135.31086)">−0.05</text>
     </g>
    </g>
    <g id="ytick_5">
     <g id="line2d_11">
      <path d="M 50.233906 111.502958 
L 249.707656 111.502958 
" clip-path="url(#p1bc2e5c73a)" style="fill: none; stroke: #b0b0b0; stroke-opacity: 0.22; stroke-width: 0.8; stroke-linecap: square"/>
     </g>
     <g id="line2d_12">
      <g>
       <use xlink:href="#md292d3de99" x="50.233906" y="111.502958" style="stroke: #000000; stroke-width: 0.8"/>
      </g>
     </g>
     <g id="text_7">
      <text style="font: 9px 'Arial', 'Helvetica', 'Liberation Sans', 'DejaVu Sans', sans-serif; text-anchor: end" x="43.233906" y="114.723973" transform="rotate(-0 43.233906 114.723973)">−0.04</text>
     </g>
    </g>
    <g id="ytick_6">
     <g id="line2d_13">
      <path d="M 50.233906 90.916071 
L 249.707656 90.916071 
" clip-path="url(#p1bc2e5c73a)" style="fill: none; stroke: #b0b0b0; stroke-opacity: 0.22; stroke-width: 0.8; stroke-linecap: square"/>
     </g>
     <g id="line2d_14">
      <g>
       <use xlink:href="#md292d3de99" x="50.233906" y="90.916071" style="stroke: #000000; stroke-width: 0.8"/>
      </g>
     </g>
     <g id="text_8">
      <text style="font: 9px 'Arial', 'Helvetica', 'Liberation Sans', 'DejaVu Sans', sans-serif; text-anchor: end" x="43.233906" y="94.137087" transform="rotate(-0 43.233906 94.137087)">−0.03</text>
     </g>
    </g>
    <g id="ytick_7">
     <g id="line2d_15">
      <path d="M 50.233906 70.329185 
L 249.707656 70.329185 
" clip-path="url(#p1bc2e5c73a)" style="fill: none; stroke: #b0b0b0; stroke-opacity: 0.22; stroke-width: 0.8; stroke-linecap: square"/>
     </g>
     <g id="line2d_16">
      <g>
       <use xlink:href="#md292d3de99" x="50.233906" y="70.329185" style="stroke: #000000; stroke-width: 0.8"/>
      </g>
     </g>
     <g id="text_9">
      <text style="font: 9px 'Arial', 'Helvetica', 'Liberation Sans', 'DejaVu Sans', sans-serif; text-anchor: end" x="43.233906" y="73.5502" transform="rotate(-0 43.233906 73.5502)">−0.02</text>
     </g>
    </g>
    <g id="ytick_8">
     <g id="line2d_17">
      <path d="M 50.233906 49.742298 
L 249.707656 49.742298 
" clip-path="url(#p1bc2e5c73a)" style="fill: none; stroke: #b0b0b0; stroke-opacity: 0.22; stroke-width: 0.8; stroke-linecap: square"/>
     </g>
     <g id="line2d_18">
      <g>
       <use xlink:href="#md292d3de99" x="50.233906" y="49.742298" style="stroke: #000000; stroke-width: 0.8"/>
      </g>
     </g>
     <g id="text_10">
      <text style="font: 9px 'Arial', 'Helvetica', 'Liberation Sans', 'DejaVu Sans', sans-serif; text-anchor: end" x="43.233906" y="52.963314" transform="rotate(-0 43.233906 52.963314)">−0.01</text>
     </g>
    </g>
    <g id="ytick_9">
     <g id="line2d_19">
      <path d="M 50.233906 29.155412 
L 249.707656 29.155412 
" clip-path="url(#p1bc2e5c73a)" style="fill: none; stroke: #b0b0b0; stroke-opacity: 0.22; stroke-width: 0.8; stroke-linecap: square"/>
     </g>
     <g id="line2d_20">
      <g>
       <use xlink:href="#md292d3de99" x="50.233906" y="29.155412" style="stroke: #000000; stroke-width: 0.8"/>
      </g>
     </g>
     <g id="text_11">
      <text style="font: 9px 'Arial', 'Helvetica', 'Liberation Sans', 'DejaVu Sans', sans-serif; text-anchor: end" x="43.233906" y="32.376428" transform="rotate(-0 43.233906 32.376428)">0.00</text>
     </g>
    </g>
    <g id="text_12">
     <text style="font: 10px 'Arial', 'Helvetica', 'Liberation Sans', 'DejaVu Sans', sans-serif; text-anchor: middle" x="14.357813" y="109.973594" transform="rotate(-90 14.357813 109.973594)">Hybrid - Volatility</text>
    </g>
   </g>
   <g id="LineCollection_1">
    <path d="M 74.412543 122.697639 
L 104.635838 122.697639 
" clip-path="url(#p1bc2e5c73a)" style="fill: none; stroke: #1f77b4; stroke-width: 1.5"/>
    <path d="M 195.305724 108.737751 
L 225.52902 108.737751 
" clip-path="url(#p1bc2e5c73a)" style="fill: none; stroke: #1f77b4; stroke-width: 1.5"/>
   </g>
   <g id="line2d_21">
    <path d="M 50.233906 29.155412 
L 249.707656 29.155412 
" clip-path="url(#p1bc2e5c73a)" style="fill: none; stroke-dasharray: 2.96,1.28; stroke-dashoffset: 0; stroke: #222222; stroke-width: 0.8"/>
   </g>
   <g id="patch_3">
    <path d="M 50.233906 198.873594 
L 50.233906 21.073594 
" style="fill: none; stroke: #000000; stroke-width: 0.8; stroke-linejoin: miter; stroke-linecap: square"/>
   </g>
   <g id="patch_4">
    <path d="M 50.233906 198.873594 
L 249.707656 198.873594 
" style="fill: none; stroke: #000000; stroke-width: 0.8; stroke-linejoin: miter; stroke-linecap: square"/>
   </g>
   <g id="text_13">
    <!-- $\Delta$FPR -->
    <g transform="translate(135.175781 15.073594)">
     <text>
      <tspan style="font: 11px 'DejaVu Sans'" x="0" y="-0.984375">Δ</tspan>
      <tspan style="font: 11px 'Arial'" x="7.524902 14.244141 21.581055" y="-0.984375">FPR</tspan>
     </text>
    </g>
   </g>
  </g>
  <g id="axes_2">
   <g id="patch_5">
    <path d="M 290.367656 198.873594 
L 489.841406 198.873594 
L 489.841406 21.073594 
L 290.367656 21.073594 
z
" style="fill: #ffffff"/>
   </g>
   <g id="PolyCollection_3">
    <defs>
     <path id="ma8e7ba1505" d="M 329.885732 -66.753667 
L 329.430148 -66.753667 
L 329.347342 -68.020286 
L 329.237391 -69.286905 
L 329.092508 -70.553525 
L 328.904288 -71.820144 
L 328.664641 -73.086763 
L 328.366785 -74.353382 
L 328.005821 -75.620001 
L 327.578474 -76.88662 
L 327.081992 -78.153239 
L 326.512822 -79.419859 
L 325.866034 -80.686478 
L 325.136256 -81.953097 
L 324.319986 -83.219716 
L 323.418186 -84.486335 
L 322.437735 -85.752954 
L 321.390948 -87.019574 
L 320.293667 -88.286193 
L 319.163409 -89.552812 
L 318.018982 -90.819431 
L 316.881816 -92.08605 
L 315.777746 -93.352669 
L 314.737255 -94.619288 
L 313.792833 -95.885908 
L 312.973653 -97.152527 
L 312.299368 -98.419146 
L 311.775355 -99.685765 
L 311.391005 -100.952384 
L 311.121161 -102.219003 
L 310.929573 -103.485622 
L 310.772876 -104.752242 
L 310.60423 -106.018861 
L 310.37667 -107.28548 
L 310.046752 -108.552099 
L 309.578802 -109.818718 
L 308.949322 -111.085337 
L 308.150439 -112.351957 
L 307.191447 -113.618576 
L 306.098294 -114.885195 
L 304.911841 -116.151814 
L 303.68591 -117.418433 
L 302.485464 -118.685052 
L 301.384122 -119.951671 
L 300.459838 -121.218291 
L 299.788239 -122.48491 
L 299.434645 -123.751529 
L 299.446768 -125.018148 
L 299.849895 -126.284767 
L 300.644932 -127.551386 
L 301.808264 -128.818006 
L 303.292012 -130.084625 
L 305.024236 -131.351244 
L 306.910178 -132.617863 
L 308.836583 -133.884482 
L 310.680646 -135.151101 
L 312.323425 -136.41772 
L 313.66545 -137.68434 
L 314.64084 -138.950959 
L 315.226166 -140.217578 
L 315.441687 -141.484197 
L 315.344857 -142.750816 
L 315.018355 -144.017435 
L 314.55632 -145.284054 
L 314.052446 -146.550674 
L 313.592217 -147.817293 
L 313.249435 -149.083912 
L 313.085443 -150.350531 
L 313.148651 -151.61715 
L 313.472576 -152.883769 
L 314.072037 -154.150389 
L 314.938872 -155.417008 
L 316.039549 -156.683627 
L 317.316944 -157.950246 
L 318.6972 -159.216865 
L 320.100539 -160.483484 
L 321.453193 -161.750103 
L 322.697038 -163.016723 
L 323.794445 -164.283342 
L 324.72778 -165.549961 
L 325.494952 -166.81658 
L 326.103492 -168.083199 
L 326.565583 -169.349818 
L 326.895398 -170.616438 
L 327.108809 -171.883057 
L 327.224481 -173.149676 
L 327.264911 -174.416295 
L 327.256252 -175.682914 
L 327.226444 -176.949533 
L 327.202046 -178.216152 
L 327.204776 -179.482772 
L 327.248924 -180.749391 
L 327.340368 -182.01601 
L 327.47736 -183.282629 
L 327.652552 -184.549248 
L 327.855525 -185.815867 
L 328.075034 -187.082486 
L 328.30053 -188.349106 
L 328.522867 -189.615725 
L 328.734409 -190.882344 
L 328.928904 -192.148963 
L 330.386977 -192.148963 
L 330.386977 -192.148963 
L 330.581471 -190.882344 
L 330.793013 -189.615725 
L 331.015351 -188.349106 
L 331.240847 -187.082486 
L 331.460355 -185.815867 
L 331.663328 -184.549248 
L 331.838521 -183.282629 
L 331.975512 -182.01601 
L 332.066957 -180.749391 
L 332.111104 -179.482772 
L 332.113835 -178.216152 
L 332.089436 -176.949533 
L 332.059629 -175.682914 
L 332.05097 -174.416295 
L 332.0914 -173.149676 
L 332.207071 -171.883057 
L 332.420483 -170.616438 
L 332.750298 -169.349818 
L 333.212389 -168.083199 
L 333.820929 -166.81658 
L 334.5881 -165.549961 
L 335.521436 -164.283342 
L 336.618843 -163.016723 
L 337.862688 -161.750103 
L 339.215342 -160.483484 
L 340.618681 -159.216865 
L 341.998936 -157.950246 
L 343.276332 -156.683627 
L 344.377008 -155.417008 
L 345.243844 -154.150389 
L 345.843305 -152.883769 
L 346.167229 -151.61715 
L 346.230438 -150.350531 
L 346.066446 -149.083912 
L 345.723664 -147.817293 
L 345.263434 -146.550674 
L 344.759561 -145.284054 
L 344.297525 -144.017435 
L 343.971024 -142.750816 
L 343.874194 -141.484197 
L 344.089715 -140.217578 
L 344.675041 -138.950959 
L 345.65043 -137.68434 
L 346.992456 -136.41772 
L 348.635235 -135.151101 
L 350.479298 -133.884482 
L 352.405702 -132.617863 
L 354.291644 -131.351244 
L 356.023868 -130.084625 
L 357.507617 -128.818006 
L 358.670949 -127.551386 
L 359.465985 -126.284767 
L 359.869113 -125.018148 
L 359.881236 -123.751529 
L 359.527641 -122.48491 
L 358.856043 -121.218291 
L 357.931758 -119.951671 
L 356.830417 -118.685052 
L 355.62997 -117.418433 
L 354.40404 -116.151814 
L 353.217586 -114.885195 
L 352.124434 -113.618576 
L 351.165442 -112.351957 
L 350.366559 -111.085337 
L 349.737079 -109.818718 
L 349.269129 -108.552099 
L 348.93921 -107.28548 
L 348.71165 -106.018861 
L 348.543004 -104.752242 
L 348.386308 -103.485622 
L 348.19472 -102.219003 
L 347.924876 -100.952384 
L 347.540526 -99.685765 
L 347.016513 -98.419146 
L 346.342228 -97.152527 
L 345.523048 -95.885908 
L 344.578626 -94.619288 
L 343.538135 -93.352669 
L 342.434064 -92.08605 
L 341.296899 -90.819431 
L 340.152472 -89.552812 
L 339.022213 -88.286193 
L 337.924933 -87.019574 
L 336.878146 -85.752954 
L 335.897695 -84.486335 
L 334.995894 -83.219716 
L 334.179624 -81.953097 
L 333.449847 -80.686478 
L 332.803059 -79.419859 
L 332.233889 -78.153239 
L 331.737407 -76.88662 
L 331.31006 -75.620001 
L 330.949096 -74.353382 
L 330.65124 -73.086763 
L 330.411593 -71.820144 
L 330.223373 -70.553525 
L 330.07849 -69.286905 
L 329.968538 -68.020286 
L 329.885732 -66.753667 
z
" style="stroke: #d95f02; stroke-opacity: 0.45"/>
    </defs>
    <g clip-path="url(#p31b7ccfbaa)">
     <use xlink:href="#ma8e7ba1505" x="0" y="221.304375" style="fill: #d95f02; fill-opacity: 0.45; stroke: #d95f02; stroke-opacity: 0.45"/>
    </g>
   </g>
   <g id="PolyCollection_4">
    <defs>
     <path id="me9139f5d93" d="M 450.622383 -30.512599 
L 450.479862 -30.512599 
L 450.483204 -31.892057 
L 450.492234 -33.271515 
L 450.504001 -34.650973 
L 450.514524 -36.030431 
L 450.519403 -37.409889 
L 450.513852 -38.789347 
L 450.492384 -40.168805 
L 450.448867 -41.548262 
L 450.37773 -42.92772 
L 450.276377 -44.307178 
L 450.147728 -45.686636 
L 450.001019 -47.066094 
L 449.849347 -48.445552 
L 449.704307 -49.82501 
L 449.570358 -51.204468 
L 449.442496 -52.583925 
L 449.309207 -53.963383 
L 449.159153 -55.342841 
L 448.987264 -56.722299 
L 448.796075 -58.101757 
L 448.591634 -59.481215 
L 448.377364 -60.860673 
L 448.150714 -62.240131 
L 447.904939 -63.619589 
L 447.633947 -64.999046 
L 447.335468 -66.378504 
L 447.00911 -67.757962 
L 446.649987 -69.13742 
L 446.242424 -70.516878 
L 445.758847 -71.896336 
L 445.166033 -73.275794 
L 444.43639 -74.655252 
L 443.558949 -76.034709 
L 442.545133 -77.414167 
L 441.427358 -78.793625 
L 440.251542 -80.173083 
L 439.066053 -81.552541 
L 437.910061 -82.931999 
L 436.805145 -84.311457 
L 435.754122 -85.690915 
L 434.748069 -87.070372 
L 433.77655 -88.44983 
L 432.832648 -89.829288 
L 431.908417 -91.208746 
L 430.985842 -92.588204 
L 430.034404 -93.967662 
L 429.021936 -95.34712 
L 427.933853 -96.726578 
L 426.787473 -98.106035 
L 425.630855 -99.485493 
L 424.526546 -100.864951 
L 423.53048 -102.244409 
L 422.677722 -103.623867 
L 421.980306 -105.003325 
L 421.434057 -106.382783 
L 421.02675 -107.762241 
L 420.74149 -109.141699 
L 420.555322 -110.521156 
L 420.439187 -111.900614 
L 420.366134 -113.280072 
L 420.327827 -114.65953 
L 420.349685 -116.038988 
L 420.491415 -117.418446 
L 420.827609 -118.797904 
L 421.417047 -120.177362 
L 422.277521 -121.556819 
L 423.378806 -122.936277 
L 424.65454 -124.315735 
L 426.024587 -125.695193 
L 427.41784 -127.074651 
L 428.788295 -128.454109 
L 430.120527 -129.833567 
L 431.423926 -131.213025 
L 432.719451 -132.592482 
L 434.026106 -133.97194 
L 435.3532 -135.351398 
L 436.698924 -136.730856 
L 438.051242 -138.110314 
L 439.387847 -139.489772 
L 440.676494 -140.86923 
L 441.879653 -142.248688 
L 442.964586 -143.628145 
L 443.914633 -145.007603 
L 444.734983 -146.387061 
L 445.449107 -147.766519 
L 446.087746 -149.145977 
L 446.676374 -150.525435 
L 447.227194 -151.904893 
L 447.738539 -153.284351 
L 448.200452 -154.663808 
L 448.602494 -156.043266 
L 448.939613 -157.422724 
L 449.214129 -158.802182 
L 449.434447 -160.18164 
L 449.612437 -161.561098 
L 449.760824 -162.940556 
L 449.890917 -164.320014 
L 450.010664 -165.699472 
L 450.123415 -167.078929 
L 450.978829 -167.078929 
L 450.978829 -167.078929 
L 451.091581 -165.699472 
L 451.211327 -164.320014 
L 451.341421 -162.940556 
L 451.489807 -161.561098 
L 451.667798 -160.18164 
L 451.888116 -158.802182 
L 452.162631 -157.422724 
L 452.499751 -156.043266 
L 452.901792 -154.663808 
L 453.363706 -153.284351 
L 453.87505 -151.904893 
L 454.425871 -150.525435 
L 455.014498 -149.145977 
L 455.653137 -147.766519 
L 456.367262 -146.387061 
L 457.187611 -145.007603 
L 458.137658 -143.628145 
L 459.222591 -142.248688 
L 460.42575 -140.86923 
L 461.714398 -139.489772 
L 463.051002 -138.110314 
L 464.403321 -136.730856 
L 465.749044 -135.351398 
L 467.076138 -133.97194 
L 468.382794 -132.592482 
L 469.678318 -131.213025 
L 470.981717 -129.833567 
L 472.313949 -128.454109 
L 473.684404 -127.074651 
L 475.077657 -125.695193 
L 476.447705 -124.315735 
L 477.723438 -122.936277 
L 478.824724 -121.556819 
L 479.685198 -120.177362 
L 480.274635 -118.797904 
L 480.610829 -117.418446 
L 480.752559 -116.038988 
L 480.774418 -114.65953 
L 480.73611 -113.280072 
L 480.663057 -111.900614 
L 480.546923 -110.521156 
L 480.360754 -109.141699 
L 480.075494 -107.762241 
L 479.668187 -106.382783 
L 479.121939 -105.003325 
L 478.424522 -103.623867 
L 477.571764 -102.244409 
L 476.575699 -100.864951 
L 475.471389 -99.485493 
L 474.314771 -98.106035 
L 473.168391 -96.726578 
L 472.080308 -95.34712 
L 471.067841 -93.967662 
L 470.116402 -92.588204 
L 469.193827 -91.208746 
L 468.269596 -89.829288 
L 467.325694 -88.44983 
L 466.354175 -87.070372 
L 465.348122 -85.690915 
L 464.2971 -84.311457 
L 463.192183 -82.931999 
L 462.036192 -81.552541 
L 460.850702 -80.173083 
L 459.674886 -78.793625 
L 458.557111 -77.414167 
L 457.543296 -76.034709 
L 456.665854 -74.655252 
L 455.936211 -73.275794 
L 455.343398 -71.896336 
L 454.85982 -70.516878 
L 454.452257 -69.13742 
L 454.093135 -67.757962 
L 453.766777 -66.378504 
L 453.468297 -64.999046 
L 453.197305 -63.619589 
L 452.95153 -62.240131 
L 452.72488 -60.860673 
L 452.51061 -59.481215 
L 452.306169 -58.101757 
L 452.11498 -56.722299 
L 451.943091 -55.342841 
L 451.793037 -53.963383 
L 451.659748 -52.583925 
L 451.531886 -51.204468 
L 451.397937 -49.82501 
L 451.252897 -48.445552 
L 451.101225 -47.066094 
L 450.954516 -45.686636 
L 450.825867 -44.307178 
L 450.724514 -42.92772 
L 450.653378 -41.548262 
L 450.609861 -40.168805 
L 450.588392 -38.789347 
L 450.582842 -37.409889 
L 450.58772 -36.030431 
L 450.598243 -34.650973 
L 450.61001 -33.271515 
L 450.61904 -31.892057 
L 450.622383 -30.512599 
z
" style="stroke: #d95f02; stroke-opacity: 0.45"/>
    </defs>
    <g clip-path="url(#p31b7ccfbaa)">
     <use xlink:href="#me9139f5d93" x="0" y="221.304375" style="fill: #d95f02; fill-opacity: 0.45; stroke: #d95f02; stroke-opacity: 0.45"/>
    </g>
   </g>
   <g id="matplotlib.axis_3">
    <g id="xtick_3">
     <g id="line2d_22">
      <g>
       <use xlink:href="#ma0a17d4c79" x="329.65794" y="198.873594" style="stroke: #000000; stroke-width: 0.8"/>
      </g>
     </g>
     <g id="text_14">
      <text style="font: 9px 'Arial', 'Helvetica', 'Liberation Sans', 'DejaVu Sans', sans-serif; text-anchor: middle" x="329.65794" y="212.315625" transform="rotate(-0 329.65794 212.315625)">Event</text>
     </g>
    </g>
    <g id="xtick_4">
     <g id="line2d_23">
      <g>
       <use xlink:href="#ma0a17d4c79" x="450.551122" y="198.873594" style="stroke: #000000; stroke-width: 0.8"/>
      </g>
     </g>
     <g id="text_15">
      <text style="font: 9px 'Arial', 'Helvetica', 'Liberation Sans', 'DejaVu Sans', sans-serif; text-anchor: middle" x="450.551122" y="212.315625" transform="rotate(-0 450.551122 212.315625)">Block</text>
     </g>
    </g>
   </g>
   <g id="matplotlib.axis_4">
    <g id="ytick_10">
     <g id="line2d_24">
      <path d="M 290.367656 177.762537 
L 489.841406 177.762537 
" clip-path="url(#p31b7ccfbaa)" style="fill: none; stroke: #b0b0b0; stroke-opacity: 0.22; stroke-width: 0.8; stroke-linecap: square"/>
     </g>
     <g id="line2d_25">
      <g>
       <use xlink:href="#md292d3de99" x="290.367656" y="177.762537" style="stroke: #000000; stroke-width: 0.8"/>
      </g>
     </g>
     <g id="text_16">
      <text style="font: 9px 'Arial', 'Helvetica', 'Liberation Sans', 'DejaVu Sans', sans-serif; text-anchor: end" x="283.367656" y="180.983552" transform="rotate(-0 283.367656 180.983552)">−0.25</text>
     </g>
    </g>
    <g id="ytick_11">
     <g id="line2d_26">
      <path d="M 290.367656 152.22563 
L 489.841406 152.22563 
" clip-path="url(#p31b7ccfbaa)" style="fill: none; stroke: #b0b0b0; stroke-opacity: 0.22; stroke-width: 0.8; stroke-linecap: square"/>
     </g>
     <g id="line2d_27">
      <g>
       <use xlink:href="#md292d3de99" x="290.367656" y="152.22563" style="stroke: #000000; stroke-width: 0.8"/>
      </g>
     </g>
     <g id="text_17">
      <text style="font: 9px 'Arial', 'Helvetica', 'Liberation Sans', 'DejaVu Sans', sans-serif; text-anchor: end" x="283.367656" y="155.446646" transform="rotate(-0 283.367656 155.446646)">−0.20</text>
     </g>
    </g>
    <g id="ytick_12">
     <g id="line2d_28">
      <path d="M 290.367656 126.688724 
L 489.841406 126.688724 
" clip-path="url(#p31b7ccfbaa)" style="fill: none; stroke: #b0b0b0; stroke-opacity: 0.22; stroke-width: 0.8; stroke-linecap: square"/>
     </g>
     <g id="line2d_29">
      <g>
       <use xlink:href="#md292d3de99" x="290.367656" y="126.688724" style="stroke: #000000; stroke-width: 0.8"/>
      </g>
     </g>
     <g id="text_18">
      <text style="font: 9px 'Arial', 'Helvetica', 'Liberation Sans', 'DejaVu Sans', sans-serif; text-anchor: end" x="283.367656" y="129.90974" transform="rotate(-0 283.367656 129.90974)">−0.15</text>
     </g>
    </g>
    <g id="ytick_13">
     <g id="line2d_30">
      <path d="M 290.367656 101.151818 
L 489.841406 101.151818 
" clip-path="url(#p31b7ccfbaa)" style="fill: none; stroke: #b0b0b0; stroke-opacity: 0.22; stroke-width: 0.8; stroke-linecap: square"/>
     </g>
     <g id="line2d_31">
      <g>
       <use xlink:href="#md292d3de99" x="290.367656" y="101.151818" style="stroke: #000000; stroke-width: 0.8"/>
      </g>
     </g>
     <g id="text_19">
      <text style="font: 9px 'Arial', 'Helvetica', 'Liberation Sans', 'DejaVu Sans', sans-serif; text-anchor: end" x="283.367656" y="104.372834" transform="rotate(-0 283.367656 104.372834)">−0.10</text>
     </g>
    </g>
    <g id="ytick_14">
     <g id="line2d_32">
      <path d="M 290.367656 75.614912 
L 489.841406 75.614912 
" clip-path="url(#p31b7ccfbaa)" style="fill: none; stroke: #b0b0b0; stroke-opacity: 0.22; stroke-width: 0.8; stroke-linecap: square"/>
     </g>
     <g id="line2d_33">
      <g>
       <use xlink:href="#md292d3de99" x="290.367656" y="75.614912" style="stroke: #000000; stroke-width: 0.8"/>
      </g>
     </g>
     <g id="text_20">
      <text style="font: 9px 'Arial', 'Helvetica', 'Liberation Sans', 'DejaVu Sans', sans-serif; text-anchor: end" x="283.367656" y="78.835927" transform="rotate(-0 283.367656 78.835927)">−0.05</text>
     </g>
    </g>
    <g id="ytick_15">
     <g id="line2d_34">
      <path d="M 290.367656 50.078005 
L 489.841406 50.078005 
" clip-path="url(#p31b7ccfbaa)" style="fill: none; stroke: #b0b0b0; stroke-opacity: 0.22; stroke-width: 0.8; stroke-linecap: square"/>
     </g>
     <g id="line2d_35">
      <g>
       <use xlink:href="#md292d3de99" x="290.367656" y="50.078005" style="stroke: #000000; stroke-width: 0.8"/>
      </g>
     </g>
     <g id="text_21">
      <text style="font: 9px 'Arial', 'Helvetica', 'Liberation Sans', 'DejaVu Sans', sans-serif; text-anchor: end" x="283.367656" y="53.299021" transform="rotate(-0 283.367656 53.299021)">0.00</text>
     </g>
    </g>
    <g id="ytick_16">
     <g id="line2d_36">
      <path d="M 290.367656 24.541099 
L 489.841406 24.541099 
" clip-path="url(#p31b7ccfbaa)" style="fill: none; stroke: #b0b0b0; stroke-opacity: 0.22; stroke-width: 0.8; stroke-linecap: square"/>
     </g>
     <g id="line2d_37">
      <g>
       <use xlink:href="#md292d3de99" x="290.367656" y="24.541099" style="stroke: #000000; stroke-width: 0.8"/>
      </g>
     </g>
     <g id="text_22">
      <text style="font: 9px 'Arial', 'Helvetica', 'Liberation Sans', 'DejaVu Sans', sans-serif; text-anchor: end" x="283.367656" y="27.762115" transform="rotate(-0 283.367656 27.762115)">0.05</text>
     </g>
    </g>
   </g>
   <g id="LineCollection_2">
    <path d="M 314.546293 96.315715 
L 344.769588 96.315715 
" clip-path="url(#p31b7ccfbaa)" style="fill: none; stroke: #1f77b4; stroke-width: 1.5"/>
    <path d="M 435.439474 111.236224 
L 465.66277 111.236224 
" clip-path="url(#p31b7ccfbaa)" style="fill: none; stroke: #1f77b4; stroke-width: 1.5"/>
   </g>
   <g id="line2d_38">
    <path d="M 290.367656 50.078005 
L 489.841406 50.078005 
" clip-path="url(#p31b7ccfbaa)" style="fill: none; stroke-dasharray: 2.96,1.28; stroke-dashoffset: 0; stroke: #222222; stroke-width: 0.8"/>
   </g>
   <g id="patch_6">
    <path d="M 290.367656 198.873594 
L 290.367656 21.073594 
" style="fill: none; stroke: #000000; stroke-width: 0.8; stroke-linejoin: miter; stroke-linecap: square"/>
   </g>
   <g id="patch_7">
    <path d="M 290.367656 198.873594 
L 489.841406 198.873594 
" style="fill: none; stroke: #000000; stroke-width: 0.8; stroke-linejoin: miter; stroke-linecap: square"/>
   </g>
   <g id="text_23">
    <!-- $\Delta$F1 -->
    <g transform="translate(379.874531 15.073594)">
     <text>
      <tspan style="font: 11px 'DejaVu Sans'" x="0" y="-0.984375">Δ</tspan>
      <tspan style="font: 11px 'Arial'" x="7.524902 14.244141" y="-0.984375">F1</tspan>
     </text>
    </g>
   </g>
  </g>
 </g>
 <defs>
  <clipPath id="p1bc2e5c73a">
   <rect x="50.233906" y="21.073594" width="199.47375" height="177.8"/>
  </clipPath>
  <clipPath id="p31b7ccfbaa">
   <rect x="290.367656" y="21.073594" width="199.47375" height="177.8"/>
  </clipPath>
 </defs>
</svg>
