<?xml version="1.0" encoding="utf-8" standalone="no"?>
<!DOCTYPE svg PUBLIC "-//W3C//DTD SVG 1.1//EN"
  "http://www.w3.org/Graphics/SVG/1.1/DTD/svg11.dtd">
<svg xmlns:xlink="http://www.w3.org/1999/xlink" width="495.856719pt" height="222.452656pt" viewBox="0 0 495.856719 222.452656" xmlns="http://www.w3.org/2000/svg" version="1.1">
 <metadata>
  <rdf:RDF xmlns:dc="http://purl.org/dc/elements/1.1/" xmlns:cc="http://creativecommons.org/ns#" xmlns:rdf="http://www.w3.org/1999/02/22-rdf-syntax-ns#">
   <cc:Work>
    <dc:type rdf:resource="http://purl.org/dc/dcmitype/StillImage"/>
    <dc:date>2026-07-21T15:45:24.005450</dc:date>
    <dc:format>image/svg+xml</dc:format>
    <dc:creator>
     <cc:Agent>
      <dc:title>Matplotlib v3.9.2, https://matplotlib.org/</dc:title>
     </cc:Agent>
    </dc:creator>
   </cc:Work>
  </rdf:RDF>
 </metadata>
 <defs>
  <style type="text/css">*{stroke-linejoin: round; stroke-linecap: butt}</style>
 </defs>
 <g id="figure_1">
  <g id="patch_1">
   <path d="M 0 222.452656 
L 495.856719 222.452656 
L 495.856719 0 
L 0 0 
z
" style="fill: #ffffff"/>
  </g>
  <g id="axes_1">
   <g id="patch_2">
    <path d="M 48.126719 200.078125 
L 249.096719 200.078125 
L 249.096719 20.838125 
L 48.126719 20.838125 
z
" style="fill: #ffffff"/>
   </g>
   <g id="PolyCollection_1">
    <defs>
     <path id="m6d8e5573fe" d="M 87.897298 -57.425402 
L 87.526139 -57.425402 
L 87.470459 -58.119117 
L 87.400525 -58.812832 
L 87.313881 -59.506547 
L 87.208843 -60.200262 
L 87.085037 -60.893977 
L 86.943755 -61.587692 
L 86.788046 -62.281407 
L 86.62254 -62.975122 
L 86.453034 -63.668836 
L 86.28589 -64.362551 
L 86.127248 -65.056266 
L 85.982051 -65.749981 
L 85.852966 -66.443696 
L 85.739442 -67.137411 
L 85.637207 -67.831126 
L 85.538505 -68.524841 
L 85.433098 -69.218556 
L 85.309708 -69.912271 
L 85.157363 -70.605986 
L 84.966081 -71.299701 
L 84.726661 -71.993416 
L 84.429814 -72.687131 
L 84.06522 -73.380845 
L 83.621219 -74.07456 
L 83.085562 -74.768275 
L 82.447194 -75.46199 
L 81.698623 -76.155705 
L 80.838266 -76.84942 
L 79.872204 -77.543135 
L 78.815043 -78.23685 
L 77.68981 -78.930565 
L 76.52706 -79.62428 
L 75.363443 -80.317995 
L 74.240025 -81.01171 
L 73.200468 -81.705425 
L 72.288928 -82.399139 
L 71.547272 -83.092854 
L 71.011242 -83.786569 
L 70.705521 -84.480284 
L 70.638305 -85.173999 
L 70.796571 -85.867714 
L 71.143575 -86.561429 
L 71.619856 -87.255144 
L 72.148241 -87.948859 
L 72.642257 -88.642574 
L 73.016333 -89.336289 
L 73.195715 -90.030004 
L 73.124203 -90.723719 
L 72.768617 -91.417434 
L 72.119782 -92.111148 
L 71.19064 -92.804863 
L 70.012431 -93.498578 
L 68.630047 -94.192293 
L 67.097613 -94.886008 
L 65.475143 -95.579723 
L 63.826699 -96.273438 
L 62.219791 -96.967153 
L 60.725067 -97.660868 
L 59.414986 -98.354583 
L 58.360505 -99.048298 
L 57.625753 -99.742013 
L 57.261719 -100.435728 
L 57.300613 -101.129442 
L 57.752304 -101.823157 
L 58.603323 -102.516872 
L 59.817887 -103.210587 
L 61.339861 -103.904302 
L 63.094895 -104.598017 
L 64.992805 -105.291732 
L 66.931066 -105.985447 
L 68.800528 -106.679162 
L 70.493851 -107.372877 
L 71.915973 -108.066592 
L 72.994876 -108.760307 
L 73.690341 -109.454022 
L 73.998776 -110.147737 
L 73.95322 -110.841451 
L 73.618807 -111.535166 
L 73.084773 -112.228881 
L 72.454279 -112.922596 
L 71.833116 -113.616311 
L 71.318148 -114.310026 
L 70.98665 -115.003741 
L 70.88819 -115.697456 
L 71.041077 -116.391171 
L 71.434803 -117.084886 
L 72.038323 -117.778601 
L 72.811878 -118.472316 
L 73.718499 -119.166031 
L 74.731262 -119.859745 
L 75.834077 -120.55346 
L 77.016475 -121.247175 
L 78.265388 -121.94089 
L 79.55797 -122.634605 
L 80.858749 -123.32832 
L 82.12234 -124.022035 
L 83.300531 -124.71575 
L 84.350977 -125.409465 
L 85.244476 -126.10318 
L 90.178962 -126.10318 
L 90.178962 -126.10318 
L 91.07246 -125.409465 
L 92.122907 -124.71575 
L 93.301097 -124.022035 
L 94.564689 -123.32832 
L 95.865468 -122.634605 
L 97.158049 -121.94089 
L 98.406963 -121.247175 
L 99.58936 -120.55346 
L 100.692175 -119.859745 
L 101.704939 -119.166031 
L 102.611559 -118.472316 
L 103.385115 -117.778601 
L 103.988635 -117.084886 
L 104.382361 -116.391171 
L 104.535248 -115.697456 
L 104.436788 -115.003741 
L 104.105289 -114.310026 
L 103.590322 -113.616311 
L 102.969158 -112.922596 
L 102.338665 -112.228881 
L 101.80463 -111.535166 
L 101.470218 -110.841451 
L 101.424662 -110.147737 
L 101.733096 -109.454022 
L 102.428561 -108.760307 
L 103.507465 -108.066592 
L 104.929587 -107.372877 
L 106.622909 -106.679162 
L 108.492372 -105.985447 
L 110.430632 -105.291732 
L 112.328542 -104.598017 
L 114.083577 -103.904302 
L 115.60555 -103.210587 
L 116.820114 -102.516872 
L 117.671134 -101.823157 
L 118.122825 -101.129442 
L 118.161719 -100.435728 
L 117.797685 -99.742013 
L 117.062933 -99.048298 
L 116.008452 -98.354583 
L 114.69837 -97.660868 
L 113.203646 -96.967153 
L 111.596739 -96.273438 
L 109.948295 -95.579723 
L 108.325825 -94.886008 
L 106.793391 -94.192293 
L 105.411007 -93.498578 
L 104.232798 -92.804863 
L 103.303656 -92.111148 
L 102.654821 -91.417434 
L 102.299234 -90.723719 
L 102.227723 -90.030004 
L 102.407104 -89.336289 
L 102.781181 -88.642574 
L 103.275197 -87.948859 
L 103.803582 -87.255144 
L 104.279862 -86.561429 
L 104.626866 -85.867714 
L 104.785132 -85.173999 
L 104.717916 -84.480284 
L 104.412196 -83.786569 
L 103.876165 -83.092854 
L 103.13451 -82.399139 
L 102.22297 -81.705425 
L 101.183413 -81.01171 
L 100.059994 -80.317995 
L 98.896377 -79.62428 
L 97.733627 -78.930565 
L 96.608394 -78.23685 
L 95.551233 -77.543135 
L 94.585172 -76.84942 
L 93.724815 -76.155705 
L 92.976244 -75.46199 
L 92.337875 -74.768275 
L 91.802219 -74.07456 
L 91.358218 -73.380845 
L 90.993623 -72.687131 
L 90.696776 -71.993416 
L 90.457357 -71.299701 
L 90.266074 -70.605986 
L 90.113729 -69.912271 
L 89.99034 -69.218556 
L 89.884933 -68.524841 
L 89.786231 -67.831126 
L 89.683995 -67.137411 
L 89.570471 -66.443696 
L 89.441387 -65.749981 
L 89.296189 -65.056266 
L 89.137547 -64.362551 
L 88.970404 -63.668836 
L 88.800897 -62.975122 
L 88.635392 -62.281407 
L 88.479683 -61.587692 
L 88.3384 -60.893977 
L 88.214594 -60.200262 
L 88.109557 -59.506547 
L 88.022913 -58.812832 
L 87.952979 -58.119117 
L 87.897298 -57.425402 
z
" style="stroke: #d95f02; stroke-opacity: 0.45"/>
    </defs>
    <g clip-path="url(#p443e3bbbb0)">
     <use xlink:href="#m6d8e5573fe" x="0" y="222.452656" style="fill: #d95f02; fill-opacity: 0.45; stroke: #d95f02; stroke-opacity: 0.45"/>
    </g>
   </g>
   <g id="PolyCollection_2">
    <defs>
     <path id="mb2bd6cfab2" d="M 209.734809 -30.521804 
L 209.288629 -30.521804 
L 209.265112 -31.985429 
L 209.2481 -33.449053 
L 209.232206 -34.912678 
L 209.210136 -36.376302 
L 209.175554 -37.839927 
L 209.125393 -39.303551 
L 209.060283 -40.767176 
L 208.982829 -42.2308 
L 208.894672 -43.694425 
L 208.794083 -45.158049 
L 208.675565 -46.621674 
L 208.531957 -48.085298 
L 208.35812 -49.548923 
L 208.154295 -51.012547 
L 207.927096 -52.476172 
L 207.687257 -53.939797 
L 207.444956 -55.403421 
L 207.205054 -56.867046 
L 206.964602 -58.33067 
L 206.713595 -59.794295 
L 206.438083 -61.257919 
L 206.123704 -62.721544 
L 205.758187 -64.185168 
L 205.33267 -65.648793 
L 204.842646 -67.112417 
L 204.289175 -68.576042 
L 203.679982 -70.039666 
L 203.029062 -71.503291 
L 202.35347 -72.966916 
L 201.667373 -74.43054 
L 200.975517 -75.894165 
L 200.2697 -77.357789 
L 199.531105 -78.821414 
L 198.738378 -80.285038 
L 197.877807 -81.748663 
L 196.950289 -83.212287 
L 195.97128 -84.675912 
L 194.963686 -86.139536 
L 193.947239 -87.603161 
L 192.929339 -89.066785 
L 191.901389 -90.53041 
L 190.842236 -91.994034 
L 189.727698 -93.457659 
L 188.543047 -94.921284 
L 187.293899 -96.384908 
L 186.010907 -97.848533 
L 184.745465 -99.312157 
L 183.557321 -100.775782 
L 182.499013 -102.239406 
L 181.603697 -103.703031 
L 180.880841 -105.166655 
L 180.319674 -106.63028 
L 179.896811 -108.093904 
L 179.584258 -109.557529 
L 179.356249 -111.021153 
L 179.194928 -112.484778 
L 179.094411 -113.948402 
L 179.061719 -115.412027 
L 179.113594 -116.875652 
L 179.270391 -118.339276 
L 179.549739 -119.802901 
L 179.961879 -121.266525 
L 180.506523 -122.73015 
L 181.17037 -124.193774 
L 181.926041 -125.657399 
L 182.735123 -127.121023 
L 183.557438 -128.584648 
L 184.364822 -130.048272 
L 185.153553 -131.511897 
L 185.948602 -132.975521 
L 186.79645 -134.439146 
L 187.748829 -135.902771 
L 188.84382 -137.366395 
L 190.091177 -138.83002 
L 191.466433 -140.293644 
L 192.915301 -141.757269 
L 194.367213 -143.220893 
L 195.754523 -144.684518 
L 197.031582 -146.148142 
L 198.186722 -147.611767 
L 199.241772 -149.075391 
L 200.238572 -150.539016 
L 201.218116 -152.00264 
L 202.201729 -153.466265 
L 203.182504 -154.929889 
L 204.12967 -156.393514 
L 205.002115 -157.857139 
L 205.763772 -159.320763 
L 206.394424 -160.784388 
L 206.893208 -162.248012 
L 207.27584 -163.711637 
L 207.568404 -165.175261 
L 207.800405 -166.638886 
L 207.998791 -168.10251 
L 208.183806 -169.566135 
L 208.367029 -171.029759 
L 208.551564 -172.493384 
L 208.73395 -173.957008 
L 208.907006 -175.420633 
L 210.116431 -175.420633 
L 210.116431 -175.420633 
L 210.289487 -173.957008 
L 210.471873 -172.493384 
L 210.656408 -171.029759 
L 210.839631 -169.566135 
L 211.024647 -168.10251 
L 211.223033 -166.638886 
L 211.455033 -165.175261 
L 211.747597 -163.711637 
L 212.130229 -162.248012 
L 212.629013 -160.784388 
L 213.259665 -159.320763 
L 214.021322 -157.857139 
L 214.893767 -156.393514 
L 215.840934 -154.929889 
L 216.821709 -153.466265 
L 217.805322 -152.00264 
L 218.784865 -150.539016 
L 219.781665 -149.075391 
L 220.836716 -147.611767 
L 221.991856 -146.148142 
L 223.268914 -144.684518 
L 224.656225 -143.220893 
L 226.108137 -141.757269 
L 227.557004 -140.293644 
L 228.932261 -138.83002 
L 230.179617 -137.366395 
L 231.274608 -135.902771 
L 232.226987 -134.439146 
L 233.074835 -132.975521 
L 233.869885 -131.511897 
L 234.658615 -130.048272 
L 235.465999 -128.584648 
L 236.288314 -127.121023 
L 237.097397 -125.657399 
L 237.853068 -124.193774 
L 238.516915 -122.73015 
L 239.061558 -121.266525 
L 239.473699 -119.802901 
L 239.753047 -118.339276 
L 239.909843 -116.875652 
L 239.961719 -115.412027 
L 239.929027 -113.948402 
L 239.82851 -112.484778 
L 239.667189 -111.021153 
L 239.43918 -109.557529 
L 239.126626 -108.093904 
L 238.703763 -106.63028 
L 238.142597 -105.166655 
L 237.41974 -103.703031 
L 236.524425 -102.239406 
L 235.466116 -100.775782 
L 234.277973 -99.312157 
L 233.012531 -97.848533 
L 231.729539 -96.384908 
L 230.48039 -94.921284 
L 229.295739 -93.457659 
L 228.181202 -91.994034 
L 227.122048 -90.53041 
L 226.094099 -89.066785 
L 225.076198 -87.603161 
L 224.059752 -86.139536 
L 223.052158 -84.675912 
L 222.073148 -83.212287 
L 221.14563 -81.748663 
L 220.28506 -80.285038 
L 219.492332 -78.821414 
L 218.753737 -77.357789 
L 218.047921 -75.894165 
L 217.356065 -74.43054 
L 216.669968 -72.966916 
L 215.994376 -71.503291 
L 215.343455 -70.039666 
L 214.734262 -68.576042 
L 214.180792 -67.112417 
L 213.690767 -65.648793 
L 213.26525 -64.185168 
L 212.899733 -62.721544 
L 212.585354 -61.257919 
L 212.309843 -59.794295 
L 212.058836 -58.33067 
L 211.818383 -56.867046 
L 211.578482 -55.403421 
L 211.33618 -53.939797 
L 211.096341 -52.476172 
L 210.869143 -51.012547 
L 210.665317 -49.548923 
L 210.49148 -48.085298 
L 210.347872 -46.621674 
L 210.229355 -45.158049 
L 210.128766 -43.694425 
L 210.040609 -42.2308 
L 209.963154 -40.767176 
L 209.898045 -39.303551 
L 209.847883 -37.839927 
L 209.813301 -36.376302 
L 209.791231 -34.912678 
L 209.775337 -33.449053 
L 209.758326 -31.985429 
L 209.734809 -30.521804 
z
" style="stroke: #d95f02; stroke-opacity: 0.45"/>
    </defs>
    <g clip-path="url(#p443e3bbbb0)">
     <use xlink:href="#mb2bd6cfab2" x="0" y="222.452656" style="fill: #d95f02; fill-opacity: 0.45; stroke: #d95f02; stroke-opacity: 0.45"/>
    </g>
   </g>
   <g id="matplotlib.axis_1">
    <g id="xtick_1">
     <g id="line2d_1">
      <defs>
       <path id="m3b9fed928a" d="M 0 0 
L 0 3.5 
" style="stroke: #000000; stroke-width: 0.8"/>
      </defs>
      <g>
       <use xlink:href="#m3b9fed928a" x="87.711719" y="200.078125" style="stroke: #000000; stroke-width: 0.8"/>
      </g>
     </g>
     <g id="text_1">
      <text style="font: 9px 'Times New Roman', 'Times', 'Nimbus Roman', 'DejaVu Serif', serif; text-anchor: middle" x="87.711719" y="213.3275" transform="rotate(-0 87.711719 213.3275)">Event</text>
     </g>
    </g>
    <g id="xtick_2">
     <g id="line2d_2">
      <g>
       <use xlink:href="#m3b9fed928a" x="209.511719" y="200.078125" style="stroke: #000000; stroke-width: 0.8"/>
      </g>
     </g>
     <g id="text_2">
      <text style="font: 9px 'Times New Roman', 'Times', 'Nimbus Roman', 'DejaVu Serif', serif; text-anchor: middle" x="209.511719" y="213.3275" transform="rotate(-0 209.511719 213.3275)">Block</text>
     </g>
    </g>
   </g>
   <g id="matplotlib.axis_2">
    <g id="ytick_1">
     <g id="line2d_3">
      <path d="M 48.126719 195.014353 
L 249.096719 195.014353 
" clip-path="url(#p443e3bbbb0)" style="fill: none; stroke: #b0b0b0; stroke-opacity: 0.22; stroke-width: 0.8; stroke-linecap: square"/>
     </g>
     <g id="line2d_4">
      <defs>
       <path id="mf5c37a648b" d="M 0 0 
L -3.5 0 
" style="stroke: #000000; stroke-width: 0.8"/>
      </defs>
      <g>
       <use xlink:href="#mf5c37a648b" x="48.126719" y="195.014353" style="stroke: #000000; stroke-width: 0.8"/>
      </g>
     </g>
     <g id="text_3">
      <text style="font: 9px 'Times New Roman', 'Times', 'Nimbus Roman', 'DejaVu Serif', serif; text-anchor: end" x="41.126719" y="198.13904" transform="rotate(-0 41.126719 198.13904)">−0.08</text>
     </g>
    </g>
    <g id="ytick_2">
     <g id="line2d_5">
      <path d="M 48.126719 174.260733 
L 249.096719 174.260733 
" clip-path="url(#p443e3bbbb0)" style="fill: none; stroke: #b0b0b0; stroke-opacity: 0.22; stroke-width: 0.8; stroke-linecap: square"/>
     </g>
     <g id="line2d_6">
      <g>
       <use xlink:href="#mf5c37a648b" x="48.126719" y="174.260733" style="stroke: #000000; stroke-width: 0.8"/>
      </g>
     </g>
     <g id="text_4">
      <text style="font: 9px 'Times New Roman', 'Times', 'Nimbus Roman', 'DejaVu Serif', serif; text-anchor: end" x="41.126719" y="177.385421" transform="rotate(-0 41.126719 177.385421)">−0.07</text>
     </g>
    </g>
    <g id="ytick_3">
     <g id="line2d_7">
      <path d="M 48.126719 153.507114 
L 249.096719 153.507114 
" clip-path="url(#p443e3bbbb0)" style="fill: none; stroke: #b0b0b0; stroke-opacity: 0.22; stroke-width: 0.8; stroke-linecap: square"/>
     </g>
     <g id="line2d_8">
      <g>
       <use xlink:href="#mf5c37a648b" x="48.126719" y="153.507114" style="stroke: #000000; stroke-width: 0.8"/>
      </g>
     </g>
     <g id="text_5">
      <text style="font: 9px 'Times New Roman', 'Times', 'Nimbus Roman', 'DejaVu Serif', serif; text-anchor: end" x="41.126719" y="156.631801" transform="rotate(-0 41.126719 156.631801)">−0.06</text>
     </g>
    </g>
    <g id="ytick_4">
     <g id="line2d_9">
      <path d="M 48.126719 132.753495 
L 249.096719 132.753495 
" clip-path="url(#p443e3bbbb0)" style="fill: none; stroke: #b0b0b0; stroke-opacity: 0.22; stroke-width: 0.8; stroke-linecap: square"/>
     </g>
     <g id="line2d_10">
      <g>
       <use xlink:href="#mf5c37a648b" x="48.126719" y="132.753495" style="stroke: #000000; stroke-width: 0.8"/>
      </g>
     </g>
     <g id="text_6">
      <text style="font: 9px 'Times New Roman', 'Times', 'Nimbus Roman', 'DejaVu Serif', serif; text-anchor: end" x="41.126719" y="135.878182" transform="rotate(-0 41.126719 135.878182)">−0.05</text>
     </g>
    </g>
    <g id="ytick_5">
     <g id="line2d_11">
      <path d="M 48.126719 111.999875 
L 249.096719 111.999875 
" clip-path="url(#p443e3bbbb0)" style="fill: none; stroke: #b0b0b0; stroke-opacity: 0.22; stroke-width: 0.8; stroke-linecap: square"/>
     </g>
     <g id="line2d_12">
      <g>
       <use xlink:href="#mf5c37a648b" x="48.126719" y="111.999875" style="stroke: #000000; stroke-width: 0.8"/>
      </g>
     </g>
     <g id="text_7">
      <text style="font: 9px 'Times New Roman', 'Times', 'Nimbus Roman', 'DejaVu Serif', serif; text-anchor: end" x="41.126719" y="115.124563" transform="rotate(-0 41.126719 115.124563)">−0.04</text>
     </g>
    </g>
    <g id="ytick_6">
     <g id="line2d_13">
      <path d="M 48.126719 91.246256 
L 249.096719 91.246256 
" clip-path="url(#p443e3bbbb0)" style="fill: none; stroke: #b0b0b0; stroke-opacity: 0.22; stroke-width: 0.8; stroke-linecap: square"/>
     </g>
     <g id="line2d_14">
      <g>
       <use xlink:href="#mf5c37a648b" x="48.126719" y="91.246256" style="stroke: #000000; stroke-width: 0.8"/>
      </g>
     </g>
     <g id="text_8">
      <text style="font: 9px 'Times New Roman', 'Times', 'Nimbus Roman', 'DejaVu Serif', serif; text-anchor: end" x="41.126719" y="94.370943" transform="rotate(-0 41.126719 94.370943)">−0.03</text>
     </g>
    </g>
    <g id="ytick_7">
     <g id="line2d_15">
      <path d="M 48.126719 70.492636 
L 249.096719 70.492636 
" clip-path="url(#p443e3bbbb0)" style="fill: none; stroke: #b0b0b0; stroke-opacity: 0.22; stroke-width: 0.8; stroke-linecap: square"/>
     </g>
     <g id="line2d_16">
      <g>
       <use xlink:href="#mf5c37a648b" x="48.126719" y="70.492636" style="stroke: #000000; stroke-width: 0.8"/>
      </g>
     </g>
     <g id="text_9">
      <text style="font: 9px 'Times New Roman', 'Times', 'Nimbus Roman', 'DejaVu Serif', serif; text-anchor: end" x="41.126719" y="73.617324" transform="rotate(-0 41.126719 73.617324)">−0.02</text>
     </g>
    </g>
    <g id="ytick_8">
     <g id="line2d_17">
      <path d="M 48.126719 49.739017 
L 249.096719 49.739017 
" clip-path="url(#p443e3bbbb0)" style="fill: none; stroke: #b0b0b0; stroke-opacity: 0.22; stroke-width: 0.8; stroke-linecap: square"/>
     </g>
     <g id="line2d_18">
      <g>
       <use xlink:href="#mf5c37a648b" x="48.126719" y="49.739017" style="stroke: #000000; stroke-width: 0.8"/>
      </g>
     </g>
     <g id="text_10">
      <text style="font: 9px 'Times New Roman', 'Times', 'Nimbus Roman', 'DejaVu Serif', serif; text-anchor: end" x="41.126719" y="52.863705" transform="rotate(-0 41.126719 52.863705)">−0.01</text>
     </g>
    </g>
    <g id="ytick_9">
     <g id="line2d_19">
      <path d="M 48.126719 28.985398 
L 249.096719 28.985398 
" clip-path="url(#p443e3bbbb0)" style="fill: none; stroke: #b0b0b0; stroke-opacity: 0.22; stroke-width: 0.8; stroke-linecap: square"/>
     </g>
     <g id="line2d_20">
      <g>
       <use xlink:href="#mf5c37a648b" x="48.126719" y="28.985398" style="stroke: #000000; stroke-width: 0.8"/>
      </g>
     </g>
     <g id="text_11">
      <text style="font: 9px 'Times New Roman', 'Times', 'Nimbus Roman', 'DejaVu Serif', serif; text-anchor: end" x="41.126719" y="32.110085" transform="rotate(-0 41.126719 32.110085)">0.00</text>
     </g>
    </g>
    <g id="text_12">
     <text style="font: 10px 'Times New Roman', 'Times', 'Nimbus Roman', 'DejaVu Serif', serif; text-anchor: middle" x="14.14375" y="110.458125" transform="rotate(-90 14.14375 110.458125)">Hybrid - Volatility</text>
    </g>
   </g>
   <g id="LineCollection_1">
    <path d="M 72.486719 123.285222 
L 102.936719 123.285222 
" clip-path="url(#p443e3bbbb0)" style="fill: none; stroke: #1f77b4; stroke-width: 1.5"/>
    <path d="M 194.286719 109.212273 
L 224.736719 109.212273 
" clip-path="url(#p443e3bbbb0)" style="fill: none; stroke: #1f77b4; stroke-width: 1.5"/>
   </g>
   <g id="line2d_21">
    <path d="M 48.126719 28.985398 
L 249.096719 28.985398 
" clip-path="url(#p443e3bbbb0)" style="fill: none; stroke-dasharray: 2.96,1.28; stroke-dashoffset: 0; stroke: #222222; stroke-width: 0.8"/>
   </g>
   <g id="patch_3">
    <path d="M 48.126719 200.078125 
L 48.126719 20.838125 
" style="fill: none; stroke: #000000; stroke-width: 0.8; stroke-linejoin: miter; stroke-linecap: square"/>
   </g>
   <g id="patch_4">
    <path d="M 48.126719 200.078125 
L 249.096719 200.078125 
" style="fill: none; stroke: #000000; stroke-width: 0.8; stroke-linejoin: miter; stroke-linecap: square"/>
   </g>
   <g id="text_13">
    <!-- $\Delta$FPR -->
    <g transform="translate(134.806719 14.838125)">
     <text>
      <tspan style="font: 11px 'STIXGeneral'" x="0" y="-0.59375">Δ</tspan>
      <tspan style="font: 11px 'Times New Roman'" x="7.942001 14.059677 20.177353" y="-0.59375">FPR</tspan>
     </text>
    </g>
   </g>
  </g>
  <g id="axes_2">
   <g id="patch_5">
    <path d="M 287.686719 200.078125 
L 488.656719 200.078125 
L 488.656719 20.838125 
L 287.686719 20.838125 
z
" style="fill: #ffffff"/>
   </g>
   <g id="PolyCollection_3">
    <defs>
     <path id="m97dde2c0aa" d="M 327.50122 -67.056388 
L 327.042218 -67.056388 
L 326.958791 -68.333265 
L 326.848015 -69.610143 
L 326.702045 -70.88702 
L 326.512413 -72.163898 
L 326.270969 -73.440775 
L 325.970878 -74.717653 
L 325.607207 -75.99453 
L 325.176654 -77.271407 
L 324.676448 -78.548285 
L 324.103009 -79.825162 
L 323.451369 -81.10204 
L 322.716118 -82.378917 
L 321.893725 -83.655795 
L 320.98516 -84.932672 
L 319.997354 -86.20955 
L 318.942716 -87.486427 
L 317.837205 -88.763305 
L 316.698468 -90.040182 
L 315.545456 -91.31706 
L 314.399761 -92.593937 
L 313.287409 -93.870815 
L 312.239113 -95.147692 
L 311.287607 -96.42457 
L 310.462283 -97.701447 
L 309.78294 -98.978325 
L 309.254996 -100.255202 
L 308.867763 -101.53208 
L 308.595895 -102.808957 
L 308.40287 -104.085835 
L 308.244998 -105.362712 
L 308.075087 -106.63959 
L 307.84582 -107.916467 
L 307.513427 -109.193345 
L 307.041967 -110.470222 
L 306.407765 -111.7471 
L 305.60289 -113.023977 
L 304.636705 -114.300855 
L 303.535352 -115.577732 
L 302.339999 -116.854609 
L 301.104873 -118.131487 
L 299.895422 -119.408364 
L 298.785819 -120.685242 
L 297.854602 -121.962119 
L 297.177965 -123.238997 
L 296.821719 -124.515874 
L 296.833933 -125.792752 
L 297.240084 -127.069629 
L 298.041084 -128.346507 
L 299.213142 -129.623384 
L 300.70802 -130.900262 
L 302.453238 -132.177139 
L 304.353326 -133.454017 
L 306.29418 -134.730894 
L 308.152076 -136.007772 
L 309.807177 -137.284649 
L 311.159269 -138.561527 
L 312.141975 -139.838404 
L 312.731691 -141.115282 
L 312.948829 -142.392159 
L 312.851273 -143.669037 
L 312.522322 -144.945914 
L 312.056821 -146.222792 
L 311.549168 -147.499669 
L 311.085486 -148.776547 
L 310.740133 -150.053424 
L 310.574911 -151.330302 
L 310.638594 -152.607179 
L 310.964948 -153.884057 
L 311.568906 -155.160934 
L 312.442243 -156.437811 
L 313.551176 -157.714689 
L 314.838153 -158.991566 
L 316.228762 -160.268444 
L 317.642627 -161.545321 
L 319.005427 -162.822199 
L 320.258603 -164.099076 
L 321.364241 -165.375954 
L 322.304578 -166.652831 
L 323.077504 -167.929709 
L 323.690609 -169.206586 
L 324.156166 -170.483464 
L 324.488454 -171.760341 
L 324.703467 -173.037219 
L 324.820006 -174.314096 
L 324.860739 -175.590974 
L 324.852015 -176.867851 
L 324.821984 -178.144729 
L 324.797402 -179.421606 
L 324.800154 -180.698484 
L 324.844632 -181.975361 
L 324.936763 -183.252239 
L 325.074781 -184.529116 
L 325.251288 -185.805994 
L 325.455784 -187.082871 
L 325.676939 -188.359749 
L 325.904126 -189.636626 
L 326.128132 -190.913504 
L 326.34126 -192.190381 
L 326.537213 -193.467259 
L 328.006224 -193.467259 
L 328.006224 -193.467259 
L 328.202177 -192.190381 
L 328.415306 -190.913504 
L 328.639311 -189.636626 
L 328.866499 -188.359749 
L 329.087654 -187.082871 
L 329.292149 -185.805994 
L 329.468656 -184.529116 
L 329.606675 -183.252239 
L 329.698805 -181.975361 
L 329.743284 -180.698484 
L 329.746035 -179.421606 
L 329.721454 -178.144729 
L 329.691422 -176.867851 
L 329.682698 -175.590974 
L 329.723431 -174.314096 
L 329.839971 -173.037219 
L 330.054983 -171.760341 
L 330.387272 -170.483464 
L 330.852829 -169.206586 
L 331.465934 -167.929709 
L 332.23886 -166.652831 
L 333.179196 -165.375954 
L 334.284835 -164.099076 
L 335.53801 -162.822199 
L 336.90081 -161.545321 
L 338.314675 -160.268444 
L 339.705285 -158.991566 
L 340.992262 -157.714689 
L 342.101194 -156.437811 
L 342.974532 -155.160934 
L 343.578489 -153.884057 
L 343.904844 -152.607179 
L 343.968527 -151.330302 
L 343.803304 -150.053424 
L 343.457951 -148.776547 
L 342.994269 -147.499669 
L 342.486616 -146.222792 
L 342.021115 -144.945914 
L 341.692165 -143.669037 
L 341.594608 -142.392159 
L 341.811746 -141.115282 
L 342.401463 -139.838404 
L 343.384168 -138.561527 
L 344.73626 -137.284649 
L 346.391362 -136.007772 
L 348.249257 -134.730894 
L 350.190112 -133.454017 
L 352.0902 -132.177139 
L 353.835417 -130.900262 
L 355.330295 -129.623384 
L 356.502353 -128.346507 
L 357.303353 -127.069629 
L 357.709505 -125.792752 
L 357.721719 -124.515874 
L 357.365472 -123.238997 
L 356.688836 -121.962119 
L 355.757618 -120.685242 
L 354.648016 -119.408364 
L 353.438565 -118.131487 
L 352.203439 -116.854609 
L 351.008085 -115.577732 
L 349.906733 -114.300855 
L 348.940547 -113.023977 
L 348.135673 -111.7471 
L 347.501471 -110.470222 
L 347.030011 -109.193345 
L 346.697617 -107.916467 
L 346.46835 -106.63959 
L 346.298439 -105.362712 
L 346.140567 -104.085835 
L 345.947542 -102.808957 
L 345.675675 -101.53208 
L 345.288441 -100.255202 
L 344.760498 -98.978325 
L 344.081155 -97.701447 
L 343.25583 -96.42457 
L 342.304324 -95.147692 
L 341.256029 -93.870815 
L 340.143676 -92.593937 
L 338.997981 -91.31706 
L 337.844969 -90.040182 
L 336.706233 -88.763305 
L 335.600722 -87.486427 
L 334.546083 -86.20955 
L 333.558277 -84.932672 
L 332.649713 -83.655795 
L 331.82732 -82.378917 
L 331.092069 -81.10204 
L 330.440429 -79.825162 
L 329.866989 -78.548285 
L 329.366784 -77.271407 
L 328.936231 -75.99453 
L 328.572559 -74.717653 
L 328.272469 -73.440775 
L 328.031024 -72.163898 
L 327.841392 -70.88702 
L 327.695423 -69.610143 
L 327.584646 -68.333265 
L 327.50122 -67.056388 
z
" style="stroke: #d95f02; stroke-opacity: 0.45"/>
    </defs>
    <g clip-path="url(#pc06d896d72)">
     <use xlink:href="#m97dde2c0aa" x="0" y="222.452656" style="fill: #d95f02; fill-opacity: 0.45; stroke: #d95f02; stroke-opacity: 0.45"/>
    </g>
   </g>
   <g id="PolyCollection_4">
    <defs>
     <path id="mfe6d90f35a" d="M 449.143514 -30.521804 
L 448.999924 -30.521804 
L 449.003291 -31.912434 
L 449.012389 -33.303064 
L 449.024244 -34.693694 
L 449.034847 -36.084324 
L 449.039761 -37.474954 
L 449.034169 -38.865585 
L 449.01254 -40.256215 
L 448.968696 -41.646845 
L 448.897026 -43.037475 
L 448.794913 -44.428105 
L 448.665299 -45.818735 
L 448.51749 -47.209365 
L 448.36468 -48.599995 
L 448.218552 -49.990625 
L 448.083598 -51.381255 
L 447.954777 -52.771885 
L 447.820488 -54.162516 
L 447.669309 -55.553146 
L 447.49613 -56.943776 
L 447.303507 -58.334406 
L 447.097533 -59.725036 
L 446.881655 -61.115666 
L 446.653305 -62.506296 
L 446.405687 -63.896926 
L 446.132662 -65.287556 
L 445.831944 -66.678186 
L 445.503138 -68.068816 
L 445.141321 -69.459447 
L 444.730701 -70.850077 
L 444.243496 -72.240707 
L 443.646236 -73.631337 
L 442.91112 -75.021967 
L 442.027097 -76.412597 
L 441.005677 -77.803227 
L 439.879518 -79.193857 
L 438.694882 -80.584487 
L 437.5005 -81.975117 
L 436.335837 -83.365747 
L 435.222633 -84.756378 
L 434.163727 -86.147008 
L 433.150128 -87.537638 
L 432.171321 -88.928268 
L 431.220339 -90.318898 
L 430.289175 -91.709528 
L 429.35968 -93.100158 
L 428.401104 -94.490788 
L 427.381043 -95.881418 
L 426.284798 -97.272048 
L 425.129819 -98.662678 
L 423.964525 -100.053309 
L 422.851932 -101.443939 
L 421.848395 -102.834569 
L 420.98924 -104.225199 
L 420.286593 -105.615829 
L 419.736247 -107.006459 
L 419.325885 -108.397089 
L 419.038485 -109.787719 
L 418.85092 -111.178349 
L 418.733915 -112.568979 
L 418.660313 -113.959609 
L 418.621719 -115.35024 
L 418.643741 -116.74087 
L 418.786534 -118.1315 
L 419.12525 -119.52213 
L 419.719109 -120.91276 
L 420.586037 -122.30339 
L 421.695584 -123.69402 
L 422.980886 -125.08465 
L 424.361211 -126.47528 
L 425.764914 -127.86591 
L 427.145649 -129.25654 
L 428.487874 -130.647171 
L 429.80105 -132.037801 
L 431.106292 -133.428431 
L 432.422749 -134.819061 
L 433.759797 -136.209691 
L 435.115615 -137.600321 
L 436.478078 -138.990951 
L 437.824708 -140.381581 
L 439.123021 -141.772211 
L 440.335205 -143.162841 
L 441.428276 -144.553471 
L 442.385449 -145.944102 
L 443.211952 -147.334732 
L 443.931434 -148.725362 
L 444.574863 -150.115992 
L 445.167906 -151.506622 
L 445.722858 -152.897252 
L 446.238038 -154.287882 
L 446.703416 -155.678512 
L 447.108473 -157.069142 
L 447.448122 -158.459772 
L 447.724696 -159.850402 
L 447.946667 -161.241033 
L 448.125993 -162.631663 
L 448.275492 -164.022293 
L 448.406561 -165.412923 
L 448.527206 -166.803553 
L 448.640804 -168.194183 
L 449.502634 -168.194183 
L 449.502634 -168.194183 
L 449.616231 -166.803553 
L 449.736876 -165.412923 
L 449.867945 -164.022293 
L 450.017445 -162.631663 
L 450.19677 -161.241033 
L 450.418741 -159.850402 
L 450.695316 -158.459772 
L 451.034964 -157.069142 
L 451.440021 -155.678512 
L 451.905399 -154.287882 
L 452.420579 -152.897252 
L 452.975532 -151.506622 
L 453.568575 -150.115992 
L 454.212004 -148.725362 
L 454.931485 -147.334732 
L 455.757988 -145.944102 
L 456.715161 -144.553471 
L 457.808232 -143.162841 
L 459.020416 -141.772211 
L 460.31873 -140.381581 
L 461.66536 -138.990951 
L 463.027822 -137.600321 
L 464.38364 -136.209691 
L 465.720689 -134.819061 
L 467.037146 -133.428431 
L 468.342387 -132.037801 
L 469.655563 -130.647171 
L 470.997789 -129.25654 
L 472.378523 -127.86591 
L 473.782227 -126.47528 
L 475.162551 -125.08465 
L 476.447854 -123.69402 
L 477.5574 -122.30339 
L 478.424329 -120.91276 
L 479.018187 -119.52213 
L 479.356903 -118.1315 
L 479.499696 -116.74087 
L 479.521719 -115.35024 
L 479.483124 -113.959609 
L 479.409523 -112.568979 
L 479.292517 -111.178349 
L 479.104952 -109.787719 
L 478.817552 -108.397089 
L 478.40719 -107.006459 
L 477.856845 -105.615829 
L 477.154197 -104.225199 
L 476.295042 -102.834569 
L 475.291505 -101.443939 
L 474.178913 -100.053309 
L 473.013619 -98.662678 
L 471.858639 -97.272048 
L 470.762395 -95.881418 
L 469.742333 -94.490788 
L 468.783757 -93.100158 
L 467.854262 -91.709528 
L 466.923099 -90.318898 
L 465.972117 -88.928268 
L 464.99331 -87.537638 
L 463.979711 -86.147008 
L 462.920805 -84.756378 
L 461.8076 -83.365747 
L 460.642938 -81.975117 
L 459.448556 -80.584487 
L 458.26392 -79.193857 
L 457.13776 -77.803227 
L 456.11634 -76.412597 
L 455.232317 -75.021967 
L 454.497202 -73.631337 
L 453.899941 -72.240707 
L 453.412736 -70.850077 
L 453.002116 -69.459447 
L 452.6403 -68.068816 
L 452.311494 -66.678186 
L 452.010776 -65.287556 
L 451.737751 -63.896926 
L 451.490133 -62.506296 
L 451.261782 -61.115666 
L 451.045905 -59.725036 
L 450.839931 -58.334406 
L 450.647307 -56.943776 
L 450.474129 -55.553146 
L 450.32295 -54.162516 
L 450.18866 -52.771885 
L 450.05984 -51.381255 
L 449.924885 -49.990625 
L 449.778758 -48.599995 
L 449.625948 -47.209365 
L 449.478138 -45.818735 
L 449.348525 -44.428105 
L 449.246411 -43.037475 
L 449.174741 -41.646845 
L 449.130898 -40.256215 
L 449.109268 -38.865585 
L 449.103676 -37.474954 
L 449.108591 -36.084324 
L 449.119193 -34.693694 
L 449.131048 -33.303064 
L 449.140146 -31.912434 
L 449.143514 -30.521804 
z
" style="stroke: #d95f02; stroke-opacity: 0.45"/>
    </defs>
    <g clip-path="url(#pc06d896d72)">
     <use xlink:href="#mfe6d90f35a" x="0" y="222.452656" style="fill: #d95f02; fill-opacity: 0.45; stroke: #d95f02; stroke-opacity: 0.45"/>
    </g>
   </g>
   <g id="matplotlib.axis_3">
    <g id="xtick_3">
     <g id="line2d_22">
      <g>
       <use xlink:href="#m3b9fed928a" x="327.271719" y="200.078125" style="stroke: #000000; stroke-width: 0.8"/>
      </g>
     </g>
     <g id="text_14">
      <text style="font: 9px 'Times New Roman', 'Times', 'Nimbus Roman', 'DejaVu Serif', serif; text-anchor: middle" x="327.271719" y="213.3275" transform="rotate(-0 327.271719 213.3275)">Event</text>
     </g>
    </g>
    <g id="xtick_4">
     <g id="line2d_23">
      <g>
       <use xlink:href="#m3b9fed928a" x="449.071719" y="200.078125" style="stroke: #000000; stroke-width: 0.8"/>
      </g>
     </g>
     <g id="text_15">
      <text style="font: 9px 'Times New Roman', 'Times', 'Nimbus Roman', 'DejaVu Serif', serif; text-anchor: middle" x="449.071719" y="213.3275" transform="rotate(-0 449.071719 213.3275)">Block</text>
     </g>
    </g>
   </g>
   <g id="matplotlib.axis_4">
    <g id="ytick_10">
     <g id="line2d_24">
      <path d="M 287.686719 178.79609 
L 488.656719 178.79609 
" clip-path="url(#pc06d896d72)" style="fill: none; stroke: #b0b0b0; stroke-opacity: 0.22; stroke-width: 0.8; stroke-linecap: square"/>
     </g>
     <g id="line2d_25">
      <g>
       <use xlink:href="#mf5c37a648b" x="287.686719" y="178.79609" style="stroke: #000000; stroke-width: 0.8"/>
      </g>
     </g>
     <g id="text_16">
      <text style="font: 9px 'Times New Roman', 'Times', 'Nimbus Roman', 'DejaVu Serif', serif; text-anchor: end" x="280.686719" y="181.920777" transform="rotate(-0 280.686719 181.920777)">−0.25</text>
     </g>
    </g>
    <g id="ytick_11">
     <g id="line2d_26">
      <path d="M 287.686719 153.05236 
L 488.656719 153.05236 
" clip-path="url(#pc06d896d72)" style="fill: none; stroke: #b0b0b0; stroke-opacity: 0.22; stroke-width: 0.8; stroke-linecap: square"/>
     </g>
     <g id="line2d_27">
      <g>
       <use xlink:href="#mf5c37a648b" x="287.686719" y="153.05236" style="stroke: #000000; stroke-width: 0.8"/>
      </g>
     </g>
     <g id="text_17">
      <text style="font: 9px 'Times New Roman', 'Times', 'Nimbus Roman', 'DejaVu Serif', serif; text-anchor: end" x="280.686719" y="156.177048" transform="rotate(-0 280.686719 156.177048)">−0.20</text>
     </g>
    </g>
    <g id="ytick_12">
     <g id="line2d_28">
      <path d="M 287.686719 127.308631 
L 488.656719 127.308631 
" clip-path="url(#pc06d896d72)" style="fill: none; stroke: #b0b0b0; stroke-opacity: 0.22; stroke-width: 0.8; stroke-linecap: square"/>
     </g>
     <g id="line2d_29">
      <g>
       <use xlink:href="#mf5c37a648b" x="287.686719" y="127.308631" style="stroke: #000000; stroke-width: 0.8"/>
      </g>
     </g>
     <g id="text_18">
      <text style="font: 9px 'Times New Roman', 'Times', 'Nimbus Roman', 'DejaVu Serif', serif; text-anchor: end" x="280.686719" y="130.433319" transform="rotate(-0 280.686719 130.433319)">−0.15</text>
     </g>
    </g>
    <g id="ytick_13">
     <g id="line2d_30">
      <path d="M 287.686719 101.564902 
L 488.656719 101.564902 
" clip-path="url(#pc06d896d72)" style="fill: none; stroke: #b0b0b0; stroke-opacity: 0.22; stroke-width: 0.8; stroke-linecap: square"/>
     </g>
     <g id="line2d_31">
      <g>
       <use xlink:href="#mf5c37a648b" x="287.686719" y="101.564902" style="stroke: #000000; stroke-width: 0.8"/>
      </g>
     </g>
     <g id="text_19">
      <text style="font: 9px 'Times New Roman', 'Times', 'Nimbus Roman', 'DejaVu Serif', serif; text-anchor: end" x="280.686719" y="104.689589" transform="rotate(-0 280.686719 104.689589)">−0.10</text>
     </g>
    </g>
    <g id="ytick_14">
     <g id="line2d_32">
      <path d="M 287.686719 75.821172 
L 488.656719 75.821172 
" clip-path="url(#pc06d896d72)" style="fill: none; stroke: #b0b0b0; stroke-opacity: 0.22; stroke-width: 0.8; stroke-linecap: square"/>
     </g>
     <g id="line2d_33">
      <g>
       <use xlink:href="#mf5c37a648b" x="287.686719" y="75.821172" style="stroke: #000000; stroke-width: 0.8"/>
      </g>
     </g>
     <g id="text_20">
      <text style="font: 9px 'Times New Roman', 'Times', 'Nimbus Roman', 'DejaVu Serif', serif; text-anchor: end" x="280.686719" y="78.94586" transform="rotate(-0 280.686719 78.94586)">−0.05</text>
     </g>
    </g>
    <g id="ytick_15">
     <g id="line2d_34">
      <path d="M 287.686719 50.077443 
L 488.656719 50.077443 
" clip-path="url(#pc06d896d72)" style="fill: none; stroke: #b0b0b0; stroke-opacity: 0.22; stroke-width: 0.8; stroke-linecap: square"/>
     </g>
     <g id="line2d_35">
      <g>
       <use xlink:href="#mf5c37a648b" x="287.686719" y="50.077443" style="stroke: #000000; stroke-width: 0.8"/>
      </g>
     </g>
     <g id="text_21">
      <text style="font: 9px 'Times New Roman', 'Times', 'Nimbus Roman', 'DejaVu Serif', serif; text-anchor: end" x="280.686719" y="53.20213" transform="rotate(-0 280.686719 53.20213)">0.00</text>
     </g>
    </g>
    <g id="ytick_16">
     <g id="line2d_36">
      <path d="M 287.686719 24.333714 
L 488.656719 24.333714 
" clip-path="url(#pc06d896d72)" style="fill: none; stroke: #b0b0b0; stroke-opacity: 0.22; stroke-width: 0.8; stroke-linecap: square"/>
     </g>
     <g id="line2d_37">
      <g>
       <use xlink:href="#mf5c37a648b" x="287.686719" y="24.333714" style="stroke: #000000; stroke-width: 0.8"/>
      </g>
     </g>
     <g id="text_22">
      <text style="font: 9px 'Times New Roman', 'Times', 'Nimbus Roman', 'DejaVu Serif', serif; text-anchor: end" x="280.686719" y="27.458401" transform="rotate(-0 280.686719 27.458401)">0.05</text>
     </g>
    </g>
   </g>
   <g id="LineCollection_2">
    <path d="M 312.046719 96.689631 
L 342.496719 96.689631 
" clip-path="url(#pc06d896d72)" style="fill: none; stroke: #1f77b4; stroke-width: 1.5"/>
    <path d="M 433.846719 111.730982 
L 464.296719 111.730982 
" clip-path="url(#pc06d896d72)" style="fill: none; stroke: #1f77b4; stroke-width: 1.5"/>
   </g>
   <g id="line2d_38">
    <path d="M 287.686719 50.077443 
L 488.656719 50.077443 
" clip-path="url(#pc06d896d72)" style="fill: none; stroke-dasharray: 2.96,1.28; stroke-dashoffset: 0; stroke: #222222; stroke-width: 0.8"/>
   </g>
   <g id="patch_6">
    <path d="M 287.686719 200.078125 
L 287.686719 20.838125 
" style="fill: none; stroke: #000000; stroke-width: 0.8; stroke-linejoin: miter; stroke-linecap: square"/>
   </g>
   <g id="patch_7">
    <path d="M 287.686719 200.078125 
L 488.656719 200.078125 
" style="fill: none; stroke: #000000; stroke-width: 0.8; stroke-linejoin: miter; stroke-linecap: square"/>
   </g>
   <g id="text_23">
    <!-- $\Delta$F1 -->
    <g transform="translate(378.381719 14.838125)">
     <text>
      <tspan style="font: 11px 'STIXGeneral'" x="0" y="-0.5625">Δ</tspan>
      <tspan style="font: 11px 'Times New Roman'" x="7.942001 14.059677" y="-0.5625">F1</tspan>
     </text>
    </g>
   </g>
  </g>
 </g>
 <defs>
  <clipPath id="p443e3bbbb0">
   <rect x="48.126719" y="20.838125" width="200.97" height="179.24"/>
  </clipPath>
  <clipPath id="pc06d896d72">
   <rect x="287.686719" y="20.838125" width="200.97" height="179.24"/>
  </clipPath>
 </defs>
</svg>
