<?xml version="1.0" encoding="utf-8" standalone="no"?>
<!DOCTYPE svg PUBLIC "-//W3C//DTD SVG 1.1//EN"
  "http://www.w3.org/Graphics/SVG/1.1/DTD/svg11.dtd">
<svg xmlns:xlink="http://www.w3.org/1999/xlink" width="453.258906pt" height="230.558312pt" viewBox="0 0 453.258906 230.558312" xmlns="http://www.w3.org/2000/svg" version="1.1">
 <metadata>
  <rdf:RDF xmlns:dc="http://purl.org/dc/elements/1.1/" xmlns:cc="http://creativecommons.org/ns#" xmlns:rdf="http://www.w3.org/1999/02/22-rdf-syntax-ns#">
   <cc:Work>
    <dc:type rdf:resource="http://purl.org/dc/dcmitype/StillImage"/>
    <dc:date>2026-06-20T13:02:11.743016</dc:date>
    <dc:format>image/svg+xml</dc:format>
    <dc:creator>
     <cc:Agent>
      <dc:title>Matplotlib v3.9.2, https://matplotlib.org/</dc:title>
     </cc:Agent>
    </dc:creator>
   </cc:Work>
  </rdf:RDF>
 </metadata>
 <defs>
  <style type="text/css">*{stroke-linejoin: round; stroke-linecap: butt}</style>
 </defs>
 <g id="figure_1">
  <g id="patch_1">
   <path d="M 0 230.558312 
L 453.258906 230.558312 
L 453.258906 -0 
L 0 -0 
z
" style="fill: #ffffff"/>
  </g>
  <g id="axes_1">
   <g id="patch_2">
    <path d="M 55.458906 207.648 
L 233.004361 207.648 
L 233.004361 30.24 
L 55.458906 30.24 
z
" style="fill: #ffffff"/>
   </g>
   <g id="PolyCollection_1">
    <defs>
     <path id="m8a01a2cc80" d="M 90.593929 -57.602931 
L 90.266032 -57.602931 
L 90.216841 -58.289555 
L 90.155059 -58.97618 
L 90.078514 -59.662804 
L 89.985719 -60.349429 
L 89.876344 -61.036053 
L 89.751529 -61.722678 
L 89.613969 -62.409302 
L 89.467754 -63.095927 
L 89.318005 -63.782551 
L 89.170343 -64.469176 
L 89.030192 -65.1558 
L 88.901918 -65.842425 
L 88.78788 -66.529049 
L 88.687588 -67.215674 
L 88.597268 -67.902298 
L 88.510071 -68.588923 
L 88.41695 -69.275548 
L 88.307942 -69.962172 
L 88.173354 -70.648797 
L 88.004367 -71.335421 
L 87.792854 -72.022046 
L 87.530606 -72.70867 
L 87.208508 -73.395295 
L 86.816259 -74.081919 
L 86.343037 -74.768544 
L 85.779075 -75.455168 
L 85.117756 -76.141793 
L 84.35768 -76.828417 
L 83.50422 -77.515042 
L 82.570279 -78.201666 
L 81.5762 -78.888291 
L 80.548977 -79.574915 
L 79.520988 -80.26154 
L 78.528513 -80.948164 
L 77.610124 -81.634789 
L 76.804831 -82.321413 
L 76.14962 -83.008038 
L 75.676068 -83.694662 
L 75.405982 -84.381287 
L 75.3466 -85.067911 
L 75.486419 -85.754536 
L 75.792977 -86.44116 
L 76.213744 -87.127785 
L 76.680542 -87.814409 
L 77.116976 -88.501034 
L 77.447451 -89.187658 
L 77.605925 -89.874283 
L 77.542748 -90.560907 
L 77.228608 -91.247532 
L 76.6554 -91.934156 
L 75.834556 -92.620781 
L 74.793676 -93.307405 
L 73.572419 -93.99403 
L 72.218602 -94.680654 
L 70.785243 -95.367279 
L 69.328937 -96.053903 
L 67.909326 -96.740528 
L 66.588824 -97.427153 
L 65.431442 -98.113777 
L 64.499868 -98.800402 
L 63.850757 -99.487026 
L 63.529154 -100.173651 
L 63.563515 -100.860275 
L 63.962558 -101.5469 
L 64.714385 -102.233524 
L 65.787382 -102.920149 
L 67.131958 -103.606773 
L 68.682431 -104.293398 
L 70.359125 -104.980022 
L 72.071467 -105.666647 
L 73.72303 -106.353271 
L 75.218983 -107.039896 
L 76.475346 -107.72652 
L 77.428495 -108.413145 
L 78.042899 -109.099769 
L 78.315383 -109.786394 
L 78.275137 -110.473018 
L 77.979703 -111.159643 
L 77.507914 -111.846267 
L 76.950909 -112.532892 
L 76.402147 -113.219516 
L 75.947202 -113.906141 
L 75.654343 -114.592765 
L 75.567359 -115.27939 
L 75.702426 -115.966014 
L 76.05026 -116.652639 
L 76.583435 -117.339263 
L 77.266827 -118.025888 
L 78.067774 -118.712512 
L 78.962493 -119.399137 
L 79.936766 -120.085761 
L 80.981347 -120.772386 
L 82.08469 -121.45901 
L 83.226611 -122.145635 
L 84.375775 -122.832259 
L 85.492086 -123.518884 
L 86.532949 -124.205508 
L 87.460958 -124.892133 
L 88.250313 -125.578758 
L 92.609648 -125.578758 
L 92.609648 -125.578758 
L 93.399003 -124.892133 
L 94.327012 -124.205508 
L 95.367876 -123.518884 
L 96.484186 -122.832259 
L 97.63335 -122.145635 
L 98.775271 -121.45901 
L 99.878615 -120.772386 
L 100.923195 -120.085761 
L 101.897469 -119.399137 
L 102.792187 -118.712512 
L 103.593134 -118.025888 
L 104.276526 -117.339263 
L 104.809701 -116.652639 
L 105.157536 -115.966014 
L 105.292602 -115.27939 
L 105.205619 -114.592765 
L 104.912759 -113.906141 
L 104.457815 -113.219516 
L 103.909052 -112.532892 
L 103.352048 -111.846267 
L 102.880259 -111.159643 
L 102.584824 -110.473018 
L 102.544578 -109.786394 
L 102.817062 -109.099769 
L 103.431466 -108.413145 
L 104.384615 -107.72652 
L 105.640978 -107.039896 
L 107.136931 -106.353271 
L 108.788494 -105.666647 
L 110.500836 -104.980022 
L 112.17753 -104.293398 
L 113.728003 -103.606773 
L 115.072579 -102.920149 
L 116.145576 -102.233524 
L 116.897404 -101.5469 
L 117.296446 -100.860275 
L 117.330807 -100.173651 
L 117.009204 -99.487026 
L 116.360093 -98.800402 
L 115.428519 -98.113777 
L 114.271137 -97.427153 
L 112.950635 -96.740528 
L 111.531024 -96.053903 
L 110.074719 -95.367279 
L 108.64136 -94.680654 
L 107.287542 -93.99403 
L 106.066285 -93.307405 
L 105.025405 -92.620781 
L 104.204562 -91.934156 
L 103.631353 -91.247532 
L 103.317213 -90.560907 
L 103.254037 -89.874283 
L 103.41251 -89.187658 
L 103.742985 -88.501034 
L 104.17942 -87.814409 
L 104.646217 -87.127785 
L 105.066984 -86.44116 
L 105.373542 -85.754536 
L 105.513361 -85.067911 
L 105.45398 -84.381287 
L 105.183893 -83.694662 
L 104.710341 -83.008038 
L 104.055131 -82.321413 
L 103.249838 -81.634789 
L 102.331449 -80.948164 
L 101.338973 -80.26154 
L 100.310984 -79.574915 
L 99.283761 -78.888291 
L 98.289683 -78.201666 
L 97.355741 -77.515042 
L 96.502282 -76.828417 
L 95.742206 -76.141793 
L 95.080886 -75.455168 
L 94.516924 -74.768544 
L 94.043703 -74.081919 
L 93.651453 -73.395295 
L 93.329355 -72.70867 
L 93.067107 -72.022046 
L 92.855594 -71.335421 
L 92.686607 -70.648797 
L 92.552019 -69.962172 
L 92.443011 -69.275548 
L 92.34989 -68.588923 
L 92.262693 -67.902298 
L 92.172374 -67.215674 
L 92.072082 -66.529049 
L 91.958043 -65.842425 
L 91.829769 -65.1558 
L 91.689618 -64.469176 
L 91.541956 -63.782551 
L 91.392207 -63.095927 
L 91.245992 -62.409302 
L 91.108433 -61.722678 
L 90.983618 -61.036053 
L 90.874242 -60.349429 
L 90.781448 -59.662804 
L 90.704903 -58.97618 
L 90.64312 -58.289555 
L 90.593929 -57.602931 
z
" style="stroke: #d95f02; stroke-opacity: 0.45"/>
    </defs>
    <g clip-path="url(#p3673b131ee)">
     <use xlink:href="#m8a01a2cc80" x="0" y="230.558312" style="fill: #d95f02; fill-opacity: 0.45; stroke: #d95f02; stroke-opacity: 0.45"/>
    </g>
   </g>
   <g id="PolyCollection_2">
    <defs>
     <path id="m07bb304ba7" d="M 198.230373 -30.974312 
L 197.836199 -30.974312 
L 197.815423 -32.422977 
L 197.800395 -33.871642 
L 197.786353 -35.320307 
L 197.766856 -36.768972 
L 197.736304 -38.217637 
L 197.691989 -39.666302 
L 197.634469 -41.114967 
L 197.566042 -42.563632 
L 197.488161 -44.012297 
L 197.399296 -45.460962 
L 197.294593 -46.909627 
L 197.167723 -48.358292 
L 197.014149 -49.806957 
L 196.83408 -51.255621 
L 196.633364 -52.704286 
L 196.421479 -54.152951 
L 196.20742 -55.601616 
L 195.995481 -57.050281 
L 195.783055 -58.498946 
L 195.561305 -59.947611 
L 195.317906 -61.396276 
L 195.04017 -62.844941 
L 194.717257 -64.293606 
L 194.341337 -65.742271 
L 193.908429 -67.190936 
L 193.419469 -68.639601 
L 192.881282 -70.088266 
L 192.306231 -71.53693 
L 191.709385 -72.985595 
L 191.103257 -74.43426 
L 190.492042 -75.882925 
L 189.868494 -77.33159 
L 189.215987 -78.780255 
L 188.515658 -80.22892 
L 187.755394 -81.677585 
L 186.935985 -83.12625 
L 186.071086 -84.574915 
L 185.180935 -86.02358 
L 184.282963 -87.472245 
L 183.383706 -88.92091 
L 182.475572 -90.369575 
L 181.53987 -91.818239 
L 180.55524 -93.266904 
L 179.508669 -94.715569 
L 178.405118 -96.164234 
L 177.271668 -97.612899 
L 176.153723 -99.061564 
L 175.104067 -100.510229 
L 174.169112 -101.958894 
L 173.378152 -103.407559 
L 172.73955 -104.856224 
L 172.243792 -106.304889 
L 171.870216 -107.753554 
L 171.594093 -109.202219 
L 171.392661 -110.650884 
L 171.250142 -112.099548 
L 171.161341 -113.548213 
L 171.13246 -114.996878 
L 171.178289 -116.445543 
L 171.31681 -117.894208 
L 171.563598 -119.342873 
L 171.9277 -120.791538 
L 172.408861 -122.240203 
L 172.995332 -123.688868 
L 173.662924 -125.137533 
L 174.377702 -126.586198 
L 175.10417 -128.034863 
L 175.817447 -129.483528 
L 176.514245 -130.932192 
L 177.216626 -132.380857 
L 177.965651 -133.829522 
L 178.807023 -135.278187 
L 179.774385 -136.726852 
L 180.876353 -138.175517 
L 182.091313 -139.624182 
L 183.371304 -141.072847 
L 184.653985 -142.521512 
L 185.879594 -143.970177 
L 187.007802 -145.418842 
L 188.028302 -146.867507 
L 188.960379 -148.316172 
L 189.840994 -149.764837 
L 190.706365 -151.213501 
L 191.57533 -152.662166 
L 192.441789 -154.110831 
L 193.278556 -155.559496 
L 194.049311 -157.008161 
L 194.722191 -158.456826 
L 195.279336 -159.905491 
L 195.719983 -161.354156 
L 196.058016 -162.802821 
L 196.31648 -164.251486 
L 196.521439 -165.700151 
L 196.696701 -167.148816 
L 196.860152 -168.597481 
L 197.022019 -170.046146 
L 197.185045 -171.49481 
L 197.346173 -172.943475 
L 197.499058 -174.39214 
L 198.567515 -174.39214 
L 198.567515 -174.39214 
L 198.7204 -172.943475 
L 198.881528 -171.49481 
L 199.044554 -170.046146 
L 199.206421 -168.597481 
L 199.369871 -167.148816 
L 199.545134 -165.700151 
L 199.750093 -164.251486 
L 200.008557 -162.802821 
L 200.34659 -161.354156 
L 200.787237 -159.905491 
L 201.344382 -158.456826 
L 202.017262 -157.008161 
L 202.788017 -155.559496 
L 203.624784 -154.110831 
L 204.491243 -152.662166 
L 205.360208 -151.213501 
L 206.225579 -149.764837 
L 207.106194 -148.316172 
L 208.038271 -146.867507 
L 209.058771 -145.418842 
L 210.186979 -143.970177 
L 211.412588 -142.521512 
L 212.695269 -141.072847 
L 213.97526 -139.624182 
L 215.19022 -138.175517 
L 216.292188 -136.726852 
L 217.25955 -135.278187 
L 218.100922 -133.829522 
L 218.849947 -132.380857 
L 219.552327 -130.932192 
L 220.249126 -129.483528 
L 220.962403 -128.034863 
L 221.688871 -126.586198 
L 222.403649 -125.137533 
L 223.071241 -123.688868 
L 223.657712 -122.240203 
L 224.138873 -120.791538 
L 224.502975 -119.342873 
L 224.749763 -117.894208 
L 224.888284 -116.445543 
L 224.934113 -114.996878 
L 224.905232 -113.548213 
L 224.81643 -112.099548 
L 224.673912 -110.650884 
L 224.47248 -109.202219 
L 224.196357 -107.753554 
L 223.822781 -106.304889 
L 223.327023 -104.856224 
L 222.688421 -103.407559 
L 221.897461 -101.958894 
L 220.962506 -100.510229 
L 219.91285 -99.061564 
L 218.794904 -97.612899 
L 217.661455 -96.164234 
L 216.557903 -94.715569 
L 215.511332 -93.266904 
L 214.526703 -91.818239 
L 213.591001 -90.369575 
L 212.682867 -88.92091 
L 211.78361 -87.472245 
L 210.885638 -86.02358 
L 209.995487 -84.574915 
L 209.130588 -83.12625 
L 208.311179 -81.677585 
L 207.550914 -80.22892 
L 206.850585 -78.780255 
L 206.198079 -77.33159 
L 205.574531 -75.882925 
L 204.963315 -74.43426 
L 204.357188 -72.985595 
L 203.760342 -71.53693 
L 203.185291 -70.088266 
L 202.647104 -68.639601 
L 202.158144 -67.190936 
L 201.725236 -65.742271 
L 201.349316 -64.293606 
L 201.026403 -62.844941 
L 200.748667 -61.396276 
L 200.505268 -59.947611 
L 200.283518 -58.498946 
L 200.071092 -57.050281 
L 199.859153 -55.601616 
L 199.645094 -54.152951 
L 199.433209 -52.704286 
L 199.232493 -51.255621 
L 199.052424 -49.806957 
L 198.89885 -48.358292 
L 198.77198 -46.909627 
L 198.667277 -45.460962 
L 198.578412 -44.012297 
L 198.500531 -42.563632 
L 198.432104 -41.114967 
L 198.374583 -39.666302 
L 198.330268 -38.217637 
L 198.299717 -36.768972 
L 198.28022 -35.320307 
L 198.266178 -33.871642 
L 198.251149 -32.422977 
L 198.230373 -30.974312 
z
" style="stroke: #d95f02; stroke-opacity: 0.45"/>
    </defs>
    <g clip-path="url(#p3673b131ee)">
     <use xlink:href="#m07bb304ba7" x="0" y="230.558312" style="fill: #d95f02; fill-opacity: 0.45; stroke: #d95f02; stroke-opacity: 0.45"/>
    </g>
   </g>
   <g id="matplotlib.axis_1">
    <g id="xtick_1">
     <g id="line2d_1">
      <defs>
       <path id="m3614ad55bc" d="M 0 0 
L 0 3.5 
" style="stroke: #000000; stroke-width: 0.8"/>
      </defs>
      <g>
       <use xlink:href="#m3614ad55bc" x="90.429981" y="207.648" style="stroke: #000000; stroke-width: 0.8"/>
      </g>
     </g>
     <g id="text_1">
      <text style="font: 9px 'DejaVu Sans', 'Bitstream Vera Sans', 'Computer Modern Sans Serif', 'Lucida Grande', 'Verdana', 'Geneva', 'Lucid', 'Arial', 'Helvetica', 'Avant Garde', sans-serif; text-anchor: middle" x="90.429981" y="221.486594" transform="rotate(-0 90.429981 221.486594)">Event</text>
     </g>
    </g>
    <g id="xtick_2">
     <g id="line2d_2">
      <g>
       <use xlink:href="#m3614ad55bc" x="198.033286" y="207.648" style="stroke: #000000; stroke-width: 0.8"/>
      </g>
     </g>
     <g id="text_2">
      <text style="font: 9px 'DejaVu Sans', 'Bitstream Vera Sans', 'Computer Modern Sans Serif', 'Lucida Grande', 'Verdana', 'Geneva', 'Lucid', 'Arial', 'Helvetica', 'Avant Garde', sans-serif; text-anchor: middle" x="198.033286" y="221.486594" transform="rotate(-0 198.033286 221.486594)">Block</text>
     </g>
    </g>
   </g>
   <g id="matplotlib.axis_2">
    <g id="ytick_1">
     <g id="line2d_3">
      <path d="M 55.458906 202.635984 
L 233.004361 202.635984 
" clip-path="url(#p3673b131ee)" style="fill: none; stroke: #b0b0b0; stroke-opacity: 0.22; stroke-width: 0.8; stroke-linecap: square"/>
     </g>
     <g id="line2d_4">
      <defs>
       <path id="me930891f21" d="M 0 0 
L -3.5 0 
" style="stroke: #000000; stroke-width: 0.8"/>
      </defs>
      <g>
       <use xlink:href="#me930891f21" x="55.458906" y="202.635984" style="stroke: #000000; stroke-width: 0.8"/>
      </g>
     </g>
     <g id="text_3">
      <text style="font: 9px 'DejaVu Sans', 'Bitstream Vera Sans', 'Computer Modern Sans Serif', 'Lucida Grande', 'Verdana', 'Geneva', 'Lucid', 'Arial', 'Helvetica', 'Avant Garde', sans-serif; text-anchor: end" x="48.458906" y="206.055281" transform="rotate(-0 48.458906 206.055281)">−0.08</text>
     </g>
    </g>
    <g id="ytick_2">
     <g id="line2d_5">
      <path d="M 55.458906 182.094486 
L 233.004361 182.094486 
" clip-path="url(#p3673b131ee)" style="fill: none; stroke: #b0b0b0; stroke-opacity: 0.22; stroke-width: 0.8; stroke-linecap: square"/>
     </g>
     <g id="line2d_6">
      <g>
       <use xlink:href="#me930891f21" x="55.458906" y="182.094486" style="stroke: #000000; stroke-width: 0.8"/>
      </g>
     </g>
     <g id="text_4">
      <text style="font: 9px 'DejaVu Sans', 'Bitstream Vera Sans', 'Computer Modern Sans Serif', 'Lucida Grande', 'Verdana', 'Geneva', 'Lucid', 'Arial', 'Helvetica', 'Avant Garde', sans-serif; text-anchor: end" x="48.458906" y="185.513783" transform="rotate(-0 48.458906 185.513783)">−0.07</text>
     </g>
    </g>
    <g id="ytick_3">
     <g id="line2d_7">
      <path d="M 55.458906 161.552988 
L 233.004361 161.552988 
" clip-path="url(#p3673b131ee)" style="fill: none; stroke: #b0b0b0; stroke-opacity: 0.22; stroke-width: 0.8; stroke-linecap: square"/>
     </g>
     <g id="line2d_8">
      <g>
       <use xlink:href="#me930891f21" x="55.458906" y="161.552988" style="stroke: #000000; stroke-width: 0.8"/>
      </g>
     </g>
     <g id="text_5">
      <text style="font: 9px 'DejaVu Sans', 'Bitstream Vera Sans', 'Computer Modern Sans Serif', 'Lucida Grande', 'Verdana', 'Geneva', 'Lucid', 'Arial', 'Helvetica', 'Avant Garde', sans-serif; text-anchor: end" x="48.458906" y="164.972285" transform="rotate(-0 48.458906 164.972285)">−0.06</text>
     </g>
    </g>
    <g id="ytick_4">
     <g id="line2d_9">
      <path d="M 55.458906 141.01149 
L 233.004361 141.01149 
" clip-path="url(#p3673b131ee)" style="fill: none; stroke: #b0b0b0; stroke-opacity: 0.22; stroke-width: 0.8; stroke-linecap: square"/>
     </g>
     <g id="line2d_10">
      <g>
       <use xlink:href="#me930891f21" x="55.458906" y="141.01149" style="stroke: #000000; stroke-width: 0.8"/>
      </g>
     </g>
     <g id="text_6">
      <text style="font: 9px 'DejaVu Sans', 'Bitstream Vera Sans', 'Computer Modern Sans Serif', 'Lucida Grande', 'Verdana', 'Geneva', 'Lucid', 'Arial', 'Helvetica', 'Avant Garde', sans-serif; text-anchor: end" x="48.458906" y="144.430787" transform="rotate(-0 48.458906 144.430787)">−0.05</text>
     </g>
    </g>
    <g id="ytick_5">
     <g id="line2d_11">
      <path d="M 55.458906 120.469992 
L 233.004361 120.469992 
" clip-path="url(#p3673b131ee)" style="fill: none; stroke: #b0b0b0; stroke-opacity: 0.22; stroke-width: 0.8; stroke-linecap: square"/>
     </g>
     <g id="line2d_12">
      <g>
       <use xlink:href="#me930891f21" x="55.458906" y="120.469992" style="stroke: #000000; stroke-width: 0.8"/>
      </g>
     </g>
     <g id="text_7">
      <text style="font: 9px 'DejaVu Sans', 'Bitstream Vera Sans', 'Computer Modern Sans Serif', 'Lucida Grande', 'Verdana', 'Geneva', 'Lucid', 'Arial', 'Helvetica', 'Avant Garde', sans-serif; text-anchor: end" x="48.458906" y="123.889289" transform="rotate(-0 48.458906 123.889289)">−0.04</text>
     </g>
    </g>
    <g id="ytick_6">
     <g id="line2d_13">
      <path d="M 55.458906 99.928494 
L 233.004361 99.928494 
" clip-path="url(#p3673b131ee)" style="fill: none; stroke: #b0b0b0; stroke-opacity: 0.22; stroke-width: 0.8; stroke-linecap: square"/>
     </g>
     <g id="line2d_14">
      <g>
       <use xlink:href="#me930891f21" x="55.458906" y="99.928494" style="stroke: #000000; stroke-width: 0.8"/>
      </g>
     </g>
     <g id="text_8">
      <text style="font: 9px 'DejaVu Sans', 'Bitstream Vera Sans', 'Computer Modern Sans Serif', 'Lucida Grande', 'Verdana', 'Geneva', 'Lucid', 'Arial', 'Helvetica', 'Avant Garde', sans-serif; text-anchor: end" x="48.458906" y="103.347791" transform="rotate(-0 48.458906 103.347791)">−0.03</text>
     </g>
    </g>
    <g id="ytick_7">
     <g id="line2d_15">
      <path d="M 55.458906 79.386996 
L 233.004361 79.386996 
" clip-path="url(#p3673b131ee)" style="fill: none; stroke: #b0b0b0; stroke-opacity: 0.22; stroke-width: 0.8; stroke-linecap: square"/>
     </g>
     <g id="line2d_16">
      <g>
       <use xlink:href="#me930891f21" x="55.458906" y="79.386996" style="stroke: #000000; stroke-width: 0.8"/>
      </g>
     </g>
     <g id="text_9">
      <text style="font: 9px 'DejaVu Sans', 'Bitstream Vera Sans', 'Computer Modern Sans Serif', 'Lucida Grande', 'Verdana', 'Geneva', 'Lucid', 'Arial', 'Helvetica', 'Avant Garde', sans-serif; text-anchor: end" x="48.458906" y="82.806293" transform="rotate(-0 48.458906 82.806293)">−0.02</text>
     </g>
    </g>
    <g id="ytick_8">
     <g id="line2d_17">
      <path d="M 55.458906 58.845498 
L 233.004361 58.845498 
" clip-path="url(#p3673b131ee)" style="fill: none; stroke: #b0b0b0; stroke-opacity: 0.22; stroke-width: 0.8; stroke-linecap: square"/>
     </g>
     <g id="line2d_18">
      <g>
       <use xlink:href="#me930891f21" x="55.458906" y="58.845498" style="stroke: #000000; stroke-width: 0.8"/>
      </g>
     </g>
     <g id="text_10">
      <text style="font: 9px 'DejaVu Sans', 'Bitstream Vera Sans', 'Computer Modern Sans Serif', 'Lucida Grande', 'Verdana', 'Geneva', 'Lucid', 'Arial', 'Helvetica', 'Avant Garde', sans-serif; text-anchor: end" x="48.458906" y="62.264795" transform="rotate(-0 48.458906 62.264795)">−0.01</text>
     </g>
    </g>
    <g id="ytick_9">
     <g id="line2d_19">
      <path d="M 55.458906 38.304 
L 233.004361 38.304 
" clip-path="url(#p3673b131ee)" style="fill: none; stroke: #b0b0b0; stroke-opacity: 0.22; stroke-width: 0.8; stroke-linecap: square"/>
     </g>
     <g id="line2d_20">
      <g>
       <use xlink:href="#me930891f21" x="55.458906" y="38.304" style="stroke: #000000; stroke-width: 0.8"/>
      </g>
     </g>
     <g id="text_11">
      <text style="font: 9px 'DejaVu Sans', 'Bitstream Vera Sans', 'Computer Modern Sans Serif', 'Lucida Grande', 'Verdana', 'Geneva', 'Lucid', 'Arial', 'Helvetica', 'Avant Garde', sans-serif; text-anchor: end" x="48.458906" y="41.723297" transform="rotate(-0 48.458906 41.723297)">0.00</text>
     </g>
    </g>
    <g id="text_12">
     <text style="font: 10px 'DejaVu Sans', 'Bitstream Vera Sans', 'Computer Modern Sans Serif', 'Lucida Grande', 'Verdana', 'Geneva', 'Lucid', 'Arial', 'Helvetica', 'Avant Garde', sans-serif; text-anchor: middle" x="14.798438" y="118.944" transform="rotate(-90 14.798438 118.944)">Hybrid - Volatility</text>
    </g>
   </g>
   <g id="LineCollection_1">
    <path d="M 76.979567 131.639992 
L 103.880394 131.639992 
" clip-path="url(#p3673b131ee)" style="fill: none; stroke: #1f77b4; stroke-width: 1.5"/>
    <path d="M 184.582873 117.710882 
L 211.4837 117.710882 
" clip-path="url(#p3673b131ee)" style="fill: none; stroke: #1f77b4; stroke-width: 1.5"/>
   </g>
   <g id="line2d_21">
    <path d="M 55.458906 38.304 
L 233.004361 38.304 
" clip-path="url(#p3673b131ee)" style="fill: none; stroke-dasharray: 2.96,1.28; stroke-dashoffset: 0; stroke: #222222; stroke-width: 0.8"/>
   </g>
   <g id="patch_3">
    <path d="M 55.458906 207.648 
L 55.458906 30.24 
" style="fill: none; stroke: #000000; stroke-width: 0.8; stroke-linejoin: miter; stroke-linecap: square"/>
   </g>
   <g id="patch_4">
    <path d="M 55.458906 207.648 
L 233.004361 207.648 
" style="fill: none; stroke: #000000; stroke-width: 0.8; stroke-linejoin: miter; stroke-linecap: square"/>
   </g>
   <g id="text_13">
    <!-- $\Delta$FPR -->
    <g transform="translate(130.151634 24.24)">
     <text>
      <tspan style="font: 11px 'DejaVu Sans'" x="0 7.524902 13.852051 20.485352" y="-0.984375">ΔFPR</tspan>
     </text>
    </g>
   </g>
  </g>
  <g id="axes_2">
   <g id="patch_5">
    <path d="M 268.513452 207.648 
L 446.058906 207.648 
L 446.058906 30.24 
L 268.513452 30.24 
z
" style="fill: #ffffff"/>
   </g>
   <g id="PolyCollection_3">
    <defs>
     <path id="m76527b5b90" d="M 303.687277 -67.135479 
L 303.281775 -67.135479 
L 303.208072 -68.399305 
L 303.110208 -69.663132 
L 302.981252 -70.926958 
L 302.813723 -72.190785 
L 302.600421 -73.454612 
L 302.335308 -74.718438 
L 302.014025 -75.982265 
L 301.633657 -77.246091 
L 301.191754 -78.509918 
L 300.685153 -79.773745 
L 300.109466 -81.037571 
L 299.459914 -82.301398 
L 298.733377 -83.565224 
L 297.930713 -84.829051 
L 297.058043 -86.092878 
L 296.12633 -87.356704 
L 295.149675 -88.620531 
L 294.143666 -89.884358 
L 293.125047 -91.148184 
L 292.112891 -92.412011 
L 291.130191 -93.675837 
L 290.204082 -94.939664 
L 289.363481 -96.203491 
L 288.634355 -97.467317 
L 288.034194 -98.731144 
L 287.567786 -99.99497 
L 287.225688 -101.258797 
L 286.985509 -102.522624 
L 286.814982 -103.78645 
L 286.675511 -105.050277 
L 286.525404 -106.314103 
L 286.32286 -107.57793 
L 286.02921 -108.841757 
L 285.612702 -110.105583 
L 285.052421 -111.36941 
L 284.34136 -112.633236 
L 283.487791 -113.897063 
L 282.514809 -115.16089 
L 281.458783 -116.424716 
L 280.36762 -117.688543 
L 279.29914 -118.952369 
L 278.31887 -120.216196 
L 277.496192 -121.480023 
L 276.898423 -122.743849 
L 276.5837 -124.007676 
L 276.59449 -125.271502 
L 276.953301 -126.535329 
L 277.660939 -127.799156 
L 278.696385 -129.062982 
L 280.017024 -130.326809 
L 281.558823 -131.590635 
L 283.237442 -132.854462 
L 284.952076 -134.118289 
L 286.593419 -135.382115 
L 288.055607 -136.645942 
L 289.250102 -137.909768 
L 290.118266 -139.173595 
L 290.639247 -140.437422 
L 290.831076 -141.701248 
L 290.74489 -142.965075 
L 290.454281 -144.228902 
L 290.043038 -145.492728 
L 289.594556 -146.756555 
L 289.184919 -148.020381 
L 288.87982 -149.284208 
L 288.733855 -150.548035 
L 288.790115 -151.811861 
L 289.078431 -153.075688 
L 289.611993 -154.339514 
L 290.383536 -155.603341 
L 291.363214 -156.867168 
L 292.500185 -158.130994 
L 293.728708 -159.394821 
L 294.977777 -160.658647 
L 296.181732 -161.922474 
L 297.288841 -163.186301 
L 298.265609 -164.450127 
L 299.096342 -165.713954 
L 299.779178 -166.97778 
L 300.320821 -168.241607 
L 300.732114 -169.505434 
L 301.025672 -170.76926 
L 301.215623 -172.033087 
L 301.318579 -173.296913 
L 301.354564 -174.56074 
L 301.346857 -175.824567 
L 301.320326 -177.088393 
L 301.29861 -178.35222 
L 301.30104 -179.616046 
L 301.340334 -180.879873 
L 301.421726 -182.1437 
L 301.543658 -183.407526 
L 301.699592 -184.671353 
L 301.880252 -185.935179 
L 302.07563 -187.199006 
L 302.276337 -188.462833 
L 302.474233 -189.726659 
L 302.662519 -190.990486 
L 302.835633 -192.254312 
L 304.133419 -192.254312 
L 304.133419 -192.254312 
L 304.306533 -190.990486 
L 304.49482 -189.726659 
L 304.692716 -188.462833 
L 304.893423 -187.199006 
L 305.0888 -185.935179 
L 305.26946 -184.671353 
L 305.425394 -183.407526 
L 305.547326 -182.1437 
L 305.628718 -180.879873 
L 305.668012 -179.616046 
L 305.670443 -178.35222 
L 305.648726 -177.088393 
L 305.622195 -175.824567 
L 305.614488 -174.56074 
L 305.650473 -173.296913 
L 305.753429 -172.033087 
L 305.943381 -170.76926 
L 306.236938 -169.505434 
L 306.648231 -168.241607 
L 307.189874 -166.97778 
L 307.87271 -165.713954 
L 308.703443 -164.450127 
L 309.680211 -163.186301 
L 310.78732 -161.922474 
L 311.991275 -160.658647 
L 313.240344 -159.394821 
L 314.468867 -158.130994 
L 315.605838 -156.867168 
L 316.585516 -155.603341 
L 317.35706 -154.339514 
L 317.890622 -153.075688 
L 318.178937 -151.811861 
L 318.235197 -150.548035 
L 318.089232 -149.284208 
L 317.784133 -148.020381 
L 317.374497 -146.756555 
L 316.926014 -145.492728 
L 316.514771 -144.228902 
L 316.224162 -142.965075 
L 316.137977 -141.701248 
L 316.329805 -140.437422 
L 316.850786 -139.173595 
L 317.71895 -137.909768 
L 318.913445 -136.645942 
L 320.375633 -135.382115 
L 322.016977 -134.118289 
L 323.73161 -132.854462 
L 325.410229 -131.590635 
L 326.952028 -130.326809 
L 328.272667 -129.062982 
L 329.308113 -127.799156 
L 330.015751 -126.535329 
L 330.374562 -125.271502 
L 330.385353 -124.007676 
L 330.070629 -122.743849 
L 329.47286 -121.480023 
L 328.650183 -120.216196 
L 327.669912 -118.952369 
L 326.601432 -117.688543 
L 325.510269 -116.424716 
L 324.454243 -115.16089 
L 323.481261 -113.897063 
L 322.627692 -112.633236 
L 321.916631 -111.36941 
L 321.35635 -110.105583 
L 320.939842 -108.841757 
L 320.646192 -107.57793 
L 320.443648 -106.314103 
L 320.293541 -105.050277 
L 320.15407 -103.78645 
L 319.983544 -102.522624 
L 319.743364 -101.258797 
L 319.401266 -99.99497 
L 318.934858 -98.731144 
L 318.334698 -97.467317 
L 317.605571 -96.203491 
L 316.76497 -94.939664 
L 315.838861 -93.675837 
L 314.856161 -92.412011 
L 313.844006 -91.148184 
L 312.825386 -89.884358 
L 311.819378 -88.620531 
L 310.842722 -87.356704 
L 309.911009 -86.092878 
L 309.03834 -84.829051 
L 308.235675 -83.565224 
L 307.509138 -82.301398 
L 306.859586 -81.037571 
L 306.2839 -79.773745 
L 305.777299 -78.509918 
L 305.335396 -77.246091 
L 304.955027 -75.982265 
L 304.633744 -74.718438 
L 304.368631 -73.454612 
L 304.155329 -72.190785 
L 303.9878 -70.926958 
L 303.858844 -69.663132 
L 303.76098 -68.399305 
L 303.687277 -67.135479 
z
" style="stroke: #d95f02; stroke-opacity: 0.45"/>
    </defs>
    <g clip-path="url(#pb6db5294ca)">
     <use xlink:href="#m76527b5b90" x="0" y="230.558312" style="fill: #d95f02; fill-opacity: 0.45; stroke: #d95f02; stroke-opacity: 0.45"/>
    </g>
   </g>
   <g id="PolyCollection_4">
    <defs>
     <path id="m8e28b05c4d" d="M 411.151259 -30.974312 
L 411.024405 -30.974312 
L 411.02738 -32.350729 
L 411.035418 -33.727146 
L 411.045891 -35.103562 
L 411.055257 -36.479979 
L 411.059599 -37.856395 
L 411.054659 -39.232812 
L 411.035551 -40.609228 
L 410.996817 -41.985645 
L 410.933501 -43.362061 
L 410.84329 -44.738478 
L 410.728783 -46.114895 
L 410.598202 -47.491311 
L 410.463204 -48.867728 
L 410.334108 -50.244144 
L 410.214884 -51.620561 
L 410.101078 -52.996977 
L 409.982441 -54.373394 
L 409.848883 -55.74981 
L 409.69589 -57.126227 
L 409.525718 -58.502644 
L 409.343752 -59.87906 
L 409.153037 -61.255477 
L 408.951302 -62.631893 
L 408.732546 -64.00831 
L 408.491344 -65.384726 
L 408.225677 -66.761143 
L 407.935195 -68.137559 
L 407.615552 -69.513976 
L 407.252792 -70.890393 
L 406.822375 -72.266809 
L 406.294729 -73.643226 
L 405.645297 -75.019642 
L 404.864313 -76.396059 
L 403.961947 -77.772475 
L 402.96705 -79.148892 
L 401.920492 -80.525308 
L 400.865324 -81.901725 
L 399.836412 -83.278142 
L 398.85296 -84.654558 
L 397.917477 -86.030975 
L 397.02202 -87.407391 
L 396.157301 -88.783808 
L 395.317163 -90.160224 
L 394.494533 -91.536641 
L 393.673378 -92.913057 
L 392.826531 -94.289474 
L 391.925365 -95.665891 
L 390.956896 -97.042307 
L 389.936538 -98.418724 
L 388.907068 -99.79514 
L 387.924156 -101.171557 
L 387.037589 -102.547973 
L 386.278575 -103.92439 
L 385.657826 -105.300806 
L 385.171627 -106.677223 
L 384.809096 -108.05364 
L 384.555195 -109.430056 
L 384.389492 -110.806473 
L 384.286124 -112.182889 
L 384.221101 -113.559306 
L 384.187005 -114.935722 
L 384.206461 -116.312139 
L 384.33261 -117.688555 
L 384.631846 -119.064972 
L 385.156487 -120.441389 
L 385.922368 -121.817805 
L 386.902589 -123.194222 
L 388.03808 -124.570638 
L 389.257517 -125.947055 
L 390.497608 -127.323471 
L 391.717408 -128.699888 
L 392.903187 -130.076304 
L 394.063303 -131.452721 
L 395.216409 -132.829138 
L 396.379423 -134.205554 
L 397.560629 -135.581971 
L 398.758416 -136.958387 
L 399.962073 -138.334804 
L 401.151744 -139.71122 
L 402.298729 -141.087637 
L 403.369624 -142.464053 
L 404.335289 -143.84047 
L 405.180897 -145.216886 
L 405.911065 -146.593303 
L 406.546685 -147.96972 
L 407.115118 -149.346136 
L 407.639037 -150.722553 
L 408.129306 -152.098969 
L 408.584438 -153.475386 
L 408.995573 -154.851802 
L 409.353417 -156.228219 
L 409.653477 -157.604635 
L 409.897815 -158.981052 
L 410.093913 -160.357469 
L 410.252337 -161.733885 
L 410.384411 -163.110302 
L 410.500203 -164.486718 
L 410.606786 -165.863135 
L 410.707143 -167.239551 
L 411.468521 -167.239551 
L 411.468521 -167.239551 
L 411.568877 -165.863135 
L 411.67546 -164.486718 
L 411.791252 -163.110302 
L 411.923327 -161.733885 
L 412.08175 -160.357469 
L 412.277849 -158.981052 
L 412.522186 -157.604635 
L 412.822246 -156.228219 
L 413.180091 -154.851802 
L 413.591226 -153.475386 
L 414.046358 -152.098969 
L 414.536626 -150.722553 
L 415.060546 -149.346136 
L 415.628978 -147.96972 
L 416.264599 -146.593303 
L 416.994767 -145.216886 
L 417.840375 -143.84047 
L 418.80604 -142.464053 
L 419.876935 -141.087637 
L 421.02392 -139.71122 
L 422.213591 -138.334804 
L 423.417248 -136.958387 
L 424.615035 -135.581971 
L 425.796241 -134.205554 
L 426.959255 -132.829138 
L 428.112361 -131.452721 
L 429.272477 -130.076304 
L 430.458256 -128.699888 
L 431.678055 -127.323471 
L 432.918147 -125.947055 
L 434.137584 -124.570638 
L 435.273075 -123.194222 
L 436.253296 -121.817805 
L 437.019177 -120.441389 
L 437.543817 -119.064972 
L 437.843053 -117.688555 
L 437.969203 -116.312139 
L 437.988658 -114.935722 
L 437.954562 -113.559306 
L 437.88954 -112.182889 
L 437.786172 -110.806473 
L 437.620469 -109.430056 
L 437.366568 -108.05364 
L 437.004036 -106.677223 
L 436.517838 -105.300806 
L 435.897089 -103.92439 
L 435.138075 -102.547973 
L 434.251507 -101.171557 
L 433.268596 -99.79514 
L 432.239126 -98.418724 
L 431.218768 -97.042307 
L 430.250298 -95.665891 
L 429.349133 -94.289474 
L 428.502286 -92.913057 
L 427.681131 -91.536641 
L 426.858501 -90.160224 
L 426.018363 -88.783808 
L 425.153643 -87.407391 
L 424.258187 -86.030975 
L 423.322704 -84.654558 
L 422.339252 -83.278142 
L 421.310339 -81.901725 
L 420.255171 -80.525308 
L 419.208614 -79.148892 
L 418.213716 -77.772475 
L 417.311351 -76.396059 
L 416.530367 -75.019642 
L 415.880934 -73.643226 
L 415.353289 -72.266809 
L 414.922872 -70.890393 
L 414.560112 -69.513976 
L 414.240468 -68.137559 
L 413.949987 -66.761143 
L 413.68432 -65.384726 
L 413.443118 -64.00831 
L 413.224362 -62.631893 
L 413.022627 -61.255477 
L 412.831912 -59.87906 
L 412.649945 -58.502644 
L 412.479774 -57.126227 
L 412.326781 -55.74981 
L 412.193223 -54.373394 
L 412.074586 -52.996977 
L 411.96078 -51.620561 
L 411.841556 -50.244144 
L 411.71246 -48.867728 
L 411.577461 -47.491311 
L 411.44688 -46.114895 
L 411.332374 -44.738478 
L 411.242163 -43.362061 
L 411.178846 -41.985645 
L 411.140113 -40.609228 
L 411.121005 -39.232812 
L 411.116064 -37.856395 
L 411.120406 -36.479979 
L 411.129773 -35.103562 
L 411.140246 -33.727146 
L 411.148284 -32.350729 
L 411.151259 -30.974312 
z
" style="stroke: #d95f02; stroke-opacity: 0.45"/>
    </defs>
    <g clip-path="url(#pb6db5294ca)">
     <use xlink:href="#m8e28b05c4d" x="0" y="230.558312" style="fill: #d95f02; fill-opacity: 0.45; stroke: #d95f02; stroke-opacity: 0.45"/>
    </g>
   </g>
   <g id="matplotlib.axis_3">
    <g id="xtick_3">
     <g id="line2d_22">
      <g>
       <use xlink:href="#m3614ad55bc" x="303.484526" y="207.648" style="stroke: #000000; stroke-width: 0.8"/>
      </g>
     </g>
     <g id="text_14">
      <text style="font: 9px 'DejaVu Sans', 'Bitstream Vera Sans', 'Computer Modern Sans Serif', 'Lucida Grande', 'Verdana', 'Geneva', 'Lucid', 'Arial', 'Helvetica', 'Avant Garde', sans-serif; text-anchor: middle" x="303.484526" y="221.486594" transform="rotate(-0 303.484526 221.486594)">Event</text>
     </g>
    </g>
    <g id="xtick_4">
     <g id="line2d_23">
      <g>
       <use xlink:href="#m3614ad55bc" x="411.087832" y="207.648" style="stroke: #000000; stroke-width: 0.8"/>
      </g>
     </g>
     <g id="text_15">
      <text style="font: 9px 'DejaVu Sans', 'Bitstream Vera Sans', 'Computer Modern Sans Serif', 'Lucida Grande', 'Verdana', 'Geneva', 'Lucid', 'Arial', 'Helvetica', 'Avant Garde', sans-serif; text-anchor: middle" x="411.087832" y="221.486594" transform="rotate(-0 411.087832 221.486594)">Block</text>
     </g>
    </g>
   </g>
   <g id="matplotlib.axis_4">
    <g id="ytick_10">
     <g id="line2d_24">
      <path d="M 268.513452 186.583487 
L 446.058906 186.583487 
" clip-path="url(#pb6db5294ca)" style="fill: none; stroke: #b0b0b0; stroke-opacity: 0.22; stroke-width: 0.8; stroke-linecap: square"/>
     </g>
     <g id="line2d_25">
      <g>
       <use xlink:href="#me930891f21" x="268.513452" y="186.583487" style="stroke: #000000; stroke-width: 0.8"/>
      </g>
     </g>
     <g id="text_16">
      <text style="font: 9px 'DejaVu Sans', 'Bitstream Vera Sans', 'Computer Modern Sans Serif', 'Lucida Grande', 'Verdana', 'Geneva', 'Lucid', 'Arial', 'Helvetica', 'Avant Garde', sans-serif; text-anchor: end" x="261.513452" y="190.002784" transform="rotate(-0 261.513452 190.002784)">−0.25</text>
     </g>
    </g>
    <g id="ytick_11">
     <g id="line2d_26">
      <path d="M 268.513452 161.102883 
L 446.058906 161.102883 
" clip-path="url(#pb6db5294ca)" style="fill: none; stroke: #b0b0b0; stroke-opacity: 0.22; stroke-width: 0.8; stroke-linecap: square"/>
     </g>
     <g id="line2d_27">
      <g>
       <use xlink:href="#me930891f21" x="268.513452" y="161.102883" style="stroke: #000000; stroke-width: 0.8"/>
      </g>
     </g>
     <g id="text_17">
      <text style="font: 9px 'DejaVu Sans', 'Bitstream Vera Sans', 'Computer Modern Sans Serif', 'Lucida Grande', 'Verdana', 'Geneva', 'Lucid', 'Arial', 'Helvetica', 'Avant Garde', sans-serif; text-anchor: end" x="261.513452" y="164.522179" transform="rotate(-0 261.513452 164.522179)">−0.20</text>
     </g>
    </g>
    <g id="ytick_12">
     <g id="line2d_28">
      <path d="M 268.513452 135.622278 
L 446.058906 135.622278 
" clip-path="url(#pb6db5294ca)" style="fill: none; stroke: #b0b0b0; stroke-opacity: 0.22; stroke-width: 0.8; stroke-linecap: square"/>
     </g>
     <g id="line2d_29">
      <g>
       <use xlink:href="#me930891f21" x="268.513452" y="135.622278" style="stroke: #000000; stroke-width: 0.8"/>
      </g>
     </g>
     <g id="text_18">
      <text style="font: 9px 'DejaVu Sans', 'Bitstream Vera Sans', 'Computer Modern Sans Serif', 'Lucida Grande', 'Verdana', 'Geneva', 'Lucid', 'Arial', 'Helvetica', 'Avant Garde', sans-serif; text-anchor: end" x="261.513452" y="139.041575" transform="rotate(-0 261.513452 139.041575)">−0.15</text>
     </g>
    </g>
    <g id="ytick_13">
     <g id="line2d_30">
      <path d="M 268.513452 110.141674 
L 446.058906 110.141674 
" clip-path="url(#pb6db5294ca)" style="fill: none; stroke: #b0b0b0; stroke-opacity: 0.22; stroke-width: 0.8; stroke-linecap: square"/>
     </g>
     <g id="line2d_31">
      <g>
       <use xlink:href="#me930891f21" x="268.513452" y="110.141674" style="stroke: #000000; stroke-width: 0.8"/>
      </g>
     </g>
     <g id="text_19">
      <text style="font: 9px 'DejaVu Sans', 'Bitstream Vera Sans', 'Computer Modern Sans Serif', 'Lucida Grande', 'Verdana', 'Geneva', 'Lucid', 'Arial', 'Helvetica', 'Avant Garde', sans-serif; text-anchor: end" x="261.513452" y="113.560971" transform="rotate(-0 261.513452 113.560971)">−0.10</text>
     </g>
    </g>
    <g id="ytick_14">
     <g id="line2d_32">
      <path d="M 268.513452 84.661069 
L 446.058906 84.661069 
" clip-path="url(#pb6db5294ca)" style="fill: none; stroke: #b0b0b0; stroke-opacity: 0.22; stroke-width: 0.8; stroke-linecap: square"/>
     </g>
     <g id="line2d_33">
      <g>
       <use xlink:href="#me930891f21" x="268.513452" y="84.661069" style="stroke: #000000; stroke-width: 0.8"/>
      </g>
     </g>
     <g id="text_20">
      <text style="font: 9px 'DejaVu Sans', 'Bitstream Vera Sans', 'Computer Modern Sans Serif', 'Lucida Grande', 'Verdana', 'Geneva', 'Lucid', 'Arial', 'Helvetica', 'Avant Garde', sans-serif; text-anchor: end" x="261.513452" y="88.080366" transform="rotate(-0 261.513452 88.080366)">−0.05</text>
     </g>
    </g>
    <g id="ytick_15">
     <g id="line2d_34">
      <path d="M 268.513452 59.180465 
L 446.058906 59.180465 
" clip-path="url(#pb6db5294ca)" style="fill: none; stroke: #b0b0b0; stroke-opacity: 0.22; stroke-width: 0.8; stroke-linecap: square"/>
     </g>
     <g id="line2d_35">
      <g>
       <use xlink:href="#me930891f21" x="268.513452" y="59.180465" style="stroke: #000000; stroke-width: 0.8"/>
      </g>
     </g>
     <g id="text_21">
      <text style="font: 9px 'DejaVu Sans', 'Bitstream Vera Sans', 'Computer Modern Sans Serif', 'Lucida Grande', 'Verdana', 'Geneva', 'Lucid', 'Arial', 'Helvetica', 'Avant Garde', sans-serif; text-anchor: end" x="261.513452" y="62.599762" transform="rotate(-0 261.513452 62.599762)">0.00</text>
     </g>
    </g>
    <g id="ytick_16">
     <g id="line2d_36">
      <path d="M 268.513452 33.69986 
L 446.058906 33.69986 
" clip-path="url(#pb6db5294ca)" style="fill: none; stroke: #b0b0b0; stroke-opacity: 0.22; stroke-width: 0.8; stroke-linecap: square"/>
     </g>
     <g id="line2d_37">
      <g>
       <use xlink:href="#me930891f21" x="268.513452" y="33.69986" style="stroke: #000000; stroke-width: 0.8"/>
      </g>
     </g>
     <g id="text_22">
      <text style="font: 9px 'DejaVu Sans', 'Bitstream Vera Sans', 'Computer Modern Sans Serif', 'Lucida Grande', 'Verdana', 'Geneva', 'Lucid', 'Arial', 'Helvetica', 'Avant Garde', sans-serif; text-anchor: end" x="261.513452" y="37.119157" transform="rotate(-0 261.513452 37.119157)">0.05</text>
     </g>
    </g>
   </g>
   <g id="LineCollection_2">
    <path d="M 290.034113 105.316233 
L 316.934939 105.316233 
" clip-path="url(#pb6db5294ca)" style="fill: none; stroke: #1f77b4; stroke-width: 1.5"/>
    <path d="M 397.637419 120.203847 
L 424.538245 120.203847 
" clip-path="url(#pb6db5294ca)" style="fill: none; stroke: #1f77b4; stroke-width: 1.5"/>
   </g>
   <g id="line2d_38">
    <path d="M 268.513452 59.180465 
L 446.058906 59.180465 
" clip-path="url(#pb6db5294ca)" style="fill: none; stroke-dasharray: 2.96,1.28; stroke-dashoffset: 0; stroke: #222222; stroke-width: 0.8"/>
   </g>
   <g id="patch_6">
    <path d="M 268.513452 207.648 
L 268.513452 30.24 
" style="fill: none; stroke: #000000; stroke-width: 0.8; stroke-linejoin: miter; stroke-linecap: square"/>
   </g>
   <g id="patch_7">
    <path d="M 268.513452 207.648 
L 446.058906 207.648 
" style="fill: none; stroke: #000000; stroke-width: 0.8; stroke-linejoin: miter; stroke-linecap: square"/>
   </g>
   <g id="text_23">
    <!-- $\Delta$F1 -->
    <g transform="translate(346.836179 24.24)">
     <text>
      <tspan style="font: 11px 'DejaVu Sans'" x="0 7.524902 13.852051" y="-0.984375">ΔF1</tspan>
     </text>
    </g>
   </g>
  </g>
  <g id="text_24">
   <text style="font: 12px 'DejaVu Sans', 'Bitstream Vera Sans', 'Computer Modern Sans Serif', 'Lucida Grande', 'Verdana', 'Geneva', 'Lucid', 'Arial', 'Helvetica', 'Avant Garde', sans-serif; text-anchor: middle" x="244.458906" y="16.318125" transform="rotate(-0 244.458906 16.318125)">Bootstrap uncertainty</text>
  </g>
 </g>
 <defs>
  <clipPath id="p3673b131ee">
   <rect x="55.458906" y="30.24" width="177.545455" height="177.408"/>
  </clipPath>
  <clipPath id="pb6db5294ca">
   <rect x="268.513452" y="30.24" width="177.545455" height="177.408"/>
  </clipPath>
 </defs>
</svg>
