<?xml version="1.0" encoding="utf-8" standalone="no"?>
<!DOCTYPE svg PUBLIC "-//W3C//DTD SVG 1.1//EN"
  "http://www.w3.org/Graphics/SVG/1.1/DTD/svg11.dtd">
<svg xmlns:xlink="http://www.w3.org/1999/xlink" width="655.618125pt" height="308.865425pt" viewBox="0 0 655.618125 308.865425" xmlns="http://www.w3.org/2000/svg" version="1.1">
 <metadata>
  <rdf:RDF xmlns:dc="http://purl.org/dc/elements/1.1/" xmlns:cc="http://creativecommons.org/ns#" xmlns:rdf="http://www.w3.org/1999/02/22-rdf-syntax-ns#">
   <cc:Work>
    <dc:type rdf:resource="http://purl.org/dc/dcmitype/StillImage"/>
    <dc:date>2026-07-22T16:24:50.995711</dc:date>
    <dc:format>image/svg+xml</dc:format>
    <dc:creator>
     <cc:Agent>
      <dc:title>Matplotlib v3.9.2, https://matplotlib.org/</dc:title>
     </cc:Agent>
    </dc:creator>
   </cc:Work>
  </rdf:RDF>
 </metadata>
 <defs>
  <style type="text/css">*{stroke-linejoin: round; stroke-linecap: butt}</style>
 </defs>
 <g id="figure_1">
  <g id="patch_1">
   <path d="M 0 308.865425 
L 655.618125 308.865425 
L 655.618125 0 
L 0 0 
z
" style="fill: #ffffff"/>
  </g>
  <g id="axes_1">
   <g id="patch_2">
    <path d="M 42.850625 231.308073 
L 648.418125 231.308073 
L 648.418125 7.2 
L 42.850625 7.2 
z
" style="fill: #ffffff"/>
   </g>
   <g id="PathCollection_1">
    <defs>
     <path id="mdd70ee69a2" d="M 0 6.471671 
C 1.716307 6.471671 3.36255 5.789775 4.576163 4.576163 
C 5.789775 3.36255 6.471671 1.716307 6.471671 0 
C 6.471671 -1.716307 5.789775 -3.36255 4.576163 -4.576163 
C 3.36255 -5.789775 1.716307 -6.471671 0 -6.471671 
C -1.716307 -6.471671 -3.36255 -5.789775 -4.576163 -4.576163 
C -5.789775 -3.36255 -6.471671 -1.716307 -6.471671 0 
C -6.471671 1.716307 -5.789775 3.36255 -4.576163 4.576163 
C -3.36255 5.789775 -1.716307 6.471671 0 6.471671 
z
" style="stroke: #ffffff; stroke-width: 0.5"/>
    </defs>
    <g clip-path="url(#p2c711efc8e)">
     <use xlink:href="#mdd70ee69a2" x="70.37642" y="106.447861" style="fill: #1f77b4; stroke: #ffffff; stroke-width: 0.5"/>
    </g>
   </g>
   <g id="PathCollection_2">
    <defs>
     <path id="m053398c01d" d="M 0 5.189587 
C 1.376295 5.189587 2.696405 4.64278 3.669592 3.669592 
C 4.64278 2.696405 5.189587 1.376295 5.189587 0 
C 5.189587 -1.376295 4.64278 -2.696405 3.669592 -3.669592 
C 2.696405 -4.64278 1.376295 -5.189587 0 -5.189587 
C -1.376295 -5.189587 -2.696405 -4.64278 -3.669592 -3.669592 
C -4.64278 -2.696405 -5.189587 -1.376295 -5.189587 0 
C -5.189587 1.376295 -4.64278 2.696405 -3.669592 3.669592 
C -2.696405 4.64278 -1.376295 5.189587 0 5.189587 
z
" style="stroke: #ffffff; stroke-width: 0.5"/>
    </defs>
    <g clip-path="url(#p2c711efc8e)">
     <use xlink:href="#m053398c01d" x="114.988731" y="103.246317" style="fill: #1f77b4; stroke: #ffffff; stroke-width: 0.5"/>
    </g>
   </g>
   <g id="PathCollection_3">
    <defs>
     <path id="m21e91fa43c" d="M 0 8.373389 
C 2.220649 8.373389 4.350644 7.491116 5.92088 5.92088 
C 7.491116 4.350644 8.373389 2.220649 8.373389 0 
C 8.373389 -2.220649 7.491116 -4.350644 5.92088 -5.92088 
C 4.350644 -7.491116 2.220649 -8.373389 0 -8.373389 
C -2.220649 -8.373389 -4.350644 -7.491116 -5.92088 -5.92088 
C -7.491116 -4.350644 -8.373389 -2.220649 -8.373389 0 
C -8.373389 2.220649 -7.491116 4.350644 -5.92088 5.92088 
C -4.350644 7.491116 -2.220649 8.373389 0 8.373389 
z
" style="stroke: #ffffff; stroke-width: 0.5"/>
    </defs>
    <g clip-path="url(#p2c711efc8e)">
     <use xlink:href="#m21e91fa43c" x="159.601041" y="125.657124" style="fill: #1f77b4; stroke: #ffffff; stroke-width: 0.5"/>
    </g>
   </g>
   <g id="PathCollection_4">
    <defs>
     <path id="m8a14e8e474" d="M -3.464102 3.464102 
L 3.464102 -3.464102 
M -3.464102 -3.464102 
L 3.464102 3.464102 
" style="stroke: #1f77b4; stroke-width: 1.5"/>
    </defs>
    <g clip-path="url(#p2c711efc8e)">
     <use xlink:href="#m8a14e8e474" x="204.213351" y="221.703441" style="fill: #1f77b4; stroke: #1f77b4; stroke-width: 1.5"/>
    </g>
   </g>
   <g id="PathCollection_5">
    <defs>
     <path id="m7e9c3fb154" d="M 0 9.274844 
C 2.459717 9.274844 4.819022 8.297588 6.558305 6.558305 
C 8.297588 4.819022 9.274844 2.459717 9.274844 0 
C 9.274844 -2.459717 8.297588 -4.819022 6.558305 -6.558305 
C 4.819022 -8.297588 2.459717 -9.274844 0 -9.274844 
C -2.459717 -9.274844 -4.819022 -8.297588 -6.558305 -6.558305 
C -8.297588 -4.819022 -9.274844 -2.459717 -9.274844 0 
C -9.274844 2.459717 -8.297588 4.819022 -6.558305 6.558305 
C -4.819022 8.297588 -2.459717 9.274844 0 9.274844 
z
" style="stroke: #ffffff; stroke-width: 0.5"/>
    </defs>
    <g clip-path="url(#p2c711efc8e)">
     <use xlink:href="#m7e9c3fb154" x="248.825662" y="124.056352" style="fill: #1f77b4; stroke: #ffffff; stroke-width: 0.5"/>
    </g>
   </g>
   <g id="PathCollection_6">
    <defs>
     <path id="mfcece916ad" d="M 0 5.710835 
C 1.514531 5.710835 2.967235 5.109105 4.03817 4.03817 
C 5.109105 2.967235 5.710835 1.514531 5.710835 0 
C 5.710835 -1.514531 5.109105 -2.967235 4.03817 -4.03817 
C 2.967235 -5.109105 1.514531 -5.710835 0 -5.710835 
C -1.514531 -5.710835 -2.967235 -5.109105 -4.03817 -4.03817 
C -5.109105 -2.967235 -5.710835 -1.514531 -5.710835 0 
C -5.710835 1.514531 -5.109105 2.967235 -4.03817 4.03817 
C -2.967235 5.109105 -1.514531 5.710835 0 5.710835 
z
" style="stroke: #ffffff; stroke-width: 0.5"/>
    </defs>
    <g clip-path="url(#p2c711efc8e)">
     <use xlink:href="#mfcece916ad" x="293.437972" y="95.242457" style="fill: #1f77b4; stroke: #ffffff; stroke-width: 0.5"/>
    </g>
   </g>
   <g id="PathCollection_7">
    <defs>
     <path id="m75a10688c9" d="M 0 8.026943 
C 2.12877 8.026943 4.170638 7.181174 5.675906 5.675906 
C 7.181174 4.170638 8.026943 2.12877 8.026943 0 
C 8.026943 -2.12877 7.181174 -4.170638 5.675906 -5.675906 
C 4.170638 -7.181174 2.12877 -8.026943 0 -8.026943 
C -2.12877 -8.026943 -4.170638 -7.181174 -5.675906 -5.675906 
C -7.181174 -4.170638 -8.026943 -2.12877 -8.026943 0 
C -8.026943 2.12877 -7.181174 4.170638 -5.675906 5.675906 
C -4.170638 7.181174 -2.12877 8.026943 0 8.026943 
z
" style="stroke: #ffffff; stroke-width: 0.5"/>
    </defs>
    <g clip-path="url(#p2c711efc8e)">
     <use xlink:href="#m75a10688c9" x="338.050282" y="109.649405" style="fill: #1f77b4; stroke: #ffffff; stroke-width: 0.5"/>
    </g>
   </g>
   <g id="PathCollection_8">
    <defs>
     <path id="m874831e3cb" d="M 0 4.965792 
C 1.316943 4.965792 2.580126 4.442565 3.511345 3.511345 
C 4.442565 2.580126 4.965792 1.316943 4.965792 0 
C 4.965792 -1.316943 4.442565 -2.580126 3.511345 -3.511345 
C 2.580126 -4.442565 1.316943 -4.965792 0 -4.965792 
C -1.316943 -4.965792 -2.580126 -4.442565 -3.511345 -3.511345 
C -4.442565 -2.580126 -4.965792 -1.316943 -4.965792 0 
C -4.965792 1.316943 -4.442565 2.580126 -3.511345 3.511345 
C -2.580126 4.442565 -1.316943 4.965792 0 4.965792 
z
" style="stroke: #ffffff; stroke-width: 0.5"/>
    </defs>
    <g clip-path="url(#p2c711efc8e)">
     <use xlink:href="#m874831e3cb" x="382.662593" y="100.044773" style="fill: #1f77b4; stroke: #ffffff; stroke-width: 0.5"/>
    </g>
   </g>
   <g id="PathCollection_9">
    <g clip-path="url(#p2c711efc8e)">
     <use xlink:href="#m8a14e8e474" x="427.274903" y="221.703441" style="fill: #1f77b4; stroke: #1f77b4; stroke-width: 1.5"/>
    </g>
   </g>
   <g id="PathCollection_10">
    <defs>
     <path id="m9e7f77f1cd" d="M 0 5.078923 
C 1.346946 5.078923 2.638906 4.543775 3.591341 3.591341 
C 4.543775 2.638906 5.078923 1.346946 5.078923 0 
C 5.078923 -1.346946 4.543775 -2.638906 3.591341 -3.591341 
C 2.638906 -4.543775 1.346946 -5.078923 0 -5.078923 
C -1.346946 -5.078923 -2.638906 -4.543775 -3.591341 -3.591341 
C -4.543775 -2.638906 -5.078923 -1.346946 -5.078923 0 
C -5.078923 1.346946 -4.543775 2.638906 -3.591341 3.591341 
C -2.638906 4.543775 -1.346946 5.078923 0 5.078923 
z
" style="stroke: #ffffff; stroke-width: 0.5"/>
    </defs>
    <g clip-path="url(#p2c711efc8e)">
     <use xlink:href="#m9e7f77f1cd" x="471.887213" y="106.447861" style="fill: #1f77b4; stroke: #ffffff; stroke-width: 0.5"/>
    </g>
   </g>
   <g id="PathCollection_11">
    <g clip-path="url(#p2c711efc8e)">
     <use xlink:href="#m75a10688c9" x="516.499523" y="125.657124" style="fill: #1f77b4; stroke: #ffffff; stroke-width: 0.5"/>
    </g>
   </g>
   <g id="PathCollection_12">
    <defs>
     <path id="mc7472da77f" d="M 0 7.362374 
C 1.952524 7.362374 3.825341 6.586627 5.205984 5.205984 
C 6.586627 3.825341 7.362374 1.952524 7.362374 0 
C 7.362374 -1.952524 6.586627 -3.825341 5.205984 -5.205984 
C 3.825341 -6.586627 1.952524 -7.362374 0 -7.362374 
C -1.952524 -7.362374 -3.825341 -6.586627 -5.205984 -5.205984 
C -6.586627 -3.825341 -7.362374 -1.952524 -7.362374 0 
C -7.362374 1.952524 -6.586627 3.825341 -5.205984 5.205984 
C -3.825341 6.586627 -1.952524 7.362374 0 7.362374 
z
" style="stroke: #ffffff; stroke-width: 0.5"/>
    </defs>
    <g clip-path="url(#p2c711efc8e)">
     <use xlink:href="#mc7472da77f" x="561.111834" y="151.269475" style="fill: #1f77b4; stroke: #ffffff; stroke-width: 0.5"/>
    </g>
   </g>
   <g id="PathCollection_13">
    <g clip-path="url(#p2c711efc8e)">
     <use xlink:href="#m8a14e8e474" x="605.724144" y="221.703441" style="fill: #1f77b4; stroke: #1f77b4; stroke-width: 1.5"/>
    </g>
   </g>
   <g id="PathCollection_14">
    <defs>
     <path id="m783e0e9ed5" d="M -4.690737 4.690737 
L 4.690737 4.690737 
L 4.690737 -4.690737 
L -4.690737 -4.690737 
z
" style="stroke: #ffffff; stroke-width: 0.5"/>
    </defs>
    <g clip-path="url(#p2c711efc8e)">
     <use xlink:href="#m783e0e9ed5" x="85.544606" y="106.447861" style="fill: #d95f02; stroke: #ffffff; stroke-width: 0.5"/>
    </g>
   </g>
   <g id="PathCollection_15">
    <defs>
     <path id="m45d9ca0c6b" d="M -5.078923 5.078923 
L 5.078923 5.078923 
L 5.078923 -5.078923 
L -5.078923 -5.078923 
z
" style="stroke: #ffffff; stroke-width: 0.5"/>
    </defs>
    <g clip-path="url(#p2c711efc8e)">
     <use xlink:href="#m45d9ca0c6b" x="130.156916" y="103.246317" style="fill: #d95f02; stroke: #ffffff; stroke-width: 0.5"/>
    </g>
   </g>
   <g id="PathCollection_16">
    <defs>
     <path id="meec6a27dfa" d="M -7.127093 7.127093 
L 7.127093 7.127093 
L 7.127093 -7.127093 
L -7.127093 -7.127093 
z
" style="stroke: #ffffff; stroke-width: 0.5"/>
    </defs>
    <g clip-path="url(#p2c711efc8e)">
     <use xlink:href="#meec6a27dfa" x="174.769227" y="119.254036" style="fill: #d95f02; stroke: #ffffff; stroke-width: 0.5"/>
    </g>
   </g>
   <g id="PathCollection_17">
    <defs>
     <path id="ma6abf5a74e" d="M -3.464102 3.464102 
L 3.464102 -3.464102 
M -3.464102 -3.464102 
L 3.464102 3.464102 
" style="stroke: #d95f02; stroke-width: 1.5"/>
    </defs>
    <g clip-path="url(#p2c711efc8e)">
     <use xlink:href="#ma6abf5a74e" x="219.381537" y="221.703441" style="fill: #d95f02; stroke: #d95f02; stroke-width: 1.5"/>
    </g>
   </g>
   <g id="PathCollection_18">
    <defs>
     <path id="md644e2fc44" d="M -6.369316 6.369316 
L 6.369316 6.369316 
L 6.369316 -6.369316 
L -6.369316 -6.369316 
z
" style="stroke: #ffffff; stroke-width: 0.5"/>
    </defs>
    <g clip-path="url(#p2c711efc8e)">
     <use xlink:href="#md644e2fc44" x="263.993847" y="60.025474" style="fill: #d95f02; stroke: #ffffff; stroke-width: 0.5"/>
    </g>
   </g>
   <g id="PathCollection_19">
    <defs>
     <path id="m681bc46734" d="M -5.710835 5.710835 
L 5.710835 5.710835 
L 5.710835 -5.710835 
L -5.710835 -5.710835 
z
" style="stroke: #ffffff; stroke-width: 0.5"/>
    </defs>
    <g clip-path="url(#p2c711efc8e)">
     <use xlink:href="#m681bc46734" x="308.606157" y="95.242457" style="fill: #d95f02; stroke: #ffffff; stroke-width: 0.5"/>
    </g>
   </g>
   <g id="PathCollection_20">
    <g clip-path="url(#p2c711efc8e)">
     <use xlink:href="#ma6abf5a74e" x="353.218468" y="221.703441" style="fill: #d95f02; stroke: #d95f02; stroke-width: 1.5"/>
    </g>
   </g>
   <g id="PathCollection_21">
    <defs>
     <path id="mf906b0343c" d="M -4.965792 4.965792 
L 4.965792 4.965792 
L 4.965792 -4.965792 
L -4.965792 -4.965792 
z
" style="stroke: #ffffff; stroke-width: 0.5"/>
    </defs>
    <g clip-path="url(#p2c711efc8e)">
     <use xlink:href="#mf906b0343c" x="397.830778" y="100.044773" style="fill: #d95f02; stroke: #ffffff; stroke-width: 0.5"/>
    </g>
   </g>
   <g id="PathCollection_22">
    <g clip-path="url(#p2c711efc8e)">
     <use xlink:href="#ma6abf5a74e" x="442.443088" y="221.703441" style="fill: #d95f02; stroke: #d95f02; stroke-width: 1.5"/>
    </g>
   </g>
   <g id="PathCollection_23">
    <g clip-path="url(#p2c711efc8e)">
     <use xlink:href="#m45d9ca0c6b" x="487.055399" y="106.447861" style="fill: #d95f02; stroke: #ffffff; stroke-width: 0.5"/>
    </g>
   </g>
   <g id="PathCollection_24">
    <defs>
     <path id="m3fea8721d0" d="M -8.026943 8.026943 
L 8.026943 8.026943 
L 8.026943 -8.026943 
L -8.026943 -8.026943 
z
" style="stroke: #ffffff; stroke-width: 0.5"/>
    </defs>
    <g clip-path="url(#p2c711efc8e)">
     <use xlink:href="#m3fea8721d0" x="531.667709" y="125.657124" style="fill: #d95f02; stroke: #ffffff; stroke-width: 0.5"/>
    </g>
   </g>
   <g id="PathCollection_25">
    <g clip-path="url(#p2c711efc8e)">
     <use xlink:href="#ma6abf5a74e" x="576.280019" y="221.703441" style="fill: #d95f02; stroke: #d95f02; stroke-width: 1.5"/>
    </g>
   </g>
   <g id="PathCollection_26">
    <g clip-path="url(#p2c711efc8e)">
     <use xlink:href="#ma6abf5a74e" x="620.89233" y="221.703441" style="fill: #d95f02; stroke: #d95f02; stroke-width: 1.5"/>
    </g>
   </g>
   <g id="matplotlib.axis_1">
    <g id="xtick_1">
     <g id="line2d_1">
      <defs>
       <path id="mf871217ccc" d="M 0 0 
L 0 3.5 
" style="stroke: #000000; stroke-width: 0.8"/>
      </defs>
      <g>
       <use xlink:href="#mf871217ccc" x="77.960513" y="231.308073" style="stroke: #000000; stroke-width: 0.8"/>
      </g>
     </g>
     <g id="text_1">
      <text style="font: 9px 'Arial', 'Helvetica', 'Liberation Sans', 'DejaVu Sans', sans-serif" transform="translate(27.903671 277.916852) rotate(-35)">Dot-com selloff</text>
     </g>
    </g>
    <g id="xtick_2">
     <g id="line2d_2">
      <g>
       <use xlink:href="#mf871217ccc" x="122.572824" y="231.308073" style="stroke: #000000; stroke-width: 0.8"/>
      </g>
     </g>
     <g id="text_2">
      <text style="font: 9px 'Arial', 'Helvetica', 'Liberation Sans', 'DejaVu Sans', sans-serif" transform="translate(40.883319 300.113772) rotate(-35)">September 11 reopening</text>
     </g>
    </g>
    <g id="xtick_3">
     <g id="line2d_3">
      <g>
       <use xlink:href="#mf871217ccc" x="167.185134" y="231.308073" style="stroke: #000000; stroke-width: 0.8"/>
      </g>
     </g>
     <g id="text_3">
      <text style="font: 9px 'Arial', 'Helvetica', 'Liberation Sans', 'DejaVu Sans', sans-serif" transform="translate(110.295027 282.701555) rotate(-35)">WorldCom selloff</text>
     </g>
    </g>
    <g id="xtick_4">
     <g id="line2d_4">
      <g>
       <use xlink:href="#mf871217ccc" x="211.797444" y="231.308073" style="stroke: #000000; stroke-width: 0.8"/>
      </g>
     </g>
     <g id="text_4">
      <text style="font: 9px 'Arial', 'Helvetica', 'Liberation Sans', 'DejaVu Sans', sans-serif" transform="translate(171.852266 270.836588) rotate(-35)">Quant crisis</text>
     </g>
    </g>
    <g id="xtick_5">
     <g id="line2d_5">
      <g>
       <use xlink:href="#mf871217ccc" x="256.409754" y="231.308073" style="stroke: #000000; stroke-width: 0.8"/>
      </g>
     </g>
     <g id="text_5">
      <text style="font: 9px 'Arial', 'Helvetica', 'Liberation Sans', 'DejaVu Sans', sans-serif" transform="translate(209.906624 275.428516) rotate(-35)">Lehman crisis</text>
     </g>
    </g>
    <g id="xtick_6">
     <g id="line2d_6">
      <g>
       <use xlink:href="#mf871217ccc" x="301.022065" y="231.308073" style="stroke: #000000; stroke-width: 0.8"/>
      </g>
     </g>
     <g id="text_6">
      <text style="font: 9px 'Arial', 'Helvetica', 'Liberation Sans', 'DejaVu Sans', sans-serif" transform="translate(261.894758 270.263908) rotate(-35)">Flash crash</text>
     </g>
    </g>
    <g id="xtick_7">
     <g id="line2d_7">
      <g>
       <use xlink:href="#mf871217ccc" x="345.634375" y="231.308073" style="stroke: #000000; stroke-width: 0.8"/>
      </g>
     </g>
     <g id="text_7">
      <text style="font: 9px 'Arial', 'Helvetica', 'Liberation Sans', 'DejaVu Sans', sans-serif" transform="translate(270.50743 295.518618) rotate(-35)">U.S. downgrade selloff</text>
     </g>
    </g>
    <g id="xtick_8">
     <g id="line2d_8">
      <g>
       <use xlink:href="#mf871217ccc" x="390.246685" y="231.308073" style="stroke: #000000; stroke-width: 0.8"/>
      </g>
     </g>
     <g id="text_8">
      <text style="font: 9px 'Arial', 'Helvetica', 'Liberation Sans', 'DejaVu Sans', sans-serif" transform="translate(309.025459 299.738388) rotate(-35)">China devaluation selloff</text>
     </g>
    </g>
    <g id="xtick_9">
     <g id="line2d_9">
      <g>
       <use xlink:href="#mf871217ccc" x="434.858996" y="231.308073" style="stroke: #000000; stroke-width: 0.8"/>
      </g>
     </g>
     <g id="text_9">
      <text style="font: 9px 'Arial', 'Helvetica', 'Liberation Sans', 'DejaVu Sans', sans-serif" transform="translate(388.683572 275.156694) rotate(-35)">Volmageddon</text>
     </g>
    </g>
    <g id="xtick_10">
     <g id="line2d_10">
      <g>
       <use xlink:href="#mf871217ccc" x="479.471306" y="231.308073" style="stroke: #000000; stroke-width: 0.8"/>
      </g>
     </g>
     <g id="text_10">
      <text style="font: 9px 'Arial', 'Helvetica', 'Liberation Sans', 'DejaVu Sans', sans-serif" transform="translate(428.987096 278.216097) rotate(-35)">Q4 2018 selloff</text>
     </g>
    </g>
    <g id="xtick_11">
     <g id="line2d_11">
      <g>
       <use xlink:href="#mf871217ccc" x="524.083616" y="231.308073" style="stroke: #000000; stroke-width: 0.8"/>
      </g>
     </g>
     <g id="text_11">
      <text style="font: 9px 'Arial', 'Helvetica', 'Liberation Sans', 'DejaVu Sans', sans-serif" transform="translate(479.634381 273.990363) rotate(-35)">COVID crash</text>
     </g>
    </g>
    <g id="xtick_12">
     <g id="line2d_12">
      <g>
       <use xlink:href="#mf871217ccc" x="568.695926" y="231.308073" style="stroke: #000000; stroke-width: 0.8"/>
      </g>
     </g>
     <g id="text_12">
      <text style="font: 9px 'Arial', 'Helvetica', 'Liberation Sans', 'DejaVu Sans', sans-serif" transform="translate(520.673397 276.492411) rotate(-35)">Inflation selloff</text>
     </g>
    </g>
    <g id="xtick_13">
     <g id="line2d_13">
      <g>
       <use xlink:href="#mf871217ccc" x="613.308237" y="231.308073" style="stroke: #000000; stroke-width: 0.8"/>
      </g>
     </g>
     <g id="text_13">
      <text style="font: 9px 'Arial', 'Helvetica', 'Liberation Sans', 'DejaVu Sans', sans-serif" transform="translate(573.769691 270.551861) rotate(-35)">Bank stress</text>
     </g>
    </g>
   </g>
   <g id="matplotlib.axis_2">
    <g id="ytick_1">
     <g id="line2d_14">
      <path d="M 42.850625 208.897265 
L 648.418125 208.897265 
" clip-path="url(#p2c711efc8e)" style="fill: none; stroke: #b0b0b0; stroke-opacity: 0.22; stroke-width: 0.8; stroke-linecap: square"/>
     </g>
     <g id="line2d_15">
      <defs>
       <path id="mcaa05d8a98" d="M 0 0 
L -3.5 0 
" style="stroke: #000000; stroke-width: 0.8"/>
      </defs>
      <g>
       <use xlink:href="#mcaa05d8a98" x="42.850625" y="208.897265" style="stroke: #000000; stroke-width: 0.8"/>
      </g>
     </g>
     <g id="text_14">
      <text style="font: 9px 'Arial', 'Helvetica', 'Liberation Sans', 'DejaVu Sans', sans-serif; text-anchor: end" x="35.850625" y="212.118281" transform="rotate(-0 35.850625 212.118281)">−60</text>
     </g>
    </g>
    <g id="ytick_2">
     <g id="line2d_16">
      <path d="M 42.850625 176.881826 
L 648.418125 176.881826 
" clip-path="url(#p2c711efc8e)" style="fill: none; stroke: #b0b0b0; stroke-opacity: 0.22; stroke-width: 0.8; stroke-linecap: square"/>
     </g>
     <g id="line2d_17">
      <g>
       <use xlink:href="#mcaa05d8a98" x="42.850625" y="176.881826" style="stroke: #000000; stroke-width: 0.8"/>
      </g>
     </g>
     <g id="text_15">
      <text style="font: 9px 'Arial', 'Helvetica', 'Liberation Sans', 'DejaVu Sans', sans-serif; text-anchor: end" x="35.850625" y="180.102842" transform="rotate(-0 35.850625 180.102842)">−40</text>
     </g>
    </g>
    <g id="ytick_3">
     <g id="line2d_18">
      <path d="M 42.850625 144.866387 
L 648.418125 144.866387 
" clip-path="url(#p2c711efc8e)" style="fill: none; stroke: #b0b0b0; stroke-opacity: 0.22; stroke-width: 0.8; stroke-linecap: square"/>
     </g>
     <g id="line2d_19">
      <g>
       <use xlink:href="#mcaa05d8a98" x="42.850625" y="144.866387" style="stroke: #000000; stroke-width: 0.8"/>
      </g>
     </g>
     <g id="text_16">
      <text style="font: 9px 'Arial', 'Helvetica', 'Liberation Sans', 'DejaVu Sans', sans-serif; text-anchor: end" x="35.850625" y="148.087403" transform="rotate(-0 35.850625 148.087403)">−20</text>
     </g>
    </g>
    <g id="ytick_4">
     <g id="line2d_20">
      <path d="M 42.850625 112.850949 
L 648.418125 112.850949 
" clip-path="url(#p2c711efc8e)" style="fill: none; stroke: #b0b0b0; stroke-opacity: 0.22; stroke-width: 0.8; stroke-linecap: square"/>
     </g>
     <g id="line2d_21">
      <g>
       <use xlink:href="#mcaa05d8a98" x="42.850625" y="112.850949" style="stroke: #000000; stroke-width: 0.8"/>
      </g>
     </g>
     <g id="text_17">
      <text style="font: 9px 'Arial', 'Helvetica', 'Liberation Sans', 'DejaVu Sans', sans-serif; text-anchor: end" x="35.850625" y="116.071964" transform="rotate(-0 35.850625 116.071964)">0</text>
     </g>
    </g>
    <g id="ytick_5">
     <g id="line2d_22">
      <path d="M 42.850625 80.83551 
L 648.418125 80.83551 
" clip-path="url(#p2c711efc8e)" style="fill: none; stroke: #b0b0b0; stroke-opacity: 0.22; stroke-width: 0.8; stroke-linecap: square"/>
     </g>
     <g id="line2d_23">
      <g>
       <use xlink:href="#mcaa05d8a98" x="42.850625" y="80.83551" style="stroke: #000000; stroke-width: 0.8"/>
      </g>
     </g>
     <g id="text_18">
      <text style="font: 9px 'Arial', 'Helvetica', 'Liberation Sans', 'DejaVu Sans', sans-serif; text-anchor: end" x="35.850625" y="84.056525" transform="rotate(-0 35.850625 84.056525)">20</text>
     </g>
    </g>
    <g id="ytick_6">
     <g id="line2d_24">
      <path d="M 42.850625 48.820071 
L 648.418125 48.820071 
" clip-path="url(#p2c711efc8e)" style="fill: none; stroke: #b0b0b0; stroke-opacity: 0.22; stroke-width: 0.8; stroke-linecap: square"/>
     </g>
     <g id="line2d_25">
      <g>
       <use xlink:href="#mcaa05d8a98" x="42.850625" y="48.820071" style="stroke: #000000; stroke-width: 0.8"/>
      </g>
     </g>
     <g id="text_19">
      <text style="font: 9px 'Arial', 'Helvetica', 'Liberation Sans', 'DejaVu Sans', sans-serif; text-anchor: end" x="35.850625" y="52.041086" transform="rotate(-0 35.850625 52.041086)">40</text>
     </g>
    </g>
    <g id="ytick_7">
     <g id="line2d_26">
      <path d="M 42.850625 16.804632 
L 648.418125 16.804632 
" clip-path="url(#p2c711efc8e)" style="fill: none; stroke: #b0b0b0; stroke-opacity: 0.22; stroke-width: 0.8; stroke-linecap: square"/>
     </g>
     <g id="line2d_27">
      <g>
       <use xlink:href="#mcaa05d8a98" x="42.850625" y="16.804632" style="stroke: #000000; stroke-width: 0.8"/>
      </g>
     </g>
     <g id="text_20">
      <text style="font: 9px 'Arial', 'Helvetica', 'Liberation Sans', 'DejaVu Sans', sans-serif; text-anchor: end" x="35.850625" y="20.025647" transform="rotate(-0 35.850625 20.025647)">60</text>
     </g>
    </g>
    <g id="text_21">
     <text style="font: 10px 'Arial', 'Helvetica', 'Liberation Sans', 'DejaVu Sans', sans-serif; text-anchor: middle" x="14.479688" y="119.254036" transform="rotate(-90 14.479688 119.254036)">First detection delay (trading days)</text>
    </g>
   </g>
   <g id="line2d_28">
    <path d="M 42.850625 112.850949 
L 648.418125 112.850949 
" clip-path="url(#p2c711efc8e)" style="fill: none; stroke-dasharray: 2.96,1.28; stroke-dashoffset: 0; stroke: #222222; stroke-width: 0.8"/>
   </g>
   <g id="line2d_29">
    <path d="M 42.850625 208.897265 
L 648.418125 208.897265 
" clip-path="url(#p2c711efc8e)" style="fill: none; stroke-dasharray: 0.6,0.99; stroke-dashoffset: 0; stroke: #999999; stroke-width: 0.6"/>
   </g>
   <g id="line2d_30">
    <path d="M 42.850625 16.804632 
L 648.418125 16.804632 
" clip-path="url(#p2c711efc8e)" style="fill: none; stroke-dasharray: 0.6,0.99; stroke-dashoffset: 0; stroke: #999999; stroke-width: 0.6"/>
   </g>
   <g id="patch_3">
    <path d="M 42.850625 231.308073 
L 42.850625 7.2 
" style="fill: none; stroke: #000000; stroke-width: 0.8; stroke-linejoin: miter; stroke-linecap: square"/>
   </g>
   <g id="patch_4">
    <path d="M 42.850625 231.308073 
L 648.418125 231.308073 
" style="fill: none; stroke: #000000; stroke-width: 0.8; stroke-linejoin: miter; stroke-linecap: square"/>
   </g>
   <g id="text_22">
    <text style="font: 9px 'Arial', 'Helvetica', 'Liberation Sans', 'DejaVu Sans', sans-serif; text-anchor: start" x="62.346205" y="224.030082" transform="rotate(-0 62.346205 224.030082)">x = missed</text>
   </g>
   <g id="legend_1">
    <g id="PathCollection_27">
     <g>
      <use xlink:href="#mdd70ee69a2" x="59.950625" y="17.138451" style="fill: #1f77b4; stroke: #ffffff; stroke-width: 0.5"/>
     </g>
    </g>
    <g id="text_23">
     <text style="font: 9px 'Arial', 'Helvetica', 'Liberation Sans', 'DejaVu Sans', sans-serif; text-anchor: start" x="76.150625" y="19.500951" transform="rotate(-0 76.150625 19.500951)">Volatility</text>
    </g>
    <g id="PathCollection_28">
     <g>
      <use xlink:href="#m783e0e9ed5" x="136.167969" y="17.138451" style="fill: #d95f02; stroke: #ffffff; stroke-width: 0.5"/>
     </g>
    </g>
    <g id="text_24">
     <text style="font: 9px 'Arial', 'Helvetica', 'Liberation Sans', 'DejaVu Sans', sans-serif; text-anchor: start" x="152.367969" y="19.500951" transform="rotate(-0 152.367969 19.500951)">Hybrid</text>
    </g>
   </g>
  </g>
 </g>
 <defs>
  <clipPath id="p2c711efc8e">
   <rect x="42.850625" y="7.2" width="605.5675" height="224.108073"/>
  </clipPath>
 </defs>
</svg>
