<?xml version="1.0" encoding="utf-8" standalone="no"?>
<!DOCTYPE svg PUBLIC "-//W3C//DTD SVG 1.1//EN"
  "http://www.w3.org/Graphics/SVG/1.1/DTD/svg11.dtd">
<svg xmlns:xlink="http://www.w3.org/1999/xlink" width="555.090937pt" height="237.642656pt" viewBox="0 0 555.090937 237.642656" xmlns="http://www.w3.org/2000/svg" version="1.1">
 <metadata>
  <rdf:RDF xmlns:dc="http://purl.org/dc/elements/1.1/" xmlns:cc="http://creativecommons.org/ns#" xmlns:rdf="http://www.w3.org/1999/02/22-rdf-syntax-ns#">
   <cc:Work>
    <dc:type rdf:resource="http://purl.org/dc/dcmitype/StillImage"/>
    <dc:date>2026-07-22T16:24:48.916131</dc:date>
    <dc:format>image/svg+xml</dc:format>
    <dc:creator>
     <cc:Agent>
      <dc:title>Matplotlib v3.9.2, https://matplotlib.org/</dc:title>
     </cc:Agent>
    </dc:creator>
   </cc:Work>
  </rdf:RDF>
 </metadata>
 <defs>
  <style type="text/css">*{stroke-linejoin: round; stroke-linecap: butt}</style>
 </defs>
 <g id="figure_1">
  <g id="patch_1">
   <path d="M 0 237.642656 
L 555.090937 237.642656 
L 555.090937 0 
L 0 0 
z
" style="fill: #ffffff"/>
  </g>
  <g id="axes_1">
   <g id="patch_2">
    <path d="M 45.350938 201.8275 
L 547.890938 201.8275 
L 547.890938 7.2 
L 45.350938 7.2 
z
" style="fill: #ffffff"/>
   </g>
   <g id="PolyCollection_1">
    <defs>
     <path id="m5274238e8f" d="M 324.352409 -221.595952 
L 324.352409 -44.661861 
L 324.924192 -44.661861 
L 325.495974 -44.661861 
L 326.067757 -44.661861 
L 326.63954 -44.661861 
L 327.211323 -44.661861 
L 327.783106 -44.661861 
L 328.354889 -44.661861 
L 328.926672 -44.661861 
L 329.498455 -44.661861 
L 330.070238 -44.661861 
L 330.642021 -44.661861 
L 331.213804 -44.661861 
L 331.785586 -44.661861 
L 332.357369 -44.661861 
L 332.929152 -44.661861 
L 333.500935 -44.661861 
L 334.072718 -44.661861 
L 334.644501 -44.661861 
L 335.216284 -44.661861 
L 335.788067 -44.661861 
L 336.35985 -44.661861 
L 336.931633 -44.661861 
L 337.503416 -44.661861 
L 338.075199 -44.661861 
L 338.646981 -44.661861 
L 339.218764 -44.661861 
L 339.790547 -44.661861 
L 340.36233 -44.661861 
L 340.934113 -44.661861 
L 341.505896 -44.661861 
L 342.077679 -44.661861 
L 342.649462 -44.661861 
L 343.221245 -44.661861 
L 343.793028 -44.661861 
L 344.364811 -44.661861 
L 344.936593 -44.661861 
L 345.508376 -44.661861 
L 346.080159 -44.661861 
L 346.651942 -44.661861 
L 347.223725 -44.661861 
L 347.795508 -44.661861 
L 348.367291 -44.661861 
L 348.939074 -44.661861 
L 349.510857 -44.661861 
L 350.08264 -44.661861 
L 350.654423 -44.661861 
L 351.226205 -44.661861 
L 351.797988 -44.661861 
L 352.369771 -44.661861 
L 352.941554 -44.661861 
L 353.513337 -44.661861 
L 354.08512 -44.661861 
L 354.656903 -44.661861 
L 355.228686 -44.661861 
L 355.800469 -44.661861 
L 356.372252 -44.661861 
L 356.944035 -44.661861 
L 357.515817 -44.661861 
L 358.0876 -44.661861 
L 358.659383 -44.661861 
L 359.231166 -44.661861 
L 359.802949 -44.661861 
L 360.374732 -44.661861 
L 360.946515 -44.661861 
L 361.518298 -44.661861 
L 362.090081 -44.661861 
L 362.661864 -44.661861 
L 363.233647 -44.661861 
L 363.805429 -44.661861 
L 364.377212 -44.661861 
L 364.948995 -44.661861 
L 365.520778 -44.661861 
L 366.092561 -44.661861 
L 366.664344 -44.661861 
L 367.236127 -44.661861 
L 367.80791 -44.661861 
L 368.379693 -44.661861 
L 368.951476 -44.661861 
L 369.523259 -44.661861 
L 370.095041 -44.661861 
L 370.666824 -44.661861 
L 371.238607 -44.661861 
L 371.81039 -44.661861 
L 372.382173 -44.661861 
L 372.953956 -44.661861 
L 373.525739 -44.661861 
L 374.097522 -44.661861 
L 374.669305 -44.661861 
L 375.241088 -44.661861 
L 375.812871 -44.661861 
L 376.384654 -44.661861 
L 376.956436 -44.661861 
L 377.528219 -44.661861 
L 378.100002 -44.661861 
L 378.671785 -44.661861 
L 379.243568 -44.661861 
L 379.815351 -44.661861 
L 380.387134 -44.661861 
L 380.958917 -44.661861 
L 381.5307 -44.661861 
L 382.102483 -44.661861 
L 382.674266 -44.661861 
L 383.246048 -44.661861 
L 383.817831 -44.661861 
L 384.389614 -44.661861 
L 384.961397 -44.661861 
L 385.53318 -44.661861 
L 386.104963 -44.661861 
L 386.676746 -44.661861 
L 387.248529 -44.661861 
L 387.820312 -44.661861 
L 388.392095 -44.661861 
L 388.963878 -44.661861 
L 389.53566 -44.661861 
L 390.107443 -44.661861 
L 390.679226 -44.661861 
L 391.251009 -44.661861 
L 391.822792 -44.661861 
L 392.394575 -44.661861 
L 392.966358 -44.661861 
L 393.538141 -44.661861 
L 394.109924 -44.661861 
L 394.681707 -44.661861 
L 395.25349 -44.661861 
L 395.825272 -44.661861 
L 396.397055 -44.661861 
L 396.968838 -44.661861 
L 397.540621 -44.661861 
L 398.112404 -44.661861 
L 398.684187 -44.661861 
L 399.25597 -44.661861 
L 399.827753 -44.661861 
L 400.399536 -44.661861 
L 400.971319 -44.661861 
L 401.543102 -44.661861 
L 402.114884 -44.661861 
L 402.686667 -44.661861 
L 403.25845 -44.661861 
L 403.830233 -44.661861 
L 404.402016 -44.661861 
L 404.973799 -44.661861 
L 405.545582 -44.661861 
L 406.117365 -44.661861 
L 406.689148 -44.661861 
L 407.260931 -44.661861 
L 407.832714 -44.661861 
L 408.404496 -44.661861 
L 408.976279 -44.661861 
L 409.548062 -44.661861 
L 410.119845 -44.661861 
L 410.691628 -44.661861 
L 411.263411 -44.661861 
L 411.835194 -44.661861 
L 412.406977 -44.661861 
L 412.97876 -44.661861 
L 413.550543 -44.661861 
L 414.122326 -44.661861 
L 414.694109 -44.661861 
L 415.265891 -44.661861 
L 415.837674 -44.661861 
L 416.409457 -44.661861 
L 416.98124 -44.661861 
L 417.553023 -44.661861 
L 418.124806 -44.661861 
L 418.696589 -44.661861 
L 419.268372 -44.661861 
L 419.840155 -44.661861 
L 420.411938 -44.661861 
L 420.983721 -44.661861 
L 421.555503 -44.661861 
L 422.127286 -44.661861 
L 422.699069 -44.661861 
L 423.270852 -44.661861 
L 423.842635 -44.661861 
L 424.414418 -44.661861 
L 424.986201 -44.661861 
L 425.557984 -44.661861 
L 426.129767 -44.661861 
L 426.70155 -44.661861 
L 427.273333 -44.661861 
L 427.845115 -44.661861 
L 428.416898 -44.661861 
L 428.988681 -44.661861 
L 429.560464 -44.661861 
L 430.132247 -44.661861 
L 430.70403 -44.661861 
L 431.275813 -44.661861 
L 431.275813 -221.595952 
L 431.275813 -221.595952 
L 430.70403 -221.595952 
L 430.132247 -221.595952 
L 429.560464 -221.595952 
L 428.988681 -221.595952 
L 428.416898 -221.595952 
L 427.845115 -221.595952 
L 427.273333 -221.595952 
L 426.70155 -221.595952 
L 426.129767 -221.595952 
L 425.557984 -221.595952 
L 424.986201 -221.595952 
L 424.414418 -221.595952 
L 423.842635 -221.595952 
L 423.270852 -221.595952 
L 422.699069 -221.595952 
L 422.127286 -221.595952 
L 421.555503 -221.595952 
L 420.983721 -221.595952 
L 420.411938 -221.595952 
L 419.840155 -221.595952 
L 419.268372 -221.595952 
L 418.696589 -221.595952 
L 418.124806 -221.595952 
L 417.553023 -221.595952 
L 416.98124 -221.595952 
L 416.409457 -221.595952 
L 415.837674 -221.595952 
L 415.265891 -221.595952 
L 414.694109 -221.595952 
L 414.122326 -221.595952 
L 413.550543 -221.595952 
L 412.97876 -221.595952 
L 412.406977 -221.595952 
L 411.835194 -221.595952 
L 411.263411 -221.595952 
L 410.691628 -221.595952 
L 410.119845 -221.595952 
L 409.548062 -221.595952 
L 408.976279 -221.595952 
L 408.404496 -221.595952 
L 407.832714 -221.595952 
L 407.260931 -221.595952 
L 406.689148 -221.595952 
L 406.117365 -221.595952 
L 405.545582 -221.595952 
L 404.973799 -221.595952 
L 404.402016 -221.595952 
L 403.830233 -221.595952 
L 403.25845 -221.595952 
L 402.686667 -221.595952 
L 402.114884 -221.595952 
L 401.543102 -221.595952 
L 400.971319 -221.595952 
L 400.399536 -221.595952 
L 399.827753 -221.595952 
L 399.25597 -221.595952 
L 398.684187 -221.595952 
L 398.112404 -221.595952 
L 397.540621 -221.595952 
L 396.968838 -221.595952 
L 396.397055 -221.595952 
L 395.825272 -221.595952 
L 395.25349 -221.595952 
L 394.681707 -221.595952 
L 394.109924 -221.595952 
L 393.538141 -221.595952 
L 392.966358 -221.595952 
L 392.394575 -221.595952 
L 391.822792 -221.595952 
L 391.251009 -221.595952 
L 390.679226 -221.595952 
L 390.107443 -221.595952 
L 389.53566 -221.595952 
L 388.963878 -221.595952 
L 388.392095 -221.595952 
L 387.820312 -221.595952 
L 387.248529 -221.595952 
L 386.676746 -221.595952 
L 386.104963 -221.595952 
L 385.53318 -221.595952 
L 384.961397 -221.595952 
L 384.389614 -221.595952 
L 383.817831 -221.595952 
L 383.246048 -221.595952 
L 382.674266 -221.595952 
L 382.102483 -221.595952 
L 381.5307 -221.595952 
L 380.958917 -221.595952 
L 380.387134 -221.595952 
L 379.815351 -221.595952 
L 379.243568 -221.595952 
L 378.671785 -221.595952 
L 378.100002 -221.595952 
L 377.528219 -221.595952 
L 376.956436 -221.595952 
L 376.384654 -221.595952 
L 375.812871 -221.595952 
L 375.241088 -221.595952 
L 374.669305 -221.595952 
L 374.097522 -221.595952 
L 373.525739 -221.595952 
L 372.953956 -221.595952 
L 372.382173 -221.595952 
L 371.81039 -221.595952 
L 371.238607 -221.595952 
L 370.666824 -221.595952 
L 370.095041 -221.595952 
L 369.523259 -221.595952 
L 368.951476 -221.595952 
L 368.379693 -221.595952 
L 367.80791 -221.595952 
L 367.236127 -221.595952 
L 366.664344 -221.595952 
L 366.092561 -221.595952 
L 365.520778 -221.595952 
L 364.948995 -221.595952 
L 364.377212 -221.595952 
L 363.805429 -221.595952 
L 363.233647 -221.595952 
L 362.661864 -221.595952 
L 362.090081 -221.595952 
L 361.518298 -221.595952 
L 360.946515 -221.595952 
L 360.374732 -221.595952 
L 359.802949 -221.595952 
L 359.231166 -221.595952 
L 358.659383 -221.595952 
L 358.0876 -221.595952 
L 357.515817 -221.595952 
L 356.944035 -221.595952 
L 356.372252 -221.595952 
L 355.800469 -221.595952 
L 355.228686 -221.595952 
L 354.656903 -221.595952 
L 354.08512 -221.595952 
L 353.513337 -221.595952 
L 352.941554 -221.595952 
L 352.369771 -221.595952 
L 351.797988 -221.595952 
L 351.226205 -221.595952 
L 350.654423 -221.595952 
L 350.08264 -221.595952 
L 349.510857 -221.595952 
L 348.939074 -221.595952 
L 348.367291 -221.595952 
L 347.795508 -221.595952 
L 347.223725 -221.595952 
L 346.651942 -221.595952 
L 346.080159 -221.595952 
L 345.508376 -221.595952 
L 344.936593 -221.595952 
L 344.364811 -221.595952 
L 343.793028 -221.595952 
L 343.221245 -221.595952 
L 342.649462 -221.595952 
L 342.077679 -221.595952 
L 341.505896 -221.595952 
L 340.934113 -221.595952 
L 340.36233 -221.595952 
L 339.790547 -221.595952 
L 339.218764 -221.595952 
L 338.646981 -221.595952 
L 338.075199 -221.595952 
L 337.503416 -221.595952 
L 336.931633 -221.595952 
L 336.35985 -221.595952 
L 335.788067 -221.595952 
L 335.216284 -221.595952 
L 334.644501 -221.595952 
L 334.072718 -221.595952 
L 333.500935 -221.595952 
L 332.929152 -221.595952 
L 332.357369 -221.595952 
L 331.785586 -221.595952 
L 331.213804 -221.595952 
L 330.642021 -221.595952 
L 330.070238 -221.595952 
L 329.498455 -221.595952 
L 328.926672 -221.595952 
L 328.354889 -221.595952 
L 327.783106 -221.595952 
L 327.211323 -221.595952 
L 326.63954 -221.595952 
L 326.067757 -221.595952 
L 325.495974 -221.595952 
L 324.924192 -221.595952 
L 324.352409 -221.595952 
z
" style="stroke: #fee08b; stroke-opacity: 0.22"/>
    </defs>
    <g clip-path="url(#p65c5e4fa34)">
     <use xlink:href="#m5274238e8f" x="0" y="237.642656" style="fill: #fee08b; fill-opacity: 0.22; stroke: #fee08b; stroke-opacity: 0.22"/>
    </g>
   </g>
   <g id="PolyCollection_2">
    <defs>
     <path id="m56593659d3" d="M 431.847596 -221.595952 
L 431.847596 -44.661861 
L 432.419379 -44.661861 
L 432.991162 -44.661861 
L 433.562945 -44.661861 
L 434.134727 -44.661861 
L 434.70651 -44.661861 
L 435.278293 -44.661861 
L 435.850076 -44.661861 
L 436.421859 -44.661861 
L 436.993642 -44.661861 
L 437.565425 -44.661861 
L 438.137208 -44.661861 
L 438.708991 -44.661861 
L 439.280774 -44.661861 
L 439.852557 -44.661861 
L 440.424339 -44.661861 
L 440.996122 -44.661861 
L 441.567905 -44.661861 
L 442.139688 -44.661861 
L 442.711471 -44.661861 
L 443.283254 -44.661861 
L 443.855037 -44.661861 
L 444.42682 -44.661861 
L 444.998603 -44.661861 
L 445.570386 -44.661861 
L 446.142169 -44.661861 
L 446.713951 -44.661861 
L 447.285734 -44.661861 
L 447.857517 -44.661861 
L 448.4293 -44.661861 
L 449.001083 -44.661861 
L 449.572866 -44.661861 
L 450.144649 -44.661861 
L 450.716432 -44.661861 
L 451.288215 -44.661861 
L 451.859998 -44.661861 
L 452.431781 -44.661861 
L 453.003564 -44.661861 
L 453.575346 -44.661861 
L 454.147129 -44.661861 
L 454.718912 -44.661861 
L 455.290695 -44.661861 
L 455.862478 -44.661861 
L 456.434261 -44.661861 
L 457.006044 -44.661861 
L 457.577827 -44.661861 
L 458.14961 -44.661861 
L 458.721393 -44.661861 
L 459.293176 -44.661861 
L 459.864958 -44.661861 
L 460.436741 -44.661861 
L 461.008524 -44.661861 
L 461.580307 -44.661861 
L 462.15209 -44.661861 
L 462.723873 -44.661861 
L 463.295656 -44.661861 
L 463.867439 -44.661861 
L 464.439222 -44.661861 
L 465.011005 -44.661861 
L 465.582788 -44.661861 
L 466.15457 -44.661861 
L 466.726353 -44.661861 
L 467.298136 -44.661861 
L 467.869919 -44.661861 
L 468.441702 -44.661861 
L 469.013485 -44.661861 
L 469.585268 -44.661861 
L 470.157051 -44.661861 
L 470.728834 -44.661861 
L 471.300617 -44.661861 
L 471.8724 -44.661861 
L 472.444182 -44.661861 
L 473.015965 -44.661861 
L 473.587748 -44.661861 
L 474.159531 -44.661861 
L 474.731314 -44.661861 
L 475.303097 -44.661861 
L 475.87488 -44.661861 
L 476.446663 -44.661861 
L 477.018446 -44.661861 
L 477.590229 -44.661861 
L 478.162012 -44.661861 
L 478.733794 -44.661861 
L 479.305577 -44.661861 
L 479.87736 -44.661861 
L 480.449143 -44.661861 
L 481.020926 -44.661861 
L 481.592709 -44.661861 
L 482.164492 -44.661861 
L 482.736275 -44.661861 
L 483.308058 -44.661861 
L 483.879841 -44.661861 
L 484.451624 -44.661861 
L 485.023406 -44.661861 
L 485.595189 -44.661861 
L 486.166972 -44.661861 
L 486.738755 -44.661861 
L 487.310538 -44.661861 
L 487.882321 -44.661861 
L 488.454104 -44.661861 
L 489.025887 -44.661861 
L 489.59767 -44.661861 
L 490.169453 -44.661861 
L 490.741236 -44.661861 
L 491.313019 -44.661861 
L 491.884801 -44.661861 
L 492.456584 -44.661861 
L 493.028367 -44.661861 
L 493.60015 -44.661861 
L 494.171933 -44.661861 
L 494.743716 -44.661861 
L 495.315499 -44.661861 
L 495.887282 -44.661861 
L 496.459065 -44.661861 
L 497.030848 -44.661861 
L 497.602631 -44.661861 
L 498.174413 -44.661861 
L 498.746196 -44.661861 
L 499.317979 -44.661861 
L 499.889762 -44.661861 
L 500.461545 -44.661861 
L 501.033328 -44.661861 
L 501.605111 -44.661861 
L 502.176894 -44.661861 
L 502.748677 -44.661861 
L 503.32046 -44.661861 
L 503.892243 -44.661861 
L 504.464025 -44.661861 
L 505.035808 -44.661861 
L 505.607591 -44.661861 
L 506.179374 -44.661861 
L 506.751157 -44.661861 
L 507.32294 -44.661861 
L 507.894723 -44.661861 
L 508.466506 -44.661861 
L 509.038289 -44.661861 
L 509.610072 -44.661861 
L 510.181855 -44.661861 
L 510.753637 -44.661861 
L 511.32542 -44.661861 
L 511.897203 -44.661861 
L 512.468986 -44.661861 
L 513.040769 -44.661861 
L 513.612552 -44.661861 
L 514.184335 -44.661861 
L 514.756118 -44.661861 
L 515.327901 -44.661861 
L 515.899684 -44.661861 
L 516.471467 -44.661861 
L 517.043249 -44.661861 
L 517.615032 -44.661861 
L 518.186815 -44.661861 
L 518.758598 -44.661861 
L 519.330381 -44.661861 
L 519.902164 -44.661861 
L 520.473947 -44.661861 
L 521.04573 -44.661861 
L 521.617513 -44.661861 
L 522.189296 -44.661861 
L 522.761079 -44.661861 
L 523.332861 -44.661861 
L 523.904644 -44.661861 
L 524.476427 -44.661861 
L 525.04821 -44.661861 
L 525.04821 -221.595952 
L 525.04821 -221.595952 
L 524.476427 -221.595952 
L 523.904644 -221.595952 
L 523.332861 -221.595952 
L 522.761079 -221.595952 
L 522.189296 -221.595952 
L 521.617513 -221.595952 
L 521.04573 -221.595952 
L 520.473947 -221.595952 
L 519.902164 -221.595952 
L 519.330381 -221.595952 
L 518.758598 -221.595952 
L 518.186815 -221.595952 
L 517.615032 -221.595952 
L 517.043249 -221.595952 
L 516.471467 -221.595952 
L 515.899684 -221.595952 
L 515.327901 -221.595952 
L 514.756118 -221.595952 
L 514.184335 -221.595952 
L 513.612552 -221.595952 
L 513.040769 -221.595952 
L 512.468986 -221.595952 
L 511.897203 -221.595952 
L 511.32542 -221.595952 
L 510.753637 -221.595952 
L 510.181855 -221.595952 
L 509.610072 -221.595952 
L 509.038289 -221.595952 
L 508.466506 -221.595952 
L 507.894723 -221.595952 
L 507.32294 -221.595952 
L 506.751157 -221.595952 
L 506.179374 -221.595952 
L 505.607591 -221.595952 
L 505.035808 -221.595952 
L 504.464025 -221.595952 
L 503.892243 -221.595952 
L 503.32046 -221.595952 
L 502.748677 -221.595952 
L 502.176894 -221.595952 
L 501.605111 -221.595952 
L 501.033328 -221.595952 
L 500.461545 -221.595952 
L 499.889762 -221.595952 
L 499.317979 -221.595952 
L 498.746196 -221.595952 
L 498.174413 -221.595952 
L 497.602631 -221.595952 
L 497.030848 -221.595952 
L 496.459065 -221.595952 
L 495.887282 -221.595952 
L 495.315499 -221.595952 
L 494.743716 -221.595952 
L 494.171933 -221.595952 
L 493.60015 -221.595952 
L 493.028367 -221.595952 
L 492.456584 -221.595952 
L 491.884801 -221.595952 
L 491.313019 -221.595952 
L 490.741236 -221.595952 
L 490.169453 -221.595952 
L 489.59767 -221.595952 
L 489.025887 -221.595952 
L 488.454104 -221.595952 
L 487.882321 -221.595952 
L 487.310538 -221.595952 
L 486.738755 -221.595952 
L 486.166972 -221.595952 
L 485.595189 -221.595952 
L 485.023406 -221.595952 
L 484.451624 -221.595952 
L 483.879841 -221.595952 
L 483.308058 -221.595952 
L 482.736275 -221.595952 
L 482.164492 -221.595952 
L 481.592709 -221.595952 
L 481.020926 -221.595952 
L 480.449143 -221.595952 
L 479.87736 -221.595952 
L 479.305577 -221.595952 
L 478.733794 -221.595952 
L 478.162012 -221.595952 
L 477.590229 -221.595952 
L 477.018446 -221.595952 
L 476.446663 -221.595952 
L 475.87488 -221.595952 
L 475.303097 -221.595952 
L 474.731314 -221.595952 
L 474.159531 -221.595952 
L 473.587748 -221.595952 
L 473.015965 -221.595952 
L 472.444182 -221.595952 
L 471.8724 -221.595952 
L 471.300617 -221.595952 
L 470.728834 -221.595952 
L 470.157051 -221.595952 
L 469.585268 -221.595952 
L 469.013485 -221.595952 
L 468.441702 -221.595952 
L 467.869919 -221.595952 
L 467.298136 -221.595952 
L 466.726353 -221.595952 
L 466.15457 -221.595952 
L 465.582788 -221.595952 
L 465.011005 -221.595952 
L 464.439222 -221.595952 
L 463.867439 -221.595952 
L 463.295656 -221.595952 
L 462.723873 -221.595952 
L 462.15209 -221.595952 
L 461.580307 -221.595952 
L 461.008524 -221.595952 
L 460.436741 -221.595952 
L 459.864958 -221.595952 
L 459.293176 -221.595952 
L 458.721393 -221.595952 
L 458.14961 -221.595952 
L 457.577827 -221.595952 
L 457.006044 -221.595952 
L 456.434261 -221.595952 
L 455.862478 -221.595952 
L 455.290695 -221.595952 
L 454.718912 -221.595952 
L 454.147129 -221.595952 
L 453.575346 -221.595952 
L 453.003564 -221.595952 
L 452.431781 -221.595952 
L 451.859998 -221.595952 
L 451.288215 -221.595952 
L 450.716432 -221.595952 
L 450.144649 -221.595952 
L 449.572866 -221.595952 
L 449.001083 -221.595952 
L 448.4293 -221.595952 
L 447.857517 -221.595952 
L 447.285734 -221.595952 
L 446.713951 -221.595952 
L 446.142169 -221.595952 
L 445.570386 -221.595952 
L 444.998603 -221.595952 
L 444.42682 -221.595952 
L 443.855037 -221.595952 
L 443.283254 -221.595952 
L 442.711471 -221.595952 
L 442.139688 -221.595952 
L 441.567905 -221.595952 
L 440.996122 -221.595952 
L 440.424339 -221.595952 
L 439.852557 -221.595952 
L 439.280774 -221.595952 
L 438.708991 -221.595952 
L 438.137208 -221.595952 
L 437.565425 -221.595952 
L 436.993642 -221.595952 
L 436.421859 -221.595952 
L 435.850076 -221.595952 
L 435.278293 -221.595952 
L 434.70651 -221.595952 
L 434.134727 -221.595952 
L 433.562945 -221.595952 
L 432.991162 -221.595952 
L 432.419379 -221.595952 
L 431.847596 -221.595952 
z
" style="stroke: #fdae61; stroke-opacity: 0.22"/>
    </defs>
    <g clip-path="url(#p65c5e4fa34)">
     <use xlink:href="#m56593659d3" x="0" y="237.642656" style="fill: #fdae61; fill-opacity: 0.22; stroke: #fdae61; stroke-opacity: 0.22"/>
    </g>
   </g>
   <g id="matplotlib.axis_1">
    <g id="xtick_1">
     <g id="line2d_1">
      <defs>
       <path id="m6cc833a35d" d="M 0 0 
L 0 3.5 
" style="stroke: #000000; stroke-width: 0.8"/>
      </defs>
      <g>
       <use xlink:href="#m6cc833a35d" x="68.193665" y="201.8275" style="stroke: #000000; stroke-width: 0.8"/>
      </g>
     </g>
     <g id="text_1">
      <text style="font: 9px 'Arial', 'Helvetica', 'Liberation Sans', 'DejaVu Sans', sans-serif; text-anchor: middle" x="68.193665" y="215.269531" transform="rotate(-0 68.193665 215.269531)">0</text>
     </g>
    </g>
    <g id="xtick_2">
     <g id="line2d_2">
      <g>
       <use xlink:href="#m6cc833a35d" x="125.371956" y="201.8275" style="stroke: #000000; stroke-width: 0.8"/>
      </g>
     </g>
     <g id="text_2">
      <text style="font: 9px 'Arial', 'Helvetica', 'Liberation Sans', 'DejaVu Sans', sans-serif; text-anchor: middle" x="125.371956" y="215.269531" transform="rotate(-0 125.371956 215.269531)">100</text>
     </g>
    </g>
    <g id="xtick_3">
     <g id="line2d_3">
      <g>
       <use xlink:href="#m6cc833a35d" x="182.550247" y="201.8275" style="stroke: #000000; stroke-width: 0.8"/>
      </g>
     </g>
     <g id="text_3">
      <text style="font: 9px 'Arial', 'Helvetica', 'Liberation Sans', 'DejaVu Sans', sans-serif; text-anchor: middle" x="182.550247" y="215.269531" transform="rotate(-0 182.550247 215.269531)">200</text>
     </g>
    </g>
    <g id="xtick_4">
     <g id="line2d_4">
      <g>
       <use xlink:href="#m6cc833a35d" x="239.728538" y="201.8275" style="stroke: #000000; stroke-width: 0.8"/>
      </g>
     </g>
     <g id="text_4">
      <text style="font: 9px 'Arial', 'Helvetica', 'Liberation Sans', 'DejaVu Sans', sans-serif; text-anchor: middle" x="239.728538" y="215.269531" transform="rotate(-0 239.728538 215.269531)">300</text>
     </g>
    </g>
    <g id="xtick_5">
     <g id="line2d_5">
      <g>
       <use xlink:href="#m6cc833a35d" x="296.906829" y="201.8275" style="stroke: #000000; stroke-width: 0.8"/>
      </g>
     </g>
     <g id="text_5">
      <text style="font: 9px 'Arial', 'Helvetica', 'Liberation Sans', 'DejaVu Sans', sans-serif; text-anchor: middle" x="296.906829" y="215.269531" transform="rotate(-0 296.906829 215.269531)">400</text>
     </g>
    </g>
    <g id="xtick_6">
     <g id="line2d_6">
      <g>
       <use xlink:href="#m6cc833a35d" x="354.08512" y="201.8275" style="stroke: #000000; stroke-width: 0.8"/>
      </g>
     </g>
     <g id="text_6">
      <text style="font: 9px 'Arial', 'Helvetica', 'Liberation Sans', 'DejaVu Sans', sans-serif; text-anchor: middle" x="354.08512" y="215.269531" transform="rotate(-0 354.08512 215.269531)">500</text>
     </g>
    </g>
    <g id="xtick_7">
     <g id="line2d_7">
      <g>
       <use xlink:href="#m6cc833a35d" x="411.263411" y="201.8275" style="stroke: #000000; stroke-width: 0.8"/>
      </g>
     </g>
     <g id="text_7">
      <text style="font: 9px 'Arial', 'Helvetica', 'Liberation Sans', 'DejaVu Sans', sans-serif; text-anchor: middle" x="411.263411" y="215.269531" transform="rotate(-0 411.263411 215.269531)">600</text>
     </g>
    </g>
    <g id="xtick_8">
     <g id="line2d_8">
      <g>
       <use xlink:href="#m6cc833a35d" x="468.441702" y="201.8275" style="stroke: #000000; stroke-width: 0.8"/>
      </g>
     </g>
     <g id="text_8">
      <text style="font: 9px 'Arial', 'Helvetica', 'Liberation Sans', 'DejaVu Sans', sans-serif; text-anchor: middle" x="468.441702" y="215.269531" transform="rotate(-0 468.441702 215.269531)">700</text>
     </g>
    </g>
    <g id="xtick_9">
     <g id="line2d_9">
      <g>
       <use xlink:href="#m6cc833a35d" x="525.619993" y="201.8275" style="stroke: #000000; stroke-width: 0.8"/>
      </g>
     </g>
     <g id="text_9">
      <text style="font: 9px 'Arial', 'Helvetica', 'Liberation Sans', 'DejaVu Sans', sans-serif; text-anchor: middle" x="525.619993" y="215.269531" transform="rotate(-0 525.619993 215.269531)">800</text>
     </g>
    </g>
    <g id="text_10">
     <text style="font: 10px 'Arial', 'Helvetica', 'Liberation Sans', 'DejaVu Sans', sans-serif; text-anchor: middle" x="296.620938" y="228.337969" transform="rotate(-0 296.620938 228.337969)">Synthetic time step</text>
    </g>
   </g>
   <g id="matplotlib.axis_2">
    <g id="ytick_1">
     <g id="line2d_10">
      <path d="M 45.350938 172.300984 
L 547.890938 172.300984 
" clip-path="url(#p65c5e4fa34)" style="fill: none; stroke: #b0b0b0; stroke-opacity: 0.18; stroke-width: 0.8; stroke-linecap: square"/>
     </g>
     <g id="line2d_11">
      <defs>
       <path id="mc6533b0220" d="M 0 0 
L -3.5 0 
" style="stroke: #000000; stroke-width: 0.8"/>
      </defs>
      <g>
       <use xlink:href="#mc6533b0220" x="45.350938" y="172.300984" style="stroke: #000000; stroke-width: 0.8"/>
      </g>
     </g>
     <g id="text_11">
      <text style="font: 9px 'Arial', 'Helvetica', 'Liberation Sans', 'DejaVu Sans', sans-serif; text-anchor: end" x="38.350938" y="175.522" transform="rotate(-0 38.350938 175.522)">−0.5</text>
     </g>
    </g>
    <g id="ytick_2">
     <g id="line2d_12">
      <path d="M 45.350938 129.482342 
L 547.890938 129.482342 
" clip-path="url(#p65c5e4fa34)" style="fill: none; stroke: #b0b0b0; stroke-opacity: 0.18; stroke-width: 0.8; stroke-linecap: square"/>
     </g>
     <g id="line2d_13">
      <g>
       <use xlink:href="#mc6533b0220" x="45.350938" y="129.482342" style="stroke: #000000; stroke-width: 0.8"/>
      </g>
     </g>
     <g id="text_12">
      <text style="font: 9px 'Arial', 'Helvetica', 'Liberation Sans', 'DejaVu Sans', sans-serif; text-anchor: end" x="38.350938" y="132.703358" transform="rotate(-0 38.350938 132.703358)">0.0</text>
     </g>
    </g>
    <g id="ytick_3">
     <g id="line2d_14">
      <path d="M 45.350938 86.6637 
L 547.890938 86.6637 
" clip-path="url(#p65c5e4fa34)" style="fill: none; stroke: #b0b0b0; stroke-opacity: 0.18; stroke-width: 0.8; stroke-linecap: square"/>
     </g>
     <g id="line2d_15">
      <g>
       <use xlink:href="#mc6533b0220" x="45.350938" y="86.6637" style="stroke: #000000; stroke-width: 0.8"/>
      </g>
     </g>
     <g id="text_13">
      <text style="font: 9px 'Arial', 'Helvetica', 'Liberation Sans', 'DejaVu Sans', sans-serif; text-anchor: end" x="38.350938" y="89.884716" transform="rotate(-0 38.350938 89.884716)">0.5</text>
     </g>
    </g>
    <g id="ytick_4">
     <g id="line2d_16">
      <path d="M 45.350938 43.845058 
L 547.890938 43.845058 
" clip-path="url(#p65c5e4fa34)" style="fill: none; stroke: #b0b0b0; stroke-opacity: 0.18; stroke-width: 0.8; stroke-linecap: square"/>
     </g>
     <g id="line2d_17">
      <g>
       <use xlink:href="#mc6533b0220" x="45.350938" y="43.845058" style="stroke: #000000; stroke-width: 0.8"/>
      </g>
     </g>
     <g id="text_14">
      <text style="font: 9px 'Arial', 'Helvetica', 'Liberation Sans', 'DejaVu Sans', sans-serif; text-anchor: end" x="38.350938" y="47.066074" transform="rotate(-0 38.350938 47.066074)">1.0</text>
     </g>
    </g>
    <g id="text_15">
     <text style="font: 10px 'Arial', 'Helvetica', 'Liberation Sans', 'DejaVu Sans', sans-serif; text-anchor: middle" x="14.479688" y="104.51375" transform="rotate(-90 14.479688 104.51375)">Signal</text>
    </g>
   </g>
   <g id="line2d_18">
    <path d="M 68.193665 129.482342 
L 68.765448 131.241453 
L 69.337231 130.020637 
L 69.909014 126.560565 
L 70.480796 115.61235 
L 71.052579 120.380428 
L 71.624362 119.803628 
L 72.196145 123.790603 
L 72.767928 126.940468 
L 73.339711 124.780582 
L 73.911494 126.08905 
L 74.483277 130.707173 
L 75.05506 128.027066 
L 75.626843 134.440116 
L 76.198626 128.767825 
L 76.770408 128.94855 
L 77.342191 131.194195 
L 77.913974 140.292741 
L 78.485757 135.789341 
L 79.05754 129.546477 
L 79.629323 128.288744 
L 80.201106 132.684182 
L 80.772889 133.300709 
L 81.344672 138.548272 
L 81.916455 139.819009 
L 82.488238 134.748317 
L 83.06002 134.074638 
L 83.631803 139.360408 
L 84.203586 139.222424 
L 84.775369 143.74005 
L 85.347152 140.926499 
L 85.918935 141.659237 
L 86.490718 138.894679 
L 87.062501 133.348996 
L 87.634284 122.75698 
L 88.206067 132.695602 
L 88.77785 128.165588 
L 89.349632 134.70605 
L 89.921415 130.689634 
L 90.493198 139.260281 
L 91.064981 132.863087 
L 91.636764 132.727732 
L 92.208547 141.95917 
L 92.78033 139.099534 
L 93.352113 137.868257 
L 93.923896 141.926273 
L 94.495679 138.988508 
L 95.067462 138.992782 
L 95.639244 128.685837 
L 96.211027 144.581183 
L 96.78281 143.807133 
L 97.354593 143.45351 
L 97.926376 145.236568 
L 98.498159 139.710148 
L 99.069942 146.971702 
L 99.641725 146.659379 
L 100.213508 132.864122 
L 100.785291 146.852388 
L 101.928856 137.780438 
L 102.500639 130.992985 
L 103.644205 126.970516 
L 104.215988 132.655839 
L 104.787771 135.623823 
L 105.359554 140.610064 
L 105.931337 138.99385 
L 106.50312 130.502622 
L 107.074903 129.029131 
L 107.646686 128.083193 
L 108.218469 121.687839 
L 108.790251 112.554592 
L 109.362034 114.914325 
L 109.933817 114.220215 
L 110.5056 125.974206 
L 111.077383 131.87816 
L 111.649166 134.068544 
L 112.792732 121.028522 
L 113.364515 121.76479 
L 113.936298 122.774661 
L 114.508081 122.46527 
L 115.079863 111.306785 
L 115.651646 113.54393 
L 116.223429 126.9103 
L 116.795212 127.654202 
L 117.366995 127.801745 
L 117.938778 138.689933 
L 118.510561 130.567301 
L 119.082344 126.247803 
L 119.654127 131.415752 
L 120.22591 131.533103 
L 120.797693 124.130854 
L 121.369475 122.006919 
L 121.941258 121.835891 
L 122.513041 141.500252 
L 123.084824 133.149258 
L 123.656607 129.632156 
L 124.800173 147.824632 
L 125.371956 147.362599 
L 125.943739 161.448002 
L 127.087305 140.856188 
L 127.659087 147.810738 
L 128.23087 137.926596 
L 128.802653 140.075514 
L 129.374436 145.490154 
L 129.946219 139.738269 
L 130.518002 121.18937 
L 131.089785 123.89798 
L 131.661568 124.505993 
L 132.233351 129.142374 
L 132.805134 135.443697 
L 133.948699 133.099822 
L 134.520482 152.413477 
L 135.664048 138.142606 
L 136.235831 135.019687 
L 136.807614 130.660161 
L 137.379397 130.017611 
L 137.95118 130.945594 
L 138.522963 138.981281 
L 139.094746 138.457498 
L 139.666529 133.880335 
L 140.238311 137.022661 
L 140.810094 137.476461 
L 141.381877 136.876825 
L 141.95366 134.27579 
L 142.525443 115.30091 
L 143.097226 127.238093 
L 143.669009 122.198746 
L 144.240792 128.418264 
L 144.812575 131.587777 
L 145.384358 138.999499 
L 145.956141 138.619953 
L 146.527924 137.604861 
L 147.099706 134.447325 
L 147.671489 125.540558 
L 148.243272 128.729164 
L 148.815055 122.650955 
L 149.386838 128.613448 
L 149.958621 131.257213 
L 150.530404 130.896386 
L 151.102187 130.003281 
L 151.67397 119.23701 
L 152.245753 120.491443 
L 152.817536 114.195464 
L 153.389318 117.64778 
L 153.961101 119.529233 
L 154.532884 110.029859 
L 155.104667 114.366718 
L 155.67645 130.678056 
L 156.248233 130.665585 
L 156.820016 129.460856 
L 157.391799 127.270695 
L 157.963582 126.784003 
L 158.535365 124.876959 
L 159.67893 134.569677 
L 160.250713 135.166139 
L 160.822496 141.103257 
L 161.394279 127.499016 
L 161.966062 133.368871 
L 162.537845 130.069741 
L 163.109628 124.735824 
L 163.681411 130.99123 
L 164.253194 129.867944 
L 164.824977 131.698098 
L 165.39676 132.270144 
L 165.968542 131.416508 
L 166.540325 126.041205 
L 167.112108 127.480723 
L 167.683891 125.055238 
L 168.255674 133.289225 
L 168.827457 138.603886 
L 169.39924 142.368994 
L 169.971023 142.24904 
L 170.542806 161.390399 
L 171.114589 149.626903 
L 171.686372 144.653046 
L 172.258154 144.79779 
L 172.829937 145.628434 
L 173.973503 126.525203 
L 174.545286 133.559523 
L 176.260635 134.722323 
L 176.832418 119.308877 
L 177.404201 115.71926 
L 177.975984 121.328323 
L 178.547766 136.622209 
L 179.119549 133.474947 
L 179.691332 136.124181 
L 180.263115 133.510329 
L 180.834898 116.435604 
L 181.406681 112.954328 
L 181.978464 128.126459 
L 182.550247 125.464064 
L 183.12203 121.021089 
L 183.693813 124.449035 
L 184.265596 122.528664 
L 184.837379 142.382285 
L 185.409161 146.333504 
L 185.980944 145.721901 
L 186.552727 137.74481 
L 187.12451 131.707612 
L 187.696293 128.221247 
L 188.268076 138.776794 
L 188.839859 143.603919 
L 189.411642 124.781844 
L 189.983425 127.155569 
L 190.555208 128.473959 
L 191.126991 130.890848 
L 191.698773 135.133424 
L 192.270556 129.374665 
L 192.842339 133.379768 
L 193.414122 143.146812 
L 194.557688 136.974484 
L 195.129471 120.721097 
L 195.701254 128.657609 
L 196.273037 134.570826 
L 196.84482 132.198679 
L 197.416603 133.398596 
L 197.988385 123.039589 
L 198.560168 124.050056 
L 199.131951 128.557672 
L 199.703734 123.710656 
L 200.275517 129.679235 
L 200.8473 126.988928 
L 201.419083 127.557175 
L 201.990866 118.630529 
L 202.562649 120.371288 
L 203.134432 131.02991 
L 203.706215 130.630416 
L 204.277997 113.874162 
L 204.84978 109.217986 
L 205.993346 118.867704 
L 206.565129 144.299086 
L 207.136912 142.609788 
L 207.708695 139.603116 
L 208.280478 135.296196 
L 208.852261 125.278184 
L 209.424044 123.80078 
L 209.995827 120.476199 
L 210.567609 124.201027 
L 211.139392 125.422902 
L 211.711175 119.159372 
L 212.282958 121.7803 
L 212.854741 121.380043 
L 213.426524 126.047709 
L 213.998307 127.178017 
L 214.57009 134.835121 
L 215.141873 136.167312 
L 215.713656 128.884749 
L 216.285439 126.045103 
L 216.857221 125.05373 
L 217.429004 128.87728 
L 218.000787 129.573994 
L 219.144353 122.887758 
L 219.716136 115.356435 
L 220.859702 124.491663 
L 221.431485 121.391148 
L 222.003268 124.998554 
L 222.575051 130.983912 
L 223.146834 132.981956 
L 223.718616 125.968453 
L 224.290399 132.766378 
L 224.862182 130.40233 
L 225.433965 127.279063 
L 226.005748 127.641949 
L 226.577531 123.830926 
L 227.149314 130.517936 
L 227.721097 121.081014 
L 228.29288 128.407124 
L 228.864663 156.6678 
L 229.436446 148.141738 
L 230.008228 134.199612 
L 230.580011 141.444439 
L 231.151794 135.056785 
L 231.723577 134.811348 
L 232.29536 143.303814 
L 232.867143 133.884938 
L 233.438926 130.82008 
L 234.010709 116.685721 
L 234.582492 127.296488 
L 235.154275 128.423925 
L 235.726058 136.352587 
L 236.29784 140.809559 
L 236.869623 138.82262 
L 237.441406 134.947512 
L 238.013189 137.89367 
L 238.584972 129.430589 
L 239.156755 136.717064 
L 239.728538 131.093255 
L 240.300321 127.320362 
L 240.872104 129.142691 
L 241.443887 133.640242 
L 242.01567 122.405405 
L 242.587452 132.146656 
L 243.159235 128.238198 
L 243.731018 129.052584 
L 244.302801 123.69848 
L 245.446367 130.470813 
L 246.01815 136.761978 
L 246.589933 132.101268 
L 247.161716 121.283787 
L 247.733499 123.780763 
L 248.305282 128.47283 
L 248.877064 132.157488 
L 249.448847 129.274014 
L 250.592413 113.644218 
L 251.164196 138.605409 
L 251.735979 148.729959 
L 252.307762 135.409875 
L 252.879545 127.595041 
L 253.451328 130.611191 
L 254.023111 121.520217 
L 254.594894 126.431994 
L 255.166676 113.293787 
L 256.310242 126.559377 
L 256.882025 126.782126 
L 257.453808 127.392391 
L 258.025591 128.437783 
L 258.597374 131.719177 
L 259.169157 137.03496 
L 259.74094 132.901499 
L 260.312723 127.78993 
L 260.884506 116.943528 
L 261.456289 113.105342 
L 262.028071 124.454463 
L 262.599854 125.061489 
L 263.171637 127.842233 
L 263.74342 128.453786 
L 264.315203 122.135713 
L 264.886986 128.807008 
L 265.458769 121.83385 
L 266.030552 123.020271 
L 266.602335 132.894148 
L 267.174118 125.075805 
L 267.745901 127.127195 
L 268.317683 116.861855 
L 268.889466 127.06899 
L 269.461249 121.494806 
L 270.033032 119.000768 
L 270.604815 123.325025 
L 271.176598 120.80351 
L 271.748381 122.159875 
L 272.320164 122.95142 
L 272.891947 130.044841 
L 273.46373 132.79382 
L 274.035513 141.462729 
L 274.607295 135.301339 
L 275.179078 126.715494 
L 275.750861 127.154327 
L 276.322644 122.992423 
L 276.894427 123.09549 
L 277.46621 122.636021 
L 278.037993 128.101078 
L 278.609776 129.959867 
L 279.181559 140.031654 
L 279.753342 141.871383 
L 280.325125 135.02909 
L 280.896907 139.410777 
L 282.612256 128.508583 
L 283.184039 129.697366 
L 283.755822 128.546504 
L 284.327605 130.72704 
L 284.899388 130.374895 
L 285.471171 102.289736 
L 286.042954 111.757348 
L 286.614737 116.211587 
L 287.186519 118.963418 
L 287.758302 119.36691 
L 288.330085 120.267396 
L 288.901868 120.828243 
L 289.473651 126.689762 
L 290.045434 116.421485 
L 290.617217 125.583613 
L 291.189 118.500809 
L 291.760783 124.643542 
L 292.332566 128.551352 
L 292.904349 128.021701 
L 293.476131 148.466736 
L 294.047914 139.357241 
L 294.619697 137.569315 
L 295.19148 152.016605 
L 295.763263 145.273152 
L 296.335046 142.398153 
L 296.906829 135.300978 
L 297.478612 136.584353 
L 298.050395 125.603141 
L 298.622178 130.139062 
L 299.193961 133.12937 
L 299.765744 139.234879 
L 300.337526 128.687297 
L 300.909309 129.51473 
L 301.481092 123.218329 
L 302.052875 122.561759 
L 302.624658 120.281775 
L 303.196441 121.769758 
L 303.768224 124.98674 
L 304.340007 125.030097 
L 304.91179 123.295132 
L 305.483573 112.741505 
L 306.055356 104.41622 
L 306.627138 115.441514 
L 307.198921 114.707743 
L 307.770704 117.375397 
L 308.342487 123.652648 
L 308.91427 136.729808 
L 309.486053 134.230621 
L 310.057836 133.82474 
L 310.629619 135.039251 
L 311.201402 145.938623 
L 312.344968 135.5256 
L 312.91675 133.472524 
L 313.488533 124.329915 
L 314.060316 130.65958 
L 314.632099 110.447508 
L 315.775665 117.036528 
L 316.919231 130.08192 
L 317.491014 132.008993 
L 318.63458 120.792021 
L 319.206362 124.269162 
L 319.778145 130.038498 
L 320.349928 140.58499 
L 320.921711 142.416419 
L 321.493494 134.601745 
L 322.065277 133.764728 
L 322.63706 130.661002 
L 323.208843 131.231607 
L 323.780626 137.2509 
L 324.352409 129.74168 
L 324.924192 135.69529 
L 325.495974 149.99874 
L 326.63954 151.54145 
L 327.211323 140.268724 
L 327.783106 169.460661 
L 328.354889 141.989514 
L 328.926672 129.996602 
L 329.498455 130.471584 
L 330.070238 131.310607 
L 330.642021 137.046268 
L 331.213804 137.901612 
L 331.785586 135.143726 
L 332.357369 154.746707 
L 332.929152 149.132255 
L 334.072718 142.784296 
L 334.644501 132.655197 
L 335.216284 126.101724 
L 335.788067 129.320493 
L 336.35985 136.541403 
L 336.931633 138.605697 
L 337.503416 150.359558 
L 338.075199 150.482445 
L 338.646981 151.946444 
L 339.218764 169.895618 
L 339.790547 160.612338 
L 340.36233 168.99452 
L 340.934113 151.344172 
L 341.505896 148.31927 
L 342.077679 140.761713 
L 342.649462 143.114812 
L 343.221245 139.226456 
L 344.364811 133.630261 
L 344.936593 133.935103 
L 345.508376 124.648715 
L 346.080159 134.676428 
L 347.223725 144.148175 
L 347.795508 141.362187 
L 348.367291 144.294165 
L 348.939074 150.105596 
L 349.510857 150.033399 
L 350.08264 144.484727 
L 350.654423 149.895809 
L 351.226205 144.971875 
L 351.797988 147.964689 
L 352.369771 142.571385 
L 352.941554 142.764894 
L 353.513337 126.17161 
L 354.08512 137.287292 
L 354.656903 141.624518 
L 355.228686 123.453742 
L 355.800469 127.636716 
L 356.372252 122.526102 
L 356.944035 126.92865 
L 357.515817 137.150729 
L 358.0876 140.377978 
L 358.659383 140.143681 
L 359.231166 143.376463 
L 359.802949 138.980479 
L 360.374732 151.405774 
L 360.946515 146.486014 
L 361.518298 147.450887 
L 362.090081 139.162574 
L 362.661864 153.244746 
L 363.233647 145.582239 
L 363.805429 153.916288 
L 364.377212 179.938359 
L 364.948995 171.933188 
L 365.520778 187.419451 
L 366.092561 167.192056 
L 366.664344 155.039753 
L 367.236127 149.641089 
L 367.80791 137.469639 
L 368.379693 148.88342 
L 368.951476 143.797601 
L 369.523259 134.692028 
L 370.095041 136.910476 
L 370.666824 137.446302 
L 371.238607 136.813137 
L 371.81039 145.287262 
L 372.382173 127.051719 
L 372.953956 118.543985 
L 373.525739 132.643508 
L 374.097522 125.07177 
L 374.669305 128.327635 
L 375.241088 133.736742 
L 375.812871 126.395992 
L 376.384654 128.223227 
L 376.956436 133.665552 
L 377.528219 137.973549 
L 378.100002 122.896749 
L 378.671785 132.478807 
L 379.243568 130.858524 
L 379.815351 115.309476 
L 380.387134 130.996332 
L 380.958917 135.176963 
L 381.5307 143.861041 
L 382.102483 144.252756 
L 382.674266 143.821238 
L 383.246048 133.161422 
L 383.817831 116.213277 
L 384.389614 125.532046 
L 384.961397 123.473655 
L 385.53318 122.319609 
L 386.104963 134.535859 
L 386.676746 131.536539 
L 387.248529 143.438082 
L 387.820312 144.089507 
L 388.392095 136.727966 
L 388.963878 144.575213 
L 389.53566 139.585236 
L 390.107443 126.138592 
L 390.679226 121.668757 
L 391.251009 144.937124 
L 391.822792 138.104264 
L 392.394575 155.714138 
L 392.966358 133.274965 
L 393.538141 137.365845 
L 394.109924 137.775037 
L 394.681707 137.362254 
L 395.25349 136.091388 
L 395.825272 139.033139 
L 396.397055 136.301742 
L 396.968838 139.371764 
L 397.540621 136.931342 
L 398.112404 141.885373 
L 398.684187 133.15052 
L 399.827753 137.802917 
L 400.399536 144.772568 
L 400.971319 145.240754 
L 401.543102 138.713045 
L 402.114884 138.233018 
L 402.686667 147.487356 
L 403.25845 143.16977 
L 403.830233 133.162124 
L 404.402016 137.594475 
L 405.545582 120.452025 
L 406.117365 119.196202 
L 406.689148 131.30644 
L 407.260931 130.948431 
L 407.832714 127.032512 
L 408.404496 132.880603 
L 408.976279 128.889713 
L 409.548062 131.575411 
L 410.119845 138.758361 
L 410.691628 139.590681 
L 411.263411 136.614284 
L 412.97876 163.96905 
L 413.550543 154.371904 
L 414.122326 167.510778 
L 414.694109 148.624628 
L 415.265891 146.943542 
L 415.837674 144.475491 
L 416.409457 138.490995 
L 416.98124 141.56812 
L 417.553023 136.731958 
L 418.124806 143.611939 
L 418.696589 136.30027 
L 419.268372 136.728131 
L 419.840155 153.757341 
L 420.411938 153.798872 
L 420.983721 150.161995 
L 421.555503 143.546921 
L 422.127286 167.043365 
L 422.699069 142.178056 
L 423.270852 142.007171 
L 423.842635 136.440222 
L 424.414418 129.711168 
L 424.986201 133.42699 
L 425.557984 143.003059 
L 426.129767 135.318907 
L 426.70155 135.520915 
L 427.273333 134.49938 
L 427.845115 134.23338 
L 428.416898 128.080289 
L 428.988681 139.553055 
L 429.560464 144.226229 
L 430.132247 128.492724 
L 430.70403 139.431817 
L 431.275813 135.813323 
L 431.847596 147.459275 
L 432.419379 141.651479 
L 432.991162 152.986525 
L 433.562945 145.752412 
L 434.134727 127.492997 
L 434.70651 120.833207 
L 435.278293 124.212805 
L 435.850076 103.249019 
L 436.421859 112.15925 
L 436.993642 107.680547 
L 437.565425 117.303115 
L 438.137208 118.807992 
L 438.708991 121.902444 
L 439.280774 149.053071 
L 439.852557 151.526524 
L 440.424339 145.728151 
L 440.996122 151.397929 
L 441.567905 158.559219 
L 442.139688 177.154518 
L 442.711471 162.824668 
L 443.283254 139.430753 
L 444.42682 122.575038 
L 445.570386 112.020076 
L 446.142169 128.92356 
L 446.713951 92.562629 
L 447.285734 105.987418 
L 447.857517 103.975982 
L 448.4293 126.090177 
L 449.001083 125.59817 
L 449.572866 128.793576 
L 450.144649 133.574046 
L 450.716432 111.123863 
L 451.288215 95.6942 
L 451.859998 135.795877 
L 452.431781 87.726072 
L 453.003564 99.704528 
L 453.575346 94.941749 
L 454.147129 75.962828 
L 454.718912 73.263693 
L 455.290695 96.926107 
L 456.434261 120.121486 
L 457.006044 119.330791 
L 457.577827 133.411723 
L 458.14961 64.683587 
L 458.721393 56.550942 
L 459.293176 97.090521 
L 459.864958 119.987139 
L 460.436741 117.422583 
L 461.008524 135.01525 
L 461.580307 157.636702 
L 462.15209 149.701459 
L 462.723873 170.84296 
L 463.295656 173.108061 
L 463.867439 147.652972 
L 464.439222 147.602026 
L 465.011005 131.586742 
L 465.582788 100.765539 
L 466.15457 104.638794 
L 467.298136 137.213752 
L 468.441702 153.077013 
L 469.013485 170.145846 
L 469.585268 192.980795 
L 470.157051 184.608845 
L 470.728834 166.1266 
L 471.300617 157.78056 
L 471.8724 134.126105 
L 472.444182 100.236225 
L 473.015965 119.506108 
L 473.587748 118.171536 
L 474.159531 88.766962 
L 474.731314 91.21142 
L 475.303097 117.636511 
L 475.87488 134.184449 
L 476.446663 146.489045 
L 477.018446 149.387268 
L 477.590229 148.392266 
L 478.162012 135.201188 
L 478.733794 185.747127 
L 479.305577 153.028385 
L 479.87736 161.669054 
L 481.020926 131.802851 
L 482.164492 166.738312 
L 482.736275 137.679187 
L 483.308058 160.014412 
L 483.879841 158.891945 
L 484.451624 167.654173 
L 485.023406 162.63813 
L 485.595189 143.429107 
L 486.166972 149.549913 
L 486.738755 153.204189 
L 487.310538 165.95714 
L 487.882321 140.365201 
L 488.454104 159.487232 
L 489.025887 129.714624 
L 489.59767 134.755182 
L 490.169453 124.450539 
L 490.741236 167.072395 
L 491.313019 138.650686 
L 491.884801 173.51759 
L 492.456584 178.082253 
L 493.028367 130.597054 
L 493.60015 115.20617 
L 494.171933 141.605104 
L 494.743716 135.668409 
L 495.315499 175.218083 
L 495.887282 160.540549 
L 496.459065 152.465791 
L 497.030848 173.390425 
L 497.602631 130.949295 
L 498.174413 137.366272 
L 498.746196 138.32359 
L 499.317979 149.179738 
L 499.889762 147.862795 
L 500.461545 157.531907 
L 501.033328 157.0863 
L 501.605111 165.578776 
L 502.176894 172.327287 
L 502.748677 153.613925 
L 503.32046 110.873421 
L 503.892243 112.176096 
L 504.464025 107.668247 
L 505.607591 153.73095 
L 506.179374 127.208768 
L 506.751157 139.922933 
L 507.32294 53.292672 
L 507.894723 114.841158 
L 508.466506 125.763537 
L 509.038289 157.843655 
L 510.181855 137.194251 
L 510.753637 96.933352 
L 511.32542 43.16023 
L 511.897203 110.877512 
L 512.468986 121.210461 
L 513.040769 184.222252 
L 513.612552 135.42253 
L 514.184335 151.403406 
L 514.756118 143.076046 
L 515.327901 125.63311 
L 515.899684 145.303836 
L 516.471467 145.50938 
L 517.043249 115.381581 
L 518.186815 132.619452 
L 518.758598 83.043578 
L 519.330381 85.384049 
L 519.902164 16.046705 
L 520.473947 64.444509 
L 521.04573 95.146852 
L 521.617513 157.580096 
L 522.189296 108.275546 
L 522.761079 101.538101 
L 523.332861 177.156715 
L 523.904644 126.804645 
L 524.476427 154.142812 
L 525.04821 131.223582 
L 525.04821 131.223582 
" clip-path="url(#p65c5e4fa34)" style="fill: none; stroke: #222222; stroke-width: 0.8; stroke-linecap: square"/>
   </g>
   <g id="patch_3">
    <path d="M 45.350938 201.8275 
L 45.350938 7.2 
" style="fill: none; stroke: #000000; stroke-width: 0.8; stroke-linejoin: miter; stroke-linecap: square"/>
   </g>
   <g id="patch_4">
    <path d="M 45.350938 201.8275 
L 547.890938 201.8275 
" style="fill: none; stroke: #000000; stroke-width: 0.8; stroke-linejoin: miter; stroke-linecap: square"/>
   </g>
   <g id="PathCollection_1">
    <defs>
     <path id="m0555171a17" d="M 0 1.5 
C 0.397805 1.5 0.77937 1.341951 1.06066 1.06066 
C 1.341951 0.77937 1.5 0.397805 1.5 0 
C 1.5 -0.397805 1.341951 -0.77937 1.06066 -1.06066 
C 0.77937 -1.341951 0.397805 -1.5 0 -1.5 
C -0.397805 -1.5 -0.77937 -1.341951 -1.06066 -1.06066 
C -1.341951 -0.77937 -1.5 -0.397805 -1.5 0 
C -1.5 0.397805 -1.341951 0.77937 -1.06066 1.06066 
C -0.77937 1.341951 -0.397805 1.5 0 1.5 
z
" style="stroke: #1f77b4"/>
    </defs>
    <g clip-path="url(#p65c5e4fa34)">
     <use xlink:href="#m0555171a17" x="125.943739" y="161.448002" style="fill: #1f77b4; stroke: #1f77b4"/>
     <use xlink:href="#m0555171a17" x="126.515522" y="150.189375" style="fill: #1f77b4; stroke: #1f77b4"/>
     <use xlink:href="#m0555171a17" x="131.661568" y="124.505993" style="fill: #1f77b4; stroke: #1f77b4"/>
     <use xlink:href="#m0555171a17" x="180.834898" y="116.435604" style="fill: #1f77b4; stroke: #1f77b4"/>
     <use xlink:href="#m0555171a17" x="181.406681" y="112.954328" style="fill: #1f77b4; stroke: #1f77b4"/>
     <use xlink:href="#m0555171a17" x="295.19148" y="152.016605" style="fill: #1f77b4; stroke: #1f77b4"/>
     <use xlink:href="#m0555171a17" x="295.763263" y="145.273152" style="fill: #1f77b4; stroke: #1f77b4"/>
     <use xlink:href="#m0555171a17" x="296.335046" y="142.398153" style="fill: #1f77b4; stroke: #1f77b4"/>
     <use xlink:href="#m0555171a17" x="296.906829" y="135.300978" style="fill: #1f77b4; stroke: #1f77b4"/>
     <use xlink:href="#m0555171a17" x="315.203882" y="113.765968" style="fill: #1f77b4; stroke: #1f77b4"/>
     <use xlink:href="#m0555171a17" x="315.775665" y="117.036528" style="fill: #1f77b4; stroke: #1f77b4"/>
     <use xlink:href="#m0555171a17" x="316.347448" y="123.071537" style="fill: #1f77b4; stroke: #1f77b4"/>
     <use xlink:href="#m0555171a17" x="327.783106" y="169.460661" style="fill: #1f77b4; stroke: #1f77b4"/>
     <use xlink:href="#m0555171a17" x="328.926672" y="129.996602" style="fill: #1f77b4; stroke: #1f77b4"/>
     <use xlink:href="#m0555171a17" x="339.790547" y="160.612338" style="fill: #1f77b4; stroke: #1f77b4"/>
     <use xlink:href="#m0555171a17" x="340.36233" y="168.99452" style="fill: #1f77b4; stroke: #1f77b4"/>
     <use xlink:href="#m0555171a17" x="340.934113" y="151.344172" style="fill: #1f77b4; stroke: #1f77b4"/>
     <use xlink:href="#m0555171a17" x="341.505896" y="148.31927" style="fill: #1f77b4; stroke: #1f77b4"/>
     <use xlink:href="#m0555171a17" x="342.077679" y="140.761713" style="fill: #1f77b4; stroke: #1f77b4"/>
     <use xlink:href="#m0555171a17" x="342.649462" y="143.114812" style="fill: #1f77b4; stroke: #1f77b4"/>
     <use xlink:href="#m0555171a17" x="343.221245" y="139.226456" style="fill: #1f77b4; stroke: #1f77b4"/>
     <use xlink:href="#m0555171a17" x="343.793028" y="136.362044" style="fill: #1f77b4; stroke: #1f77b4"/>
     <use xlink:href="#m0555171a17" x="344.364811" y="133.630261" style="fill: #1f77b4; stroke: #1f77b4"/>
     <use xlink:href="#m0555171a17" x="344.936593" y="133.935103" style="fill: #1f77b4; stroke: #1f77b4"/>
     <use xlink:href="#m0555171a17" x="345.508376" y="124.648715" style="fill: #1f77b4; stroke: #1f77b4"/>
     <use xlink:href="#m0555171a17" x="346.080159" y="134.676428" style="fill: #1f77b4; stroke: #1f77b4"/>
     <use xlink:href="#m0555171a17" x="346.651942" y="139.746463" style="fill: #1f77b4; stroke: #1f77b4"/>
     <use xlink:href="#m0555171a17" x="347.223725" y="144.148175" style="fill: #1f77b4; stroke: #1f77b4"/>
     <use xlink:href="#m0555171a17" x="347.795508" y="141.362187" style="fill: #1f77b4; stroke: #1f77b4"/>
     <use xlink:href="#m0555171a17" x="348.367291" y="144.294165" style="fill: #1f77b4; stroke: #1f77b4"/>
     <use xlink:href="#m0555171a17" x="348.939074" y="150.105596" style="fill: #1f77b4; stroke: #1f77b4"/>
     <use xlink:href="#m0555171a17" x="349.510857" y="150.033399" style="fill: #1f77b4; stroke: #1f77b4"/>
     <use xlink:href="#m0555171a17" x="350.08264" y="144.484727" style="fill: #1f77b4; stroke: #1f77b4"/>
     <use xlink:href="#m0555171a17" x="364.377212" y="179.938359" style="fill: #1f77b4; stroke: #1f77b4"/>
     <use xlink:href="#m0555171a17" x="364.948995" y="171.933188" style="fill: #1f77b4; stroke: #1f77b4"/>
     <use xlink:href="#m0555171a17" x="365.520778" y="187.419451" style="fill: #1f77b4; stroke: #1f77b4"/>
     <use xlink:href="#m0555171a17" x="366.092561" y="167.192056" style="fill: #1f77b4; stroke: #1f77b4"/>
     <use xlink:href="#m0555171a17" x="366.664344" y="155.039753" style="fill: #1f77b4; stroke: #1f77b4"/>
     <use xlink:href="#m0555171a17" x="367.236127" y="149.641089" style="fill: #1f77b4; stroke: #1f77b4"/>
     <use xlink:href="#m0555171a17" x="367.80791" y="137.469639" style="fill: #1f77b4; stroke: #1f77b4"/>
     <use xlink:href="#m0555171a17" x="368.379693" y="148.88342" style="fill: #1f77b4; stroke: #1f77b4"/>
     <use xlink:href="#m0555171a17" x="368.951476" y="143.797601" style="fill: #1f77b4; stroke: #1f77b4"/>
     <use xlink:href="#m0555171a17" x="369.523259" y="134.692028" style="fill: #1f77b4; stroke: #1f77b4"/>
     <use xlink:href="#m0555171a17" x="370.095041" y="136.910476" style="fill: #1f77b4; stroke: #1f77b4"/>
     <use xlink:href="#m0555171a17" x="370.666824" y="137.446302" style="fill: #1f77b4; stroke: #1f77b4"/>
     <use xlink:href="#m0555171a17" x="371.238607" y="136.813137" style="fill: #1f77b4; stroke: #1f77b4"/>
     <use xlink:href="#m0555171a17" x="371.81039" y="145.287262" style="fill: #1f77b4; stroke: #1f77b4"/>
     <use xlink:href="#m0555171a17" x="372.382173" y="127.051719" style="fill: #1f77b4; stroke: #1f77b4"/>
     <use xlink:href="#m0555171a17" x="372.953956" y="118.543985" style="fill: #1f77b4; stroke: #1f77b4"/>
     <use xlink:href="#m0555171a17" x="373.525739" y="132.643508" style="fill: #1f77b4; stroke: #1f77b4"/>
     <use xlink:href="#m0555171a17" x="374.097522" y="125.07177" style="fill: #1f77b4; stroke: #1f77b4"/>
     <use xlink:href="#m0555171a17" x="374.669305" y="128.327635" style="fill: #1f77b4; stroke: #1f77b4"/>
     <use xlink:href="#m0555171a17" x="375.241088" y="133.736742" style="fill: #1f77b4; stroke: #1f77b4"/>
     <use xlink:href="#m0555171a17" x="375.812871" y="126.395992" style="fill: #1f77b4; stroke: #1f77b4"/>
     <use xlink:href="#m0555171a17" x="376.384654" y="128.223227" style="fill: #1f77b4; stroke: #1f77b4"/>
     <use xlink:href="#m0555171a17" x="376.956436" y="133.665552" style="fill: #1f77b4; stroke: #1f77b4"/>
     <use xlink:href="#m0555171a17" x="413.550543" y="154.371904" style="fill: #1f77b4; stroke: #1f77b4"/>
     <use xlink:href="#m0555171a17" x="414.122326" y="167.510778" style="fill: #1f77b4; stroke: #1f77b4"/>
     <use xlink:href="#m0555171a17" x="414.694109" y="148.624628" style="fill: #1f77b4; stroke: #1f77b4"/>
     <use xlink:href="#m0555171a17" x="415.265891" y="146.943542" style="fill: #1f77b4; stroke: #1f77b4"/>
     <use xlink:href="#m0555171a17" x="415.837674" y="144.475491" style="fill: #1f77b4; stroke: #1f77b4"/>
     <use xlink:href="#m0555171a17" x="416.409457" y="138.490995" style="fill: #1f77b4; stroke: #1f77b4"/>
     <use xlink:href="#m0555171a17" x="416.98124" y="141.56812" style="fill: #1f77b4; stroke: #1f77b4"/>
     <use xlink:href="#m0555171a17" x="417.553023" y="136.731958" style="fill: #1f77b4; stroke: #1f77b4"/>
     <use xlink:href="#m0555171a17" x="436.421859" y="112.15925" style="fill: #1f77b4; stroke: #1f77b4"/>
     <use xlink:href="#m0555171a17" x="436.993642" y="107.680547" style="fill: #1f77b4; stroke: #1f77b4"/>
     <use xlink:href="#m0555171a17" x="437.565425" y="117.303115" style="fill: #1f77b4; stroke: #1f77b4"/>
     <use xlink:href="#m0555171a17" x="438.137208" y="118.807992" style="fill: #1f77b4; stroke: #1f77b4"/>
     <use xlink:href="#m0555171a17" x="438.708991" y="121.902444" style="fill: #1f77b4; stroke: #1f77b4"/>
     <use xlink:href="#m0555171a17" x="439.280774" y="149.053071" style="fill: #1f77b4; stroke: #1f77b4"/>
     <use xlink:href="#m0555171a17" x="439.852557" y="151.526524" style="fill: #1f77b4; stroke: #1f77b4"/>
     <use xlink:href="#m0555171a17" x="440.424339" y="145.728151" style="fill: #1f77b4; stroke: #1f77b4"/>
     <use xlink:href="#m0555171a17" x="440.996122" y="151.397929" style="fill: #1f77b4; stroke: #1f77b4"/>
     <use xlink:href="#m0555171a17" x="441.567905" y="158.559219" style="fill: #1f77b4; stroke: #1f77b4"/>
     <use xlink:href="#m0555171a17" x="442.139688" y="177.154518" style="fill: #1f77b4; stroke: #1f77b4"/>
     <use xlink:href="#m0555171a17" x="442.711471" y="162.824668" style="fill: #1f77b4; stroke: #1f77b4"/>
     <use xlink:href="#m0555171a17" x="443.283254" y="139.430753" style="fill: #1f77b4; stroke: #1f77b4"/>
     <use xlink:href="#m0555171a17" x="443.855037" y="130.321448" style="fill: #1f77b4; stroke: #1f77b4"/>
     <use xlink:href="#m0555171a17" x="444.42682" y="122.575038" style="fill: #1f77b4; stroke: #1f77b4"/>
     <use xlink:href="#m0555171a17" x="444.998603" y="117.298337" style="fill: #1f77b4; stroke: #1f77b4"/>
     <use xlink:href="#m0555171a17" x="445.570386" y="112.020076" style="fill: #1f77b4; stroke: #1f77b4"/>
     <use xlink:href="#m0555171a17" x="446.142169" y="128.92356" style="fill: #1f77b4; stroke: #1f77b4"/>
     <use xlink:href="#m0555171a17" x="446.713951" y="92.562629" style="fill: #1f77b4; stroke: #1f77b4"/>
     <use xlink:href="#m0555171a17" x="447.285734" y="105.987418" style="fill: #1f77b4; stroke: #1f77b4"/>
     <use xlink:href="#m0555171a17" x="447.857517" y="103.975982" style="fill: #1f77b4; stroke: #1f77b4"/>
     <use xlink:href="#m0555171a17" x="448.4293" y="126.090177" style="fill: #1f77b4; stroke: #1f77b4"/>
     <use xlink:href="#m0555171a17" x="449.001083" y="125.59817" style="fill: #1f77b4; stroke: #1f77b4"/>
     <use xlink:href="#m0555171a17" x="449.572866" y="128.793576" style="fill: #1f77b4; stroke: #1f77b4"/>
     <use xlink:href="#m0555171a17" x="450.144649" y="133.574046" style="fill: #1f77b4; stroke: #1f77b4"/>
     <use xlink:href="#m0555171a17" x="450.716432" y="111.123863" style="fill: #1f77b4; stroke: #1f77b4"/>
     <use xlink:href="#m0555171a17" x="451.288215" y="95.6942" style="fill: #1f77b4; stroke: #1f77b4"/>
     <use xlink:href="#m0555171a17" x="451.859998" y="135.795877" style="fill: #1f77b4; stroke: #1f77b4"/>
     <use xlink:href="#m0555171a17" x="452.431781" y="87.726072" style="fill: #1f77b4; stroke: #1f77b4"/>
     <use xlink:href="#m0555171a17" x="453.003564" y="99.704528" style="fill: #1f77b4; stroke: #1f77b4"/>
     <use xlink:href="#m0555171a17" x="453.575346" y="94.941749" style="fill: #1f77b4; stroke: #1f77b4"/>
     <use xlink:href="#m0555171a17" x="454.147129" y="75.962828" style="fill: #1f77b4; stroke: #1f77b4"/>
     <use xlink:href="#m0555171a17" x="454.718912" y="73.263693" style="fill: #1f77b4; stroke: #1f77b4"/>
     <use xlink:href="#m0555171a17" x="455.290695" y="96.926107" style="fill: #1f77b4; stroke: #1f77b4"/>
     <use xlink:href="#m0555171a17" x="455.862478" y="108.717333" style="fill: #1f77b4; stroke: #1f77b4"/>
     <use xlink:href="#m0555171a17" x="456.434261" y="120.121486" style="fill: #1f77b4; stroke: #1f77b4"/>
     <use xlink:href="#m0555171a17" x="457.006044" y="119.330791" style="fill: #1f77b4; stroke: #1f77b4"/>
     <use xlink:href="#m0555171a17" x="457.577827" y="133.411723" style="fill: #1f77b4; stroke: #1f77b4"/>
     <use xlink:href="#m0555171a17" x="458.14961" y="64.683587" style="fill: #1f77b4; stroke: #1f77b4"/>
     <use xlink:href="#m0555171a17" x="458.721393" y="56.550942" style="fill: #1f77b4; stroke: #1f77b4"/>
     <use xlink:href="#m0555171a17" x="459.293176" y="97.090521" style="fill: #1f77b4; stroke: #1f77b4"/>
     <use xlink:href="#m0555171a17" x="459.864958" y="119.987139" style="fill: #1f77b4; stroke: #1f77b4"/>
     <use xlink:href="#m0555171a17" x="460.436741" y="117.422583" style="fill: #1f77b4; stroke: #1f77b4"/>
     <use xlink:href="#m0555171a17" x="461.008524" y="135.01525" style="fill: #1f77b4; stroke: #1f77b4"/>
     <use xlink:href="#m0555171a17" x="461.580307" y="157.636702" style="fill: #1f77b4; stroke: #1f77b4"/>
     <use xlink:href="#m0555171a17" x="462.15209" y="149.701459" style="fill: #1f77b4; stroke: #1f77b4"/>
     <use xlink:href="#m0555171a17" x="462.723873" y="170.84296" style="fill: #1f77b4; stroke: #1f77b4"/>
     <use xlink:href="#m0555171a17" x="463.295656" y="173.108061" style="fill: #1f77b4; stroke: #1f77b4"/>
     <use xlink:href="#m0555171a17" x="463.867439" y="147.652972" style="fill: #1f77b4; stroke: #1f77b4"/>
     <use xlink:href="#m0555171a17" x="464.439222" y="147.602026" style="fill: #1f77b4; stroke: #1f77b4"/>
     <use xlink:href="#m0555171a17" x="465.011005" y="131.586742" style="fill: #1f77b4; stroke: #1f77b4"/>
     <use xlink:href="#m0555171a17" x="465.582788" y="100.765539" style="fill: #1f77b4; stroke: #1f77b4"/>
     <use xlink:href="#m0555171a17" x="466.15457" y="104.638794" style="fill: #1f77b4; stroke: #1f77b4"/>
     <use xlink:href="#m0555171a17" x="466.726353" y="120.878116" style="fill: #1f77b4; stroke: #1f77b4"/>
     <use xlink:href="#m0555171a17" x="467.298136" y="137.213752" style="fill: #1f77b4; stroke: #1f77b4"/>
     <use xlink:href="#m0555171a17" x="467.869919" y="144.543281" style="fill: #1f77b4; stroke: #1f77b4"/>
     <use xlink:href="#m0555171a17" x="468.441702" y="153.077013" style="fill: #1f77b4; stroke: #1f77b4"/>
     <use xlink:href="#m0555171a17" x="469.013485" y="170.145846" style="fill: #1f77b4; stroke: #1f77b4"/>
     <use xlink:href="#m0555171a17" x="469.585268" y="192.980795" style="fill: #1f77b4; stroke: #1f77b4"/>
     <use xlink:href="#m0555171a17" x="470.157051" y="184.608845" style="fill: #1f77b4; stroke: #1f77b4"/>
     <use xlink:href="#m0555171a17" x="470.728834" y="166.1266" style="fill: #1f77b4; stroke: #1f77b4"/>
     <use xlink:href="#m0555171a17" x="471.300617" y="157.78056" style="fill: #1f77b4; stroke: #1f77b4"/>
     <use xlink:href="#m0555171a17" x="471.8724" y="134.126105" style="fill: #1f77b4; stroke: #1f77b4"/>
     <use xlink:href="#m0555171a17" x="472.444182" y="100.236225" style="fill: #1f77b4; stroke: #1f77b4"/>
     <use xlink:href="#m0555171a17" x="473.015965" y="119.506108" style="fill: #1f77b4; stroke: #1f77b4"/>
     <use xlink:href="#m0555171a17" x="473.587748" y="118.171536" style="fill: #1f77b4; stroke: #1f77b4"/>
     <use xlink:href="#m0555171a17" x="474.159531" y="88.766962" style="fill: #1f77b4; stroke: #1f77b4"/>
     <use xlink:href="#m0555171a17" x="474.731314" y="91.21142" style="fill: #1f77b4; stroke: #1f77b4"/>
     <use xlink:href="#m0555171a17" x="475.303097" y="117.636511" style="fill: #1f77b4; stroke: #1f77b4"/>
     <use xlink:href="#m0555171a17" x="475.87488" y="134.184449" style="fill: #1f77b4; stroke: #1f77b4"/>
     <use xlink:href="#m0555171a17" x="476.446663" y="146.489045" style="fill: #1f77b4; stroke: #1f77b4"/>
     <use xlink:href="#m0555171a17" x="477.018446" y="149.387268" style="fill: #1f77b4; stroke: #1f77b4"/>
     <use xlink:href="#m0555171a17" x="477.590229" y="148.392266" style="fill: #1f77b4; stroke: #1f77b4"/>
     <use xlink:href="#m0555171a17" x="478.162012" y="135.201188" style="fill: #1f77b4; stroke: #1f77b4"/>
     <use xlink:href="#m0555171a17" x="478.733794" y="185.747127" style="fill: #1f77b4; stroke: #1f77b4"/>
     <use xlink:href="#m0555171a17" x="479.305577" y="153.028385" style="fill: #1f77b4; stroke: #1f77b4"/>
     <use xlink:href="#m0555171a17" x="479.87736" y="161.669054" style="fill: #1f77b4; stroke: #1f77b4"/>
     <use xlink:href="#m0555171a17" x="480.449143" y="146.859115" style="fill: #1f77b4; stroke: #1f77b4"/>
     <use xlink:href="#m0555171a17" x="481.020926" y="131.802851" style="fill: #1f77b4; stroke: #1f77b4"/>
     <use xlink:href="#m0555171a17" x="481.592709" y="147.96638" style="fill: #1f77b4; stroke: #1f77b4"/>
     <use xlink:href="#m0555171a17" x="482.164492" y="166.738312" style="fill: #1f77b4; stroke: #1f77b4"/>
     <use xlink:href="#m0555171a17" x="482.736275" y="137.679187" style="fill: #1f77b4; stroke: #1f77b4"/>
     <use xlink:href="#m0555171a17" x="483.308058" y="160.014412" style="fill: #1f77b4; stroke: #1f77b4"/>
     <use xlink:href="#m0555171a17" x="483.879841" y="158.891945" style="fill: #1f77b4; stroke: #1f77b4"/>
     <use xlink:href="#m0555171a17" x="484.451624" y="167.654173" style="fill: #1f77b4; stroke: #1f77b4"/>
     <use xlink:href="#m0555171a17" x="485.023406" y="162.63813" style="fill: #1f77b4; stroke: #1f77b4"/>
     <use xlink:href="#m0555171a17" x="485.595189" y="143.429107" style="fill: #1f77b4; stroke: #1f77b4"/>
     <use xlink:href="#m0555171a17" x="486.166972" y="149.549913" style="fill: #1f77b4; stroke: #1f77b4"/>
     <use xlink:href="#m0555171a17" x="486.738755" y="153.204189" style="fill: #1f77b4; stroke: #1f77b4"/>
     <use xlink:href="#m0555171a17" x="487.310538" y="165.95714" style="fill: #1f77b4; stroke: #1f77b4"/>
     <use xlink:href="#m0555171a17" x="487.882321" y="140.365201" style="fill: #1f77b4; stroke: #1f77b4"/>
     <use xlink:href="#m0555171a17" x="488.454104" y="159.487232" style="fill: #1f77b4; stroke: #1f77b4"/>
     <use xlink:href="#m0555171a17" x="489.025887" y="129.714624" style="fill: #1f77b4; stroke: #1f77b4"/>
     <use xlink:href="#m0555171a17" x="489.59767" y="134.755182" style="fill: #1f77b4; stroke: #1f77b4"/>
     <use xlink:href="#m0555171a17" x="490.169453" y="124.450539" style="fill: #1f77b4; stroke: #1f77b4"/>
     <use xlink:href="#m0555171a17" x="490.741236" y="167.072395" style="fill: #1f77b4; stroke: #1f77b4"/>
     <use xlink:href="#m0555171a17" x="491.313019" y="138.650686" style="fill: #1f77b4; stroke: #1f77b4"/>
     <use xlink:href="#m0555171a17" x="491.884801" y="173.51759" style="fill: #1f77b4; stroke: #1f77b4"/>
     <use xlink:href="#m0555171a17" x="492.456584" y="178.082253" style="fill: #1f77b4; stroke: #1f77b4"/>
     <use xlink:href="#m0555171a17" x="493.028367" y="130.597054" style="fill: #1f77b4; stroke: #1f77b4"/>
     <use xlink:href="#m0555171a17" x="493.60015" y="115.20617" style="fill: #1f77b4; stroke: #1f77b4"/>
     <use xlink:href="#m0555171a17" x="494.171933" y="141.605104" style="fill: #1f77b4; stroke: #1f77b4"/>
     <use xlink:href="#m0555171a17" x="494.743716" y="135.668409" style="fill: #1f77b4; stroke: #1f77b4"/>
     <use xlink:href="#m0555171a17" x="495.315499" y="175.218083" style="fill: #1f77b4; stroke: #1f77b4"/>
     <use xlink:href="#m0555171a17" x="495.887282" y="160.540549" style="fill: #1f77b4; stroke: #1f77b4"/>
     <use xlink:href="#m0555171a17" x="496.459065" y="152.465791" style="fill: #1f77b4; stroke: #1f77b4"/>
     <use xlink:href="#m0555171a17" x="497.030848" y="173.390425" style="fill: #1f77b4; stroke: #1f77b4"/>
     <use xlink:href="#m0555171a17" x="497.602631" y="130.949295" style="fill: #1f77b4; stroke: #1f77b4"/>
     <use xlink:href="#m0555171a17" x="498.174413" y="137.366272" style="fill: #1f77b4; stroke: #1f77b4"/>
     <use xlink:href="#m0555171a17" x="498.746196" y="138.32359" style="fill: #1f77b4; stroke: #1f77b4"/>
     <use xlink:href="#m0555171a17" x="499.317979" y="149.179738" style="fill: #1f77b4; stroke: #1f77b4"/>
     <use xlink:href="#m0555171a17" x="499.889762" y="147.862795" style="fill: #1f77b4; stroke: #1f77b4"/>
     <use xlink:href="#m0555171a17" x="500.461545" y="157.531907" style="fill: #1f77b4; stroke: #1f77b4"/>
     <use xlink:href="#m0555171a17" x="501.033328" y="157.0863" style="fill: #1f77b4; stroke: #1f77b4"/>
     <use xlink:href="#m0555171a17" x="501.605111" y="165.578776" style="fill: #1f77b4; stroke: #1f77b4"/>
     <use xlink:href="#m0555171a17" x="502.176894" y="172.327287" style="fill: #1f77b4; stroke: #1f77b4"/>
     <use xlink:href="#m0555171a17" x="502.748677" y="153.613925" style="fill: #1f77b4; stroke: #1f77b4"/>
     <use xlink:href="#m0555171a17" x="503.32046" y="110.873421" style="fill: #1f77b4; stroke: #1f77b4"/>
     <use xlink:href="#m0555171a17" x="503.892243" y="112.176096" style="fill: #1f77b4; stroke: #1f77b4"/>
     <use xlink:href="#m0555171a17" x="504.464025" y="107.668247" style="fill: #1f77b4; stroke: #1f77b4"/>
     <use xlink:href="#m0555171a17" x="505.035808" y="129.144347" style="fill: #1f77b4; stroke: #1f77b4"/>
     <use xlink:href="#m0555171a17" x="505.607591" y="153.73095" style="fill: #1f77b4; stroke: #1f77b4"/>
     <use xlink:href="#m0555171a17" x="506.179374" y="127.208768" style="fill: #1f77b4; stroke: #1f77b4"/>
     <use xlink:href="#m0555171a17" x="506.751157" y="139.922933" style="fill: #1f77b4; stroke: #1f77b4"/>
     <use xlink:href="#m0555171a17" x="507.32294" y="53.292672" style="fill: #1f77b4; stroke: #1f77b4"/>
     <use xlink:href="#m0555171a17" x="507.894723" y="114.841158" style="fill: #1f77b4; stroke: #1f77b4"/>
     <use xlink:href="#m0555171a17" x="508.466506" y="125.763537" style="fill: #1f77b4; stroke: #1f77b4"/>
     <use xlink:href="#m0555171a17" x="509.038289" y="157.843655" style="fill: #1f77b4; stroke: #1f77b4"/>
     <use xlink:href="#m0555171a17" x="509.610072" y="147.583485" style="fill: #1f77b4; stroke: #1f77b4"/>
     <use xlink:href="#m0555171a17" x="510.181855" y="137.194251" style="fill: #1f77b4; stroke: #1f77b4"/>
     <use xlink:href="#m0555171a17" x="510.753637" y="96.933352" style="fill: #1f77b4; stroke: #1f77b4"/>
     <use xlink:href="#m0555171a17" x="511.32542" y="43.16023" style="fill: #1f77b4; stroke: #1f77b4"/>
     <use xlink:href="#m0555171a17" x="511.897203" y="110.877512" style="fill: #1f77b4; stroke: #1f77b4"/>
     <use xlink:href="#m0555171a17" x="512.468986" y="121.210461" style="fill: #1f77b4; stroke: #1f77b4"/>
     <use xlink:href="#m0555171a17" x="513.040769" y="184.222252" style="fill: #1f77b4; stroke: #1f77b4"/>
     <use xlink:href="#m0555171a17" x="513.612552" y="135.42253" style="fill: #1f77b4; stroke: #1f77b4"/>
     <use xlink:href="#m0555171a17" x="514.184335" y="151.403406" style="fill: #1f77b4; stroke: #1f77b4"/>
     <use xlink:href="#m0555171a17" x="514.756118" y="143.076046" style="fill: #1f77b4; stroke: #1f77b4"/>
     <use xlink:href="#m0555171a17" x="515.327901" y="125.63311" style="fill: #1f77b4; stroke: #1f77b4"/>
     <use xlink:href="#m0555171a17" x="515.899684" y="145.303836" style="fill: #1f77b4; stroke: #1f77b4"/>
     <use xlink:href="#m0555171a17" x="516.471467" y="145.50938" style="fill: #1f77b4; stroke: #1f77b4"/>
     <use xlink:href="#m0555171a17" x="517.043249" y="115.381581" style="fill: #1f77b4; stroke: #1f77b4"/>
     <use xlink:href="#m0555171a17" x="517.615032" y="124.217427" style="fill: #1f77b4; stroke: #1f77b4"/>
     <use xlink:href="#m0555171a17" x="518.186815" y="132.619452" style="fill: #1f77b4; stroke: #1f77b4"/>
     <use xlink:href="#m0555171a17" x="518.758598" y="83.043578" style="fill: #1f77b4; stroke: #1f77b4"/>
     <use xlink:href="#m0555171a17" x="519.330381" y="85.384049" style="fill: #1f77b4; stroke: #1f77b4"/>
     <use xlink:href="#m0555171a17" x="519.902164" y="16.046705" style="fill: #1f77b4; stroke: #1f77b4"/>
     <use xlink:href="#m0555171a17" x="520.473947" y="64.444509" style="fill: #1f77b4; stroke: #1f77b4"/>
     <use xlink:href="#m0555171a17" x="521.04573" y="95.146852" style="fill: #1f77b4; stroke: #1f77b4"/>
     <use xlink:href="#m0555171a17" x="521.617513" y="157.580096" style="fill: #1f77b4; stroke: #1f77b4"/>
     <use xlink:href="#m0555171a17" x="522.189296" y="108.275546" style="fill: #1f77b4; stroke: #1f77b4"/>
     <use xlink:href="#m0555171a17" x="522.761079" y="101.538101" style="fill: #1f77b4; stroke: #1f77b4"/>
     <use xlink:href="#m0555171a17" x="523.332861" y="177.156715" style="fill: #1f77b4; stroke: #1f77b4"/>
     <use xlink:href="#m0555171a17" x="523.904644" y="126.804645" style="fill: #1f77b4; stroke: #1f77b4"/>
     <use xlink:href="#m0555171a17" x="524.476427" y="154.142812" style="fill: #1f77b4; stroke: #1f77b4"/>
     <use xlink:href="#m0555171a17" x="525.04821" y="131.223582" style="fill: #1f77b4; stroke: #1f77b4"/>
    </g>
   </g>
   <g id="legend_1">
    <g id="patch_5">
     <path d="M 53.450938 21.851719 
L 71.450938 21.851719 
L 71.450938 15.551719 
L 53.450938 15.551719 
z
" style="fill: #fee08b; fill-opacity: 0.22; stroke: #fee08b; stroke-opacity: 0.22; stroke-linejoin: miter"/>
    </g>
    <g id="text_16">
     <text style="font: 9px 'Arial', 'Helvetica', 'Liberation Sans', 'DejaVu Sans', sans-serif; text-anchor: start" x="78.650937" y="21.851719" transform="rotate(-0 78.650937 21.851719)">Drift</text>
    </g>
    <g id="patch_6">
     <path d="M 113.147656 21.851719 
L 131.147656 21.851719 
L 131.147656 15.551719 
L 113.147656 15.551719 
z
" style="fill: #fdae61; fill-opacity: 0.22; stroke: #fdae61; stroke-opacity: 0.22; stroke-linejoin: miter"/>
    </g>
    <g id="text_17">
     <text style="font: 9px 'Arial', 'Helvetica', 'Liberation Sans', 'DejaVu Sans', sans-serif; text-anchor: start" x="138.347656" y="21.851719" transform="rotate(-0 138.347656 21.851719)">Collapse</text>
    </g>
    <g id="PathCollection_2">
     <g>
      <use xlink:href="#m0555171a17" x="200.366094" y="19.489219" style="fill: #1f77b4; stroke: #1f77b4"/>
     </g>
    </g>
    <g id="text_18">
     <text style="font: 9px 'Arial', 'Helvetica', 'Liberation Sans', 'DejaVu Sans', sans-serif; text-anchor: start" x="216.566094" y="21.851719" transform="rotate(-0 216.566094 21.851719)">Volatility alarms</text>
    </g>
   </g>
  </g>
 </g>
 <defs>
  <clipPath id="p65c5e4fa34">
   <rect x="45.350938" y="7.2" width="502.54" height="194.6275"/>
  </clipPath>
 </defs>
</svg>
