<?xml version="1.0" encoding="utf-8" standalone="no"?>
<!DOCTYPE svg PUBLIC "-//W3C//DTD SVG 1.1//EN"
  "http://www.w3.org/Graphics/SVG/1.1/DTD/svg11.dtd">
<svg xmlns:xlink="http://www.w3.org/1999/xlink" width="553.892656pt" height="236.266719pt" viewBox="0 0 553.892656 236.266719" xmlns="http://www.w3.org/2000/svg" version="1.1">
 <metadata>
  <rdf:RDF xmlns:dc="http://purl.org/dc/elements/1.1/" xmlns:cc="http://creativecommons.org/ns#" xmlns:rdf="http://www.w3.org/1999/02/22-rdf-syntax-ns#">
   <cc:Work>
    <dc:type rdf:resource="http://purl.org/dc/dcmitype/StillImage"/>
    <dc:date>2026-06-20T13:02:12.211458</dc:date>
    <dc:format>image/svg+xml</dc:format>
    <dc:creator>
     <cc:Agent>
      <dc:title>Matplotlib v3.9.2, https://matplotlib.org/</dc:title>
     </cc:Agent>
    </dc:creator>
   </cc:Work>
  </rdf:RDF>
 </metadata>
 <defs>
  <style type="text/css">*{stroke-linejoin: round; stroke-linecap: butt}</style>
 </defs>
 <g id="figure_1">
  <g id="patch_1">
   <path d="M 0 236.266719 
L 553.892656 236.266719 
L 553.892656 0 
L 0 0 
z
" style="fill: #ffffff"/>
  </g>
  <g id="axes_1">
   <g id="patch_2">
    <path d="M 49.732656 199.678281 
L 546.692656 199.678281 
L 546.692656 21.558281 
L 49.732656 21.558281 
z
" style="fill: #ffffff"/>
   </g>
   <g id="PolyCollection_1">
    <defs>
     <path id="m11bf86ea08" d="M 325.636208 -206.612074 
L 325.636208 -44.684801 
L 326.201642 -44.684801 
L 326.767077 -44.684801 
L 327.332511 -44.684801 
L 327.897945 -44.684801 
L 328.463379 -44.684801 
L 329.028813 -44.684801 
L 329.594247 -44.684801 
L 330.159681 -44.684801 
L 330.725115 -44.684801 
L 331.290549 -44.684801 
L 331.855983 -44.684801 
L 332.421417 -44.684801 
L 332.986851 -44.684801 
L 333.552285 -44.684801 
L 334.117719 -44.684801 
L 334.683153 -44.684801 
L 335.248588 -44.684801 
L 335.814022 -44.684801 
L 336.379456 -44.684801 
L 336.94489 -44.684801 
L 337.510324 -44.684801 
L 338.075758 -44.684801 
L 338.641192 -44.684801 
L 339.206626 -44.684801 
L 339.77206 -44.684801 
L 340.337494 -44.684801 
L 340.902928 -44.684801 
L 341.468362 -44.684801 
L 342.033796 -44.684801 
L 342.59923 -44.684801 
L 343.164664 -44.684801 
L 343.730099 -44.684801 
L 344.295533 -44.684801 
L 344.860967 -44.684801 
L 345.426401 -44.684801 
L 345.991835 -44.684801 
L 346.557269 -44.684801 
L 347.122703 -44.684801 
L 347.688137 -44.684801 
L 348.253571 -44.684801 
L 348.819005 -44.684801 
L 349.384439 -44.684801 
L 349.949873 -44.684801 
L 350.515307 -44.684801 
L 351.080741 -44.684801 
L 351.646175 -44.684801 
L 352.211609 -44.684801 
L 352.777044 -44.684801 
L 353.342478 -44.684801 
L 353.907912 -44.684801 
L 354.473346 -44.684801 
L 355.03878 -44.684801 
L 355.604214 -44.684801 
L 356.169648 -44.684801 
L 356.735082 -44.684801 
L 357.300516 -44.684801 
L 357.86595 -44.684801 
L 358.431384 -44.684801 
L 358.996818 -44.684801 
L 359.562252 -44.684801 
L 360.127686 -44.684801 
L 360.69312 -44.684801 
L 361.258555 -44.684801 
L 361.823989 -44.684801 
L 362.389423 -44.684801 
L 362.954857 -44.684801 
L 363.520291 -44.684801 
L 364.085725 -44.684801 
L 364.651159 -44.684801 
L 365.216593 -44.684801 
L 365.782027 -44.684801 
L 366.347461 -44.684801 
L 366.912895 -44.684801 
L 367.478329 -44.684801 
L 368.043763 -44.684801 
L 368.609197 -44.684801 
L 369.174631 -44.684801 
L 369.740066 -44.684801 
L 370.3055 -44.684801 
L 370.870934 -44.684801 
L 371.436368 -44.684801 
L 372.001802 -44.684801 
L 372.567236 -44.684801 
L 373.13267 -44.684801 
L 373.698104 -44.684801 
L 374.263538 -44.684801 
L 374.828972 -44.684801 
L 375.394406 -44.684801 
L 375.95984 -44.684801 
L 376.525274 -44.684801 
L 377.090708 -44.684801 
L 377.656142 -44.684801 
L 378.221576 -44.684801 
L 378.787011 -44.684801 
L 379.352445 -44.684801 
L 379.917879 -44.684801 
L 380.483313 -44.684801 
L 381.048747 -44.684801 
L 381.614181 -44.684801 
L 382.179615 -44.684801 
L 382.745049 -44.684801 
L 383.310483 -44.684801 
L 383.875917 -44.684801 
L 384.441351 -44.684801 
L 385.006785 -44.684801 
L 385.572219 -44.684801 
L 386.137653 -44.684801 
L 386.703087 -44.684801 
L 387.268522 -44.684801 
L 387.833956 -44.684801 
L 388.39939 -44.684801 
L 388.964824 -44.684801 
L 389.530258 -44.684801 
L 390.095692 -44.684801 
L 390.661126 -44.684801 
L 391.22656 -44.684801 
L 391.791994 -44.684801 
L 392.357428 -44.684801 
L 392.922862 -44.684801 
L 393.488296 -44.684801 
L 394.05373 -44.684801 
L 394.619164 -44.684801 
L 395.184598 -44.684801 
L 395.750033 -44.684801 
L 396.315467 -44.684801 
L 396.880901 -44.684801 
L 397.446335 -44.684801 
L 398.011769 -44.684801 
L 398.577203 -44.684801 
L 399.142637 -44.684801 
L 399.708071 -44.684801 
L 400.273505 -44.684801 
L 400.838939 -44.684801 
L 401.404373 -44.684801 
L 401.969807 -44.684801 
L 402.535241 -44.684801 
L 403.100675 -44.684801 
L 403.666109 -44.684801 
L 404.231543 -44.684801 
L 404.796978 -44.684801 
L 405.362412 -44.684801 
L 405.927846 -44.684801 
L 406.49328 -44.684801 
L 407.058714 -44.684801 
L 407.624148 -44.684801 
L 408.189582 -44.684801 
L 408.755016 -44.684801 
L 409.32045 -44.684801 
L 409.885884 -44.684801 
L 410.451318 -44.684801 
L 411.016752 -44.684801 
L 411.582186 -44.684801 
L 412.14762 -44.684801 
L 412.713054 -44.684801 
L 413.278489 -44.684801 
L 413.843923 -44.684801 
L 414.409357 -44.684801 
L 414.974791 -44.684801 
L 415.540225 -44.684801 
L 416.105659 -44.684801 
L 416.671093 -44.684801 
L 417.236527 -44.684801 
L 417.801961 -44.684801 
L 418.367395 -44.684801 
L 418.932829 -44.684801 
L 419.498263 -44.684801 
L 420.063697 -44.684801 
L 420.629131 -44.684801 
L 421.194565 -44.684801 
L 421.76 -44.684801 
L 422.325434 -44.684801 
L 422.890868 -44.684801 
L 423.456302 -44.684801 
L 424.021736 -44.684801 
L 424.58717 -44.684801 
L 425.152604 -44.684801 
L 425.718038 -44.684801 
L 426.283472 -44.684801 
L 426.848906 -44.684801 
L 427.41434 -44.684801 
L 427.979774 -44.684801 
L 428.545208 -44.684801 
L 429.110642 -44.684801 
L 429.676076 -44.684801 
L 430.24151 -44.684801 
L 430.806945 -44.684801 
L 431.372379 -44.684801 
L 431.372379 -206.612074 
L 431.372379 -206.612074 
L 430.806945 -206.612074 
L 430.24151 -206.612074 
L 429.676076 -206.612074 
L 429.110642 -206.612074 
L 428.545208 -206.612074 
L 427.979774 -206.612074 
L 427.41434 -206.612074 
L 426.848906 -206.612074 
L 426.283472 -206.612074 
L 425.718038 -206.612074 
L 425.152604 -206.612074 
L 424.58717 -206.612074 
L 424.021736 -206.612074 
L 423.456302 -206.612074 
L 422.890868 -206.612074 
L 422.325434 -206.612074 
L 421.76 -206.612074 
L 421.194565 -206.612074 
L 420.629131 -206.612074 
L 420.063697 -206.612074 
L 419.498263 -206.612074 
L 418.932829 -206.612074 
L 418.367395 -206.612074 
L 417.801961 -206.612074 
L 417.236527 -206.612074 
L 416.671093 -206.612074 
L 416.105659 -206.612074 
L 415.540225 -206.612074 
L 414.974791 -206.612074 
L 414.409357 -206.612074 
L 413.843923 -206.612074 
L 413.278489 -206.612074 
L 412.713054 -206.612074 
L 412.14762 -206.612074 
L 411.582186 -206.612074 
L 411.016752 -206.612074 
L 410.451318 -206.612074 
L 409.885884 -206.612074 
L 409.32045 -206.612074 
L 408.755016 -206.612074 
L 408.189582 -206.612074 
L 407.624148 -206.612074 
L 407.058714 -206.612074 
L 406.49328 -206.612074 
L 405.927846 -206.612074 
L 405.362412 -206.612074 
L 404.796978 -206.612074 
L 404.231543 -206.612074 
L 403.666109 -206.612074 
L 403.100675 -206.612074 
L 402.535241 -206.612074 
L 401.969807 -206.612074 
L 401.404373 -206.612074 
L 400.838939 -206.612074 
L 400.273505 -206.612074 
L 399.708071 -206.612074 
L 399.142637 -206.612074 
L 398.577203 -206.612074 
L 398.011769 -206.612074 
L 397.446335 -206.612074 
L 396.880901 -206.612074 
L 396.315467 -206.612074 
L 395.750033 -206.612074 
L 395.184598 -206.612074 
L 394.619164 -206.612074 
L 394.05373 -206.612074 
L 393.488296 -206.612074 
L 392.922862 -206.612074 
L 392.357428 -206.612074 
L 391.791994 -206.612074 
L 391.22656 -206.612074 
L 390.661126 -206.612074 
L 390.095692 -206.612074 
L 389.530258 -206.612074 
L 388.964824 -206.612074 
L 388.39939 -206.612074 
L 387.833956 -206.612074 
L 387.268522 -206.612074 
L 386.703087 -206.612074 
L 386.137653 -206.612074 
L 385.572219 -206.612074 
L 385.006785 -206.612074 
L 384.441351 -206.612074 
L 383.875917 -206.612074 
L 383.310483 -206.612074 
L 382.745049 -206.612074 
L 382.179615 -206.612074 
L 381.614181 -206.612074 
L 381.048747 -206.612074 
L 380.483313 -206.612074 
L 379.917879 -206.612074 
L 379.352445 -206.612074 
L 378.787011 -206.612074 
L 378.221576 -206.612074 
L 377.656142 -206.612074 
L 377.090708 -206.612074 
L 376.525274 -206.612074 
L 375.95984 -206.612074 
L 375.394406 -206.612074 
L 374.828972 -206.612074 
L 374.263538 -206.612074 
L 373.698104 -206.612074 
L 373.13267 -206.612074 
L 372.567236 -206.612074 
L 372.001802 -206.612074 
L 371.436368 -206.612074 
L 370.870934 -206.612074 
L 370.3055 -206.612074 
L 369.740066 -206.612074 
L 369.174631 -206.612074 
L 368.609197 -206.612074 
L 368.043763 -206.612074 
L 367.478329 -206.612074 
L 366.912895 -206.612074 
L 366.347461 -206.612074 
L 365.782027 -206.612074 
L 365.216593 -206.612074 
L 364.651159 -206.612074 
L 364.085725 -206.612074 
L 363.520291 -206.612074 
L 362.954857 -206.612074 
L 362.389423 -206.612074 
L 361.823989 -206.612074 
L 361.258555 -206.612074 
L 360.69312 -206.612074 
L 360.127686 -206.612074 
L 359.562252 -206.612074 
L 358.996818 -206.612074 
L 358.431384 -206.612074 
L 357.86595 -206.612074 
L 357.300516 -206.612074 
L 356.735082 -206.612074 
L 356.169648 -206.612074 
L 355.604214 -206.612074 
L 355.03878 -206.612074 
L 354.473346 -206.612074 
L 353.907912 -206.612074 
L 353.342478 -206.612074 
L 352.777044 -206.612074 
L 352.211609 -206.612074 
L 351.646175 -206.612074 
L 351.080741 -206.612074 
L 350.515307 -206.612074 
L 349.949873 -206.612074 
L 349.384439 -206.612074 
L 348.819005 -206.612074 
L 348.253571 -206.612074 
L 347.688137 -206.612074 
L 347.122703 -206.612074 
L 346.557269 -206.612074 
L 345.991835 -206.612074 
L 345.426401 -206.612074 
L 344.860967 -206.612074 
L 344.295533 -206.612074 
L 343.730099 -206.612074 
L 343.164664 -206.612074 
L 342.59923 -206.612074 
L 342.033796 -206.612074 
L 341.468362 -206.612074 
L 340.902928 -206.612074 
L 340.337494 -206.612074 
L 339.77206 -206.612074 
L 339.206626 -206.612074 
L 338.641192 -206.612074 
L 338.075758 -206.612074 
L 337.510324 -206.612074 
L 336.94489 -206.612074 
L 336.379456 -206.612074 
L 335.814022 -206.612074 
L 335.248588 -206.612074 
L 334.683153 -206.612074 
L 334.117719 -206.612074 
L 333.552285 -206.612074 
L 332.986851 -206.612074 
L 332.421417 -206.612074 
L 331.855983 -206.612074 
L 331.290549 -206.612074 
L 330.725115 -206.612074 
L 330.159681 -206.612074 
L 329.594247 -206.612074 
L 329.028813 -206.612074 
L 328.463379 -206.612074 
L 327.897945 -206.612074 
L 327.332511 -206.612074 
L 326.767077 -206.612074 
L 326.201642 -206.612074 
L 325.636208 -206.612074 
z
" style="stroke: #fee08b; stroke-opacity: 0.22"/>
    </defs>
    <g clip-path="url(#pe44c1a7822)">
     <use xlink:href="#m11bf86ea08" x="0" y="236.266719" style="fill: #fee08b; fill-opacity: 0.22; stroke: #fee08b; stroke-opacity: 0.22"/>
    </g>
   </g>
   <g id="PolyCollection_2">
    <defs>
     <path id="m49957041aa" d="M 431.937813 -206.612074 
L 431.937813 -44.684801 
L 432.503247 -44.684801 
L 433.068681 -44.684801 
L 433.634115 -44.684801 
L 434.199549 -44.684801 
L 434.764983 -44.684801 
L 435.330417 -44.684801 
L 435.895851 -44.684801 
L 436.461285 -44.684801 
L 437.026719 -44.684801 
L 437.592153 -44.684801 
L 438.157587 -44.684801 
L 438.723021 -44.684801 
L 439.288456 -44.684801 
L 439.85389 -44.684801 
L 440.419324 -44.684801 
L 440.984758 -44.684801 
L 441.550192 -44.684801 
L 442.115626 -44.684801 
L 442.68106 -44.684801 
L 443.246494 -44.684801 
L 443.811928 -44.684801 
L 444.377362 -44.684801 
L 444.942796 -44.684801 
L 445.50823 -44.684801 
L 446.073664 -44.684801 
L 446.639098 -44.684801 
L 447.204532 -44.684801 
L 447.769967 -44.684801 
L 448.335401 -44.684801 
L 448.900835 -44.684801 
L 449.466269 -44.684801 
L 450.031703 -44.684801 
L 450.597137 -44.684801 
L 451.162571 -44.684801 
L 451.728005 -44.684801 
L 452.293439 -44.684801 
L 452.858873 -44.684801 
L 453.424307 -44.684801 
L 453.989741 -44.684801 
L 454.555175 -44.684801 
L 455.120609 -44.684801 
L 455.686043 -44.684801 
L 456.251478 -44.684801 
L 456.816912 -44.684801 
L 457.382346 -44.684801 
L 457.94778 -44.684801 
L 458.513214 -44.684801 
L 459.078648 -44.684801 
L 459.644082 -44.684801 
L 460.209516 -44.684801 
L 460.77495 -44.684801 
L 461.340384 -44.684801 
L 461.905818 -44.684801 
L 462.471252 -44.684801 
L 463.036686 -44.684801 
L 463.60212 -44.684801 
L 464.167554 -44.684801 
L 464.732988 -44.684801 
L 465.298423 -44.684801 
L 465.863857 -44.684801 
L 466.429291 -44.684801 
L 466.994725 -44.684801 
L 467.560159 -44.684801 
L 468.125593 -44.684801 
L 468.691027 -44.684801 
L 469.256461 -44.684801 
L 469.821895 -44.684801 
L 470.387329 -44.684801 
L 470.952763 -44.684801 
L 471.518197 -44.684801 
L 472.083631 -44.684801 
L 472.649065 -44.684801 
L 473.214499 -44.684801 
L 473.779934 -44.684801 
L 474.345368 -44.684801 
L 474.910802 -44.684801 
L 475.476236 -44.684801 
L 476.04167 -44.684801 
L 476.607104 -44.684801 
L 477.172538 -44.684801 
L 477.737972 -44.684801 
L 478.303406 -44.684801 
L 478.86884 -44.684801 
L 479.434274 -44.684801 
L 479.999708 -44.684801 
L 480.565142 -44.684801 
L 481.130576 -44.684801 
L 481.69601 -44.684801 
L 482.261445 -44.684801 
L 482.826879 -44.684801 
L 483.392313 -44.684801 
L 483.957747 -44.684801 
L 484.523181 -44.684801 
L 485.088615 -44.684801 
L 485.654049 -44.684801 
L 486.219483 -44.684801 
L 486.784917 -44.684801 
L 487.350351 -44.684801 
L 487.915785 -44.684801 
L 488.481219 -44.684801 
L 489.046653 -44.684801 
L 489.612087 -44.684801 
L 490.177521 -44.684801 
L 490.742955 -44.684801 
L 491.30839 -44.684801 
L 491.873824 -44.684801 
L 492.439258 -44.684801 
L 493.004692 -44.684801 
L 493.570126 -44.684801 
L 494.13556 -44.684801 
L 494.700994 -44.684801 
L 495.266428 -44.684801 
L 495.831862 -44.684801 
L 496.397296 -44.684801 
L 496.96273 -44.684801 
L 497.528164 -44.684801 
L 498.093598 -44.684801 
L 498.659032 -44.684801 
L 499.224466 -44.684801 
L 499.789901 -44.684801 
L 500.355335 -44.684801 
L 500.920769 -44.684801 
L 501.486203 -44.684801 
L 502.051637 -44.684801 
L 502.617071 -44.684801 
L 503.182505 -44.684801 
L 503.747939 -44.684801 
L 504.313373 -44.684801 
L 504.878807 -44.684801 
L 505.444241 -44.684801 
L 506.009675 -44.684801 
L 506.575109 -44.684801 
L 507.140543 -44.684801 
L 507.705977 -44.684801 
L 508.271412 -44.684801 
L 508.836846 -44.684801 
L 509.40228 -44.684801 
L 509.967714 -44.684801 
L 510.533148 -44.684801 
L 511.098582 -44.684801 
L 511.664016 -44.684801 
L 512.22945 -44.684801 
L 512.794884 -44.684801 
L 513.360318 -44.684801 
L 513.925752 -44.684801 
L 514.491186 -44.684801 
L 515.05662 -44.684801 
L 515.622054 -44.684801 
L 516.187488 -44.684801 
L 516.752922 -44.684801 
L 517.318357 -44.684801 
L 517.883791 -44.684801 
L 518.449225 -44.684801 
L 519.014659 -44.684801 
L 519.580093 -44.684801 
L 520.145527 -44.684801 
L 520.710961 -44.684801 
L 521.276395 -44.684801 
L 521.841829 -44.684801 
L 522.407263 -44.684801 
L 522.972697 -44.684801 
L 523.538131 -44.684801 
L 524.103565 -44.684801 
L 524.103565 -206.612074 
L 524.103565 -206.612074 
L 523.538131 -206.612074 
L 522.972697 -206.612074 
L 522.407263 -206.612074 
L 521.841829 -206.612074 
L 521.276395 -206.612074 
L 520.710961 -206.612074 
L 520.145527 -206.612074 
L 519.580093 -206.612074 
L 519.014659 -206.612074 
L 518.449225 -206.612074 
L 517.883791 -206.612074 
L 517.318357 -206.612074 
L 516.752922 -206.612074 
L 516.187488 -206.612074 
L 515.622054 -206.612074 
L 515.05662 -206.612074 
L 514.491186 -206.612074 
L 513.925752 -206.612074 
L 513.360318 -206.612074 
L 512.794884 -206.612074 
L 512.22945 -206.612074 
L 511.664016 -206.612074 
L 511.098582 -206.612074 
L 510.533148 -206.612074 
L 509.967714 -206.612074 
L 509.40228 -206.612074 
L 508.836846 -206.612074 
L 508.271412 -206.612074 
L 507.705977 -206.612074 
L 507.140543 -206.612074 
L 506.575109 -206.612074 
L 506.009675 -206.612074 
L 505.444241 -206.612074 
L 504.878807 -206.612074 
L 504.313373 -206.612074 
L 503.747939 -206.612074 
L 503.182505 -206.612074 
L 502.617071 -206.612074 
L 502.051637 -206.612074 
L 501.486203 -206.612074 
L 500.920769 -206.612074 
L 500.355335 -206.612074 
L 499.789901 -206.612074 
L 499.224466 -206.612074 
L 498.659032 -206.612074 
L 498.093598 -206.612074 
L 497.528164 -206.612074 
L 496.96273 -206.612074 
L 496.397296 -206.612074 
L 495.831862 -206.612074 
L 495.266428 -206.612074 
L 494.700994 -206.612074 
L 494.13556 -206.612074 
L 493.570126 -206.612074 
L 493.004692 -206.612074 
L 492.439258 -206.612074 
L 491.873824 -206.612074 
L 491.30839 -206.612074 
L 490.742955 -206.612074 
L 490.177521 -206.612074 
L 489.612087 -206.612074 
L 489.046653 -206.612074 
L 488.481219 -206.612074 
L 487.915785 -206.612074 
L 487.350351 -206.612074 
L 486.784917 -206.612074 
L 486.219483 -206.612074 
L 485.654049 -206.612074 
L 485.088615 -206.612074 
L 484.523181 -206.612074 
L 483.957747 -206.612074 
L 483.392313 -206.612074 
L 482.826879 -206.612074 
L 482.261445 -206.612074 
L 481.69601 -206.612074 
L 481.130576 -206.612074 
L 480.565142 -206.612074 
L 479.999708 -206.612074 
L 479.434274 -206.612074 
L 478.86884 -206.612074 
L 478.303406 -206.612074 
L 477.737972 -206.612074 
L 477.172538 -206.612074 
L 476.607104 -206.612074 
L 476.04167 -206.612074 
L 475.476236 -206.612074 
L 474.910802 -206.612074 
L 474.345368 -206.612074 
L 473.779934 -206.612074 
L 473.214499 -206.612074 
L 472.649065 -206.612074 
L 472.083631 -206.612074 
L 471.518197 -206.612074 
L 470.952763 -206.612074 
L 470.387329 -206.612074 
L 469.821895 -206.612074 
L 469.256461 -206.612074 
L 468.691027 -206.612074 
L 468.125593 -206.612074 
L 467.560159 -206.612074 
L 466.994725 -206.612074 
L 466.429291 -206.612074 
L 465.863857 -206.612074 
L 465.298423 -206.612074 
L 464.732988 -206.612074 
L 464.167554 -206.612074 
L 463.60212 -206.612074 
L 463.036686 -206.612074 
L 462.471252 -206.612074 
L 461.905818 -206.612074 
L 461.340384 -206.612074 
L 460.77495 -206.612074 
L 460.209516 -206.612074 
L 459.644082 -206.612074 
L 459.078648 -206.612074 
L 458.513214 -206.612074 
L 457.94778 -206.612074 
L 457.382346 -206.612074 
L 456.816912 -206.612074 
L 456.251478 -206.612074 
L 455.686043 -206.612074 
L 455.120609 -206.612074 
L 454.555175 -206.612074 
L 453.989741 -206.612074 
L 453.424307 -206.612074 
L 452.858873 -206.612074 
L 452.293439 -206.612074 
L 451.728005 -206.612074 
L 451.162571 -206.612074 
L 450.597137 -206.612074 
L 450.031703 -206.612074 
L 449.466269 -206.612074 
L 448.900835 -206.612074 
L 448.335401 -206.612074 
L 447.769967 -206.612074 
L 447.204532 -206.612074 
L 446.639098 -206.612074 
L 446.073664 -206.612074 
L 445.50823 -206.612074 
L 444.942796 -206.612074 
L 444.377362 -206.612074 
L 443.811928 -206.612074 
L 443.246494 -206.612074 
L 442.68106 -206.612074 
L 442.115626 -206.612074 
L 441.550192 -206.612074 
L 440.984758 -206.612074 
L 440.419324 -206.612074 
L 439.85389 -206.612074 
L 439.288456 -206.612074 
L 438.723021 -206.612074 
L 438.157587 -206.612074 
L 437.592153 -206.612074 
L 437.026719 -206.612074 
L 436.461285 -206.612074 
L 435.895851 -206.612074 
L 435.330417 -206.612074 
L 434.764983 -206.612074 
L 434.199549 -206.612074 
L 433.634115 -206.612074 
L 433.068681 -206.612074 
L 432.503247 -206.612074 
L 431.937813 -206.612074 
z
" style="stroke: #fdae61; stroke-opacity: 0.22"/>
    </defs>
    <g clip-path="url(#pe44c1a7822)">
     <use xlink:href="#m49957041aa" x="0" y="236.266719" style="fill: #fdae61; fill-opacity: 0.22; stroke: #fdae61; stroke-opacity: 0.22"/>
    </g>
   </g>
   <g id="matplotlib.axis_1">
    <g id="xtick_1">
     <g id="line2d_1">
      <defs>
       <path id="md0a05e3c01" d="M 0 0 
L 0 3.5 
" style="stroke: #000000; stroke-width: 0.8"/>
      </defs>
      <g>
       <use xlink:href="#md0a05e3c01" x="72.321747" y="199.678281" style="stroke: #000000; stroke-width: 0.8"/>
      </g>
     </g>
     <g id="text_1">
      <text style="font: 9px 'DejaVu Sans', 'Bitstream Vera Sans', 'Computer Modern Sans Serif', 'Lucida Grande', 'Verdana', 'Geneva', 'Lucid', 'Arial', 'Helvetica', 'Avant Garde', sans-serif; text-anchor: middle" x="72.321747" y="213.516875" transform="rotate(-0 72.321747 213.516875)">0</text>
     </g>
    </g>
    <g id="xtick_2">
     <g id="line2d_2">
      <g>
       <use xlink:href="#md0a05e3c01" x="128.865154" y="199.678281" style="stroke: #000000; stroke-width: 0.8"/>
      </g>
     </g>
     <g id="text_2">
      <text style="font: 9px 'DejaVu Sans', 'Bitstream Vera Sans', 'Computer Modern Sans Serif', 'Lucida Grande', 'Verdana', 'Geneva', 'Lucid', 'Arial', 'Helvetica', 'Avant Garde', sans-serif; text-anchor: middle" x="128.865154" y="213.516875" transform="rotate(-0 128.865154 213.516875)">100</text>
     </g>
    </g>
    <g id="xtick_3">
     <g id="line2d_3">
      <g>
       <use xlink:href="#md0a05e3c01" x="185.40856" y="199.678281" style="stroke: #000000; stroke-width: 0.8"/>
      </g>
     </g>
     <g id="text_3">
      <text style="font: 9px 'DejaVu Sans', 'Bitstream Vera Sans', 'Computer Modern Sans Serif', 'Lucida Grande', 'Verdana', 'Geneva', 'Lucid', 'Arial', 'Helvetica', 'Avant Garde', sans-serif; text-anchor: middle" x="185.40856" y="213.516875" transform="rotate(-0 185.40856 213.516875)">200</text>
     </g>
    </g>
    <g id="xtick_4">
     <g id="line2d_4">
      <g>
       <use xlink:href="#md0a05e3c01" x="241.951967" y="199.678281" style="stroke: #000000; stroke-width: 0.8"/>
      </g>
     </g>
     <g id="text_4">
      <text style="font: 9px 'DejaVu Sans', 'Bitstream Vera Sans', 'Computer Modern Sans Serif', 'Lucida Grande', 'Verdana', 'Geneva', 'Lucid', 'Arial', 'Helvetica', 'Avant Garde', sans-serif; text-anchor: middle" x="241.951967" y="213.516875" transform="rotate(-0 241.951967 213.516875)">300</text>
     </g>
    </g>
    <g id="xtick_5">
     <g id="line2d_5">
      <g>
       <use xlink:href="#md0a05e3c01" x="298.495373" y="199.678281" style="stroke: #000000; stroke-width: 0.8"/>
      </g>
     </g>
     <g id="text_5">
      <text style="font: 9px 'DejaVu Sans', 'Bitstream Vera Sans', 'Computer Modern Sans Serif', 'Lucida Grande', 'Verdana', 'Geneva', 'Lucid', 'Arial', 'Helvetica', 'Avant Garde', sans-serif; text-anchor: middle" x="298.495373" y="213.516875" transform="rotate(-0 298.495373 213.516875)">400</text>
     </g>
    </g>
    <g id="xtick_6">
     <g id="line2d_6">
      <g>
       <use xlink:href="#md0a05e3c01" x="355.03878" y="199.678281" style="stroke: #000000; stroke-width: 0.8"/>
      </g>
     </g>
     <g id="text_6">
      <text style="font: 9px 'DejaVu Sans', 'Bitstream Vera Sans', 'Computer Modern Sans Serif', 'Lucida Grande', 'Verdana', 'Geneva', 'Lucid', 'Arial', 'Helvetica', 'Avant Garde', sans-serif; text-anchor: middle" x="355.03878" y="213.516875" transform="rotate(-0 355.03878 213.516875)">500</text>
     </g>
    </g>
    <g id="xtick_7">
     <g id="line2d_7">
      <g>
       <use xlink:href="#md0a05e3c01" x="411.582186" y="199.678281" style="stroke: #000000; stroke-width: 0.8"/>
      </g>
     </g>
     <g id="text_7">
      <text style="font: 9px 'DejaVu Sans', 'Bitstream Vera Sans', 'Computer Modern Sans Serif', 'Lucida Grande', 'Verdana', 'Geneva', 'Lucid', 'Arial', 'Helvetica', 'Avant Garde', sans-serif; text-anchor: middle" x="411.582186" y="213.516875" transform="rotate(-0 411.582186 213.516875)">600</text>
     </g>
    </g>
    <g id="xtick_8">
     <g id="line2d_8">
      <g>
       <use xlink:href="#md0a05e3c01" x="468.125593" y="199.678281" style="stroke: #000000; stroke-width: 0.8"/>
      </g>
     </g>
     <g id="text_8">
      <text style="font: 9px 'DejaVu Sans', 'Bitstream Vera Sans', 'Computer Modern Sans Serif', 'Lucida Grande', 'Verdana', 'Geneva', 'Lucid', 'Arial', 'Helvetica', 'Avant Garde', sans-serif; text-anchor: middle" x="468.125593" y="213.516875" transform="rotate(-0 468.125593 213.516875)">700</text>
     </g>
    </g>
    <g id="xtick_9">
     <g id="line2d_9">
      <g>
       <use xlink:href="#md0a05e3c01" x="524.668999" y="199.678281" style="stroke: #000000; stroke-width: 0.8"/>
      </g>
     </g>
     <g id="text_9">
      <text style="font: 9px 'DejaVu Sans', 'Bitstream Vera Sans', 'Computer Modern Sans Serif', 'Lucida Grande', 'Verdana', 'Geneva', 'Lucid', 'Arial', 'Helvetica', 'Avant Garde', sans-serif; text-anchor: middle" x="524.668999" y="213.516875" transform="rotate(-0 524.668999 213.516875)">800</text>
     </g>
    </g>
    <g id="text_10">
     <text style="font: 10px 'DejaVu Sans', 'Bitstream Vera Sans', 'Computer Modern Sans Serif', 'Lucida Grande', 'Verdana', 'Geneva', 'Lucid', 'Arial', 'Helvetica', 'Avant Garde', sans-serif; text-anchor: middle" x="298.212656" y="226.987031" transform="rotate(-0 298.212656 226.987031)">Synthetic time step</text>
    </g>
   </g>
   <g id="matplotlib.axis_2">
    <g id="ytick_1">
     <g id="line2d_10">
      <path d="M 49.732656 172.656082 
L 546.692656 172.656082 
" clip-path="url(#pe44c1a7822)" style="fill: none; stroke: #b0b0b0; stroke-opacity: 0.18; stroke-width: 0.8; stroke-linecap: square"/>
     </g>
     <g id="line2d_11">
      <defs>
       <path id="m0b081b233f" d="M 0 0 
L -3.5 0 
" style="stroke: #000000; stroke-width: 0.8"/>
      </defs>
      <g>
       <use xlink:href="#m0b081b233f" x="49.732656" y="172.656082" style="stroke: #000000; stroke-width: 0.8"/>
      </g>
     </g>
     <g id="text_11">
      <text style="font: 9px 'DejaVu Sans', 'Bitstream Vera Sans', 'Computer Modern Sans Serif', 'Lucida Grande', 'Verdana', 'Geneva', 'Lucid', 'Arial', 'Helvetica', 'Avant Garde', sans-serif; text-anchor: end" x="42.732656" y="176.075379" transform="rotate(-0 42.732656 176.075379)">−0.5</text>
     </g>
    </g>
    <g id="ytick_2">
     <g id="line2d_12">
      <path d="M 49.732656 133.469141 
L 546.692656 133.469141 
" clip-path="url(#pe44c1a7822)" style="fill: none; stroke: #b0b0b0; stroke-opacity: 0.18; stroke-width: 0.8; stroke-linecap: square"/>
     </g>
     <g id="line2d_13">
      <g>
       <use xlink:href="#m0b081b233f" x="49.732656" y="133.469141" style="stroke: #000000; stroke-width: 0.8"/>
      </g>
     </g>
     <g id="text_12">
      <text style="font: 9px 'DejaVu Sans', 'Bitstream Vera Sans', 'Computer Modern Sans Serif', 'Lucida Grande', 'Verdana', 'Geneva', 'Lucid', 'Arial', 'Helvetica', 'Avant Garde', sans-serif; text-anchor: end" x="42.732656" y="136.888437" transform="rotate(-0 42.732656 136.888437)">0.0</text>
     </g>
    </g>
    <g id="ytick_3">
     <g id="line2d_14">
      <path d="M 49.732656 94.282199 
L 546.692656 94.282199 
" clip-path="url(#pe44c1a7822)" style="fill: none; stroke: #b0b0b0; stroke-opacity: 0.18; stroke-width: 0.8; stroke-linecap: square"/>
     </g>
     <g id="line2d_15">
      <g>
       <use xlink:href="#m0b081b233f" x="49.732656" y="94.282199" style="stroke: #000000; stroke-width: 0.8"/>
      </g>
     </g>
     <g id="text_13">
      <text style="font: 9px 'DejaVu Sans', 'Bitstream Vera Sans', 'Computer Modern Sans Serif', 'Lucida Grande', 'Verdana', 'Geneva', 'Lucid', 'Arial', 'Helvetica', 'Avant Garde', sans-serif; text-anchor: end" x="42.732656" y="97.701496" transform="rotate(-0 42.732656 97.701496)">0.5</text>
     </g>
    </g>
    <g id="ytick_4">
     <g id="line2d_16">
      <path d="M 49.732656 55.095257 
L 546.692656 55.095257 
" clip-path="url(#pe44c1a7822)" style="fill: none; stroke: #b0b0b0; stroke-opacity: 0.18; stroke-width: 0.8; stroke-linecap: square"/>
     </g>
     <g id="line2d_17">
      <g>
       <use xlink:href="#m0b081b233f" x="49.732656" y="55.095257" style="stroke: #000000; stroke-width: 0.8"/>
      </g>
     </g>
     <g id="text_14">
      <text style="font: 9px 'DejaVu Sans', 'Bitstream Vera Sans', 'Computer Modern Sans Serif', 'Lucida Grande', 'Verdana', 'Geneva', 'Lucid', 'Arial', 'Helvetica', 'Avant Garde', sans-serif; text-anchor: end" x="42.732656" y="58.514554" transform="rotate(-0 42.732656 58.514554)">1.0</text>
     </g>
    </g>
    <g id="text_15">
     <text style="font: 10px 'DejaVu Sans', 'Bitstream Vera Sans', 'Computer Modern Sans Serif', 'Lucida Grande', 'Verdana', 'Geneva', 'Lucid', 'Arial', 'Helvetica', 'Avant Garde', sans-serif; text-anchor: middle" x="14.798438" y="110.618281" transform="rotate(-90 14.798438 110.618281)">Signal</text>
    </g>
   </g>
   <g id="line2d_18">
    <path d="M 72.321747 133.469141 
L 72.887181 135.079051 
L 73.452615 133.961779 
L 74.018049 130.795176 
L 74.583483 120.775544 
L 75.148917 125.139213 
L 75.714352 124.611335 
L 76.279786 128.260151 
L 76.84522 131.142858 
L 77.410654 129.166164 
L 77.976088 130.363653 
L 78.541522 134.590087 
L 79.106956 132.137295 
L 79.67239 138.006417 
L 80.237824 132.815226 
L 80.803258 132.980622 
L 81.368692 135.035802 
L 81.934126 143.362646 
L 82.49956 139.241206 
L 83.064994 133.527836 
L 83.630428 132.376779 
L 84.195863 136.399413 
L 84.761297 136.963649 
L 85.326731 141.766136 
L 85.892165 142.929094 
L 86.457599 138.288477 
L 87.023033 137.671937 
L 87.588467 142.50939 
L 88.153901 142.383109 
L 88.719335 146.517568 
L 89.284769 143.942652 
L 89.850203 144.613242 
L 90.415637 142.083162 
L 90.981071 137.007841 
L 91.546505 127.314196 
L 92.111939 136.409865 
L 92.677374 132.264068 
L 93.242808 138.249795 
L 93.808242 134.574035 
L 94.373676 142.417755 
L 94.93911 136.563145 
L 95.504544 136.43927 
L 96.069978 144.887736 
L 96.635412 142.270642 
L 97.200846 141.143797 
L 97.76628 144.857629 
L 98.331714 142.169033 
L 98.897148 142.172945 
L 99.462582 132.740192 
L 100.028016 147.28736 
L 100.59345 146.578962 
L 101.158884 146.255332 
L 101.724319 147.887158 
L 102.289753 142.829466 
L 102.855187 149.475126 
L 103.420621 149.189292 
L 103.986055 136.564092 
L 104.551489 149.365931 
L 105.682357 141.063427 
L 106.247791 134.851657 
L 107.378659 131.170357 
L 107.944093 136.373475 
L 108.509527 139.089726 
L 109.074961 143.653055 
L 109.640395 142.173922 
L 110.20583 134.402884 
L 110.771264 133.054369 
L 111.336698 132.188661 
L 111.902132 126.335735 
L 112.467566 117.977133 
L 113.033 120.136722 
L 113.598434 119.501484 
L 114.163868 130.25855 
L 114.729302 135.661755 
L 115.294736 137.66636 
L 116.425604 125.732339 
L 116.991038 126.406159 
L 117.556472 127.330377 
L 118.121906 127.047227 
L 118.687341 116.835159 
L 119.252775 118.882558 
L 119.818209 131.115248 
L 120.383643 131.796056 
L 120.949077 131.931085 
L 121.514511 141.895782 
L 122.079945 134.462078 
L 122.645379 130.508942 
L 123.210813 135.238567 
L 123.776247 135.345964 
L 124.341681 128.571544 
L 124.907115 126.627752 
L 125.472549 126.47123 
L 126.037983 144.467741 
L 126.603417 136.825044 
L 127.168851 133.606248 
L 128.29972 150.255713 
L 128.865154 149.832868 
L 129.430588 162.723605 
L 130.561456 143.878304 
L 131.12689 150.242998 
L 131.692324 141.197188 
L 132.257758 143.163843 
L 132.823192 148.119236 
L 133.388626 142.855202 
L 133.95406 125.879544 
L 134.519494 128.358421 
L 135.084928 128.914865 
L 135.650362 133.158007 
L 136.215797 138.924878 
L 137.346665 136.779801 
L 137.912099 154.455351 
L 139.042967 141.394876 
L 139.608401 138.53683 
L 140.173835 134.547062 
L 140.739269 133.95901 
L 141.304703 134.808285 
L 141.870137 142.162419 
L 142.435571 141.68306 
L 143.001005 137.494114 
L 143.566439 140.36992 
L 144.131873 140.785231 
L 144.697308 140.236454 
L 145.262742 137.856028 
L 145.828176 120.490519 
L 146.39361 131.415239 
L 146.959044 126.803309 
L 147.524478 132.495313 
L 148.089912 135.396001 
L 148.655346 142.179092 
L 149.22078 141.831737 
L 149.786214 140.902741 
L 150.351648 138.013014 
L 150.917082 129.861682 
L 151.482516 132.779844 
L 152.04795 127.217163 
L 152.613384 132.673943 
L 153.178818 135.093474 
L 153.744253 134.763251 
L 154.309687 133.945896 
L 154.875121 124.092775 
L 155.440555 125.240813 
L 156.005989 119.478833 
L 156.571423 122.638337 
L 157.136857 124.360213 
L 157.702291 115.666537 
L 158.267725 119.635561 
L 158.833159 134.563439 
L 159.398593 134.552026 
L 159.964027 133.449476 
L 160.529461 131.445076 
L 161.094895 130.999663 
L 161.660329 129.254367 
L 162.791198 138.124989 
L 163.356632 138.670861 
L 163.922066 144.104417 
L 164.4875 131.654032 
L 165.052934 137.026031 
L 165.618368 134.006719 
L 166.183802 129.125203 
L 166.749236 134.850051 
L 167.31467 133.822038 
L 167.880104 135.496965 
L 168.445538 136.020492 
L 169.010972 135.239259 
L 169.576406 130.319867 
L 170.14184 131.63729 
L 170.707275 129.417525 
L 171.272709 136.95314 
L 171.838143 141.817033 
L 172.403577 145.2628 
L 172.969011 145.15302 
L 173.534445 162.670888 
L 174.099879 151.905123 
L 174.665313 147.353128 
L 175.230747 147.485595 
L 175.796181 148.245788 
L 176.927049 130.762814 
L 177.492483 137.200512 
L 179.188786 138.264688 
L 179.75422 124.158547 
L 180.319654 120.873387 
L 180.885088 126.006712 
L 181.450522 140.003434 
L 182.015956 137.123109 
L 182.58139 139.547646 
L 183.146824 137.15549 
L 183.712258 121.528973 
L 184.277692 118.342965 
L 184.843126 132.228258 
L 185.40856 129.791676 
L 185.973994 125.725536 
L 186.539428 128.862738 
L 187.104862 127.105245 
L 187.670296 145.274964 
L 188.235731 148.891056 
L 188.801165 148.331327 
L 189.366599 141.03082 
L 189.932033 135.505672 
L 190.497467 132.315006 
L 191.062901 141.975275 
L 191.628335 146.392983 
L 192.193769 129.167319 
L 192.759203 131.339715 
L 193.324637 132.546285 
L 193.890071 134.758183 
L 194.455505 138.640921 
L 195.020939 133.370596 
L 195.586373 137.036003 
L 196.151807 145.974646 
L 197.282676 140.32583 
L 197.84811 125.450988 
L 198.413544 132.714358 
L 198.978978 138.12604 
L 199.544412 135.955089 
L 200.109846 137.053234 
L 200.67528 127.572835 
L 201.240714 128.497599 
L 201.806148 132.622898 
L 202.371582 128.186985 
L 202.937016 133.649334 
L 203.50245 131.187208 
L 204.067884 131.707258 
L 204.633318 123.537733 
L 205.198753 125.130848 
L 205.764187 134.88545 
L 206.329621 134.51984 
L 206.895055 119.184782 
L 207.460489 114.923523 
L 208.591357 123.754792 
L 209.156791 147.029189 
L 209.722225 145.483171 
L 210.287659 142.731512 
L 210.853093 138.789887 
L 211.418527 129.621562 
L 211.983961 128.269465 
L 212.549395 125.226861 
L 213.114829 128.635765 
L 213.680263 129.754006 
L 214.245698 124.021722 
L 214.811132 126.420354 
L 215.376566 126.054045 
L 215.942 130.325819 
L 216.507434 131.360259 
L 217.072868 138.367919 
L 217.638302 139.587119 
L 218.203736 132.922233 
L 218.76917 130.323434 
L 219.334604 129.416145 
L 219.900038 132.915398 
L 220.465472 133.553019 
L 221.59634 127.433882 
L 222.161774 120.541334 
L 223.292643 128.901751 
L 223.858077 126.064209 
L 224.423511 129.365649 
L 224.988945 134.843354 
L 225.554379 136.671932 
L 226.119813 130.253285 
L 226.685247 136.474638 
L 227.250681 134.311099 
L 227.816115 131.452735 
L 228.381549 131.784842 
L 228.946983 128.297054 
L 229.512417 134.416899 
L 230.077851 125.780378 
L 230.643285 132.485118 
L 231.20872 158.34884 
L 231.774154 150.545923 
L 232.339588 137.786311 
L 232.905022 144.416662 
L 233.470456 138.570782 
L 234.03589 138.346162 
L 234.601324 146.118333 
L 235.166758 137.498326 
L 235.732192 134.693417 
L 236.297626 121.757876 
L 236.86306 131.468681 
L 237.428494 132.500494 
L 237.993928 139.75668 
L 238.559362 143.83563 
L 239.124796 142.017214 
L 239.69023 138.470777 
L 240.255665 141.167055 
L 240.821099 133.421777 
L 241.386533 140.090243 
L 241.951967 134.943422 
L 242.517401 131.490531 
L 243.082835 133.158297 
L 243.648269 137.274385 
L 244.213703 126.99244 
L 244.779137 135.907479 
L 245.344571 132.33052 
L 245.910005 133.075833 
L 246.475439 128.175842 
L 247.606307 134.373774 
L 248.171741 140.131348 
L 248.737176 135.86594 
L 249.30261 125.965953 
L 249.868044 128.251146 
L 250.433478 132.545251 
L 250.998912 135.917392 
L 251.564346 133.278482 
L 252.695214 118.97434 
L 253.260648 141.818426 
L 253.826082 151.084254 
L 254.391516 138.893925 
L 254.95695 131.741913 
L 255.522384 134.502245 
L 256.087818 126.18233 
L 256.653252 130.67751 
L 257.218687 118.653632 
L 258.349555 130.79409 
L 258.914989 130.997946 
L 259.480423 131.55645 
L 260.045857 132.513176 
L 260.611291 135.516256 
L 261.176725 140.381177 
L 261.742159 136.598299 
L 262.307593 131.920272 
L 262.873027 121.993816 
L 263.438461 118.48117 
L 264.003895 128.867705 
L 264.569329 129.423246 
L 265.134763 131.968139 
L 265.700197 132.527822 
L 266.265632 126.745622 
L 266.831066 132.851086 
L 267.3965 126.469362 
L 267.961934 127.555156 
L 268.527368 136.591571 
L 269.092802 129.436348 
L 269.658236 131.313747 
L 270.22367 121.919071 
L 270.789104 131.260479 
L 271.354538 126.159075 
L 271.919972 123.876571 
L 272.485406 127.834062 
L 273.05084 125.526411 
L 273.616274 126.767735 
L 274.181708 127.492144 
L 274.747143 133.983931 
L 275.312577 136.499753 
L 275.878011 144.433401 
L 276.443445 138.794595 
L 277.008879 130.936965 
L 277.574313 131.338578 
L 278.139747 127.52967 
L 278.705181 127.623995 
L 279.270615 127.203496 
L 279.836049 132.20503 
L 280.401483 133.906164 
L 280.966917 143.123704 
L 281.532351 144.807394 
L 282.097785 138.545436 
L 282.663219 142.555486 
L 284.359522 132.577971 
L 284.924956 133.665927 
L 285.49039 132.612676 
L 286.055824 134.608269 
L 286.621258 134.285991 
L 287.186692 108.582899 
L 287.752126 117.247507 
L 288.31756 121.323956 
L 288.882994 123.842388 
L 289.448428 124.211657 
L 290.013862 125.035768 
L 290.579296 125.549047 
L 291.14473 130.913415 
L 291.710164 121.516051 
L 292.275599 129.901086 
L 292.841033 123.419015 
L 293.406467 129.040748 
L 293.971901 132.617114 
L 294.537335 132.132385 
L 295.102769 150.843356 
L 295.668203 142.506491 
L 296.233637 140.87021 
L 296.799071 154.092141 
L 297.364505 147.920639 
L 297.929939 145.289486 
L 298.495373 138.794264 
L 299.060807 139.968788 
L 299.626241 129.918957 
L 300.191675 134.07016 
L 300.75711 136.806842 
L 301.322544 142.394508 
L 301.887978 132.741528 
L 302.453412 133.498782 
L 303.018846 127.736415 
L 303.58428 127.135533 
L 304.149714 125.048928 
L 304.715148 126.410706 
L 305.280582 129.354837 
L 305.846016 129.394516 
L 306.41145 127.806704 
L 306.976884 118.148192 
L 307.542318 110.529023 
L 308.107752 120.619198 
L 308.673186 119.947662 
L 309.238621 122.389057 
L 309.804055 128.133897 
L 310.369489 140.101907 
L 310.934923 137.81469 
L 311.500357 137.443235 
L 312.065791 138.554736 
L 312.631225 148.529668 
L 313.762093 138.999834 
L 314.327527 137.120892 
L 314.892961 128.753721 
L 315.458395 134.54653 
L 316.023829 116.048762 
L 317.154697 122.078929 
L 318.285566 134.017865 
L 318.851 135.781491 
L 319.981868 125.515897 
L 320.547302 128.698121 
L 321.112736 133.978126 
L 321.67817 143.630107 
L 322.243604 145.306202 
L 322.809038 138.154337 
L 323.374472 137.388312 
L 323.939906 134.547831 
L 324.50534 135.07004 
L 325.070774 140.578802 
L 325.636208 133.706482 
L 326.201642 139.155132 
L 326.767077 152.245422 
L 327.897945 153.657286 
L 328.463379 143.340666 
L 329.028813 170.056663 
L 329.594247 144.915506 
L 330.159681 133.939783 
L 330.725115 134.374479 
L 331.290549 135.14234 
L 331.855983 140.391525 
L 332.421417 141.174323 
L 332.986851 138.650349 
L 333.552285 156.590686 
L 334.117719 151.452429 
L 335.248588 145.642878 
L 335.814022 136.372887 
L 336.379456 130.375253 
L 336.94489 133.321019 
L 337.510324 139.929481 
L 338.075758 141.81869 
L 338.641192 152.575638 
L 339.206626 152.688101 
L 339.77206 154.02793 
L 340.337494 170.454729 
L 340.902928 161.958819 
L 341.468362 169.630059 
L 342.033796 153.476741 
L 342.59923 150.708398 
L 343.164664 143.791842 
L 343.730099 145.945361 
L 344.295533 142.386799 
L 345.426401 137.26525 
L 345.991835 137.544237 
L 346.557269 129.045482 
L 347.122703 138.222686 
L 348.253571 146.891078 
L 348.819005 144.341386 
L 349.384439 147.024686 
L 349.949873 152.343215 
L 350.515307 152.277142 
L 351.080741 147.199085 
L 351.646175 152.151222 
L 352.211609 147.644915 
L 352.777044 150.383891 
L 353.342478 145.448025 
L 353.907912 145.625122 
L 354.473346 130.439211 
L 355.03878 140.612107 
L 355.604214 144.581467 
L 356.169648 127.951861 
L 356.735082 131.780053 
L 357.300516 127.1029 
L 357.86595 131.132042 
L 358.431384 140.487126 
L 358.996818 143.440654 
L 359.562252 143.226229 
L 360.127686 146.18482 
L 360.69312 142.161685 
L 361.258555 153.533118 
L 361.823989 149.030631 
L 362.389423 149.913668 
L 362.954857 142.328335 
L 363.520291 155.216116 
L 364.085725 148.203511 
L 364.651159 155.8307 
L 365.216593 179.645686 
L 365.782027 172.319481 
L 366.347461 186.492263 
L 366.912895 167.980472 
L 367.478329 156.858878 
L 368.043763 151.918106 
L 368.609197 140.778988 
L 369.174631 151.224699 
L 369.740066 146.570239 
L 370.3055 138.236963 
L 370.870934 140.267251 
L 371.436368 140.75763 
L 372.001802 140.178167 
L 372.567236 147.933553 
L 373.13267 131.244673 
L 373.698104 123.45853 
L 374.263538 136.36219 
L 374.828972 129.432655 
L 375.394406 132.412371 
L 375.95984 137.362699 
L 376.525274 130.644561 
L 377.090708 132.316818 
L 377.656142 137.297548 
L 378.221576 141.240158 
L 378.787011 127.442111 
L 379.352445 136.211457 
L 379.917879 134.728601 
L 380.483313 120.498359 
L 381.048747 134.85472 
L 381.614181 138.680767 
L 382.179615 146.628298 
L 382.745049 146.986789 
L 383.310483 146.59187 
L 383.875917 136.836176 
L 384.441351 121.325503 
L 385.006785 129.853892 
L 385.572219 127.970085 
L 386.137653 126.913921 
L 386.703087 138.094039 
L 387.268522 135.349109 
L 387.833956 146.241212 
L 388.39939 146.837386 
L 388.964824 140.10022 
L 389.530258 147.281896 
L 390.095692 142.715149 
L 390.661126 130.408994 
L 391.22656 126.318272 
L 391.791994 147.613112 
L 392.357428 141.359787 
L 392.922862 157.476064 
L 393.488296 136.940089 
L 394.05373 140.683997 
L 394.619164 141.058484 
L 395.184598 140.680711 
L 395.750033 139.517634 
L 396.315467 142.209878 
L 396.880901 139.710147 
L 397.446335 142.519782 
L 398.011769 140.286347 
L 398.577203 144.820198 
L 399.142637 136.826199 
L 400.273505 141.083999 
L 400.838939 147.462513 
L 401.404373 147.890989 
L 401.969807 141.916933 
L 402.535241 141.47762 
L 403.100675 149.947044 
L 403.666109 145.995657 
L 404.231543 136.836818 
L 404.796978 140.893236 
L 405.927846 125.204738 
L 406.49328 124.055429 
L 407.058714 135.138526 
L 407.624148 134.810882 
L 408.189582 131.227095 
L 408.755016 136.579175 
L 409.32045 132.926776 
L 409.885884 135.384684 
L 410.451318 141.958406 
L 411.016752 142.720132 
L 411.582186 139.996181 
L 413.278489 165.030829 
L 413.843923 156.247672 
L 414.409357 168.272162 
L 414.974791 150.987857 
L 415.540225 149.449353 
L 416.105659 147.190632 
L 416.671093 141.713717 
L 417.236527 144.529853 
L 417.801961 140.103874 
L 418.367395 146.400323 
L 418.932829 139.7088 
L 419.498263 140.100372 
L 420.063697 155.685234 
L 420.629131 155.723243 
L 421.194565 152.394831 
L 421.76 146.34082 
L 422.325434 167.844392 
L 422.890868 145.088056 
L 423.456302 144.931665 
L 424.021736 139.836882 
L 424.58717 133.678559 
L 425.152604 137.07922 
L 425.718038 145.843086 
L 426.283472 138.810672 
L 426.848906 138.995547 
L 427.41434 138.060654 
L 427.979774 137.817215 
L 428.545208 132.186004 
L 429.110642 142.685697 
L 429.676076 146.962512 
L 430.24151 132.563458 
L 430.806945 142.574742 
L 431.372379 139.263154 
L 431.937813 149.921344 
L 432.503247 144.606141 
L 433.068681 154.979796 
L 433.634115 148.35925 
L 434.199549 131.648523 
L 434.764983 125.553589 
L 435.330417 128.646543 
L 435.895851 109.460819 
L 436.461285 117.615322 
L 437.026719 113.516483 
L 437.592153 122.322905 
L 438.157587 123.700144 
L 438.723021 126.532138 
L 439.288456 151.379961 
L 439.85389 153.643626 
L 440.419324 148.337047 
L 440.984758 153.525938 
L 441.550192 160.079837 
L 442.115626 177.097959 
L 442.68106 163.983508 
L 443.246494 142.573768 
L 444.377362 127.147685 
L 445.50823 117.487952 
L 446.073664 132.957752 
L 446.639098 99.680805 
L 447.204532 111.966959 
L 447.769967 110.126124 
L 448.335401 130.364685 
L 448.900835 129.914408 
L 449.466269 132.838793 
L 450.031703 137.213803 
L 450.597137 116.667752 
L 451.162571 102.546769 
L 451.728005 139.247187 
L 452.293439 95.254465 
L 452.858873 106.216958 
L 453.424307 101.858138 
L 453.989741 84.48893 
L 454.555175 82.018725 
L 455.120609 103.674191 
L 456.251478 124.902233 
L 456.816912 124.178602 
L 457.382346 137.065248 
L 457.94778 74.166348 
L 458.513214 66.72348 
L 459.078648 103.82466 
L 459.644082 124.779281 
L 460.209516 122.43224 
L 460.77495 138.53277 
L 461.340384 159.235564 
L 461.905818 151.973355 
L 462.471252 171.321722 
L 463.036686 173.394706 
L 463.60212 150.098612 
L 464.167554 150.051988 
L 464.732988 135.395054 
L 465.298423 107.187978 
L 465.863857 110.73272 
L 466.994725 140.544804 
L 468.125593 155.062609 
L 468.691027 170.683734 
L 469.256461 191.581918 
L 469.821895 183.920041 
L 470.387329 167.005384 
L 470.952763 159.367221 
L 471.518197 137.719039 
L 472.083631 106.703558 
L 472.649065 124.339049 
L 473.214499 123.11767 
L 473.779934 96.207071 
L 474.345368 98.4442 
L 474.910802 122.628024 
L 475.476236 137.772434 
L 476.04167 149.033406 
L 476.607104 151.685813 
L 477.172538 150.775203 
L 477.737972 138.702938 
L 478.303406 184.961779 
L 478.86884 155.018105 
L 479.434274 162.925909 
L 480.565142 135.592833 
L 481.69601 167.565214 
L 482.261445 140.970763 
L 482.826879 161.411607 
L 483.392313 160.384343 
L 483.957747 168.403394 
L 484.523181 163.812792 
L 485.088615 146.232999 
L 485.654049 151.834663 
L 486.219483 155.178998 
L 486.784917 166.850297 
L 487.350351 143.42896 
L 487.915785 160.929139 
L 488.481219 133.681721 
L 489.046653 138.29476 
L 489.612087 128.864114 
L 490.177521 167.870961 
L 490.742955 141.859864 
L 491.30839 173.7695 
L 491.873824 177.947008 
L 492.439258 134.489307 
L 493.004692 120.403815 
L 493.570126 144.5637 
L 494.13556 139.130531 
L 494.700994 175.325765 
L 495.266428 161.893119 
L 495.831862 154.503228 
L 496.397296 173.653122 
L 496.96273 134.811673 
L 497.528164 140.684388 
L 498.093598 141.56051 
L 498.659032 151.495885 
L 499.224466 150.290639 
L 499.789901 159.139657 
L 500.355335 158.731845 
L 500.920769 166.504024 
L 501.486203 172.680155 
L 502.051637 155.553982 
L 502.617071 116.438551 
L 503.182505 117.630738 
L 503.747939 113.505227 
L 504.878807 155.661081 
L 505.444241 131.388402 
L 506.009675 143.024204 
L 506.575109 63.741563 
L 507.140543 120.069761 
L 507.705977 130.065749 
L 508.271412 159.424964 
L 509.40228 140.526958 
L 509.967714 103.680821 
L 510.533148 54.468513 
L 511.098582 116.442296 
L 511.664016 125.898846 
L 512.22945 183.566237 
L 512.794884 138.905506 
L 513.360318 153.53095 
L 513.925752 145.909883 
L 514.491186 129.946384 
L 515.05662 147.94872 
L 515.622054 148.136832 
L 516.187488 120.564348 
L 517.318357 136.340174 
L 517.883791 90.969121 
L 518.449225 93.111083 
L 519.014659 29.654645 
L 519.580093 73.947548 
L 520.145527 102.045845 
L 520.710961 159.183759 
L 521.276395 114.061018 
L 521.841829 107.895015 
L 522.407263 177.09997 
L 522.972697 131.018555 
L 523.538131 156.038011 
L 524.103565 135.062695 
L 524.103565 135.062695 
" clip-path="url(#pe44c1a7822)" style="fill: none; stroke: #222222; stroke-width: 0.8; stroke-linecap: square"/>
   </g>
   <g id="patch_3">
    <path d="M 49.732656 199.678281 
L 49.732656 21.558281 
" style="fill: none; stroke: #000000; stroke-width: 0.8; stroke-linejoin: miter; stroke-linecap: square"/>
   </g>
   <g id="patch_4">
    <path d="M 49.732656 199.678281 
L 546.692656 199.678281 
" style="fill: none; stroke: #000000; stroke-width: 0.8; stroke-linejoin: miter; stroke-linecap: square"/>
   </g>
   <g id="text_16">
    <text style="font: 11px 'DejaVu Sans', 'Bitstream Vera Sans', 'Computer Modern Sans Serif', 'Lucida Grande', 'Verdana', 'Geneva', 'Lucid', 'Arial', 'Helvetica', 'Avant Garde', sans-serif; text-anchor: middle" x="298.212656" y="15.558281" transform="rotate(-0 298.212656 15.558281)">Synthetic sanity check</text>
   </g>
   <g id="PathCollection_1">
    <defs>
     <path id="m8ce63d613f" d="M 0 1.5 
C 0.397805 1.5 0.77937 1.341951 1.06066 1.06066 
C 1.341951 0.77937 1.5 0.397805 1.5 0 
C 1.5 -0.397805 1.341951 -0.77937 1.06066 -1.06066 
C 0.77937 -1.341951 0.397805 -1.5 0 -1.5 
C -0.397805 -1.5 -0.77937 -1.341951 -1.06066 -1.06066 
C -1.341951 -0.77937 -1.5 -0.397805 -1.5 0 
C -1.5 0.397805 -1.341951 0.77937 -1.06066 1.06066 
C -0.77937 1.341951 -0.397805 1.5 0 1.5 
z
" style="stroke: #1f77b4"/>
    </defs>
    <g clip-path="url(#pe44c1a7822)">
     <use xlink:href="#m8ce63d613f" x="129.430588" y="162.723605" style="fill: #1f77b4; stroke: #1f77b4"/>
     <use xlink:href="#m8ce63d613f" x="129.996022" y="152.419889" style="fill: #1f77b4; stroke: #1f77b4"/>
     <use xlink:href="#m8ce63d613f" x="135.084928" y="128.914865" style="fill: #1f77b4; stroke: #1f77b4"/>
     <use xlink:href="#m8ce63d613f" x="183.712258" y="121.528973" style="fill: #1f77b4; stroke: #1f77b4"/>
     <use xlink:href="#m8ce63d613f" x="184.277692" y="118.342965" style="fill: #1f77b4; stroke: #1f77b4"/>
     <use xlink:href="#m8ce63d613f" x="296.799071" y="154.092141" style="fill: #1f77b4; stroke: #1f77b4"/>
     <use xlink:href="#m8ce63d613f" x="297.364505" y="147.920639" style="fill: #1f77b4; stroke: #1f77b4"/>
     <use xlink:href="#m8ce63d613f" x="297.929939" y="145.289486" style="fill: #1f77b4; stroke: #1f77b4"/>
     <use xlink:href="#m8ce63d613f" x="298.495373" y="138.794264" style="fill: #1f77b4; stroke: #1f77b4"/>
     <use xlink:href="#m8ce63d613f" x="316.589263" y="119.085764" style="fill: #1f77b4; stroke: #1f77b4"/>
     <use xlink:href="#m8ce63d613f" x="317.154697" y="122.078929" style="fill: #1f77b4; stroke: #1f77b4"/>
     <use xlink:href="#m8ce63d613f" x="317.720132" y="127.602074" style="fill: #1f77b4; stroke: #1f77b4"/>
     <use xlink:href="#m8ce63d613f" x="329.028813" y="170.056663" style="fill: #1f77b4; stroke: #1f77b4"/>
     <use xlink:href="#m8ce63d613f" x="330.159681" y="133.939783" style="fill: #1f77b4; stroke: #1f77b4"/>
     <use xlink:href="#m8ce63d613f" x="340.902928" y="161.958819" style="fill: #1f77b4; stroke: #1f77b4"/>
     <use xlink:href="#m8ce63d613f" x="341.468362" y="169.630059" style="fill: #1f77b4; stroke: #1f77b4"/>
     <use xlink:href="#m8ce63d613f" x="342.033796" y="153.476741" style="fill: #1f77b4; stroke: #1f77b4"/>
     <use xlink:href="#m8ce63d613f" x="342.59923" y="150.708398" style="fill: #1f77b4; stroke: #1f77b4"/>
     <use xlink:href="#m8ce63d613f" x="343.164664" y="143.791842" style="fill: #1f77b4; stroke: #1f77b4"/>
     <use xlink:href="#m8ce63d613f" x="343.730099" y="145.945361" style="fill: #1f77b4; stroke: #1f77b4"/>
     <use xlink:href="#m8ce63d613f" x="344.295533" y="142.386799" style="fill: #1f77b4; stroke: #1f77b4"/>
     <use xlink:href="#m8ce63d613f" x="344.860967" y="139.765335" style="fill: #1f77b4; stroke: #1f77b4"/>
     <use xlink:href="#m8ce63d613f" x="345.426401" y="137.26525" style="fill: #1f77b4; stroke: #1f77b4"/>
     <use xlink:href="#m8ce63d613f" x="345.991835" y="137.544237" style="fill: #1f77b4; stroke: #1f77b4"/>
     <use xlink:href="#m8ce63d613f" x="346.557269" y="129.045482" style="fill: #1f77b4; stroke: #1f77b4"/>
     <use xlink:href="#m8ce63d613f" x="347.122703" y="138.222686" style="fill: #1f77b4; stroke: #1f77b4"/>
     <use xlink:href="#m8ce63d613f" x="347.688137" y="142.862702" style="fill: #1f77b4; stroke: #1f77b4"/>
     <use xlink:href="#m8ce63d613f" x="348.253571" y="146.891078" style="fill: #1f77b4; stroke: #1f77b4"/>
     <use xlink:href="#m8ce63d613f" x="348.819005" y="144.341386" style="fill: #1f77b4; stroke: #1f77b4"/>
     <use xlink:href="#m8ce63d613f" x="349.384439" y="147.024686" style="fill: #1f77b4; stroke: #1f77b4"/>
     <use xlink:href="#m8ce63d613f" x="349.949873" y="152.343215" style="fill: #1f77b4; stroke: #1f77b4"/>
     <use xlink:href="#m8ce63d613f" x="350.515307" y="152.277142" style="fill: #1f77b4; stroke: #1f77b4"/>
     <use xlink:href="#m8ce63d613f" x="351.080741" y="147.199085" style="fill: #1f77b4; stroke: #1f77b4"/>
     <use xlink:href="#m8ce63d613f" x="365.216593" y="179.645686" style="fill: #1f77b4; stroke: #1f77b4"/>
     <use xlink:href="#m8ce63d613f" x="365.782027" y="172.319481" style="fill: #1f77b4; stroke: #1f77b4"/>
     <use xlink:href="#m8ce63d613f" x="366.347461" y="186.492263" style="fill: #1f77b4; stroke: #1f77b4"/>
     <use xlink:href="#m8ce63d613f" x="366.912895" y="167.980472" style="fill: #1f77b4; stroke: #1f77b4"/>
     <use xlink:href="#m8ce63d613f" x="367.478329" y="156.858878" style="fill: #1f77b4; stroke: #1f77b4"/>
     <use xlink:href="#m8ce63d613f" x="368.043763" y="151.918106" style="fill: #1f77b4; stroke: #1f77b4"/>
     <use xlink:href="#m8ce63d613f" x="368.609197" y="140.778988" style="fill: #1f77b4; stroke: #1f77b4"/>
     <use xlink:href="#m8ce63d613f" x="369.174631" y="151.224699" style="fill: #1f77b4; stroke: #1f77b4"/>
     <use xlink:href="#m8ce63d613f" x="369.740066" y="146.570239" style="fill: #1f77b4; stroke: #1f77b4"/>
     <use xlink:href="#m8ce63d613f" x="370.3055" y="138.236963" style="fill: #1f77b4; stroke: #1f77b4"/>
     <use xlink:href="#m8ce63d613f" x="370.870934" y="140.267251" style="fill: #1f77b4; stroke: #1f77b4"/>
     <use xlink:href="#m8ce63d613f" x="371.436368" y="140.75763" style="fill: #1f77b4; stroke: #1f77b4"/>
     <use xlink:href="#m8ce63d613f" x="372.001802" y="140.178167" style="fill: #1f77b4; stroke: #1f77b4"/>
     <use xlink:href="#m8ce63d613f" x="372.567236" y="147.933553" style="fill: #1f77b4; stroke: #1f77b4"/>
     <use xlink:href="#m8ce63d613f" x="373.13267" y="131.244673" style="fill: #1f77b4; stroke: #1f77b4"/>
     <use xlink:href="#m8ce63d613f" x="373.698104" y="123.45853" style="fill: #1f77b4; stroke: #1f77b4"/>
     <use xlink:href="#m8ce63d613f" x="374.263538" y="136.36219" style="fill: #1f77b4; stroke: #1f77b4"/>
     <use xlink:href="#m8ce63d613f" x="374.828972" y="129.432655" style="fill: #1f77b4; stroke: #1f77b4"/>
     <use xlink:href="#m8ce63d613f" x="375.394406" y="132.412371" style="fill: #1f77b4; stroke: #1f77b4"/>
     <use xlink:href="#m8ce63d613f" x="375.95984" y="137.362699" style="fill: #1f77b4; stroke: #1f77b4"/>
     <use xlink:href="#m8ce63d613f" x="376.525274" y="130.644561" style="fill: #1f77b4; stroke: #1f77b4"/>
     <use xlink:href="#m8ce63d613f" x="377.090708" y="132.316818" style="fill: #1f77b4; stroke: #1f77b4"/>
     <use xlink:href="#m8ce63d613f" x="377.656142" y="137.297548" style="fill: #1f77b4; stroke: #1f77b4"/>
     <use xlink:href="#m8ce63d613f" x="413.843923" y="156.247672" style="fill: #1f77b4; stroke: #1f77b4"/>
     <use xlink:href="#m8ce63d613f" x="414.409357" y="168.272162" style="fill: #1f77b4; stroke: #1f77b4"/>
     <use xlink:href="#m8ce63d613f" x="414.974791" y="150.987857" style="fill: #1f77b4; stroke: #1f77b4"/>
     <use xlink:href="#m8ce63d613f" x="415.540225" y="149.449353" style="fill: #1f77b4; stroke: #1f77b4"/>
     <use xlink:href="#m8ce63d613f" x="416.105659" y="147.190632" style="fill: #1f77b4; stroke: #1f77b4"/>
     <use xlink:href="#m8ce63d613f" x="416.671093" y="141.713717" style="fill: #1f77b4; stroke: #1f77b4"/>
     <use xlink:href="#m8ce63d613f" x="417.236527" y="144.529853" style="fill: #1f77b4; stroke: #1f77b4"/>
     <use xlink:href="#m8ce63d613f" x="417.801961" y="140.103874" style="fill: #1f77b4; stroke: #1f77b4"/>
     <use xlink:href="#m8ce63d613f" x="436.461285" y="117.615322" style="fill: #1f77b4; stroke: #1f77b4"/>
     <use xlink:href="#m8ce63d613f" x="437.026719" y="113.516483" style="fill: #1f77b4; stroke: #1f77b4"/>
     <use xlink:href="#m8ce63d613f" x="437.592153" y="122.322905" style="fill: #1f77b4; stroke: #1f77b4"/>
     <use xlink:href="#m8ce63d613f" x="438.157587" y="123.700144" style="fill: #1f77b4; stroke: #1f77b4"/>
     <use xlink:href="#m8ce63d613f" x="438.723021" y="126.532138" style="fill: #1f77b4; stroke: #1f77b4"/>
     <use xlink:href="#m8ce63d613f" x="439.288456" y="151.379961" style="fill: #1f77b4; stroke: #1f77b4"/>
     <use xlink:href="#m8ce63d613f" x="439.85389" y="153.643626" style="fill: #1f77b4; stroke: #1f77b4"/>
     <use xlink:href="#m8ce63d613f" x="440.419324" y="148.337047" style="fill: #1f77b4; stroke: #1f77b4"/>
     <use xlink:href="#m8ce63d613f" x="440.984758" y="153.525938" style="fill: #1f77b4; stroke: #1f77b4"/>
     <use xlink:href="#m8ce63d613f" x="441.550192" y="160.079837" style="fill: #1f77b4; stroke: #1f77b4"/>
     <use xlink:href="#m8ce63d613f" x="442.115626" y="177.097959" style="fill: #1f77b4; stroke: #1f77b4"/>
     <use xlink:href="#m8ce63d613f" x="442.68106" y="163.983508" style="fill: #1f77b4; stroke: #1f77b4"/>
     <use xlink:href="#m8ce63d613f" x="443.246494" y="142.573768" style="fill: #1f77b4; stroke: #1f77b4"/>
     <use xlink:href="#m8ce63d613f" x="443.811928" y="134.237077" style="fill: #1f77b4; stroke: #1f77b4"/>
     <use xlink:href="#m8ce63d613f" x="444.377362" y="127.147685" style="fill: #1f77b4; stroke: #1f77b4"/>
     <use xlink:href="#m8ce63d613f" x="444.942796" y="122.318532" style="fill: #1f77b4; stroke: #1f77b4"/>
     <use xlink:href="#m8ce63d613f" x="445.50823" y="117.487952" style="fill: #1f77b4; stroke: #1f77b4"/>
     <use xlink:href="#m8ce63d613f" x="446.073664" y="132.957752" style="fill: #1f77b4; stroke: #1f77b4"/>
     <use xlink:href="#m8ce63d613f" x="446.639098" y="99.680805" style="fill: #1f77b4; stroke: #1f77b4"/>
     <use xlink:href="#m8ce63d613f" x="447.204532" y="111.966959" style="fill: #1f77b4; stroke: #1f77b4"/>
     <use xlink:href="#m8ce63d613f" x="447.769967" y="110.126124" style="fill: #1f77b4; stroke: #1f77b4"/>
     <use xlink:href="#m8ce63d613f" x="448.335401" y="130.364685" style="fill: #1f77b4; stroke: #1f77b4"/>
     <use xlink:href="#m8ce63d613f" x="448.900835" y="129.914408" style="fill: #1f77b4; stroke: #1f77b4"/>
     <use xlink:href="#m8ce63d613f" x="449.466269" y="132.838793" style="fill: #1f77b4; stroke: #1f77b4"/>
     <use xlink:href="#m8ce63d613f" x="450.031703" y="137.213803" style="fill: #1f77b4; stroke: #1f77b4"/>
     <use xlink:href="#m8ce63d613f" x="450.597137" y="116.667752" style="fill: #1f77b4; stroke: #1f77b4"/>
     <use xlink:href="#m8ce63d613f" x="451.162571" y="102.546769" style="fill: #1f77b4; stroke: #1f77b4"/>
     <use xlink:href="#m8ce63d613f" x="451.728005" y="139.247187" style="fill: #1f77b4; stroke: #1f77b4"/>
     <use xlink:href="#m8ce63d613f" x="452.293439" y="95.254465" style="fill: #1f77b4; stroke: #1f77b4"/>
     <use xlink:href="#m8ce63d613f" x="452.858873" y="106.216958" style="fill: #1f77b4; stroke: #1f77b4"/>
     <use xlink:href="#m8ce63d613f" x="453.424307" y="101.858138" style="fill: #1f77b4; stroke: #1f77b4"/>
     <use xlink:href="#m8ce63d613f" x="453.989741" y="84.48893" style="fill: #1f77b4; stroke: #1f77b4"/>
     <use xlink:href="#m8ce63d613f" x="454.555175" y="82.018725" style="fill: #1f77b4; stroke: #1f77b4"/>
     <use xlink:href="#m8ce63d613f" x="455.120609" y="103.674191" style="fill: #1f77b4; stroke: #1f77b4"/>
     <use xlink:href="#m8ce63d613f" x="455.686043" y="114.465334" style="fill: #1f77b4; stroke: #1f77b4"/>
     <use xlink:href="#m8ce63d613f" x="456.251478" y="124.902233" style="fill: #1f77b4; stroke: #1f77b4"/>
     <use xlink:href="#m8ce63d613f" x="456.816912" y="124.178602" style="fill: #1f77b4; stroke: #1f77b4"/>
     <use xlink:href="#m8ce63d613f" x="457.382346" y="137.065248" style="fill: #1f77b4; stroke: #1f77b4"/>
     <use xlink:href="#m8ce63d613f" x="457.94778" y="74.166348" style="fill: #1f77b4; stroke: #1f77b4"/>
     <use xlink:href="#m8ce63d613f" x="458.513214" y="66.72348" style="fill: #1f77b4; stroke: #1f77b4"/>
     <use xlink:href="#m8ce63d613f" x="459.078648" y="103.82466" style="fill: #1f77b4; stroke: #1f77b4"/>
     <use xlink:href="#m8ce63d613f" x="459.644082" y="124.779281" style="fill: #1f77b4; stroke: #1f77b4"/>
     <use xlink:href="#m8ce63d613f" x="460.209516" y="122.43224" style="fill: #1f77b4; stroke: #1f77b4"/>
     <use xlink:href="#m8ce63d613f" x="460.77495" y="138.53277" style="fill: #1f77b4; stroke: #1f77b4"/>
     <use xlink:href="#m8ce63d613f" x="461.340384" y="159.235564" style="fill: #1f77b4; stroke: #1f77b4"/>
     <use xlink:href="#m8ce63d613f" x="461.905818" y="151.973355" style="fill: #1f77b4; stroke: #1f77b4"/>
     <use xlink:href="#m8ce63d613f" x="462.471252" y="171.321722" style="fill: #1f77b4; stroke: #1f77b4"/>
     <use xlink:href="#m8ce63d613f" x="463.036686" y="173.394706" style="fill: #1f77b4; stroke: #1f77b4"/>
     <use xlink:href="#m8ce63d613f" x="463.60212" y="150.098612" style="fill: #1f77b4; stroke: #1f77b4"/>
     <use xlink:href="#m8ce63d613f" x="464.167554" y="150.051988" style="fill: #1f77b4; stroke: #1f77b4"/>
     <use xlink:href="#m8ce63d613f" x="464.732988" y="135.395054" style="fill: #1f77b4; stroke: #1f77b4"/>
     <use xlink:href="#m8ce63d613f" x="465.298423" y="107.187978" style="fill: #1f77b4; stroke: #1f77b4"/>
     <use xlink:href="#m8ce63d613f" x="465.863857" y="110.73272" style="fill: #1f77b4; stroke: #1f77b4"/>
     <use xlink:href="#m8ce63d613f" x="466.429291" y="125.59469" style="fill: #1f77b4; stroke: #1f77b4"/>
     <use xlink:href="#m8ce63d613f" x="466.994725" y="140.544804" style="fill: #1f77b4; stroke: #1f77b4"/>
     <use xlink:href="#m8ce63d613f" x="467.560159" y="147.252673" style="fill: #1f77b4; stroke: #1f77b4"/>
     <use xlink:href="#m8ce63d613f" x="468.125593" y="155.062609" style="fill: #1f77b4; stroke: #1f77b4"/>
     <use xlink:href="#m8ce63d613f" x="468.691027" y="170.683734" style="fill: #1f77b4; stroke: #1f77b4"/>
     <use xlink:href="#m8ce63d613f" x="469.256461" y="191.581918" style="fill: #1f77b4; stroke: #1f77b4"/>
     <use xlink:href="#m8ce63d613f" x="469.821895" y="183.920041" style="fill: #1f77b4; stroke: #1f77b4"/>
     <use xlink:href="#m8ce63d613f" x="470.387329" y="167.005384" style="fill: #1f77b4; stroke: #1f77b4"/>
     <use xlink:href="#m8ce63d613f" x="470.952763" y="159.367221" style="fill: #1f77b4; stroke: #1f77b4"/>
     <use xlink:href="#m8ce63d613f" x="471.518197" y="137.719039" style="fill: #1f77b4; stroke: #1f77b4"/>
     <use xlink:href="#m8ce63d613f" x="472.083631" y="106.703558" style="fill: #1f77b4; stroke: #1f77b4"/>
     <use xlink:href="#m8ce63d613f" x="472.649065" y="124.339049" style="fill: #1f77b4; stroke: #1f77b4"/>
     <use xlink:href="#m8ce63d613f" x="473.214499" y="123.11767" style="fill: #1f77b4; stroke: #1f77b4"/>
     <use xlink:href="#m8ce63d613f" x="473.779934" y="96.207071" style="fill: #1f77b4; stroke: #1f77b4"/>
     <use xlink:href="#m8ce63d613f" x="474.345368" y="98.4442" style="fill: #1f77b4; stroke: #1f77b4"/>
     <use xlink:href="#m8ce63d613f" x="474.910802" y="122.628024" style="fill: #1f77b4; stroke: #1f77b4"/>
     <use xlink:href="#m8ce63d613f" x="475.476236" y="137.772434" style="fill: #1f77b4; stroke: #1f77b4"/>
     <use xlink:href="#m8ce63d613f" x="476.04167" y="149.033406" style="fill: #1f77b4; stroke: #1f77b4"/>
     <use xlink:href="#m8ce63d613f" x="476.607104" y="151.685813" style="fill: #1f77b4; stroke: #1f77b4"/>
     <use xlink:href="#m8ce63d613f" x="477.172538" y="150.775203" style="fill: #1f77b4; stroke: #1f77b4"/>
     <use xlink:href="#m8ce63d613f" x="477.737972" y="138.702938" style="fill: #1f77b4; stroke: #1f77b4"/>
     <use xlink:href="#m8ce63d613f" x="478.303406" y="184.961779" style="fill: #1f77b4; stroke: #1f77b4"/>
     <use xlink:href="#m8ce63d613f" x="478.86884" y="155.018105" style="fill: #1f77b4; stroke: #1f77b4"/>
     <use xlink:href="#m8ce63d613f" x="479.434274" y="162.925909" style="fill: #1f77b4; stroke: #1f77b4"/>
     <use xlink:href="#m8ce63d613f" x="479.999708" y="149.372088" style="fill: #1f77b4; stroke: #1f77b4"/>
     <use xlink:href="#m8ce63d613f" x="480.565142" y="135.592833" style="fill: #1f77b4; stroke: #1f77b4"/>
     <use xlink:href="#m8ce63d613f" x="481.130576" y="150.385439" style="fill: #1f77b4; stroke: #1f77b4"/>
     <use xlink:href="#m8ce63d613f" x="481.69601" y="167.565214" style="fill: #1f77b4; stroke: #1f77b4"/>
     <use xlink:href="#m8ce63d613f" x="482.261445" y="140.970763" style="fill: #1f77b4; stroke: #1f77b4"/>
     <use xlink:href="#m8ce63d613f" x="482.826879" y="161.411607" style="fill: #1f77b4; stroke: #1f77b4"/>
     <use xlink:href="#m8ce63d613f" x="483.392313" y="160.384343" style="fill: #1f77b4; stroke: #1f77b4"/>
     <use xlink:href="#m8ce63d613f" x="483.957747" y="168.403394" style="fill: #1f77b4; stroke: #1f77b4"/>
     <use xlink:href="#m8ce63d613f" x="484.523181" y="163.812792" style="fill: #1f77b4; stroke: #1f77b4"/>
     <use xlink:href="#m8ce63d613f" x="485.088615" y="146.232999" style="fill: #1f77b4; stroke: #1f77b4"/>
     <use xlink:href="#m8ce63d613f" x="485.654049" y="151.834663" style="fill: #1f77b4; stroke: #1f77b4"/>
     <use xlink:href="#m8ce63d613f" x="486.219483" y="155.178998" style="fill: #1f77b4; stroke: #1f77b4"/>
     <use xlink:href="#m8ce63d613f" x="486.784917" y="166.850297" style="fill: #1f77b4; stroke: #1f77b4"/>
     <use xlink:href="#m8ce63d613f" x="487.350351" y="143.42896" style="fill: #1f77b4; stroke: #1f77b4"/>
     <use xlink:href="#m8ce63d613f" x="487.915785" y="160.929139" style="fill: #1f77b4; stroke: #1f77b4"/>
     <use xlink:href="#m8ce63d613f" x="488.481219" y="133.681721" style="fill: #1f77b4; stroke: #1f77b4"/>
     <use xlink:href="#m8ce63d613f" x="489.046653" y="138.29476" style="fill: #1f77b4; stroke: #1f77b4"/>
     <use xlink:href="#m8ce63d613f" x="489.612087" y="128.864114" style="fill: #1f77b4; stroke: #1f77b4"/>
     <use xlink:href="#m8ce63d613f" x="490.177521" y="167.870961" style="fill: #1f77b4; stroke: #1f77b4"/>
     <use xlink:href="#m8ce63d613f" x="490.742955" y="141.859864" style="fill: #1f77b4; stroke: #1f77b4"/>
     <use xlink:href="#m8ce63d613f" x="491.30839" y="173.7695" style="fill: #1f77b4; stroke: #1f77b4"/>
     <use xlink:href="#m8ce63d613f" x="491.873824" y="177.947008" style="fill: #1f77b4; stroke: #1f77b4"/>
     <use xlink:href="#m8ce63d613f" x="492.439258" y="134.489307" style="fill: #1f77b4; stroke: #1f77b4"/>
     <use xlink:href="#m8ce63d613f" x="493.004692" y="120.403815" style="fill: #1f77b4; stroke: #1f77b4"/>
     <use xlink:href="#m8ce63d613f" x="493.570126" y="144.5637" style="fill: #1f77b4; stroke: #1f77b4"/>
     <use xlink:href="#m8ce63d613f" x="494.13556" y="139.130531" style="fill: #1f77b4; stroke: #1f77b4"/>
     <use xlink:href="#m8ce63d613f" x="494.700994" y="175.325765" style="fill: #1f77b4; stroke: #1f77b4"/>
     <use xlink:href="#m8ce63d613f" x="495.266428" y="161.893119" style="fill: #1f77b4; stroke: #1f77b4"/>
     <use xlink:href="#m8ce63d613f" x="495.831862" y="154.503228" style="fill: #1f77b4; stroke: #1f77b4"/>
     <use xlink:href="#m8ce63d613f" x="496.397296" y="173.653122" style="fill: #1f77b4; stroke: #1f77b4"/>
     <use xlink:href="#m8ce63d613f" x="496.96273" y="134.811673" style="fill: #1f77b4; stroke: #1f77b4"/>
     <use xlink:href="#m8ce63d613f" x="497.528164" y="140.684388" style="fill: #1f77b4; stroke: #1f77b4"/>
     <use xlink:href="#m8ce63d613f" x="498.093598" y="141.56051" style="fill: #1f77b4; stroke: #1f77b4"/>
     <use xlink:href="#m8ce63d613f" x="498.659032" y="151.495885" style="fill: #1f77b4; stroke: #1f77b4"/>
     <use xlink:href="#m8ce63d613f" x="499.224466" y="150.290639" style="fill: #1f77b4; stroke: #1f77b4"/>
     <use xlink:href="#m8ce63d613f" x="499.789901" y="159.139657" style="fill: #1f77b4; stroke: #1f77b4"/>
     <use xlink:href="#m8ce63d613f" x="500.355335" y="158.731845" style="fill: #1f77b4; stroke: #1f77b4"/>
     <use xlink:href="#m8ce63d613f" x="500.920769" y="166.504024" style="fill: #1f77b4; stroke: #1f77b4"/>
     <use xlink:href="#m8ce63d613f" x="501.486203" y="172.680155" style="fill: #1f77b4; stroke: #1f77b4"/>
     <use xlink:href="#m8ce63d613f" x="502.051637" y="155.553982" style="fill: #1f77b4; stroke: #1f77b4"/>
     <use xlink:href="#m8ce63d613f" x="502.617071" y="116.438551" style="fill: #1f77b4; stroke: #1f77b4"/>
     <use xlink:href="#m8ce63d613f" x="503.182505" y="117.630738" style="fill: #1f77b4; stroke: #1f77b4"/>
     <use xlink:href="#m8ce63d613f" x="503.747939" y="113.505227" style="fill: #1f77b4; stroke: #1f77b4"/>
     <use xlink:href="#m8ce63d613f" x="504.313373" y="133.159813" style="fill: #1f77b4; stroke: #1f77b4"/>
     <use xlink:href="#m8ce63d613f" x="504.878807" y="155.661081" style="fill: #1f77b4; stroke: #1f77b4"/>
     <use xlink:href="#m8ce63d613f" x="505.444241" y="131.388402" style="fill: #1f77b4; stroke: #1f77b4"/>
     <use xlink:href="#m8ce63d613f" x="506.009675" y="143.024204" style="fill: #1f77b4; stroke: #1f77b4"/>
     <use xlink:href="#m8ce63d613f" x="506.575109" y="63.741563" style="fill: #1f77b4; stroke: #1f77b4"/>
     <use xlink:href="#m8ce63d613f" x="507.140543" y="120.069761" style="fill: #1f77b4; stroke: #1f77b4"/>
     <use xlink:href="#m8ce63d613f" x="507.705977" y="130.065749" style="fill: #1f77b4; stroke: #1f77b4"/>
     <use xlink:href="#m8ce63d613f" x="508.271412" y="159.424964" style="fill: #1f77b4; stroke: #1f77b4"/>
     <use xlink:href="#m8ce63d613f" x="508.836846" y="150.035019" style="fill: #1f77b4; stroke: #1f77b4"/>
     <use xlink:href="#m8ce63d613f" x="509.40228" y="140.526958" style="fill: #1f77b4; stroke: #1f77b4"/>
     <use xlink:href="#m8ce63d613f" x="509.967714" y="103.680821" style="fill: #1f77b4; stroke: #1f77b4"/>
     <use xlink:href="#m8ce63d613f" x="510.533148" y="54.468513" style="fill: #1f77b4; stroke: #1f77b4"/>
     <use xlink:href="#m8ce63d613f" x="511.098582" y="116.442296" style="fill: #1f77b4; stroke: #1f77b4"/>
     <use xlink:href="#m8ce63d613f" x="511.664016" y="125.898846" style="fill: #1f77b4; stroke: #1f77b4"/>
     <use xlink:href="#m8ce63d613f" x="512.22945" y="183.566237" style="fill: #1f77b4; stroke: #1f77b4"/>
     <use xlink:href="#m8ce63d613f" x="512.794884" y="138.905506" style="fill: #1f77b4; stroke: #1f77b4"/>
     <use xlink:href="#m8ce63d613f" x="513.360318" y="153.53095" style="fill: #1f77b4; stroke: #1f77b4"/>
     <use xlink:href="#m8ce63d613f" x="513.925752" y="145.909883" style="fill: #1f77b4; stroke: #1f77b4"/>
     <use xlink:href="#m8ce63d613f" x="514.491186" y="129.946384" style="fill: #1f77b4; stroke: #1f77b4"/>
     <use xlink:href="#m8ce63d613f" x="515.05662" y="147.94872" style="fill: #1f77b4; stroke: #1f77b4"/>
     <use xlink:href="#m8ce63d613f" x="515.622054" y="148.136832" style="fill: #1f77b4; stroke: #1f77b4"/>
     <use xlink:href="#m8ce63d613f" x="516.187488" y="120.564348" style="fill: #1f77b4; stroke: #1f77b4"/>
     <use xlink:href="#m8ce63d613f" x="516.752922" y="128.650774" style="fill: #1f77b4; stroke: #1f77b4"/>
     <use xlink:href="#m8ce63d613f" x="517.318357" y="136.340174" style="fill: #1f77b4; stroke: #1f77b4"/>
     <use xlink:href="#m8ce63d613f" x="517.883791" y="90.969121" style="fill: #1f77b4; stroke: #1f77b4"/>
     <use xlink:href="#m8ce63d613f" x="518.449225" y="93.111083" style="fill: #1f77b4; stroke: #1f77b4"/>
     <use xlink:href="#m8ce63d613f" x="519.014659" y="29.654645" style="fill: #1f77b4; stroke: #1f77b4"/>
     <use xlink:href="#m8ce63d613f" x="519.580093" y="73.947548" style="fill: #1f77b4; stroke: #1f77b4"/>
     <use xlink:href="#m8ce63d613f" x="520.145527" y="102.045845" style="fill: #1f77b4; stroke: #1f77b4"/>
     <use xlink:href="#m8ce63d613f" x="520.710961" y="159.183759" style="fill: #1f77b4; stroke: #1f77b4"/>
     <use xlink:href="#m8ce63d613f" x="521.276395" y="114.061018" style="fill: #1f77b4; stroke: #1f77b4"/>
     <use xlink:href="#m8ce63d613f" x="521.841829" y="107.895015" style="fill: #1f77b4; stroke: #1f77b4"/>
     <use xlink:href="#m8ce63d613f" x="522.407263" y="177.09997" style="fill: #1f77b4; stroke: #1f77b4"/>
     <use xlink:href="#m8ce63d613f" x="522.972697" y="131.018555" style="fill: #1f77b4; stroke: #1f77b4"/>
     <use xlink:href="#m8ce63d613f" x="523.538131" y="156.038011" style="fill: #1f77b4; stroke: #1f77b4"/>
     <use xlink:href="#m8ce63d613f" x="524.103565" y="135.062695" style="fill: #1f77b4; stroke: #1f77b4"/>
    </g>
   </g>
   <g id="legend_1">
    <g id="patch_5">
     <path d="M 57.832656 36.496875 
L 75.832656 36.496875 
L 75.832656 30.196875 
L 57.832656 30.196875 
z
" style="fill: #fee08b; fill-opacity: 0.22; stroke: #fee08b; stroke-opacity: 0.22; stroke-linejoin: miter"/>
    </g>
    <g id="text_17">
     <text style="font: 9px 'DejaVu Sans', 'Bitstream Vera Sans', 'Computer Modern Sans Serif', 'Lucida Grande', 'Verdana', 'Geneva', 'Lucid', 'Arial', 'Helvetica', 'Avant Garde', sans-serif; text-anchor: start" x="83.032656" y="36.496875" transform="rotate(-0 83.032656 36.496875)">Drift</text>
    </g>
    <g id="patch_6">
     <path d="M 120.701875 36.496875 
L 138.701875 36.496875 
L 138.701875 30.196875 
L 120.701875 30.196875 
z
" style="fill: #fdae61; fill-opacity: 0.22; stroke: #fdae61; stroke-opacity: 0.22; stroke-linejoin: miter"/>
    </g>
    <g id="text_18">
     <text style="font: 9px 'DejaVu Sans', 'Bitstream Vera Sans', 'Computer Modern Sans Serif', 'Lucida Grande', 'Verdana', 'Geneva', 'Lucid', 'Arial', 'Helvetica', 'Avant Garde', sans-serif; text-anchor: start" x="145.901875" y="36.496875" transform="rotate(-0 145.901875 36.496875)">Collapse</text>
    </g>
    <g id="PathCollection_2">
     <g>
      <use xlink:href="#m8ce63d613f" x="211.149063" y="34.134375" style="fill: #1f77b4; stroke: #1f77b4"/>
     </g>
    </g>
    <g id="text_19">
     <text style="font: 9px 'DejaVu Sans', 'Bitstream Vera Sans', 'Computer Modern Sans Serif', 'Lucida Grande', 'Verdana', 'Geneva', 'Lucid', 'Arial', 'Helvetica', 'Avant Garde', sans-serif; text-anchor: start" x="227.349063" y="36.496875" transform="rotate(-0 227.349063 36.496875)">Volatility alarms</text>
    </g>
   </g>
  </g>
 </g>
 <defs>
  <clipPath id="pe44c1a7822">
   <rect x="49.732656" y="21.558281" width="496.96" height="178.12"/>
  </clipPath>
 </defs>
</svg>
