<?xml version="1.0" encoding="utf-8" standalone="no"?>
<!DOCTYPE svg PUBLIC "-//W3C//DTD SVG 1.1//EN"
  "http://www.w3.org/Graphics/SVG/1.1/DTD/svg11.dtd">
<svg xmlns:xlink="http://www.w3.org/1999/xlink" width="553.456719pt" height="236.156094pt" viewBox="0 0 553.456719 236.156094" xmlns="http://www.w3.org/2000/svg" version="1.1">
 <metadata>
  <rdf:RDF xmlns:dc="http://purl.org/dc/elements/1.1/" xmlns:cc="http://creativecommons.org/ns#" xmlns:rdf="http://www.w3.org/1999/02/22-rdf-syntax-ns#">
   <cc:Work>
    <dc:type rdf:resource="http://purl.org/dc/dcmitype/StillImage"/>
    <dc:date>2026-07-21T15:45:24.656048</dc:date>
    <dc:format>image/svg+xml</dc:format>
    <dc:creator>
     <cc:Agent>
      <dc:title>Matplotlib v3.9.2, https://matplotlib.org/</dc:title>
     </cc:Agent>
    </dc:creator>
   </cc:Work>
  </rdf:RDF>
 </metadata>
 <defs>
  <style type="text/css">*{stroke-linejoin: round; stroke-linecap: butt}</style>
 </defs>
 <g id="figure_1">
  <g id="patch_1">
   <path d="M 0 236.156094 
L 553.456719 236.156094 
L 553.456719 0 
L 0 0 
z
" style="fill: #ffffff"/>
  </g>
  <g id="axes_1">
   <g id="patch_2">
    <path d="M 43.626719 200.68 
L 546.256719 200.68 
L 546.256719 7.2 
L 43.626719 7.2 
z
" style="fill: #ffffff"/>
   </g>
   <g id="PolyCollection_1">
    <defs>
     <path id="m75ef19793f" d="M 322.678156 -220.161548 
L 322.678156 -44.270639 
L 323.250042 -44.270639 
L 323.821927 -44.270639 
L 324.393812 -44.270639 
L 324.965698 -44.270639 
L 325.537583 -44.270639 
L 326.109468 -44.270639 
L 326.681354 -44.270639 
L 327.253239 -44.270639 
L 327.825124 -44.270639 
L 328.397009 -44.270639 
L 328.968895 -44.270639 
L 329.54078 -44.270639 
L 330.112665 -44.270639 
L 330.684551 -44.270639 
L 331.256436 -44.270639 
L 331.828321 -44.270639 
L 332.400207 -44.270639 
L 332.972092 -44.270639 
L 333.543977 -44.270639 
L 334.115863 -44.270639 
L 334.687748 -44.270639 
L 335.259633 -44.270639 
L 335.831518 -44.270639 
L 336.403404 -44.270639 
L 336.975289 -44.270639 
L 337.547174 -44.270639 
L 338.11906 -44.270639 
L 338.690945 -44.270639 
L 339.26283 -44.270639 
L 339.834716 -44.270639 
L 340.406601 -44.270639 
L 340.978486 -44.270639 
L 341.550372 -44.270639 
L 342.122257 -44.270639 
L 342.694142 -44.270639 
L 343.266028 -44.270639 
L 343.837913 -44.270639 
L 344.409798 -44.270639 
L 344.981683 -44.270639 
L 345.553569 -44.270639 
L 346.125454 -44.270639 
L 346.697339 -44.270639 
L 347.269225 -44.270639 
L 347.84111 -44.270639 
L 348.412995 -44.270639 
L 348.984881 -44.270639 
L 349.556766 -44.270639 
L 350.128651 -44.270639 
L 350.700537 -44.270639 
L 351.272422 -44.270639 
L 351.844307 -44.270639 
L 352.416193 -44.270639 
L 352.988078 -44.270639 
L 353.559963 -44.270639 
L 354.131848 -44.270639 
L 354.703734 -44.270639 
L 355.275619 -44.270639 
L 355.847504 -44.270639 
L 356.41939 -44.270639 
L 356.991275 -44.270639 
L 357.56316 -44.270639 
L 358.135046 -44.270639 
L 358.706931 -44.270639 
L 359.278816 -44.270639 
L 359.850702 -44.270639 
L 360.422587 -44.270639 
L 360.994472 -44.270639 
L 361.566358 -44.270639 
L 362.138243 -44.270639 
L 362.710128 -44.270639 
L 363.282013 -44.270639 
L 363.853899 -44.270639 
L 364.425784 -44.270639 
L 364.997669 -44.270639 
L 365.569555 -44.270639 
L 366.14144 -44.270639 
L 366.713325 -44.270639 
L 367.285211 -44.270639 
L 367.857096 -44.270639 
L 368.428981 -44.270639 
L 369.000867 -44.270639 
L 369.572752 -44.270639 
L 370.144637 -44.270639 
L 370.716522 -44.270639 
L 371.288408 -44.270639 
L 371.860293 -44.270639 
L 372.432178 -44.270639 
L 373.004064 -44.270639 
L 373.575949 -44.270639 
L 374.147834 -44.270639 
L 374.71972 -44.270639 
L 375.291605 -44.270639 
L 375.86349 -44.270639 
L 376.435376 -44.270639 
L 377.007261 -44.270639 
L 377.579146 -44.270639 
L 378.151032 -44.270639 
L 378.722917 -44.270639 
L 379.294802 -44.270639 
L 379.866687 -44.270639 
L 380.438573 -44.270639 
L 381.010458 -44.270639 
L 381.582343 -44.270639 
L 382.154229 -44.270639 
L 382.726114 -44.270639 
L 383.297999 -44.270639 
L 383.869885 -44.270639 
L 384.44177 -44.270639 
L 385.013655 -44.270639 
L 385.585541 -44.270639 
L 386.157426 -44.270639 
L 386.729311 -44.270639 
L 387.301197 -44.270639 
L 387.873082 -44.270639 
L 388.444967 -44.270639 
L 389.016852 -44.270639 
L 389.588738 -44.270639 
L 390.160623 -44.270639 
L 390.732508 -44.270639 
L 391.304394 -44.270639 
L 391.876279 -44.270639 
L 392.448164 -44.270639 
L 393.02005 -44.270639 
L 393.591935 -44.270639 
L 394.16382 -44.270639 
L 394.735706 -44.270639 
L 395.307591 -44.270639 
L 395.879476 -44.270639 
L 396.451361 -44.270639 
L 397.023247 -44.270639 
L 397.595132 -44.270639 
L 398.167017 -44.270639 
L 398.738903 -44.270639 
L 399.310788 -44.270639 
L 399.882673 -44.270639 
L 400.454559 -44.270639 
L 401.026444 -44.270639 
L 401.598329 -44.270639 
L 402.170215 -44.270639 
L 402.7421 -44.270639 
L 403.313985 -44.270639 
L 403.885871 -44.270639 
L 404.457756 -44.270639 
L 405.029641 -44.270639 
L 405.601526 -44.270639 
L 406.173412 -44.270639 
L 406.745297 -44.270639 
L 407.317182 -44.270639 
L 407.889068 -44.270639 
L 408.460953 -44.270639 
L 409.032838 -44.270639 
L 409.604724 -44.270639 
L 410.176609 -44.270639 
L 410.748494 -44.270639 
L 411.32038 -44.270639 
L 411.892265 -44.270639 
L 412.46415 -44.270639 
L 413.036036 -44.270639 
L 413.607921 -44.270639 
L 414.179806 -44.270639 
L 414.751691 -44.270639 
L 415.323577 -44.270639 
L 415.895462 -44.270639 
L 416.467347 -44.270639 
L 417.039233 -44.270639 
L 417.611118 -44.270639 
L 418.183003 -44.270639 
L 418.754889 -44.270639 
L 419.326774 -44.270639 
L 419.898659 -44.270639 
L 420.470545 -44.270639 
L 421.04243 -44.270639 
L 421.614315 -44.270639 
L 422.1862 -44.270639 
L 422.758086 -44.270639 
L 423.329971 -44.270639 
L 423.901856 -44.270639 
L 424.473742 -44.270639 
L 425.045627 -44.270639 
L 425.617512 -44.270639 
L 426.189398 -44.270639 
L 426.761283 -44.270639 
L 427.333168 -44.270639 
L 427.905054 -44.270639 
L 428.476939 -44.270639 
L 429.048824 -44.270639 
L 429.62071 -44.270639 
L 429.62071 -220.161548 
L 429.62071 -220.161548 
L 429.048824 -220.161548 
L 428.476939 -220.161548 
L 427.905054 -220.161548 
L 427.333168 -220.161548 
L 426.761283 -220.161548 
L 426.189398 -220.161548 
L 425.617512 -220.161548 
L 425.045627 -220.161548 
L 424.473742 -220.161548 
L 423.901856 -220.161548 
L 423.329971 -220.161548 
L 422.758086 -220.161548 
L 422.1862 -220.161548 
L 421.614315 -220.161548 
L 421.04243 -220.161548 
L 420.470545 -220.161548 
L 419.898659 -220.161548 
L 419.326774 -220.161548 
L 418.754889 -220.161548 
L 418.183003 -220.161548 
L 417.611118 -220.161548 
L 417.039233 -220.161548 
L 416.467347 -220.161548 
L 415.895462 -220.161548 
L 415.323577 -220.161548 
L 414.751691 -220.161548 
L 414.179806 -220.161548 
L 413.607921 -220.161548 
L 413.036036 -220.161548 
L 412.46415 -220.161548 
L 411.892265 -220.161548 
L 411.32038 -220.161548 
L 410.748494 -220.161548 
L 410.176609 -220.161548 
L 409.604724 -220.161548 
L 409.032838 -220.161548 
L 408.460953 -220.161548 
L 407.889068 -220.161548 
L 407.317182 -220.161548 
L 406.745297 -220.161548 
L 406.173412 -220.161548 
L 405.601526 -220.161548 
L 405.029641 -220.161548 
L 404.457756 -220.161548 
L 403.885871 -220.161548 
L 403.313985 -220.161548 
L 402.7421 -220.161548 
L 402.170215 -220.161548 
L 401.598329 -220.161548 
L 401.026444 -220.161548 
L 400.454559 -220.161548 
L 399.882673 -220.161548 
L 399.310788 -220.161548 
L 398.738903 -220.161548 
L 398.167017 -220.161548 
L 397.595132 -220.161548 
L 397.023247 -220.161548 
L 396.451361 -220.161548 
L 395.879476 -220.161548 
L 395.307591 -220.161548 
L 394.735706 -220.161548 
L 394.16382 -220.161548 
L 393.591935 -220.161548 
L 393.02005 -220.161548 
L 392.448164 -220.161548 
L 391.876279 -220.161548 
L 391.304394 -220.161548 
L 390.732508 -220.161548 
L 390.160623 -220.161548 
L 389.588738 -220.161548 
L 389.016852 -220.161548 
L 388.444967 -220.161548 
L 387.873082 -220.161548 
L 387.301197 -220.161548 
L 386.729311 -220.161548 
L 386.157426 -220.161548 
L 385.585541 -220.161548 
L 385.013655 -220.161548 
L 384.44177 -220.161548 
L 383.869885 -220.161548 
L 383.297999 -220.161548 
L 382.726114 -220.161548 
L 382.154229 -220.161548 
L 381.582343 -220.161548 
L 381.010458 -220.161548 
L 380.438573 -220.161548 
L 379.866687 -220.161548 
L 379.294802 -220.161548 
L 378.722917 -220.161548 
L 378.151032 -220.161548 
L 377.579146 -220.161548 
L 377.007261 -220.161548 
L 376.435376 -220.161548 
L 375.86349 -220.161548 
L 375.291605 -220.161548 
L 374.71972 -220.161548 
L 374.147834 -220.161548 
L 373.575949 -220.161548 
L 373.004064 -220.161548 
L 372.432178 -220.161548 
L 371.860293 -220.161548 
L 371.288408 -220.161548 
L 370.716522 -220.161548 
L 370.144637 -220.161548 
L 369.572752 -220.161548 
L 369.000867 -220.161548 
L 368.428981 -220.161548 
L 367.857096 -220.161548 
L 367.285211 -220.161548 
L 366.713325 -220.161548 
L 366.14144 -220.161548 
L 365.569555 -220.161548 
L 364.997669 -220.161548 
L 364.425784 -220.161548 
L 363.853899 -220.161548 
L 363.282013 -220.161548 
L 362.710128 -220.161548 
L 362.138243 -220.161548 
L 361.566358 -220.161548 
L 360.994472 -220.161548 
L 360.422587 -220.161548 
L 359.850702 -220.161548 
L 359.278816 -220.161548 
L 358.706931 -220.161548 
L 358.135046 -220.161548 
L 357.56316 -220.161548 
L 356.991275 -220.161548 
L 356.41939 -220.161548 
L 355.847504 -220.161548 
L 355.275619 -220.161548 
L 354.703734 -220.161548 
L 354.131848 -220.161548 
L 353.559963 -220.161548 
L 352.988078 -220.161548 
L 352.416193 -220.161548 
L 351.844307 -220.161548 
L 351.272422 -220.161548 
L 350.700537 -220.161548 
L 350.128651 -220.161548 
L 349.556766 -220.161548 
L 348.984881 -220.161548 
L 348.412995 -220.161548 
L 347.84111 -220.161548 
L 347.269225 -220.161548 
L 346.697339 -220.161548 
L 346.125454 -220.161548 
L 345.553569 -220.161548 
L 344.981683 -220.161548 
L 344.409798 -220.161548 
L 343.837913 -220.161548 
L 343.266028 -220.161548 
L 342.694142 -220.161548 
L 342.122257 -220.161548 
L 341.550372 -220.161548 
L 340.978486 -220.161548 
L 340.406601 -220.161548 
L 339.834716 -220.161548 
L 339.26283 -220.161548 
L 338.690945 -220.161548 
L 338.11906 -220.161548 
L 337.547174 -220.161548 
L 336.975289 -220.161548 
L 336.403404 -220.161548 
L 335.831518 -220.161548 
L 335.259633 -220.161548 
L 334.687748 -220.161548 
L 334.115863 -220.161548 
L 333.543977 -220.161548 
L 332.972092 -220.161548 
L 332.400207 -220.161548 
L 331.828321 -220.161548 
L 331.256436 -220.161548 
L 330.684551 -220.161548 
L 330.112665 -220.161548 
L 329.54078 -220.161548 
L 328.968895 -220.161548 
L 328.397009 -220.161548 
L 327.825124 -220.161548 
L 327.253239 -220.161548 
L 326.681354 -220.161548 
L 326.109468 -220.161548 
L 325.537583 -220.161548 
L 324.965698 -220.161548 
L 324.393812 -220.161548 
L 323.821927 -220.161548 
L 323.250042 -220.161548 
L 322.678156 -220.161548 
z
" style="stroke: #fee08b; stroke-opacity: 0.22"/>
    </defs>
    <g clip-path="url(#p25859c162f)">
     <use xlink:href="#m75ef19793f" x="0" y="236.156094" style="fill: #fee08b; fill-opacity: 0.22; stroke: #fee08b; stroke-opacity: 0.22"/>
    </g>
   </g>
   <g id="PolyCollection_2">
    <defs>
     <path id="ma2a3988d1c" d="M 430.192595 -220.161548 
L 430.192595 -44.270639 
L 430.76448 -44.270639 
L 431.336365 -44.270639 
L 431.908251 -44.270639 
L 432.480136 -44.270639 
L 433.052021 -44.270639 
L 433.623907 -44.270639 
L 434.195792 -44.270639 
L 434.767677 -44.270639 
L 435.339563 -44.270639 
L 435.911448 -44.270639 
L 436.483333 -44.270639 
L 437.055219 -44.270639 
L 437.627104 -44.270639 
L 438.198989 -44.270639 
L 438.770875 -44.270639 
L 439.34276 -44.270639 
L 439.914645 -44.270639 
L 440.48653 -44.270639 
L 441.058416 -44.270639 
L 441.630301 -44.270639 
L 442.202186 -44.270639 
L 442.774072 -44.270639 
L 443.345957 -44.270639 
L 443.917842 -44.270639 
L 444.489728 -44.270639 
L 445.061613 -44.270639 
L 445.633498 -44.270639 
L 446.205384 -44.270639 
L 446.777269 -44.270639 
L 447.349154 -44.270639 
L 447.921039 -44.270639 
L 448.492925 -44.270639 
L 449.06481 -44.270639 
L 449.636695 -44.270639 
L 450.208581 -44.270639 
L 450.780466 -44.270639 
L 451.352351 -44.270639 
L 451.924237 -44.270639 
L 452.496122 -44.270639 
L 453.068007 -44.270639 
L 453.639893 -44.270639 
L 454.211778 -44.270639 
L 454.783663 -44.270639 
L 455.355549 -44.270639 
L 455.927434 -44.270639 
L 456.499319 -44.270639 
L 457.071204 -44.270639 
L 457.64309 -44.270639 
L 458.214975 -44.270639 
L 458.78686 -44.270639 
L 459.358746 -44.270639 
L 459.930631 -44.270639 
L 460.502516 -44.270639 
L 461.074402 -44.270639 
L 461.646287 -44.270639 
L 462.218172 -44.270639 
L 462.790058 -44.270639 
L 463.361943 -44.270639 
L 463.933828 -44.270639 
L 464.505714 -44.270639 
L 465.077599 -44.270639 
L 465.649484 -44.270639 
L 466.221369 -44.270639 
L 466.793255 -44.270639 
L 467.36514 -44.270639 
L 467.937025 -44.270639 
L 468.508911 -44.270639 
L 469.080796 -44.270639 
L 469.652681 -44.270639 
L 470.224567 -44.270639 
L 470.796452 -44.270639 
L 471.368337 -44.270639 
L 471.940223 -44.270639 
L 472.512108 -44.270639 
L 473.083993 -44.270639 
L 473.655878 -44.270639 
L 474.227764 -44.270639 
L 474.799649 -44.270639 
L 475.371534 -44.270639 
L 475.94342 -44.270639 
L 476.515305 -44.270639 
L 477.08719 -44.270639 
L 477.659076 -44.270639 
L 478.230961 -44.270639 
L 478.802846 -44.270639 
L 479.374732 -44.270639 
L 479.946617 -44.270639 
L 480.518502 -44.270639 
L 481.090388 -44.270639 
L 481.662273 -44.270639 
L 482.234158 -44.270639 
L 482.806043 -44.270639 
L 483.377929 -44.270639 
L 483.949814 -44.270639 
L 484.521699 -44.270639 
L 485.093585 -44.270639 
L 485.66547 -44.270639 
L 486.237355 -44.270639 
L 486.809241 -44.270639 
L 487.381126 -44.270639 
L 487.953011 -44.270639 
L 488.524897 -44.270639 
L 489.096782 -44.270639 
L 489.668667 -44.270639 
L 490.240553 -44.270639 
L 490.812438 -44.270639 
L 491.384323 -44.270639 
L 491.956208 -44.270639 
L 492.528094 -44.270639 
L 493.099979 -44.270639 
L 493.671864 -44.270639 
L 494.24375 -44.270639 
L 494.815635 -44.270639 
L 495.38752 -44.270639 
L 495.959406 -44.270639 
L 496.531291 -44.270639 
L 497.103176 -44.270639 
L 497.675062 -44.270639 
L 498.246947 -44.270639 
L 498.818832 -44.270639 
L 499.390717 -44.270639 
L 499.962603 -44.270639 
L 500.534488 -44.270639 
L 501.106373 -44.270639 
L 501.678259 -44.270639 
L 502.250144 -44.270639 
L 502.822029 -44.270639 
L 503.393915 -44.270639 
L 503.9658 -44.270639 
L 504.537685 -44.270639 
L 505.109571 -44.270639 
L 505.681456 -44.270639 
L 506.253341 -44.270639 
L 506.825227 -44.270639 
L 507.397112 -44.270639 
L 507.968997 -44.270639 
L 508.540882 -44.270639 
L 509.112768 -44.270639 
L 509.684653 -44.270639 
L 510.256538 -44.270639 
L 510.828424 -44.270639 
L 511.400309 -44.270639 
L 511.972194 -44.270639 
L 512.54408 -44.270639 
L 513.115965 -44.270639 
L 513.68785 -44.270639 
L 514.259736 -44.270639 
L 514.831621 -44.270639 
L 515.403506 -44.270639 
L 515.975392 -44.270639 
L 516.547277 -44.270639 
L 517.119162 -44.270639 
L 517.691047 -44.270639 
L 518.262933 -44.270639 
L 518.834818 -44.270639 
L 519.406703 -44.270639 
L 519.978589 -44.270639 
L 520.550474 -44.270639 
L 521.122359 -44.270639 
L 521.694245 -44.270639 
L 522.26613 -44.270639 
L 522.838015 -44.270639 
L 523.409901 -44.270639 
L 523.409901 -220.161548 
L 523.409901 -220.161548 
L 522.838015 -220.161548 
L 522.26613 -220.161548 
L 521.694245 -220.161548 
L 521.122359 -220.161548 
L 520.550474 -220.161548 
L 519.978589 -220.161548 
L 519.406703 -220.161548 
L 518.834818 -220.161548 
L 518.262933 -220.161548 
L 517.691047 -220.161548 
L 517.119162 -220.161548 
L 516.547277 -220.161548 
L 515.975392 -220.161548 
L 515.403506 -220.161548 
L 514.831621 -220.161548 
L 514.259736 -220.161548 
L 513.68785 -220.161548 
L 513.115965 -220.161548 
L 512.54408 -220.161548 
L 511.972194 -220.161548 
L 511.400309 -220.161548 
L 510.828424 -220.161548 
L 510.256538 -220.161548 
L 509.684653 -220.161548 
L 509.112768 -220.161548 
L 508.540882 -220.161548 
L 507.968997 -220.161548 
L 507.397112 -220.161548 
L 506.825227 -220.161548 
L 506.253341 -220.161548 
L 505.681456 -220.161548 
L 505.109571 -220.161548 
L 504.537685 -220.161548 
L 503.9658 -220.161548 
L 503.393915 -220.161548 
L 502.822029 -220.161548 
L 502.250144 -220.161548 
L 501.678259 -220.161548 
L 501.106373 -220.161548 
L 500.534488 -220.161548 
L 499.962603 -220.161548 
L 499.390717 -220.161548 
L 498.818832 -220.161548 
L 498.246947 -220.161548 
L 497.675062 -220.161548 
L 497.103176 -220.161548 
L 496.531291 -220.161548 
L 495.959406 -220.161548 
L 495.38752 -220.161548 
L 494.815635 -220.161548 
L 494.24375 -220.161548 
L 493.671864 -220.161548 
L 493.099979 -220.161548 
L 492.528094 -220.161548 
L 491.956208 -220.161548 
L 491.384323 -220.161548 
L 490.812438 -220.161548 
L 490.240553 -220.161548 
L 489.668667 -220.161548 
L 489.096782 -220.161548 
L 488.524897 -220.161548 
L 487.953011 -220.161548 
L 487.381126 -220.161548 
L 486.809241 -220.161548 
L 486.237355 -220.161548 
L 485.66547 -220.161548 
L 485.093585 -220.161548 
L 484.521699 -220.161548 
L 483.949814 -220.161548 
L 483.377929 -220.161548 
L 482.806043 -220.161548 
L 482.234158 -220.161548 
L 481.662273 -220.161548 
L 481.090388 -220.161548 
L 480.518502 -220.161548 
L 479.946617 -220.161548 
L 479.374732 -220.161548 
L 478.802846 -220.161548 
L 478.230961 -220.161548 
L 477.659076 -220.161548 
L 477.08719 -220.161548 
L 476.515305 -220.161548 
L 475.94342 -220.161548 
L 475.371534 -220.161548 
L 474.799649 -220.161548 
L 474.227764 -220.161548 
L 473.655878 -220.161548 
L 473.083993 -220.161548 
L 472.512108 -220.161548 
L 471.940223 -220.161548 
L 471.368337 -220.161548 
L 470.796452 -220.161548 
L 470.224567 -220.161548 
L 469.652681 -220.161548 
L 469.080796 -220.161548 
L 468.508911 -220.161548 
L 467.937025 -220.161548 
L 467.36514 -220.161548 
L 466.793255 -220.161548 
L 466.221369 -220.161548 
L 465.649484 -220.161548 
L 465.077599 -220.161548 
L 464.505714 -220.161548 
L 463.933828 -220.161548 
L 463.361943 -220.161548 
L 462.790058 -220.161548 
L 462.218172 -220.161548 
L 461.646287 -220.161548 
L 461.074402 -220.161548 
L 460.502516 -220.161548 
L 459.930631 -220.161548 
L 459.358746 -220.161548 
L 458.78686 -220.161548 
L 458.214975 -220.161548 
L 457.64309 -220.161548 
L 457.071204 -220.161548 
L 456.499319 -220.161548 
L 455.927434 -220.161548 
L 455.355549 -220.161548 
L 454.783663 -220.161548 
L 454.211778 -220.161548 
L 453.639893 -220.161548 
L 453.068007 -220.161548 
L 452.496122 -220.161548 
L 451.924237 -220.161548 
L 451.352351 -220.161548 
L 450.780466 -220.161548 
L 450.208581 -220.161548 
L 449.636695 -220.161548 
L 449.06481 -220.161548 
L 448.492925 -220.161548 
L 447.921039 -220.161548 
L 447.349154 -220.161548 
L 446.777269 -220.161548 
L 446.205384 -220.161548 
L 445.633498 -220.161548 
L 445.061613 -220.161548 
L 444.489728 -220.161548 
L 443.917842 -220.161548 
L 443.345957 -220.161548 
L 442.774072 -220.161548 
L 442.202186 -220.161548 
L 441.630301 -220.161548 
L 441.058416 -220.161548 
L 440.48653 -220.161548 
L 439.914645 -220.161548 
L 439.34276 -220.161548 
L 438.770875 -220.161548 
L 438.198989 -220.161548 
L 437.627104 -220.161548 
L 437.055219 -220.161548 
L 436.483333 -220.161548 
L 435.911448 -220.161548 
L 435.339563 -220.161548 
L 434.767677 -220.161548 
L 434.195792 -220.161548 
L 433.623907 -220.161548 
L 433.052021 -220.161548 
L 432.480136 -220.161548 
L 431.908251 -220.161548 
L 431.336365 -220.161548 
L 430.76448 -220.161548 
L 430.192595 -220.161548 
z
" style="stroke: #fdae61; stroke-opacity: 0.22"/>
    </defs>
    <g clip-path="url(#p25859c162f)">
     <use xlink:href="#ma2a3988d1c" x="0" y="236.156094" style="fill: #fdae61; fill-opacity: 0.22; stroke: #fdae61; stroke-opacity: 0.22"/>
    </g>
   </g>
   <g id="matplotlib.axis_1">
    <g id="xtick_1">
     <g id="line2d_1">
      <defs>
       <path id="m1929f952eb" d="M 0 0 
L 0 3.5 
" style="stroke: #000000; stroke-width: 0.8"/>
      </defs>
      <g>
       <use xlink:href="#m1929f952eb" x="66.473537" y="200.68" style="stroke: #000000; stroke-width: 0.8"/>
      </g>
     </g>
     <g id="text_1">
      <text style="font: 9px 'Times New Roman', 'Times', 'Nimbus Roman', 'DejaVu Serif', serif; text-anchor: middle" x="66.473537" y="213.929375" transform="rotate(-0 66.473537 213.929375)">0</text>
     </g>
    </g>
    <g id="xtick_2">
     <g id="line2d_2">
      <g>
       <use xlink:href="#m1929f952eb" x="123.662068" y="200.68" style="stroke: #000000; stroke-width: 0.8"/>
      </g>
     </g>
     <g id="text_2">
      <text style="font: 9px 'Times New Roman', 'Times', 'Nimbus Roman', 'DejaVu Serif', serif; text-anchor: middle" x="123.662068" y="213.929375" transform="rotate(-0 123.662068 213.929375)">100</text>
     </g>
    </g>
    <g id="xtick_3">
     <g id="line2d_3">
      <g>
       <use xlink:href="#m1929f952eb" x="180.850599" y="200.68" style="stroke: #000000; stroke-width: 0.8"/>
      </g>
     </g>
     <g id="text_3">
      <text style="font: 9px 'Times New Roman', 'Times', 'Nimbus Roman', 'DejaVu Serif', serif; text-anchor: middle" x="180.850599" y="213.929375" transform="rotate(-0 180.850599 213.929375)">200</text>
     </g>
    </g>
    <g id="xtick_4">
     <g id="line2d_4">
      <g>
       <use xlink:href="#m1929f952eb" x="238.03913" y="200.68" style="stroke: #000000; stroke-width: 0.8"/>
      </g>
     </g>
     <g id="text_4">
      <text style="font: 9px 'Times New Roman', 'Times', 'Nimbus Roman', 'DejaVu Serif', serif; text-anchor: middle" x="238.03913" y="213.929375" transform="rotate(-0 238.03913 213.929375)">300</text>
     </g>
    </g>
    <g id="xtick_5">
     <g id="line2d_5">
      <g>
       <use xlink:href="#m1929f952eb" x="295.227661" y="200.68" style="stroke: #000000; stroke-width: 0.8"/>
      </g>
     </g>
     <g id="text_5">
      <text style="font: 9px 'Times New Roman', 'Times', 'Nimbus Roman', 'DejaVu Serif', serif; text-anchor: middle" x="295.227661" y="213.929375" transform="rotate(-0 295.227661 213.929375)">400</text>
     </g>
    </g>
    <g id="xtick_6">
     <g id="line2d_6">
      <g>
       <use xlink:href="#m1929f952eb" x="352.416193" y="200.68" style="stroke: #000000; stroke-width: 0.8"/>
      </g>
     </g>
     <g id="text_6">
      <text style="font: 9px 'Times New Roman', 'Times', 'Nimbus Roman', 'DejaVu Serif', serif; text-anchor: middle" x="352.416193" y="213.929375" transform="rotate(-0 352.416193 213.929375)">500</text>
     </g>
    </g>
    <g id="xtick_7">
     <g id="line2d_7">
      <g>
       <use xlink:href="#m1929f952eb" x="409.604724" y="200.68" style="stroke: #000000; stroke-width: 0.8"/>
      </g>
     </g>
     <g id="text_7">
      <text style="font: 9px 'Times New Roman', 'Times', 'Nimbus Roman', 'DejaVu Serif', serif; text-anchor: middle" x="409.604724" y="213.929375" transform="rotate(-0 409.604724 213.929375)">600</text>
     </g>
    </g>
    <g id="xtick_8">
     <g id="line2d_8">
      <g>
       <use xlink:href="#m1929f952eb" x="466.793255" y="200.68" style="stroke: #000000; stroke-width: 0.8"/>
      </g>
     </g>
     <g id="text_8">
      <text style="font: 9px 'Times New Roman', 'Times', 'Nimbus Roman', 'DejaVu Serif', serif; text-anchor: middle" x="466.793255" y="213.929375" transform="rotate(-0 466.793255 213.929375)">700</text>
     </g>
    </g>
    <g id="xtick_9">
     <g id="line2d_9">
      <g>
       <use xlink:href="#m1929f952eb" x="523.981786" y="200.68" style="stroke: #000000; stroke-width: 0.8"/>
      </g>
     </g>
     <g id="text_9">
      <text style="font: 9px 'Times New Roman', 'Times', 'Nimbus Roman', 'DejaVu Serif', serif; text-anchor: middle" x="523.981786" y="213.929375" transform="rotate(-0 523.981786 213.929375)">800</text>
     </g>
    </g>
    <g id="text_10">
     <text style="font: 10px 'Times New Roman', 'Times', 'Nimbus Roman', 'DejaVu Serif', serif; text-anchor: middle" x="294.941719" y="226.798281" transform="rotate(-0 294.941719 226.798281)">Synthetic time step</text>
    </g>
   </g>
   <g id="matplotlib.axis_2">
    <g id="ytick_1">
     <g id="line2d_10">
      <path d="M 43.626719 171.327569 
L 546.256719 171.327569 
" clip-path="url(#p25859c162f)" style="fill: none; stroke: #b0b0b0; stroke-opacity: 0.18; stroke-width: 0.8; stroke-linecap: square"/>
     </g>
     <g id="line2d_11">
      <defs>
       <path id="mdf324f4005" d="M 0 0 
L -3.5 0 
" style="stroke: #000000; stroke-width: 0.8"/>
      </defs>
      <g>
       <use xlink:href="#mdf324f4005" x="43.626719" y="171.327569" style="stroke: #000000; stroke-width: 0.8"/>
      </g>
     </g>
     <g id="text_11">
      <text style="font: 9px 'Times New Roman', 'Times', 'Nimbus Roman', 'DejaVu Serif', serif; text-anchor: end" x="36.626719" y="174.452256" transform="rotate(-0 36.626719 174.452256)">−0.5</text>
     </g>
    </g>
    <g id="ytick_2">
     <g id="line2d_12">
      <path d="M 43.626719 128.76138 
L 546.256719 128.76138 
" clip-path="url(#p25859c162f)" style="fill: none; stroke: #b0b0b0; stroke-opacity: 0.18; stroke-width: 0.8; stroke-linecap: square"/>
     </g>
     <g id="line2d_13">
      <g>
       <use xlink:href="#mdf324f4005" x="43.626719" y="128.76138" style="stroke: #000000; stroke-width: 0.8"/>
      </g>
     </g>
     <g id="text_12">
      <text style="font: 9px 'Times New Roman', 'Times', 'Nimbus Roman', 'DejaVu Serif', serif; text-anchor: end" x="36.626719" y="131.886068" transform="rotate(-0 36.626719 131.886068)">0.0</text>
     </g>
    </g>
    <g id="ytick_3">
     <g id="line2d_14">
      <path d="M 43.626719 86.195192 
L 546.256719 86.195192 
" clip-path="url(#p25859c162f)" style="fill: none; stroke: #b0b0b0; stroke-opacity: 0.18; stroke-width: 0.8; stroke-linecap: square"/>
     </g>
     <g id="line2d_15">
      <g>
       <use xlink:href="#mdf324f4005" x="43.626719" y="86.195192" style="stroke: #000000; stroke-width: 0.8"/>
      </g>
     </g>
     <g id="text_13">
      <text style="font: 9px 'Times New Roman', 'Times', 'Nimbus Roman', 'DejaVu Serif', serif; text-anchor: end" x="36.626719" y="89.319879" transform="rotate(-0 36.626719 89.319879)">0.5</text>
     </g>
    </g>
    <g id="ytick_4">
     <g id="line2d_16">
      <path d="M 43.626719 43.629004 
L 546.256719 43.629004 
" clip-path="url(#p25859c162f)" style="fill: none; stroke: #b0b0b0; stroke-opacity: 0.18; stroke-width: 0.8; stroke-linecap: square"/>
     </g>
     <g id="line2d_17">
      <g>
       <use xlink:href="#mdf324f4005" x="43.626719" y="43.629004" style="stroke: #000000; stroke-width: 0.8"/>
      </g>
     </g>
     <g id="text_14">
      <text style="font: 9px 'Times New Roman', 'Times', 'Nimbus Roman', 'DejaVu Serif', serif; text-anchor: end" x="36.626719" y="46.753691" transform="rotate(-0 36.626719 46.753691)">1.0</text>
     </g>
    </g>
    <g id="text_15">
     <text style="font: 10px 'Times New Roman', 'Times', 'Nimbus Roman', 'DejaVu Serif', serif; text-anchor: middle" x="14.14375" y="103.94" transform="rotate(-90 14.14375 103.94)">Signal</text>
    </g>
   </g>
   <g id="line2d_18">
    <path d="M 66.473537 128.76138 
L 67.045422 130.51012 
L 67.617308 129.296501 
L 68.189193 125.85683 
L 68.761078 114.973164 
L 69.332963 119.71313 
L 69.904849 119.139731 
L 70.476734 123.103199 
L 71.048619 126.234493 
L 71.620505 124.087341 
L 72.19239 125.388094 
L 72.764275 129.97899 
L 73.336161 127.314684 
L 73.908046 133.689924 
L 74.479931 128.051076 
L 75.051817 128.230735 
L 75.623702 130.463141 
L 76.195587 139.508043 
L 76.767473 135.031194 
L 77.339358 128.825137 
L 77.911243 127.57482 
L 78.483128 131.944342 
L 79.055014 132.557235 
L 79.626899 137.773858 
L 80.198784 139.037103 
L 80.77067 133.996308 
L 81.342555 133.326601 
L 81.91444 138.581206 
L 82.486326 138.444036 
L 83.058211 142.935026 
L 83.630096 140.138064 
L 84.201982 140.866482 
L 84.773867 138.118223 
L 85.345752 132.605237 
L 85.917638 122.07567 
L 86.489523 131.955695 
L 87.061408 127.452389 
L 87.633293 133.95429 
L 88.205179 129.961554 
L 88.777064 138.48167 
L 89.348949 132.122193 
L 89.920835 131.987636 
L 90.49272 141.164646 
L 91.064605 138.321871 
L 91.636491 137.097853 
L 92.208376 141.131943 
L 92.780261 138.211499 
L 93.352147 138.215748 
L 93.924032 127.969572 
L 94.495917 143.7712 
L 95.067802 143.001714 
L 95.639688 142.650176 
L 96.211573 144.422721 
L 96.783458 138.928884 
L 97.355344 146.147626 
L 97.927229 145.837143 
L 98.499114 132.123222 
L 99.071 146.029015 
L 100.21477 137.010552 
L 100.786656 130.263116 
L 101.930426 126.264364 
L 102.502312 131.916167 
L 103.074197 134.866651 
L 103.646082 139.823495 
L 104.217967 138.21681 
L 104.789853 129.775644 
L 105.361738 128.310841 
L 105.933623 127.37048 
L 106.505509 121.012833 
L 107.077394 111.933435 
L 107.649279 114.279254 
L 108.221165 113.589237 
L 108.79305 125.273928 
L 109.364935 131.143073 
L 109.936821 133.320542 
L 111.080591 120.357403 
L 111.652477 121.08933 
L 112.224362 122.093247 
L 112.796247 121.78568 
L 113.368132 110.692984 
L 113.940018 112.916939 
L 114.511903 126.204502 
L 115.083788 126.944018 
L 115.655674 127.090692 
L 116.227559 137.914684 
L 116.799444 129.839943 
L 117.37133 125.545912 
L 117.943215 130.683391 
L 118.5151 130.80005 
L 119.086986 123.441444 
L 119.658871 121.330031 
L 120.230756 121.160012 
L 120.802641 140.708434 
L 121.374527 132.406676 
L 121.946412 128.910311 
L 123.090183 146.995527 
L 123.662068 146.536217 
L 124.233953 160.538575 
L 125.377724 140.068168 
L 125.949609 146.981715 
L 126.521495 137.155848 
L 127.09338 139.292096 
L 127.665265 144.674813 
L 128.237151 138.956839 
L 128.809036 120.517302 
L 129.380921 123.209943 
L 129.952806 123.814371 
L 130.524692 128.423416 
L 131.096577 134.687588 
L 132.240348 132.357532 
L 132.812233 151.557316 
L 133.956004 137.370584 
L 134.527889 134.266077 
L 135.099774 129.932255 
L 135.67166 129.293493 
L 136.243545 130.216005 
L 136.81543 138.204315 
L 137.387316 137.683619 
L 137.959201 133.133443 
L 138.531086 136.257242 
L 139.102971 136.708367 
L 139.674857 136.112266 
L 140.246742 133.526566 
L 140.818627 114.663561 
L 141.390513 126.530363 
L 141.962398 121.520727 
L 142.534283 127.703576 
L 143.106169 130.854402 
L 143.678054 138.222425 
L 144.249939 137.845117 
L 144.821825 136.83601 
L 145.39371 133.69709 
L 145.965595 124.842836 
L 146.53748 128.012643 
L 147.109366 121.97027 
L 147.681251 127.89761 
L 148.253136 130.525787 
L 148.825022 130.167087 
L 149.396907 129.279248 
L 149.968792 118.576453 
L 150.540678 119.823491 
L 151.112563 113.564632 
L 151.684448 116.996594 
L 152.256334 118.866953 
L 152.828219 109.423587 
L 153.400104 113.734876 
L 153.97199 129.950044 
L 154.543875 129.937647 
L 155.11576 128.74002 
L 155.687645 126.562773 
L 156.259531 126.07895 
L 156.831416 124.18315 
L 157.975187 133.818721 
L 158.547072 134.411666 
L 159.118957 140.313779 
L 159.690843 126.789747 
L 160.262728 132.624995 
L 160.834613 129.345316 
L 161.406499 124.042847 
L 161.978384 130.261372 
L 162.550269 129.144709 
L 163.122155 130.964073 
L 163.69404 131.532745 
L 164.265925 130.684143 
L 164.83781 125.340532 
L 165.409696 126.771562 
L 165.981581 124.360378 
L 166.553466 132.545819 
L 167.125352 137.829145 
L 167.697237 141.572054 
L 168.269122 141.452808 
L 168.841008 160.481311 
L 169.412893 148.787171 
L 169.984778 143.84264 
L 170.556664 143.98653 
L 171.128549 144.812277 
L 172.27232 125.821676 
L 172.844205 132.814522 
L 174.559861 133.970467 
L 175.131746 118.647897 
L 175.703631 115.079444 
L 176.275517 120.655436 
L 176.847402 135.859152 
L 177.419287 132.730445 
L 177.991173 135.364059 
L 178.563058 132.765618 
L 179.134943 115.791565 
L 179.706829 112.330814 
L 180.278714 127.413491 
L 180.850599 124.766793 
L 181.422484 120.350013 
L 181.99437 123.757749 
L 182.566255 121.8487 
L 183.13814 141.585267 
L 183.710026 145.513189 
L 184.281911 144.905193 
L 184.853796 136.975134 
L 185.425682 130.97353 
L 185.997567 127.507721 
L 186.569452 138.001033 
L 187.141338 142.799698 
L 187.713223 124.088596 
L 188.285108 126.448326 
L 188.856994 127.758943 
L 189.428879 130.161582 
L 190.000764 134.379144 
L 190.572649 128.654338 
L 191.144535 132.635828 
L 191.71642 142.345286 
L 192.860191 136.209349 
L 193.432076 120.051791 
L 194.003961 127.94151 
L 194.575847 133.819863 
L 195.147732 131.461702 
L 195.719617 132.654544 
L 196.291503 122.356613 
L 196.863388 123.361123 
L 197.435273 127.842162 
L 198.007159 123.023724 
L 198.579044 128.957112 
L 199.150929 126.282668 
L 199.722814 126.847564 
L 200.2947 117.973548 
L 200.866585 119.704044 
L 201.43847 130.299824 
L 202.010356 129.902686 
L 202.582241 113.245224 
L 203.154126 108.6165 
L 204.297897 118.209325 
L 204.869782 143.490766 
L 205.441668 141.811428 
L 206.013553 138.822484 
L 206.585438 134.540957 
L 207.157323 124.58201 
L 207.729209 123.113316 
L 208.301094 119.808336 
L 208.872979 123.511204 
L 209.444865 124.725874 
L 210.01675 118.499273 
L 210.588635 121.104748 
L 211.160521 120.706852 
L 211.732406 125.346998 
L 212.304291 126.470641 
L 212.876177 134.0826 
L 213.448062 135.406936 
L 214.019947 128.167311 
L 214.591833 125.344407 
L 215.163718 124.358879 
L 215.735603 128.159886 
L 216.307488 128.852492 
L 217.451259 122.205677 
L 218.023144 114.718758 
L 219.166915 123.800126 
L 219.7388 120.717891 
L 220.310686 124.304028 
L 220.882571 130.254098 
L 221.454456 132.240361 
L 222.026342 125.268209 
L 222.598227 132.026054 
L 223.170112 129.675944 
L 223.741998 126.571092 
L 224.313883 126.931838 
L 224.885768 123.143284 
L 225.457653 129.790868 
L 226.029539 120.409585 
L 226.601424 127.692501 
L 227.173309 155.786556 
L 227.745195 147.310762 
L 228.31708 133.450838 
L 228.888965 140.652951 
L 229.460851 134.302957 
L 230.032736 134.058967 
L 230.604621 142.501363 
L 231.176507 133.138019 
L 231.748392 130.091231 
L 232.320277 116.040207 
L 232.892162 126.588413 
L 233.464048 127.709204 
L 234.035933 135.59112 
L 234.607818 140.021814 
L 235.179704 138.046589 
L 235.751589 134.194328 
L 236.323474 137.123116 
L 236.89536 128.709933 
L 237.467245 135.953447 
L 238.03913 130.362795 
L 238.611016 126.612147 
L 239.182901 128.423732 
L 239.754786 132.894766 
L 240.326672 121.726168 
L 240.898557 131.409986 
L 241.470442 127.524572 
L 242.042327 128.334156 
L 242.614213 123.01162 
L 243.757983 129.744024 
L 244.329869 135.998096 
L 244.901754 131.364866 
L 245.473639 120.611162 
L 246.045525 123.093417 
L 246.61741 127.75782 
L 247.189295 131.420754 
L 247.761181 128.55428 
L 248.904951 113.016635 
L 249.476837 137.830658 
L 250.048722 147.895515 
L 250.620607 134.653966 
L 251.192492 126.885207 
L 251.764378 129.883574 
L 252.336263 120.846199 
L 252.908148 125.729017 
L 253.480034 112.668271 
L 254.623804 125.855649 
L 255.19569 126.077084 
L 255.767575 126.683751 
L 256.33946 127.72298 
L 256.911346 130.985027 
L 257.483231 136.269469 
L 258.055116 132.160379 
L 258.627001 127.078946 
L 259.198887 116.296493 
L 259.770772 112.480937 
L 260.342657 123.763145 
L 260.914543 124.366592 
L 261.486428 127.130941 
L 262.058313 127.738889 
L 262.630199 121.458066 
L 263.202084 128.090028 
L 263.773969 121.157983 
L 264.345855 122.337409 
L 264.91774 132.153071 
L 265.489625 124.380824 
L 266.061511 126.420119 
L 266.633396 116.215302 
L 267.205281 126.362257 
L 267.777166 120.820938 
L 268.349052 118.341605 
L 268.920937 122.640366 
L 269.492822 120.133717 
L 270.064708 121.482085 
L 270.636593 122.268963 
L 271.208478 129.320563 
L 271.780364 132.053334 
L 272.352249 140.671132 
L 272.924134 134.546069 
L 273.49602 126.010845 
L 274.067905 126.447091 
L 274.63979 122.309725 
L 275.211676 122.412184 
L 275.783561 121.955425 
L 276.355446 127.38826 
L 276.927331 129.23609 
L 277.499217 139.248495 
L 278.071102 141.077377 
L 278.642987 134.275425 
L 279.214873 138.631278 
L 280.930529 127.793362 
L 281.502414 128.975136 
L 282.074299 127.83106 
L 282.646185 129.99874 
L 283.21807 129.648671 
L 283.789955 101.729099 
L 284.36184 111.140891 
L 284.933726 115.568868 
L 285.505611 118.304474 
L 286.077496 118.705587 
L 286.649382 119.600764 
L 287.221267 120.158305 
L 287.793152 125.985264 
L 288.365038 115.777528 
L 288.936923 124.885638 
L 289.508808 117.844593 
L 290.080694 123.951109 
L 290.652579 127.83588 
L 291.224464 127.309351 
L 291.79635 147.633844 
L 292.368235 138.578058 
L 292.94012 136.800674 
L 293.512005 151.162784 
L 294.083891 144.45909 
L 294.655776 141.601042 
L 295.227661 134.545711 
L 295.799547 135.821519 
L 296.371432 124.90505 
L 296.943317 129.414228 
L 297.515203 132.386905 
L 298.087088 138.456418 
L 298.658973 127.971023 
L 299.230859 128.793577 
L 299.802744 122.534299 
L 300.374629 121.8816 
L 300.946515 119.615059 
L 301.5184 121.094268 
L 302.090285 124.292284 
L 302.66217 124.335385 
L 303.234056 122.610649 
L 303.805941 112.119245 
L 304.377826 103.843045 
L 304.949712 114.803336 
L 305.521597 114.07389 
L 306.093482 116.725816 
L 306.665368 122.966057 
L 307.237253 135.966116 
L 307.809138 133.481664 
L 308.381024 133.078176 
L 308.952909 134.285527 
L 309.524794 145.120637 
L 310.668565 134.769008 
L 311.24045 132.728037 
L 311.812335 123.639332 
L 312.384221 129.931677 
L 312.956106 109.838773 
L 314.099877 116.388945 
L 315.243647 129.357423 
L 315.815533 131.273134 
L 316.959303 120.122296 
L 317.531189 123.578937 
L 318.103074 129.314257 
L 318.674959 139.798568 
L 319.246844 141.619199 
L 319.81873 133.8506 
L 320.390615 133.018518 
L 320.9625 129.933091 
L 321.534386 130.500331 
L 322.106271 136.484136 
L 322.678156 129.019189 
L 323.250042 134.937697 
L 323.821927 149.156816 
L 324.965698 150.69043 
L 325.537583 139.484167 
L 326.109468 168.503992 
L 326.681354 141.194812 
L 327.253239 129.272609 
L 327.825124 129.74479 
L 328.397009 130.578866 
L 328.968895 136.28071 
L 329.54078 137.131012 
L 330.112665 134.389385 
L 330.684551 153.876789 
L 331.256436 148.29544 
L 332.400207 141.984908 
L 332.972092 131.915529 
L 333.543977 125.400694 
L 334.115863 128.600486 
L 334.687748 135.778822 
L 335.259633 137.830945 
L 335.831518 149.515507 
L 336.403404 149.637669 
L 336.975289 151.093037 
L 337.547174 168.936384 
L 338.11906 159.707837 
L 338.690945 168.040599 
L 339.26283 150.494316 
L 339.834716 147.487248 
L 340.406601 139.974249 
L 340.978486 142.313475 
L 341.550372 138.448044 
L 342.694142 132.884844 
L 343.266028 133.187889 
L 343.837913 123.956252 
L 344.409798 133.924843 
L 345.553569 143.340745 
L 346.125454 140.571183 
L 346.697339 143.485874 
L 347.269225 149.263042 
L 347.84111 149.191271 
L 348.412995 143.675313 
L 348.984881 149.054492 
L 349.556766 144.159589 
L 350.128651 147.134758 
L 350.700537 141.773252 
L 351.272422 141.96562 
L 351.844307 125.470168 
L 352.416193 136.520313 
L 352.988078 140.831967 
L 353.559963 122.768324 
L 354.131848 126.926636 
L 354.703734 121.846153 
L 355.275619 126.222744 
L 355.847504 136.384555 
L 356.41939 139.592777 
L 356.991275 139.359861 
L 357.56316 142.573583 
L 358.135046 138.203518 
L 358.706931 150.555555 
L 359.278816 145.664801 
L 359.850702 146.623985 
L 360.422587 138.384538 
L 360.994472 152.383684 
L 361.566358 144.766354 
L 362.138243 153.051267 
L 362.710128 178.919914 
L 363.282013 170.961941 
L 363.853899 186.356899 
L 364.425784 166.248762 
L 364.997669 154.168108 
L 365.569555 148.801274 
L 366.14144 136.701585 
L 366.713325 148.048072 
L 367.285211 142.992238 
L 367.857096 133.940351 
L 368.428981 136.145719 
L 369.000867 136.678386 
L 369.572752 136.048953 
L 370.144637 144.473116 
L 370.716522 126.345088 
L 371.288408 117.887515 
L 371.860293 131.903909 
L 372.432178 124.376812 
L 373.004064 127.613481 
L 373.575949 132.990696 
L 374.147834 125.693226 
L 374.71972 127.509689 
L 375.291605 132.919926 
L 375.86349 137.202524 
L 376.435376 122.214615 
L 377.007261 131.740178 
L 377.579146 130.129449 
L 378.151032 114.672076 
L 378.722917 130.266444 
L 379.294802 134.422426 
L 379.866687 143.055304 
L 380.438573 143.44471 
L 381.010458 143.015736 
L 381.582343 132.418769 
L 382.154229 115.570548 
L 382.726114 124.834374 
L 383.297999 122.788119 
L 383.869885 121.640878 
L 384.44177 133.785102 
L 385.013655 130.803466 
L 385.585541 142.634839 
L 386.157426 143.282423 
L 386.729311 135.964285 
L 387.301197 143.765265 
L 387.873082 138.804709 
L 388.444967 125.437345 
L 389.016852 120.993863 
L 389.588738 144.125043 
L 390.160623 137.332468 
L 390.732508 154.838517 
L 391.304394 132.531643 
L 391.876279 136.598403 
L 392.448164 137.005183 
L 393.02005 136.594833 
L 393.591935 135.33146 
L 394.16382 138.255867 
L 394.735706 135.540574 
L 395.307591 138.592495 
L 395.879476 136.166462 
L 396.451361 141.091285 
L 397.023247 132.407931 
L 398.167017 137.032899 
L 398.738903 143.961457 
L 399.310788 144.426882 
L 399.882673 137.93766 
L 400.454559 137.460463 
L 401.026444 146.660239 
L 401.598329 142.368108 
L 402.170215 132.419466 
L 402.7421 136.825685 
L 403.885871 119.784305 
L 404.457756 118.535886 
L 405.029641 130.574723 
L 405.601526 130.218826 
L 406.173412 126.325994 
L 406.745297 132.139606 
L 407.317182 128.172246 
L 407.889068 130.842109 
L 408.460953 137.982709 
L 409.032838 138.810122 
L 409.604724 135.851273 
L 411.32038 163.044759 
L 411.892265 153.504196 
L 412.46415 166.565605 
L 413.036036 147.790806 
L 413.607921 146.119631 
L 414.179806 143.666131 
L 414.751691 137.71692 
L 415.323577 140.775902 
L 415.895462 135.968253 
L 416.467347 142.807671 
L 417.039233 135.53911 
L 417.611118 135.964449 
L 418.183003 152.893256 
L 418.754889 152.934543 
L 419.326774 149.319109 
L 419.898659 142.743037 
L 420.470545 166.100948 
L 421.04243 141.382242 
L 421.614315 141.212364 
L 422.1862 135.678237 
L 422.758086 128.988857 
L 423.329971 132.682771 
L 423.901856 142.20238 
L 424.473742 134.563534 
L 425.045627 134.764351 
L 425.617512 133.748839 
L 426.189398 133.484407 
L 426.761283 127.367593 
L 427.333168 138.772718 
L 427.905054 143.418339 
L 428.476939 127.777597 
L 429.048824 138.652194 
L 429.62071 135.055035 
L 430.192595 146.632323 
L 430.76448 140.858769 
L 431.336365 152.126986 
L 431.908251 144.935524 
L 432.480136 126.783764 
L 433.052021 120.163239 
L 433.623907 123.522911 
L 434.195792 102.682726 
L 434.767677 111.540423 
L 435.339563 107.088125 
L 435.911448 116.65396 
L 436.483333 118.149965 
L 437.055219 121.226173 
L 437.627104 148.216722 
L 438.198989 150.675593 
L 438.770875 144.911406 
L 439.34276 150.547755 
L 439.914645 157.666823 
L 440.48653 176.152487 
L 441.058416 161.907124 
L 441.630301 138.651136 
L 442.774072 121.894801 
L 443.917842 111.40207 
L 444.489728 128.205893 
L 445.061613 92.059342 
L 445.633498 105.404979 
L 446.205384 103.405402 
L 446.777269 125.389215 
L 447.349154 124.900109 
L 447.921039 128.076676 
L 448.492925 132.82896 
L 449.06481 110.511141 
L 449.636695 95.172449 
L 450.208581 135.037691 
L 450.780466 87.2513 
L 451.352351 99.159133 
L 451.924237 94.424435 
L 452.496122 75.55741 
L 453.068007 72.87419 
L 453.639893 96.397093 
L 454.783663 119.455715 
L 455.355549 118.669682 
L 455.927434 132.667594 
L 456.499319 64.344671 
L 457.071204 56.259974 
L 457.64309 96.560537 
L 458.214975 119.32216 
L 458.78686 116.772724 
L 459.358746 134.261667 
L 459.930631 156.749745 
L 460.502516 148.861287 
L 461.074402 169.878141 
L 461.646287 172.129887 
L 462.218172 146.824878 
L 462.790058 146.774233 
L 463.361943 130.853373 
L 463.933828 100.213888 
L 464.505714 104.064307 
L 465.649484 136.447207 
L 466.793255 152.21694 
L 467.36514 169.185137 
L 467.937025 191.885455 
L 468.508911 183.562864 
L 469.080796 165.189588 
L 469.652681 156.892755 
L 470.224567 133.377764 
L 470.796452 99.687694 
L 471.368337 118.843965 
L 471.940223 117.517261 
L 472.512108 88.286053 
L 473.083993 90.716098 
L 473.655878 116.98539 
L 474.227764 133.435764 
L 474.799649 145.667814 
L 475.371534 148.54895 
L 475.94342 147.559813 
L 476.515305 134.446509 
L 477.08719 184.694435 
L 477.659076 152.168598 
L 478.230961 160.758324 
L 479.374732 131.068207 
L 480.518502 165.797694 
L 481.090388 136.909897 
L 481.662273 159.113437 
L 482.234158 157.997588 
L 482.806043 166.708155 
L 483.377929 161.721686 
L 483.949814 142.625917 
L 484.521699 148.710635 
L 485.093585 152.343366 
L 485.66547 165.021128 
L 486.237355 139.580075 
L 486.809241 158.589365 
L 487.381126 128.992292 
L 487.953011 134.003133 
L 488.524897 123.759244 
L 489.096782 166.129807 
L 489.668667 137.875669 
L 490.240553 172.537001 
L 490.812438 177.074752 
L 491.384323 129.86952 
L 491.956208 114.569379 
L 492.528094 140.812668 
L 493.099979 134.910975 
L 493.671864 174.227468 
L 494.24375 159.636472 
L 494.815635 151.609322 
L 495.38752 172.410587 
L 495.959406 130.219684 
L 496.531291 136.598827 
L 497.103176 137.550501 
L 497.675062 148.342643 
L 498.246947 147.033464 
L 498.818832 156.645568 
L 499.390717 156.202589 
L 499.962603 164.644994 
L 500.534488 171.353717 
L 501.106373 152.750686 
L 501.678259 110.262175 
L 502.250144 111.557169 
L 502.822029 107.075899 
L 503.9658 152.867021 
L 504.537685 126.501211 
L 505.109571 139.140415 
L 505.681456 53.020915 
L 506.253341 114.206519 
L 506.825227 125.064501 
L 507.397112 156.955478 
L 508.540882 136.427821 
L 509.112768 96.404295 
L 509.684653 42.948213 
L 510.256538 110.266242 
L 510.828424 120.53827 
L 511.400309 183.17855 
L 511.972194 134.666545 
L 512.54408 150.5532 
L 513.115965 142.274938 
L 513.68785 124.934843 
L 514.259736 144.489592 
L 514.831621 144.693925 
L 515.403506 114.743756 
L 516.547277 131.879994 
L 517.119162 82.596414 
L 517.691047 84.923086 
L 518.262933 15.994545 
L 518.834818 64.107002 
L 519.406703 94.628328 
L 519.978589 156.693473 
L 520.550474 107.679617 
L 521.122359 100.981895 
L 521.694245 176.154671 
L 522.26613 126.099471 
L 522.838015 153.276455 
L 523.409901 130.492354 
L 523.409901 130.492354 
" clip-path="url(#p25859c162f)" style="fill: none; stroke: #222222; stroke-width: 0.8; stroke-linecap: square"/>
   </g>
   <g id="patch_3">
    <path d="M 43.626719 200.68 
L 43.626719 7.2 
" style="fill: none; stroke: #000000; stroke-width: 0.8; stroke-linejoin: miter; stroke-linecap: square"/>
   </g>
   <g id="patch_4">
    <path d="M 43.626719 200.68 
L 546.256719 200.68 
" style="fill: none; stroke: #000000; stroke-width: 0.8; stroke-linejoin: miter; stroke-linecap: square"/>
   </g>
   <g id="PathCollection_1">
    <defs>
     <path id="mbb9f25ea56" d="M 0 1.5 
C 0.397805 1.5 0.77937 1.341951 1.06066 1.06066 
C 1.341951 0.77937 1.5 0.397805 1.5 0 
C 1.5 -0.397805 1.341951 -0.77937 1.06066 -1.06066 
C 0.77937 -1.341951 0.397805 -1.5 0 -1.5 
C -0.397805 -1.5 -0.77937 -1.341951 -1.06066 -1.06066 
C -1.341951 -0.77937 -1.5 -0.397805 -1.5 0 
C -1.5 0.397805 -1.341951 0.77937 -1.06066 1.06066 
C -0.77937 1.341951 -0.397805 1.5 0 1.5 
z
" style="stroke: #1f77b4"/>
    </defs>
    <g clip-path="url(#p25859c162f)">
     <use xlink:href="#mbb9f25ea56" x="124.233953" y="160.538575" style="fill: #1f77b4; stroke: #1f77b4"/>
     <use xlink:href="#mbb9f25ea56" x="124.805839" y="149.346327" style="fill: #1f77b4; stroke: #1f77b4"/>
     <use xlink:href="#mbb9f25ea56" x="129.952806" y="123.814371" style="fill: #1f77b4; stroke: #1f77b4"/>
     <use xlink:href="#mbb9f25ea56" x="179.134943" y="115.791565" style="fill: #1f77b4; stroke: #1f77b4"/>
     <use xlink:href="#mbb9f25ea56" x="179.706829" y="112.330814" style="fill: #1f77b4; stroke: #1f77b4"/>
     <use xlink:href="#mbb9f25ea56" x="293.512005" y="151.162784" style="fill: #1f77b4; stroke: #1f77b4"/>
     <use xlink:href="#mbb9f25ea56" x="294.083891" y="144.45909" style="fill: #1f77b4; stroke: #1f77b4"/>
     <use xlink:href="#mbb9f25ea56" x="294.655776" y="141.601042" style="fill: #1f77b4; stroke: #1f77b4"/>
     <use xlink:href="#mbb9f25ea56" x="295.227661" y="134.545711" style="fill: #1f77b4; stroke: #1f77b4"/>
     <use xlink:href="#mbb9f25ea56" x="313.527991" y="113.137668" style="fill: #1f77b4; stroke: #1f77b4"/>
     <use xlink:href="#mbb9f25ea56" x="314.099877" y="116.388945" style="fill: #1f77b4; stroke: #1f77b4"/>
     <use xlink:href="#mbb9f25ea56" x="314.671762" y="122.388373" style="fill: #1f77b4; stroke: #1f77b4"/>
     <use xlink:href="#mbb9f25ea56" x="326.109468" y="168.503992" style="fill: #1f77b4; stroke: #1f77b4"/>
     <use xlink:href="#mbb9f25ea56" x="327.253239" y="129.272609" style="fill: #1f77b4; stroke: #1f77b4"/>
     <use xlink:href="#mbb9f25ea56" x="338.11906" y="159.707837" style="fill: #1f77b4; stroke: #1f77b4"/>
     <use xlink:href="#mbb9f25ea56" x="338.690945" y="168.040599" style="fill: #1f77b4; stroke: #1f77b4"/>
     <use xlink:href="#mbb9f25ea56" x="339.26283" y="150.494316" style="fill: #1f77b4; stroke: #1f77b4"/>
     <use xlink:href="#mbb9f25ea56" x="339.834716" y="147.487248" style="fill: #1f77b4; stroke: #1f77b4"/>
     <use xlink:href="#mbb9f25ea56" x="340.406601" y="139.974249" style="fill: #1f77b4; stroke: #1f77b4"/>
     <use xlink:href="#mbb9f25ea56" x="340.978486" y="142.313475" style="fill: #1f77b4; stroke: #1f77b4"/>
     <use xlink:href="#mbb9f25ea56" x="341.550372" y="138.448044" style="fill: #1f77b4; stroke: #1f77b4"/>
     <use xlink:href="#mbb9f25ea56" x="342.122257" y="135.60052" style="fill: #1f77b4; stroke: #1f77b4"/>
     <use xlink:href="#mbb9f25ea56" x="342.694142" y="132.884844" style="fill: #1f77b4; stroke: #1f77b4"/>
     <use xlink:href="#mbb9f25ea56" x="343.266028" y="133.187889" style="fill: #1f77b4; stroke: #1f77b4"/>
     <use xlink:href="#mbb9f25ea56" x="343.837913" y="123.956252" style="fill: #1f77b4; stroke: #1f77b4"/>
     <use xlink:href="#mbb9f25ea56" x="344.409798" y="133.924843" style="fill: #1f77b4; stroke: #1f77b4"/>
     <use xlink:href="#mbb9f25ea56" x="344.981683" y="138.964986" style="fill: #1f77b4; stroke: #1f77b4"/>
     <use xlink:href="#mbb9f25ea56" x="345.553569" y="143.340745" style="fill: #1f77b4; stroke: #1f77b4"/>
     <use xlink:href="#mbb9f25ea56" x="346.125454" y="140.571183" style="fill: #1f77b4; stroke: #1f77b4"/>
     <use xlink:href="#mbb9f25ea56" x="346.697339" y="143.485874" style="fill: #1f77b4; stroke: #1f77b4"/>
     <use xlink:href="#mbb9f25ea56" x="347.269225" y="149.263042" style="fill: #1f77b4; stroke: #1f77b4"/>
     <use xlink:href="#mbb9f25ea56" x="347.84111" y="149.191271" style="fill: #1f77b4; stroke: #1f77b4"/>
     <use xlink:href="#mbb9f25ea56" x="348.412995" y="143.675313" style="fill: #1f77b4; stroke: #1f77b4"/>
     <use xlink:href="#mbb9f25ea56" x="362.710128" y="178.919914" style="fill: #1f77b4; stroke: #1f77b4"/>
     <use xlink:href="#mbb9f25ea56" x="363.282013" y="170.961941" style="fill: #1f77b4; stroke: #1f77b4"/>
     <use xlink:href="#mbb9f25ea56" x="363.853899" y="186.356899" style="fill: #1f77b4; stroke: #1f77b4"/>
     <use xlink:href="#mbb9f25ea56" x="364.425784" y="166.248762" style="fill: #1f77b4; stroke: #1f77b4"/>
     <use xlink:href="#mbb9f25ea56" x="364.997669" y="154.168108" style="fill: #1f77b4; stroke: #1f77b4"/>
     <use xlink:href="#mbb9f25ea56" x="365.569555" y="148.801274" style="fill: #1f77b4; stroke: #1f77b4"/>
     <use xlink:href="#mbb9f25ea56" x="366.14144" y="136.701585" style="fill: #1f77b4; stroke: #1f77b4"/>
     <use xlink:href="#mbb9f25ea56" x="366.713325" y="148.048072" style="fill: #1f77b4; stroke: #1f77b4"/>
     <use xlink:href="#mbb9f25ea56" x="367.285211" y="142.992238" style="fill: #1f77b4; stroke: #1f77b4"/>
     <use xlink:href="#mbb9f25ea56" x="367.857096" y="133.940351" style="fill: #1f77b4; stroke: #1f77b4"/>
     <use xlink:href="#mbb9f25ea56" x="368.428981" y="136.145719" style="fill: #1f77b4; stroke: #1f77b4"/>
     <use xlink:href="#mbb9f25ea56" x="369.000867" y="136.678386" style="fill: #1f77b4; stroke: #1f77b4"/>
     <use xlink:href="#mbb9f25ea56" x="369.572752" y="136.048953" style="fill: #1f77b4; stroke: #1f77b4"/>
     <use xlink:href="#mbb9f25ea56" x="370.144637" y="144.473116" style="fill: #1f77b4; stroke: #1f77b4"/>
     <use xlink:href="#mbb9f25ea56" x="370.716522" y="126.345088" style="fill: #1f77b4; stroke: #1f77b4"/>
     <use xlink:href="#mbb9f25ea56" x="371.288408" y="117.887515" style="fill: #1f77b4; stroke: #1f77b4"/>
     <use xlink:href="#mbb9f25ea56" x="371.860293" y="131.903909" style="fill: #1f77b4; stroke: #1f77b4"/>
     <use xlink:href="#mbb9f25ea56" x="372.432178" y="124.376812" style="fill: #1f77b4; stroke: #1f77b4"/>
     <use xlink:href="#mbb9f25ea56" x="373.004064" y="127.613481" style="fill: #1f77b4; stroke: #1f77b4"/>
     <use xlink:href="#mbb9f25ea56" x="373.575949" y="132.990696" style="fill: #1f77b4; stroke: #1f77b4"/>
     <use xlink:href="#mbb9f25ea56" x="374.147834" y="125.693226" style="fill: #1f77b4; stroke: #1f77b4"/>
     <use xlink:href="#mbb9f25ea56" x="374.71972" y="127.509689" style="fill: #1f77b4; stroke: #1f77b4"/>
     <use xlink:href="#mbb9f25ea56" x="375.291605" y="132.919926" style="fill: #1f77b4; stroke: #1f77b4"/>
     <use xlink:href="#mbb9f25ea56" x="411.892265" y="153.504196" style="fill: #1f77b4; stroke: #1f77b4"/>
     <use xlink:href="#mbb9f25ea56" x="412.46415" y="166.565605" style="fill: #1f77b4; stroke: #1f77b4"/>
     <use xlink:href="#mbb9f25ea56" x="413.036036" y="147.790806" style="fill: #1f77b4; stroke: #1f77b4"/>
     <use xlink:href="#mbb9f25ea56" x="413.607921" y="146.119631" style="fill: #1f77b4; stroke: #1f77b4"/>
     <use xlink:href="#mbb9f25ea56" x="414.179806" y="143.666131" style="fill: #1f77b4; stroke: #1f77b4"/>
     <use xlink:href="#mbb9f25ea56" x="414.751691" y="137.71692" style="fill: #1f77b4; stroke: #1f77b4"/>
     <use xlink:href="#mbb9f25ea56" x="415.323577" y="140.775902" style="fill: #1f77b4; stroke: #1f77b4"/>
     <use xlink:href="#mbb9f25ea56" x="415.895462" y="135.968253" style="fill: #1f77b4; stroke: #1f77b4"/>
     <use xlink:href="#mbb9f25ea56" x="434.767677" y="111.540423" style="fill: #1f77b4; stroke: #1f77b4"/>
     <use xlink:href="#mbb9f25ea56" x="435.339563" y="107.088125" style="fill: #1f77b4; stroke: #1f77b4"/>
     <use xlink:href="#mbb9f25ea56" x="435.911448" y="116.65396" style="fill: #1f77b4; stroke: #1f77b4"/>
     <use xlink:href="#mbb9f25ea56" x="436.483333" y="118.149965" style="fill: #1f77b4; stroke: #1f77b4"/>
     <use xlink:href="#mbb9f25ea56" x="437.055219" y="121.226173" style="fill: #1f77b4; stroke: #1f77b4"/>
     <use xlink:href="#mbb9f25ea56" x="437.627104" y="148.216722" style="fill: #1f77b4; stroke: #1f77b4"/>
     <use xlink:href="#mbb9f25ea56" x="438.198989" y="150.675593" style="fill: #1f77b4; stroke: #1f77b4"/>
     <use xlink:href="#mbb9f25ea56" x="438.770875" y="144.911406" style="fill: #1f77b4; stroke: #1f77b4"/>
     <use xlink:href="#mbb9f25ea56" x="439.34276" y="150.547755" style="fill: #1f77b4; stroke: #1f77b4"/>
     <use xlink:href="#mbb9f25ea56" x="439.914645" y="157.666823" style="fill: #1f77b4; stroke: #1f77b4"/>
     <use xlink:href="#mbb9f25ea56" x="440.48653" y="176.152487" style="fill: #1f77b4; stroke: #1f77b4"/>
     <use xlink:href="#mbb9f25ea56" x="441.058416" y="161.907124" style="fill: #1f77b4; stroke: #1f77b4"/>
     <use xlink:href="#mbb9f25ea56" x="441.630301" y="138.651136" style="fill: #1f77b4; stroke: #1f77b4"/>
     <use xlink:href="#mbb9f25ea56" x="442.202186" y="129.595539" style="fill: #1f77b4; stroke: #1f77b4"/>
     <use xlink:href="#mbb9f25ea56" x="442.774072" y="121.894801" style="fill: #1f77b4; stroke: #1f77b4"/>
     <use xlink:href="#mbb9f25ea56" x="443.345957" y="116.64921" style="fill: #1f77b4; stroke: #1f77b4"/>
     <use xlink:href="#mbb9f25ea56" x="443.917842" y="111.40207" style="fill: #1f77b4; stroke: #1f77b4"/>
     <use xlink:href="#mbb9f25ea56" x="444.489728" y="128.205893" style="fill: #1f77b4; stroke: #1f77b4"/>
     <use xlink:href="#mbb9f25ea56" x="445.061613" y="92.059342" style="fill: #1f77b4; stroke: #1f77b4"/>
     <use xlink:href="#mbb9f25ea56" x="445.633498" y="105.404979" style="fill: #1f77b4; stroke: #1f77b4"/>
     <use xlink:href="#mbb9f25ea56" x="446.205384" y="103.405402" style="fill: #1f77b4; stroke: #1f77b4"/>
     <use xlink:href="#mbb9f25ea56" x="446.777269" y="125.389215" style="fill: #1f77b4; stroke: #1f77b4"/>
     <use xlink:href="#mbb9f25ea56" x="447.349154" y="124.900109" style="fill: #1f77b4; stroke: #1f77b4"/>
     <use xlink:href="#mbb9f25ea56" x="447.921039" y="128.076676" style="fill: #1f77b4; stroke: #1f77b4"/>
     <use xlink:href="#mbb9f25ea56" x="448.492925" y="132.82896" style="fill: #1f77b4; stroke: #1f77b4"/>
     <use xlink:href="#mbb9f25ea56" x="449.06481" y="110.511141" style="fill: #1f77b4; stroke: #1f77b4"/>
     <use xlink:href="#mbb9f25ea56" x="449.636695" y="95.172449" style="fill: #1f77b4; stroke: #1f77b4"/>
     <use xlink:href="#mbb9f25ea56" x="450.208581" y="135.037691" style="fill: #1f77b4; stroke: #1f77b4"/>
     <use xlink:href="#mbb9f25ea56" x="450.780466" y="87.2513" style="fill: #1f77b4; stroke: #1f77b4"/>
     <use xlink:href="#mbb9f25ea56" x="451.352351" y="99.159133" style="fill: #1f77b4; stroke: #1f77b4"/>
     <use xlink:href="#mbb9f25ea56" x="451.924237" y="94.424435" style="fill: #1f77b4; stroke: #1f77b4"/>
     <use xlink:href="#mbb9f25ea56" x="452.496122" y="75.55741" style="fill: #1f77b4; stroke: #1f77b4"/>
     <use xlink:href="#mbb9f25ea56" x="453.068007" y="72.87419" style="fill: #1f77b4; stroke: #1f77b4"/>
     <use xlink:href="#mbb9f25ea56" x="453.639893" y="96.397093" style="fill: #1f77b4; stroke: #1f77b4"/>
     <use xlink:href="#mbb9f25ea56" x="454.211778" y="108.118799" style="fill: #1f77b4; stroke: #1f77b4"/>
     <use xlink:href="#mbb9f25ea56" x="454.783663" y="119.455715" style="fill: #1f77b4; stroke: #1f77b4"/>
     <use xlink:href="#mbb9f25ea56" x="455.355549" y="118.669682" style="fill: #1f77b4; stroke: #1f77b4"/>
     <use xlink:href="#mbb9f25ea56" x="455.927434" y="132.667594" style="fill: #1f77b4; stroke: #1f77b4"/>
     <use xlink:href="#mbb9f25ea56" x="456.499319" y="64.344671" style="fill: #1f77b4; stroke: #1f77b4"/>
     <use xlink:href="#mbb9f25ea56" x="457.071204" y="56.259974" style="fill: #1f77b4; stroke: #1f77b4"/>
     <use xlink:href="#mbb9f25ea56" x="457.64309" y="96.560537" style="fill: #1f77b4; stroke: #1f77b4"/>
     <use xlink:href="#mbb9f25ea56" x="458.214975" y="119.32216" style="fill: #1f77b4; stroke: #1f77b4"/>
     <use xlink:href="#mbb9f25ea56" x="458.78686" y="116.772724" style="fill: #1f77b4; stroke: #1f77b4"/>
     <use xlink:href="#mbb9f25ea56" x="459.358746" y="134.261667" style="fill: #1f77b4; stroke: #1f77b4"/>
     <use xlink:href="#mbb9f25ea56" x="459.930631" y="156.749745" style="fill: #1f77b4; stroke: #1f77b4"/>
     <use xlink:href="#mbb9f25ea56" x="460.502516" y="148.861287" style="fill: #1f77b4; stroke: #1f77b4"/>
     <use xlink:href="#mbb9f25ea56" x="461.074402" y="169.878141" style="fill: #1f77b4; stroke: #1f77b4"/>
     <use xlink:href="#mbb9f25ea56" x="461.646287" y="172.129887" style="fill: #1f77b4; stroke: #1f77b4"/>
     <use xlink:href="#mbb9f25ea56" x="462.218172" y="146.824878" style="fill: #1f77b4; stroke: #1f77b4"/>
     <use xlink:href="#mbb9f25ea56" x="462.790058" y="146.774233" style="fill: #1f77b4; stroke: #1f77b4"/>
     <use xlink:href="#mbb9f25ea56" x="463.361943" y="130.853373" style="fill: #1f77b4; stroke: #1f77b4"/>
     <use xlink:href="#mbb9f25ea56" x="463.933828" y="100.213888" style="fill: #1f77b4; stroke: #1f77b4"/>
     <use xlink:href="#mbb9f25ea56" x="464.505714" y="104.064307" style="fill: #1f77b4; stroke: #1f77b4"/>
     <use xlink:href="#mbb9f25ea56" x="465.077599" y="120.207884" style="fill: #1f77b4; stroke: #1f77b4"/>
     <use xlink:href="#mbb9f25ea56" x="465.649484" y="136.447207" style="fill: #1f77b4; stroke: #1f77b4"/>
     <use xlink:href="#mbb9f25ea56" x="466.221369" y="143.733522" style="fill: #1f77b4; stroke: #1f77b4"/>
     <use xlink:href="#mbb9f25ea56" x="466.793255" y="152.21694" style="fill: #1f77b4; stroke: #1f77b4"/>
     <use xlink:href="#mbb9f25ea56" x="467.36514" y="169.185137" style="fill: #1f77b4; stroke: #1f77b4"/>
     <use xlink:href="#mbb9f25ea56" x="467.937025" y="191.885455" style="fill: #1f77b4; stroke: #1f77b4"/>
     <use xlink:href="#mbb9f25ea56" x="468.508911" y="183.562864" style="fill: #1f77b4; stroke: #1f77b4"/>
     <use xlink:href="#mbb9f25ea56" x="469.080796" y="165.189588" style="fill: #1f77b4; stroke: #1f77b4"/>
     <use xlink:href="#mbb9f25ea56" x="469.652681" y="156.892755" style="fill: #1f77b4; stroke: #1f77b4"/>
     <use xlink:href="#mbb9f25ea56" x="470.224567" y="133.377764" style="fill: #1f77b4; stroke: #1f77b4"/>
     <use xlink:href="#mbb9f25ea56" x="470.796452" y="99.687694" style="fill: #1f77b4; stroke: #1f77b4"/>
     <use xlink:href="#mbb9f25ea56" x="471.368337" y="118.843965" style="fill: #1f77b4; stroke: #1f77b4"/>
     <use xlink:href="#mbb9f25ea56" x="471.940223" y="117.517261" style="fill: #1f77b4; stroke: #1f77b4"/>
     <use xlink:href="#mbb9f25ea56" x="472.512108" y="88.286053" style="fill: #1f77b4; stroke: #1f77b4"/>
     <use xlink:href="#mbb9f25ea56" x="473.083993" y="90.716098" style="fill: #1f77b4; stroke: #1f77b4"/>
     <use xlink:href="#mbb9f25ea56" x="473.655878" y="116.98539" style="fill: #1f77b4; stroke: #1f77b4"/>
     <use xlink:href="#mbb9f25ea56" x="474.227764" y="133.435764" style="fill: #1f77b4; stroke: #1f77b4"/>
     <use xlink:href="#mbb9f25ea56" x="474.799649" y="145.667814" style="fill: #1f77b4; stroke: #1f77b4"/>
     <use xlink:href="#mbb9f25ea56" x="475.371534" y="148.54895" style="fill: #1f77b4; stroke: #1f77b4"/>
     <use xlink:href="#mbb9f25ea56" x="475.94342" y="147.559813" style="fill: #1f77b4; stroke: #1f77b4"/>
     <use xlink:href="#mbb9f25ea56" x="476.515305" y="134.446509" style="fill: #1f77b4; stroke: #1f77b4"/>
     <use xlink:href="#mbb9f25ea56" x="477.08719" y="184.694435" style="fill: #1f77b4; stroke: #1f77b4"/>
     <use xlink:href="#mbb9f25ea56" x="477.659076" y="152.168598" style="fill: #1f77b4; stroke: #1f77b4"/>
     <use xlink:href="#mbb9f25ea56" x="478.230961" y="160.758324" style="fill: #1f77b4; stroke: #1f77b4"/>
     <use xlink:href="#mbb9f25ea56" x="478.802846" y="146.035702" style="fill: #1f77b4; stroke: #1f77b4"/>
     <use xlink:href="#mbb9f25ea56" x="479.374732" y="131.068207" style="fill: #1f77b4; stroke: #1f77b4"/>
     <use xlink:href="#mbb9f25ea56" x="479.946617" y="147.136439" style="fill: #1f77b4; stroke: #1f77b4"/>
     <use xlink:href="#mbb9f25ea56" x="480.518502" y="165.797694" style="fill: #1f77b4; stroke: #1f77b4"/>
     <use xlink:href="#mbb9f25ea56" x="481.090388" y="136.909897" style="fill: #1f77b4; stroke: #1f77b4"/>
     <use xlink:href="#mbb9f25ea56" x="481.662273" y="159.113437" style="fill: #1f77b4; stroke: #1f77b4"/>
     <use xlink:href="#mbb9f25ea56" x="482.234158" y="157.997588" style="fill: #1f77b4; stroke: #1f77b4"/>
     <use xlink:href="#mbb9f25ea56" x="482.806043" y="166.708155" style="fill: #1f77b4; stroke: #1f77b4"/>
     <use xlink:href="#mbb9f25ea56" x="483.377929" y="161.721686" style="fill: #1f77b4; stroke: #1f77b4"/>
     <use xlink:href="#mbb9f25ea56" x="483.949814" y="142.625917" style="fill: #1f77b4; stroke: #1f77b4"/>
     <use xlink:href="#mbb9f25ea56" x="484.521699" y="148.710635" style="fill: #1f77b4; stroke: #1f77b4"/>
     <use xlink:href="#mbb9f25ea56" x="485.093585" y="152.343366" style="fill: #1f77b4; stroke: #1f77b4"/>
     <use xlink:href="#mbb9f25ea56" x="485.66547" y="165.021128" style="fill: #1f77b4; stroke: #1f77b4"/>
     <use xlink:href="#mbb9f25ea56" x="486.237355" y="139.580075" style="fill: #1f77b4; stroke: #1f77b4"/>
     <use xlink:href="#mbb9f25ea56" x="486.809241" y="158.589365" style="fill: #1f77b4; stroke: #1f77b4"/>
     <use xlink:href="#mbb9f25ea56" x="487.381126" y="128.992292" style="fill: #1f77b4; stroke: #1f77b4"/>
     <use xlink:href="#mbb9f25ea56" x="487.953011" y="134.003133" style="fill: #1f77b4; stroke: #1f77b4"/>
     <use xlink:href="#mbb9f25ea56" x="488.524897" y="123.759244" style="fill: #1f77b4; stroke: #1f77b4"/>
     <use xlink:href="#mbb9f25ea56" x="489.096782" y="166.129807" style="fill: #1f77b4; stroke: #1f77b4"/>
     <use xlink:href="#mbb9f25ea56" x="489.668667" y="137.875669" style="fill: #1f77b4; stroke: #1f77b4"/>
     <use xlink:href="#mbb9f25ea56" x="490.240553" y="172.537001" style="fill: #1f77b4; stroke: #1f77b4"/>
     <use xlink:href="#mbb9f25ea56" x="490.812438" y="177.074752" style="fill: #1f77b4; stroke: #1f77b4"/>
     <use xlink:href="#mbb9f25ea56" x="491.384323" y="129.86952" style="fill: #1f77b4; stroke: #1f77b4"/>
     <use xlink:href="#mbb9f25ea56" x="491.956208" y="114.569379" style="fill: #1f77b4; stroke: #1f77b4"/>
     <use xlink:href="#mbb9f25ea56" x="492.528094" y="140.812668" style="fill: #1f77b4; stroke: #1f77b4"/>
     <use xlink:href="#mbb9f25ea56" x="493.099979" y="134.910975" style="fill: #1f77b4; stroke: #1f77b4"/>
     <use xlink:href="#mbb9f25ea56" x="493.671864" y="174.227468" style="fill: #1f77b4; stroke: #1f77b4"/>
     <use xlink:href="#mbb9f25ea56" x="494.24375" y="159.636472" style="fill: #1f77b4; stroke: #1f77b4"/>
     <use xlink:href="#mbb9f25ea56" x="494.815635" y="151.609322" style="fill: #1f77b4; stroke: #1f77b4"/>
     <use xlink:href="#mbb9f25ea56" x="495.38752" y="172.410587" style="fill: #1f77b4; stroke: #1f77b4"/>
     <use xlink:href="#mbb9f25ea56" x="495.959406" y="130.219684" style="fill: #1f77b4; stroke: #1f77b4"/>
     <use xlink:href="#mbb9f25ea56" x="496.531291" y="136.598827" style="fill: #1f77b4; stroke: #1f77b4"/>
     <use xlink:href="#mbb9f25ea56" x="497.103176" y="137.550501" style="fill: #1f77b4; stroke: #1f77b4"/>
     <use xlink:href="#mbb9f25ea56" x="497.675062" y="148.342643" style="fill: #1f77b4; stroke: #1f77b4"/>
     <use xlink:href="#mbb9f25ea56" x="498.246947" y="147.033464" style="fill: #1f77b4; stroke: #1f77b4"/>
     <use xlink:href="#mbb9f25ea56" x="498.818832" y="156.645568" style="fill: #1f77b4; stroke: #1f77b4"/>
     <use xlink:href="#mbb9f25ea56" x="499.390717" y="156.202589" style="fill: #1f77b4; stroke: #1f77b4"/>
     <use xlink:href="#mbb9f25ea56" x="499.962603" y="164.644994" style="fill: #1f77b4; stroke: #1f77b4"/>
     <use xlink:href="#mbb9f25ea56" x="500.534488" y="171.353717" style="fill: #1f77b4; stroke: #1f77b4"/>
     <use xlink:href="#mbb9f25ea56" x="501.106373" y="152.750686" style="fill: #1f77b4; stroke: #1f77b4"/>
     <use xlink:href="#mbb9f25ea56" x="501.678259" y="110.262175" style="fill: #1f77b4; stroke: #1f77b4"/>
     <use xlink:href="#mbb9f25ea56" x="502.250144" y="111.557169" style="fill: #1f77b4; stroke: #1f77b4"/>
     <use xlink:href="#mbb9f25ea56" x="502.822029" y="107.075899" style="fill: #1f77b4; stroke: #1f77b4"/>
     <use xlink:href="#mbb9f25ea56" x="503.393915" y="128.425378" style="fill: #1f77b4; stroke: #1f77b4"/>
     <use xlink:href="#mbb9f25ea56" x="503.9658" y="152.867021" style="fill: #1f77b4; stroke: #1f77b4"/>
     <use xlink:href="#mbb9f25ea56" x="504.537685" y="126.501211" style="fill: #1f77b4; stroke: #1f77b4"/>
     <use xlink:href="#mbb9f25ea56" x="505.109571" y="139.140415" style="fill: #1f77b4; stroke: #1f77b4"/>
     <use xlink:href="#mbb9f25ea56" x="505.681456" y="53.020915" style="fill: #1f77b4; stroke: #1f77b4"/>
     <use xlink:href="#mbb9f25ea56" x="506.253341" y="114.206519" style="fill: #1f77b4; stroke: #1f77b4"/>
     <use xlink:href="#mbb9f25ea56" x="506.825227" y="125.064501" style="fill: #1f77b4; stroke: #1f77b4"/>
     <use xlink:href="#mbb9f25ea56" x="507.397112" y="156.955478" style="fill: #1f77b4; stroke: #1f77b4"/>
     <use xlink:href="#mbb9f25ea56" x="507.968997" y="146.755801" style="fill: #1f77b4; stroke: #1f77b4"/>
     <use xlink:href="#mbb9f25ea56" x="508.540882" y="136.427821" style="fill: #1f77b4; stroke: #1f77b4"/>
     <use xlink:href="#mbb9f25ea56" x="509.112768" y="96.404295" style="fill: #1f77b4; stroke: #1f77b4"/>
     <use xlink:href="#mbb9f25ea56" x="509.684653" y="42.948213" style="fill: #1f77b4; stroke: #1f77b4"/>
     <use xlink:href="#mbb9f25ea56" x="510.256538" y="110.266242" style="fill: #1f77b4; stroke: #1f77b4"/>
     <use xlink:href="#mbb9f25ea56" x="510.828424" y="120.53827" style="fill: #1f77b4; stroke: #1f77b4"/>
     <use xlink:href="#mbb9f25ea56" x="511.400309" y="183.17855" style="fill: #1f77b4; stroke: #1f77b4"/>
     <use xlink:href="#mbb9f25ea56" x="511.972194" y="134.666545" style="fill: #1f77b4; stroke: #1f77b4"/>
     <use xlink:href="#mbb9f25ea56" x="512.54408" y="150.5532" style="fill: #1f77b4; stroke: #1f77b4"/>
     <use xlink:href="#mbb9f25ea56" x="513.115965" y="142.274938" style="fill: #1f77b4; stroke: #1f77b4"/>
     <use xlink:href="#mbb9f25ea56" x="513.68785" y="124.934843" style="fill: #1f77b4; stroke: #1f77b4"/>
     <use xlink:href="#mbb9f25ea56" x="514.259736" y="144.489592" style="fill: #1f77b4; stroke: #1f77b4"/>
     <use xlink:href="#mbb9f25ea56" x="514.831621" y="144.693925" style="fill: #1f77b4; stroke: #1f77b4"/>
     <use xlink:href="#mbb9f25ea56" x="515.403506" y="114.743756" style="fill: #1f77b4; stroke: #1f77b4"/>
     <use xlink:href="#mbb9f25ea56" x="515.975392" y="123.527507" style="fill: #1f77b4; stroke: #1f77b4"/>
     <use xlink:href="#mbb9f25ea56" x="516.547277" y="131.879994" style="fill: #1f77b4; stroke: #1f77b4"/>
     <use xlink:href="#mbb9f25ea56" x="517.119162" y="82.596414" style="fill: #1f77b4; stroke: #1f77b4"/>
     <use xlink:href="#mbb9f25ea56" x="517.691047" y="84.923086" style="fill: #1f77b4; stroke: #1f77b4"/>
     <use xlink:href="#mbb9f25ea56" x="518.262933" y="15.994545" style="fill: #1f77b4; stroke: #1f77b4"/>
     <use xlink:href="#mbb9f25ea56" x="518.834818" y="64.107002" style="fill: #1f77b4; stroke: #1f77b4"/>
     <use xlink:href="#mbb9f25ea56" x="519.406703" y="94.628328" style="fill: #1f77b4; stroke: #1f77b4"/>
     <use xlink:href="#mbb9f25ea56" x="519.978589" y="156.693473" style="fill: #1f77b4; stroke: #1f77b4"/>
     <use xlink:href="#mbb9f25ea56" x="520.550474" y="107.679617" style="fill: #1f77b4; stroke: #1f77b4"/>
     <use xlink:href="#mbb9f25ea56" x="521.122359" y="100.981895" style="fill: #1f77b4; stroke: #1f77b4"/>
     <use xlink:href="#mbb9f25ea56" x="521.694245" y="176.154671" style="fill: #1f77b4; stroke: #1f77b4"/>
     <use xlink:href="#mbb9f25ea56" x="522.26613" y="126.099471" style="fill: #1f77b4; stroke: #1f77b4"/>
     <use xlink:href="#mbb9f25ea56" x="522.838015" y="153.276455" style="fill: #1f77b4; stroke: #1f77b4"/>
     <use xlink:href="#mbb9f25ea56" x="523.409901" y="130.492354" style="fill: #1f77b4; stroke: #1f77b4"/>
    </g>
   </g>
   <g id="legend_1">
    <g id="patch_5">
     <path d="M 51.726719 21.6 
L 69.726719 21.6 
L 69.726719 15.3 
L 51.726719 15.3 
z
" style="fill: #fee08b; fill-opacity: 0.22; stroke: #fee08b; stroke-opacity: 0.22; stroke-linejoin: miter"/>
    </g>
    <g id="text_16">
     <text style="font: 9px 'Times New Roman', 'Times', 'Nimbus Roman', 'DejaVu Serif', serif; text-anchor: start" x="76.926719" y="21.6" transform="rotate(-0 76.926719 21.6)">Drift</text>
    </g>
    <g id="patch_6">
     <path d="M 112.420469 21.6 
L 130.420469 21.6 
L 130.420469 15.3 
L 112.420469 15.3 
z
" style="fill: #fdae61; fill-opacity: 0.22; stroke: #fdae61; stroke-opacity: 0.22; stroke-linejoin: miter"/>
    </g>
    <g id="text_17">
     <text style="font: 9px 'Times New Roman', 'Times', 'Nimbus Roman', 'DejaVu Serif', serif; text-anchor: start" x="137.620469" y="21.6" transform="rotate(-0 137.620469 21.6)">Collapse</text>
    </g>
    <g id="PathCollection_2">
     <g>
      <use xlink:href="#mbb9f25ea56" x="196.117656" y="19.2375" style="fill: #1f77b4; stroke: #1f77b4"/>
     </g>
    </g>
    <g id="text_18">
     <text style="font: 9px 'Times New Roman', 'Times', 'Nimbus Roman', 'DejaVu Serif', serif; text-anchor: start" x="212.317656" y="21.6" transform="rotate(-0 212.317656 21.6)">Volatility alarms</text>
    </g>
   </g>
  </g>
 </g>
 <defs>
  <clipPath id="p25859c162f">
   <rect x="43.626719" y="7.2" width="502.63" height="193.48"/>
  </clipPath>
 </defs>
</svg>
